<svg width="15" height="9" viewBox="0 0 15 9" fill="none" xmlns="http://www.w3.org/2000/svg">
<path fill-rule="evenodd" clip-rule="evenodd" d="M8.01866 2.66805C7.38533 0.874716 5.51866 -0.331951 3.43199 0.0813828C1.90533 0.388049 0.665328 1.60805 0.345328 3.13472C-0.201339 5.71472 1.75866 8.00138 4.25199 8.00138C5.99199 8.00138 7.47199 6.88805 8.01866 5.33472H10.9187V6.66805C10.9187 7.40138 11.5187 8.00138 12.252 8.00138C12.9853 8.00138 13.5853 7.40138 13.5853 6.66805V5.33472C14.3187 5.33472 14.9187 4.73472 14.9187 4.00138C14.9187 3.26805 14.3187 2.66805 13.5853 2.66805H8.01866ZM4.25199 5.33472C3.51866 5.33472 2.91866 4.73472 2.91866 4.00138C2.91866 3.26805 3.51866 2.66805 4.25199 2.66805C4.98533 2.66805 5.58533 3.26805 5.58533 4.00138C5.58533 4.73472 4.98533 5.33472 4.25199 5.33472Z" fill="#A2A3B9"/>
</svg>
