<svg width="33" height="33" viewBox="0 0 33 33" fill="none" xmlns="http://www.w3.org/2000/svg">
<mask id="mask0_1401_9306" style="mask-type:luminance" maskUnits="userSpaceOnUse" x="0" y="0" width="33" height="33">
<path d="M0 -3.05176e-05H32.0621V32.0624H0V-3.05176e-05Z" fill="white"/>
</mask>
<g mask="url(#mask0_1401_9306)">
<path d="M16.2454 0.941988C15.8285 3.05141 14.0393 4.66649 11.8467 4.81985C12.2491 6.29484 12.0167 8.00812 11.0717 9.49345C10.0972 11.0254 8.58184 11.9733 7.02513 12.1982C7.0463 12.3813 7.05757 12.5674 7.05757 12.7561C7.05757 15.4253 4.89382 17.5891 2.22465 17.5891C1.80289 17.5891 1.39391 17.5348 1.00391 17.4333C1.71146 25.1108 8.16829 31.123 16.0303 31.123C24.3652 31.123 31.122 24.3661 31.122 16.0312C31.122 7.76802 24.481 1.05715 16.2454 0.941988Z" stroke="white" stroke-width="1.87865" stroke-miterlimit="10" stroke-linecap="round" stroke-linejoin="round"/>
<path d="M13.381 20.2081C13.381 21.4882 12.3432 22.526 11.063 22.526C9.78288 22.526 8.74512 21.4882 8.74512 20.2081C8.74512 18.9279 9.78288 17.8901 11.063 17.8901C12.3432 17.8901 13.381 18.9279 13.381 20.2081Z" stroke="white" stroke-width="1.87865" stroke-miterlimit="10" stroke-linecap="round" stroke-linejoin="round"/>
<path d="M21.3987 8.01534C21.3987 9.3959 20.2796 10.515 18.8991 10.515C17.5186 10.515 16.3994 9.3959 16.3994 8.01534C16.3994 6.63484 17.5186 5.51566 18.8991 5.51566C20.2796 5.51566 21.3987 6.63484 21.3987 8.01534Z" stroke="white" stroke-width="1.87865" stroke-miterlimit="10" stroke-linecap="round" stroke-linejoin="round"/>
<path d="M22.7546 22.6944C22.7546 23.9162 21.7642 24.9067 20.5424 24.9067C19.3205 24.9067 18.3301 23.9162 18.3301 22.6944C18.3301 21.4726 19.3205 20.4821 20.5424 20.4821C21.7642 20.4821 22.7546 21.4726 22.7546 22.6944Z" stroke="white" stroke-width="1.87865" stroke-miterlimit="10" stroke-linecap="round" stroke-linejoin="round"/>
<path d="M27.1623 14.7016C27.1623 15.9235 26.1719 16.9139 24.9501 16.9139C23.7282 16.9139 22.7378 15.9235 22.7378 14.7016C22.7378 13.4798 23.7282 12.4893 24.9501 12.4893C26.1719 12.4893 27.1623 13.4798 27.1623 14.7016Z" stroke="white" stroke-width="1.87865" stroke-miterlimit="10" stroke-linecap="round" stroke-linejoin="round"/>
<path d="M7.99328 3.25725C7.99328 4.53743 6.95552 5.5752 5.67529 5.5752C4.39518 5.5752 3.35742 4.53743 3.35742 3.25725C3.35742 1.97707 4.39518 0.939296 5.67529 0.939296C6.95552 0.939296 7.99328 1.97707 7.99328 3.25725Z" stroke="white" stroke-width="1.87865" stroke-miterlimit="10" stroke-linecap="round" stroke-linejoin="round"/>
</g>
</svg>
