<svg width="544" height="634" viewBox="0 0 544 634" fill="none" xmlns="http://www.w3.org/2000/svg">
<path opacity="0.2" fill-rule="evenodd" clip-rule="evenodd" d="M543.901 0.512045L544.142 0.977194V0.980347L544.111 0.991894L544.027 1.0381C543.953 1.0801 543.827 1.141 543.68 1.2208C541.342 2.39691 538.979 3.52346 536.593 4.59968C531.521 6.90127 523.846 10.1867 513.44 14.1284C492.619 22.0118 460.836 32.518 416.967 43.0232C329.25 64.0336 193.234 85.0367 0.00102539 85.0367V83.9867C193.16 83.9867 329.093 62.992 416.725 42.0016C460.542 31.5069 492.283 21.0132 513.062 13.1466C523.457 9.21336 531.112 5.93632 536.162 3.64418C538.682 2.49759 540.562 1.59774 541.801 0.985594C542.42 0.678995 542.893 0.443796 543.197 0.286296C543.344 0.207547 543.46 0.147699 543.544 0.107799L543.628 0.0636993L543.649 0.0531971V0.0500488L543.901 0.512045ZM543.901 42.5119L544.121 42.9865V42.9896L544.1 43.0001L544.006 43.0421C543.932 43.0789 543.806 43.1335 543.659 43.2059C543.344 43.3498 542.872 43.5629 542.252 43.8412C540.992 44.3977 539.113 45.2114 536.572 46.2457C531.5 48.3173 523.835 51.2751 513.419 54.822C492.598 61.9158 460.815 71.371 416.956 80.8252C329.25 99.7335 193.234 113.387 0.00102539 113.387V112.337C193.171 112.337 329.103 98.6898 416.736 79.7983C460.552 70.3525 492.304 60.9088 513.083 53.8277C523.478 50.2871 531.122 47.3387 536.173 45.2744C538.703 44.2433 540.583 43.4327 541.822 42.8804C542.441 42.6053 542.903 42.3943 543.218 42.2525L543.554 42.0919L543.649 42.052L543.67 42.0415V42.0394L543.901 42.5119ZM543.901 318.66C543.911 318.66 543.911 318.66 543.911 318.135C543.911 317.61 543.911 317.61 543.901 317.61H0.00942074V318.66H543.901ZM543.911 354.884C543.911 355.409 543.911 355.409 543.901 355.409H0.00942074V354.359H543.901C543.911 354.359 543.911 354.359 543.911 354.884ZM543.911 389.534C543.911 390.059 543.911 390.059 543.901 390.059H0.00942074V389.009H543.901C543.911 389.009 543.911 389.009 543.911 389.534ZM544.058 89.2125L543.901 88.7127L543.743 88.2129L543.733 88.214L543.712 88.2213L543.628 88.2476C543.049 88.4304 542.468 88.6061 541.885 88.7747C540.646 89.1432 538.766 89.6829 536.236 90.3717C531.185 91.7472 523.531 93.7149 513.136 96.0753C492.346 100.797 460.605 107.095 416.778 113.393C329.124 125.989 193.181 138.588 0.00205077 138.588V139.637C193.223 139.637 329.219 127.035 416.925 114.432C460.773 108.13 492.556 101.827 513.367 97.099C523.783 94.7355 531.448 92.7647 536.519 91.385C539.05 90.6941 540.929 90.1523 542.189 89.7816C542.809 89.5968 543.281 89.4551 543.586 89.3585L543.943 89.2493L544.027 89.222L544.048 89.2146L544.058 89.2125ZM543.901 130.712L544.006 131.225L543.985 131.231L543.89 131.249C543.817 131.266 543.701 131.29 543.544 131.322C543.229 131.386 542.767 131.48 542.137 131.604C540.887 131.851 539.008 132.212 536.477 132.672C531.406 133.592 523.741 134.904 513.335 136.48C492.525 139.632 460.752 143.833 416.904 148.034C329.208 156.435 193.213 164.836 0.00314025 164.836V163.786C193.192 163.786 329.145 155.386 416.799 146.989C460.626 142.79 492.378 138.591 513.178 135.442C523.573 133.868 531.227 132.556 536.288 131.639C538.808 131.18 540.688 130.82 541.937 130.574C542.557 130.451 543.019 130.357 543.334 130.294C543.481 130.262 543.596 130.238 543.68 130.222L543.764 130.203L543.785 130.198C543.796 130.198 543.796 130.198 543.901 130.712ZM543.964 170.082L543.901 169.561L543.838 169.039L543.722 169.053L543.376 169.094C543.071 169.129 542.609 169.182 541.979 169.252C540.74 169.389 538.861 169.593 536.33 169.851C531.269 170.368 523.615 171.105 513.209 171.991C492.409 173.762 460.657 176.125 416.82 178.486C329.156 183.211 193.192 187.936 0.0052551 187.936V188.986C193.213 188.986 329.198 184.26 416.883 179.535C460.72 177.173 492.493 174.809 513.304 173.037C523.709 172.151 531.374 171.412 536.435 170.895C538.966 170.637 540.845 170.434 542.095 170.295C542.725 170.226 543.187 170.172 543.502 170.137L543.848 170.096L543.964 170.082ZM543.901 207.36C543.953 207.884 543.943 207.884 543.943 207.884L543.827 207.894L543.481 207.923C543.176 207.949 542.704 207.987 542.084 208.037C540.835 208.137 538.955 208.284 536.425 208.471C531.353 208.844 523.688 209.377 513.293 210.018C492.483 211.298 460.72 213.004 416.872 214.71C329.187 218.123 193.213 221.535 0.0052551 221.535V220.485C193.202 220.485 329.166 217.073 416.83 213.661C460.668 211.955 492.43 210.249 513.22 208.97C523.625 208.329 531.28 207.797 536.341 207.423C538.694 207.25 541.046 207.068 543.397 206.876L543.743 206.848L543.859 206.837L543.901 207.36ZM543.911 246.737L543.901 246.212L543.89 245.687L543.428 245.7L542.021 245.734C540.782 245.766 538.903 245.81 536.372 245.868C531.311 245.983 523.646 246.147 513.241 246.343C492.441 246.737 460.678 247.262 416.841 247.787C329.177 248.837 193.202 249.887 0.00416563 249.887V250.937C193.202 250.937 329.177 249.887 416.862 248.837C460.699 248.312 492.461 247.787 513.262 247.393C523.667 247.197 531.332 247.032 536.393 246.918C538.924 246.86 540.803 246.815 542.053 246.784L543.449 246.749L543.911 246.737ZM543.901 284.012V282.962H0V284.012H543.901ZM544.132 632.133L543.911 632.607L543.68 633.08L543.67 633.078L543.649 633.068L543.565 633.027C543.491 632.992 543.376 632.938 543.218 632.868C542.914 632.725 542.452 632.514 541.832 632.239C540.583 631.686 538.714 630.877 536.183 629.845C531.133 627.781 523.478 624.832 513.094 621.292C492.304 614.211 460.563 604.767 416.746 595.321C329.114 576.429 193.171 557.533 0.00942074 557.533V556.483C193.244 556.483 329.25 575.386 416.967 594.294C460.825 603.748 492.609 613.204 513.43 620.298C523.846 623.845 531.511 626.802 536.582 628.873C539.123 629.909 541.003 630.722 542.252 631.279C542.882 631.556 543.355 631.77 543.659 631.914C543.817 631.986 543.932 632.041 544.016 632.078L544.1 632.12L544.121 632.131L544.132 632.133ZM543.911 586.407L544.069 585.907L544.058 585.904L544.037 585.898L543.953 585.87C543.869 585.846 543.754 585.809 543.596 585.761C543.128 585.616 542.659 585.475 542.189 585.338C540.94 584.968 539.06 584.425 536.519 583.735C531.458 582.356 523.783 580.385 513.377 578.02C492.556 573.292 460.783 566.99 416.935 560.688C329.229 548.084 193.234 535.483 0.0105102 535.483V536.533C193.192 536.533 329.135 549.132 416.788 561.727C460.605 568.025 492.357 574.323 513.146 579.045C523.541 581.405 531.196 583.372 536.246 584.748C538.777 585.436 540.656 585.977 541.895 586.344C542.515 586.529 542.987 586.67 543.292 586.764C543.449 586.812 543.554 586.847 543.638 586.872L543.722 586.899L543.743 586.905V586.907C543.743 586.907 543.754 586.907 543.911 586.407ZM544.016 543.894L543.911 544.409L543.796 544.921L543.775 544.916L543.691 544.898C543.11 544.779 542.529 544.662 541.948 544.546C540.698 544.301 538.819 543.94 536.299 543.482C531.238 542.564 523.583 541.251 513.188 539.677C492.388 536.529 460.636 532.331 416.809 528.132C329.156 519.733 193.192 511.334 0.012561 511.334V510.284C193.223 510.284 329.219 518.684 416.914 527.086C460.752 531.287 492.525 535.488 513.346 538.639C523.751 540.215 531.416 541.529 536.477 542.448C539.018 542.908 540.898 543.269 542.147 543.516C542.777 543.639 543.239 543.734 543.554 543.798L543.901 543.87L543.985 543.889L544.016 543.894ZM543.911 505.559C543.974 505.038 543.974 505.038 543.964 505.038L543.848 505.024L543.502 504.983C543.197 504.948 542.725 504.894 542.105 504.825C540.856 504.686 538.966 504.484 536.435 504.224C531.374 503.708 523.709 502.969 513.304 502.082C492.493 500.311 460.731 497.947 416.883 495.585C329.198 490.859 193.213 486.134 0.00942074 486.134V487.184C193.202 487.184 329.166 491.909 416.83 496.633C460.657 498.995 492.42 501.358 513.22 503.129C523.615 504.014 531.269 504.752 536.33 505.269C538.861 505.527 540.74 505.73 541.99 505.869L543.386 506.026L543.733 506.067L543.848 506.08L543.911 505.559ZM543.953 467.236L543.911 467.759L543.859 468.282L543.743 468.272L543.397 468.243C543.092 468.218 542.63 468.179 542 468.13C540.761 468.03 538.882 467.883 536.351 467.696C528.647 467.135 520.94 466.62 513.231 466.15C492.43 464.872 460.668 463.165 416.841 461.459C329.166 458.047 193.202 454.634 0.0105102 454.634V453.584C193.213 453.584 329.198 456.997 416.883 460.41C460.72 462.116 492.483 463.823 513.293 465.103C523.699 465.743 531.364 466.276 536.425 466.649C538.781 466.823 541.137 467.006 543.491 467.197C543.638 467.21 543.764 467.219 543.838 467.227L543.953 467.236ZM543.911 428.91L543.922 428.385L543.46 428.373L542.063 428.338C540.814 428.306 538.934 428.262 536.404 428.205C531.343 428.089 523.678 427.925 513.272 427.729C492.472 427.335 460.71 426.81 416.872 426.285C329.187 425.235 193.213 424.185 0.012561 424.185V425.235C193.213 425.235 329.187 426.285 416.851 427.335C460.689 427.86 492.451 428.384 513.251 428.778C522.845 428.958 532.439 429.161 542.032 429.387L543.428 429.423L543.89 429.434C543.901 429.434 543.901 429.434 543.911 428.91Z" fill="url(#paint0_linear_1423_9806)"/>
<defs>
<linearGradient id="paint0_linear_1423_9806" x1="719.765" y1="26.2999" x2="29.3925" y2="337.624" gradientUnits="userSpaceOnUse">
<stop stop-color="#3C5DC7"/>
<stop offset="0.12" stop-color="#5B21FF"/>
<stop offset="0.289" stop-color="#AA3FFF"/>
<stop offset="0.531" stop-color="#E54190"/>
<stop offset="0.64" stop-color="#F8522E"/>
<stop offset="0.921" stop-color="#0D0E12"/>
</linearGradient>
</defs>
</svg>
