<svg width="545" height="634" viewBox="0 0 545 634" fill="none" xmlns="http://www.w3.org/2000/svg">
<path opacity="0.2" fill-rule="evenodd" clip-rule="evenodd" d="M0.24465 0.461997C-0.0020994 0.926095 5.88227e-07 0.927145 5.88227e-07 0.927145L0.00525057 0.930298L0.0283505 0.941845L0.11655 0.988048C0.699899 1.28985 1.28617 1.58596 1.87529 1.87634C3.12794 2.49479 5.01478 3.39884 7.54947 4.54963C12.6209 6.85122 20.2933 10.1367 30.705 14.0783C51.5296 21.9617 83.313 32.468 127.171 42.9732C214.889 63.9836 350.904 84.9866 544.142 84.9866V83.9366C350.981 83.9366 215.049 62.942 127.416 41.9515C83.5996 31.4568 51.8582 20.9632 31.0767 13.0966C20.686 9.16331 13.0346 5.88628 7.98417 3.59414C6.08864 2.73782 4.20681 1.85152 2.33939 0.935545C1.75795 0.648698 1.17938 0.356087 0.603748 0.0577501L0.517648 0.0136505L0.496648 0.00314826L0.492449 0L0.24465 0.461997ZM0.24465 42.4618C0.0178505 42.9354 0.0199505 42.9364 0.0199505 42.9364L0.0262505 42.9396L0.0483004 42.9501L0.1365 42.9921L0.488249 43.1559C0.800097 43.2997 1.2684 43.5129 1.89524 43.7911C3.14789 44.3476 5.03368 45.1614 7.56837 46.1956C12.6398 48.2672 20.3111 51.2251 30.7229 54.772C51.5443 61.8657 83.3277 71.3209 127.184 80.7751C214.897 99.6834 350.91 113.337 544.142 113.337V112.287C350.978 112.287 215.04 98.6397 127.405 79.7482C83.587 70.3024 51.8446 60.8588 31.061 53.7776C20.6692 50.237 13.0178 47.2886 7.96527 45.2244C6.07198 44.4542 4.19018 43.6561 2.32049 42.8304C1.73918 42.5729 1.16026 42.31 0.583798 42.0418L0.499798 42.0019L0.478799 41.9914L0.473549 41.9893L0.24465 42.4618ZM0.24045 318.611C0.2394 318.611 0.23835 318.611 0.23835 318.086C0.23835 317.561 0.2394 317.561 0.24045 317.561H544.136V318.611H0.24045ZM0.23835 354.836C0.23835 355.361 0.2394 355.361 0.24045 355.361H544.136V354.31H0.24045C0.2394 354.31 0.23835 354.31 0.23835 354.836ZM0.23835 389.485C0.23835 390.01 0.2394 390.01 0.24045 390.01H544.136V388.96H0.24045C0.2394 388.96 0.23835 388.96 0.23835 389.485ZM0.0871502 89.1625C0.0850502 89.1625 0.0850502 89.1625 0.24465 88.6627C0.404249 88.1618 0.405299 88.1629 0.406349 88.1629L0.411599 88.1639L0.432599 88.1713L0.517648 88.1975L0.863097 88.3046C1.17075 88.4002 1.63484 88.5409 2.25644 88.7246C3.50069 89.0932 5.37808 89.6329 7.90542 90.3217C12.959 91.6972 20.6135 93.6649 31.0074 96.0252C51.7973 100.747 83.545 107.045 127.369 113.343C215.017 125.939 350.966 138.537 544.142 138.537V139.587C350.92 139.587 214.921 126.985 127.22 114.382C83.3686 108.08 51.5926 101.777 30.7754 97.049C20.3668 94.6854 12.6976 92.7146 7.62927 91.3349C5.73361 90.8207 3.84351 90.2862 1.95929 89.7316C1.33349 89.5468 0.865197 89.405 0.554398 89.3084L0.20265 89.1992L0.1155 89.1719L0.0924002 89.1646L0.0871502 89.1625ZM0.2436 130.661C0.1344 131.175 0.1344 131.175 0.1365 131.175L0.1638 131.181L0.252 131.199L0.601648 131.271C0.912447 131.336 1.37969 131.43 2.00549 131.554C3.25499 131.801 5.13868 132.162 7.67232 132.622C12.7385 133.542 20.4056 134.854 30.8121 136.43C51.6251 139.582 83.3959 143.783 127.243 147.984C214.936 156.385 350.927 164.786 544.141 164.786V163.736C350.957 163.736 214.999 155.336 127.343 146.938C83.5145 142.74 51.7616 138.541 30.9686 135.392C20.5726 133.818 12.916 132.506 7.85922 131.589C5.33188 131.13 3.45344 130.77 2.20814 130.524C1.58549 130.401 1.1214 130.307 0.812697 130.244L0.466199 130.172L0.381149 130.153L0.354899 130.148C0.353849 130.148 0.352799 130.148 0.2436 130.661ZM0.1806 170.032L0.2415 169.511C0.304499 168.989 0.304499 168.989 0.306599 168.989L0.418949 169.003L0.765447 169.044L2.16194 169.202C3.40934 169.339 5.28883 169.543 7.81722 169.801C12.8761 170.318 20.5348 171.055 30.9329 171.941C51.7301 173.712 83.4873 176.075 127.319 178.436C214.983 183.161 350.949 187.886 544.139 187.886V188.936C350.932 188.936 214.948 184.21 127.263 179.485C83.4211 177.123 51.6524 174.759 30.8436 172.987C23.127 172.337 15.4159 171.623 7.71117 170.845C5.35433 170.605 2.9988 170.352 0.644698 170.087L0.296099 170.046L0.1806 170.032ZM0.2415 207.31L0.1974 207.834L0.312899 207.843L0.661498 207.873L2.06219 207.987C3.31169 208.087 5.19328 208.234 7.72482 208.421C12.7879 208.794 20.4518 209.327 30.8562 209.968C51.6629 211.248 83.4295 212.954 127.27 214.66C214.952 218.073 350.934 221.485 544.139 221.485V220.435C350.946 220.435 214.978 217.023 127.311 213.611C83.4778 211.905 51.7196 210.199 30.9203 208.92C20.5211 208.279 12.8603 207.747 7.80252 207.373C5.4505 207.2 3.09919 207.018 0.748647 206.826L0.402149 206.798L0.287699 206.787L0.2415 207.31ZM0.231 246.687C0.22995 246.687 0.2289 246.687 0.24255 246.162L0.258299 245.637L0.720298 245.65L2.11889 245.684C3.36629 245.716 5.24683 245.76 7.77732 245.818C12.8383 245.933 20.4991 246.097 30.8993 246.293C51.7018 246.687 83.4621 247.212 127.298 247.737C214.971 248.787 350.943 249.837 544.14 249.837V250.887C350.94 250.887 214.963 249.837 127.286 248.787C83.4484 248.262 51.6839 247.737 30.8793 247.343C20.4781 247.147 12.8152 246.982 7.75317 246.868C5.22268 246.81 3.34109 246.765 2.09369 246.734L0.692998 246.699L0.231 246.687ZM0.24885 283.962C0.24675 283.962 0.24675 283.962 0.24675 283.437C0.24675 282.912 0.24675 282.912 0.24885 282.912H544.142V283.962H0.2478H0.24885ZM0.0136505 632.083C0.0115505 632.084 0.0115505 632.084 0.23835 632.557C0.465149 633.031 0.466199 633.031 0.467249 633.03L0.471449 633.028L0.492449 633.018L0.577498 632.977L0.921897 632.818C1.22955 632.675 1.69259 632.464 2.31419 632.189C3.55739 631.636 5.43268 630.827 7.95897 629.795C13.0105 627.731 20.6629 624.782 31.0547 621.242C51.8383 614.161 83.5807 604.717 127.398 595.271C215.034 576.379 350.971 557.483 544.136 557.483V556.432C350.902 556.432 214.891 575.336 127.178 594.244C83.3203 603.698 51.538 613.154 30.7155 620.248C20.3048 623.795 12.6325 626.752 7.56207 628.823C5.02633 629.859 3.14159 630.672 1.88894 631.229C1.41831 631.437 0.949295 631.649 0.481949 631.864C0.325499 631.936 0.20895 631.991 0.1302 632.028L0.0420004 632.07L0.0189005 632.081L0.0136505 632.083ZM0.2373 586.357C0.0766503 585.858 0.0777003 585.858 0.0798002 585.857L0.0850502 585.854L0.1071 585.848L0.1953 585.82L0.545998 585.711C0.857847 585.615 1.32509 585.473 1.95089 585.287C3.20249 584.918 5.08723 584.375 7.62087 583.685C12.6902 582.305 20.3584 580.335 30.767 577.97C51.5842 573.242 83.3613 566.94 127.211 560.638C214.913 548.034 350.913 535.433 544.135 535.433V536.483C350.958 536.483 215.009 549.081 127.361 561.677C83.5377 567.975 51.7889 574.273 31.0001 578.995C20.6051 581.355 12.9506 583.322 7.89702 584.698C5.36968 585.386 3.49334 585.927 2.24804 586.294C1.66748 586.467 1.08787 586.643 0.509248 586.822L0.425249 586.849L0.404249 586.855L0.397949 586.857L0.2373 586.357ZM0.1281 543.844C0.12705 543.845 0.126 543.845 0.23625 544.359C0.345449 544.872 0.345449 544.872 0.346499 544.871L0.372749 544.866L0.458849 544.848L0.805347 544.776C1.113 544.712 1.57814 544.619 2.20079 544.496C3.44609 544.25 5.32348 543.89 7.85187 543.432C12.9076 542.514 20.5642 541.201 30.9612 539.627C51.7543 536.479 83.5072 532.281 127.335 528.082C214.992 519.683 350.949 511.284 544.134 511.284V510.234C350.919 510.234 214.928 518.634 127.235 527.036C83.3885 531.237 51.6167 535.438 30.8037 538.589C20.3983 540.165 12.7312 541.479 7.66392 542.398C5.13133 542.858 3.24764 543.219 1.99709 543.466C1.41195 543.581 0.827441 543.699 0.2436 543.82L0.15645 543.839L0.1281 543.844ZM0.23835 505.509C0.17535 504.988 0.17535 504.988 0.17745 504.988L0.292949 504.974L0.641548 504.933C0.952347 504.898 1.41854 504.844 2.04329 504.775C3.29279 504.636 5.17543 504.434 7.70697 504.174C12.7711 503.658 20.4361 502.918 30.8405 502.032C51.6493 500.261 83.4169 497.897 127.259 495.535C214.945 490.809 350.928 486.084 544.136 486.084V487.134C350.945 487.134 214.98 491.859 127.316 496.583C83.4841 498.945 51.727 501.308 30.9297 503.079C23.2187 503.728 15.5132 504.441 7.81407 505.219C5.46211 505.458 3.11148 505.711 0.762297 505.976L0.415799 506.017L0.302399 506.03C0.301349 506.031 0.300299 506.031 0.23835 505.509ZM0.19425 467.186C0.1932 467.186 0.19215 467.186 0.2373 467.709C0.282449 468.233 0.283499 468.232 0.284549 468.232L0.397949 468.222L0.744447 468.193C1.0542 468.168 1.51934 468.129 2.14199 468.08C3.38939 467.98 5.26888 467.833 7.79832 467.646C12.8572 467.273 20.5169 466.74 30.9161 466.1C51.7154 464.822 83.4736 463.115 127.308 461.409C214.974 457.996 350.942 454.584 544.135 454.584V453.534C350.929 453.534 214.949 456.947 127.267 460.36C83.4253 462.066 51.6587 463.773 30.852 465.052C20.4487 465.693 12.7847 466.226 7.72062 466.599C5.3655 466.773 3.01104 466.956 0.657298 467.147C0.541043 467.156 0.424842 467.166 0.308699 467.177L0.1932 467.186H0.19425ZM0.23415 428.86L0.22155 428.335L0.683548 428.323L2.08424 428.288C3.33269 428.256 5.21323 428.212 7.74372 428.155C12.8068 428.039 20.4697 427.875 30.8709 427.679C51.6755 427.285 83.4389 426.76 127.277 426.235C214.954 425.185 350.931 424.135 544.132 424.135V425.185C350.935 425.185 214.962 426.235 127.29 427.285C83.4537 427.81 51.6923 428.334 30.8898 428.728C21.2959 428.908 11.7024 429.111 2.10944 429.337L0.710848 429.373L0.24885 429.384L0.23415 428.86Z" fill="url(#paint0_linear_1423_9807)"/>
<defs>
<linearGradient id="paint0_linear_1423_9807" x1="9.9676" y1="200.024" x2="543.89" y2="343.874" gradientUnits="userSpaceOnUse">
<stop stop-color="#0742FE"/>
<stop offset="0.12" stop-color="#5B21FF"/>
<stop offset="0.289" stop-color="#AA3FFF"/>
<stop offset="0.453" stop-color="#E54190"/>
<stop offset="0.64" stop-color="#F8522E"/>
<stop offset="0.827" stop-color="#0D0E12"/>
</linearGradient>
</defs>
</svg>
