<svg width="15" height="15" viewBox="0 0 15 15" fill="none" xmlns="http://www.w3.org/2000/svg">
<path fill-rule="evenodd" clip-rule="evenodd" d="M10.3263 4.67325C9.54634 3.89325 8.52634 3.49992 7.49967 3.49992L7.49967 7.49992L4.67301 10.3266C6.23301 11.8866 8.76634 11.8866 10.333 10.3266C11.893 8.76659 11.893 6.23325 10.3263 4.67325ZM7.49967 0.833252C3.81967 0.833252 0.833008 3.81992 0.833008 7.49992C0.833008 11.1799 3.81967 14.1666 7.49967 14.1666C11.1797 14.1666 14.1663 11.1799 14.1663 7.49992C14.1663 3.81992 11.1797 0.833252 7.49967 0.833252ZM7.49967 12.8333C4.55301 12.8333 2.16634 10.4466 2.16634 7.49992C2.16634 4.55325 4.55301 2.16659 7.49967 2.16659C10.4463 2.16659 12.833 4.55325 12.833 7.49992C12.833 10.4466 10.4463 12.8333 7.49967 12.8333Z" fill="white"/>
</svg>
