<svg width="1190" height="525" viewBox="0 0 1190 525" fill="none" xmlns="http://www.w3.org/2000/svg">
<path opacity="0.1" fill-rule="evenodd" clip-rule="evenodd" d="M763.859 0.209034H1190V1.20903H877.02L877.249 1.43514L827.793 51.5002H932.607L1006.12 1.38623L1006.68 2.2125L934.383 51.5002H1190V52.5002H932.916L608.761 273.48L864.646 434.629H1189.31V435.629H866.234L930.048 475.818H1189.31V476.818H931.636L1006.04 523.672L1005.83 524H1189.31V525H0.177246V524H183.223L182.979 523.588L262.069 476.818H0.177246V475.818H263.76L331.719 435.629H0.177246V434.629H333.41L606.059 273.394L263.358 52.5002H0.171875V51.5002H261.807L184.135 1.43541L184.281 1.20903H0.171875V0.209034H763.747L763.775 0.160889L763.859 0.209034ZM1004.68 524L929.76 476.818H825.344L875.308 523.672L875 524H1004.68ZM928.172 475.818L864.358 435.629H781.422L824.277 475.818H928.172ZM862.77 434.629L611.836 276.598L780.355 434.629H862.77ZM874.196 524L823.882 476.818H735.89L765.29 523.672L764.767 524H874.196ZM822.815 475.818L779.96 435.629H710.045L735.263 475.818H822.815ZM778.893 434.629L610.089 276.331L709.418 434.629H778.893ZM654.234 434.629L608.468 275.628L708.237 434.629H654.234ZM654.522 435.629H708.865L734.082 475.818H666.09L654.522 435.629ZM666.378 476.818H734.709L764.315 524H522.756L538.844 476.818H603.34L602.499 523.654L603.499 523.672L604.34 476.818H665.337L678.903 523.948L679.864 523.672L666.378 476.818ZM665.049 475.818L653.482 435.629H605.079L604.358 475.818H665.049ZM653.194 434.629L607.921 277.344L605.097 434.629H653.194ZM553.229 434.629L606.924 277.152L604.097 434.629H553.229ZM552.888 435.629H604.079L603.358 475.818H539.185L552.888 435.629ZM521.7 524L537.788 476.818H468.183L435.883 523.672L435.059 523.104L466.968 476.818H379.839L327.159 523.672L326.494 522.925L378.334 476.818H264.034L184.248 524H521.7ZM538.128 475.818L551.832 435.629H496.577L468.872 475.818H538.128ZM552.173 434.629L605.909 277.033L497.266 434.629H552.173ZM427.273 434.629L605.057 276.507L496.052 434.629H427.273ZM426.149 435.629H495.362L467.658 475.818H380.963L426.149 435.629ZM379.459 475.818L424.644 435.629H333.683L265.725 475.818H379.459ZM425.768 434.629L605.122 275.11L335.374 434.629H425.768ZM611.66 270.294L931.14 52.5002H826.805L611.66 270.294ZM764.327 1.20903H876.067L826.387 51.5002H735.507L764.327 1.20903ZM734.933 52.5002H825.4L609.941 270.611L734.933 52.5002ZM733.781 52.5002L609.091 270.083L667.775 52.5002H733.781ZM604.616 51.5002H667.008L680.511 1.43541L681.477 1.69581L668.044 51.5002H734.354L763.174 1.20903H436.921L468.494 51.5002H538.438L523.25 2.21227L524.206 1.91779L539.484 51.5002H603.616L602.852 1.43541L603.851 1.42014L604.616 51.5002ZM607.96 270.437L666.739 52.5002H604.632L607.96 270.437ZM603.631 52.5002L606.961 270.479L539.792 52.5002H603.631ZM538.746 52.5002H469.122L605.861 270.306L538.746 52.5002ZM605.744 272.002L605.449 271.531L379.248 52.5002H265.204L605.744 272.002ZM467.941 52.5002L603.22 267.981L380.686 52.5002H467.941ZM435.883 1.43541L467.314 51.5002H379.653L327.715 1.20903H436.243L435.883 1.43541ZM326.731 1.20903H185.63L263.653 51.5002H378.215L326.512 1.43541L326.731 1.20903Z" fill="white"/>
</svg>
