<svg  viewBox="0 0 1190 751" fill="none" xmlns="http://www.w3.org/2000/svg">
<g clip-path="url(#clip0_1905_16268)">
<line y1="49.5" x2="1190" y2="49.5" stroke="#190042"/>
<line y1="89.5" x2="1190" y2="89.5" stroke="#190042"/>
<line y1="129.5" x2="1190" y2="129.5" stroke="#190042"/>
<line y1="169.5" x2="1190" y2="169.5" stroke="#190042"/>
<line y1="209.5" x2="1190" y2="209.5" stroke="#190042"/>
<line y1="249.5" x2="1190" y2="249.5" stroke="#190042"/>
<line y1="289.5" x2="1190" y2="289.5" stroke="#190042"/>
<line y1="329.5" x2="1190" y2="329.5" stroke="#190042"/>
<line y1="369.5" x2="1190" y2="369.5" stroke="#190042"/>
<line y1="409.5" x2="1190" y2="409.5" stroke="#190042"/>
<line y1="449.5" x2="1190" y2="449.5" stroke="#190042"/>
<line y1="489.5" x2="1190" y2="489.5" stroke="#190042"/>
<line y1="529.5" x2="1190" y2="529.5" stroke="#190042"/>
<line y1="569.5" x2="1190" y2="569.5" stroke="#190042"/>
<line y1="609.5" x2="1190" y2="609.5" stroke="#190042"/>
<line y1="649.5" x2="1190" y2="649.5" stroke="#190042"/>
<line y1="689.5" x2="1190" y2="689.5" stroke="#190042"/>
<line x1="53.5" y1="2.18557e-08" x2="53.5" y2="681" stroke="#190042"/>
<line x1="92.5" y1="2.18557e-08" x2="92.5" y2="681" stroke="#190042"/>
<line x1="131.5" y1="2.18557e-08" x2="131.5" y2="681" stroke="#190042"/>
<line x1="170.5" y1="2.18557e-08" x2="170.5" y2="681" stroke="#190042"/>
<line x1="209.5" y1="2.18557e-08" x2="209.5" y2="681" stroke="#190042"/>
<line x1="248.5" y1="2.18557e-08" x2="248.5" y2="681" stroke="#190042"/>
<line x1="287.5" y1="2.18557e-08" x2="287.5" y2="681" stroke="#190042"/>
<line x1="326.5" y1="2.17917e-08" x2="326.5" y2="681" stroke="#190042"/>
<line x1="365.5" y1="2.17917e-08" x2="365.5" y2="681" stroke="#190042"/>
<line x1="404.5" y1="2.17917e-08" x2="404.5" y2="681" stroke="#190042"/>
<line x1="443.5" y1="2.17917e-08" x2="443.5" y2="681" stroke="#190042"/>
<line x1="482.5" y1="2.17917e-08" x2="482.5" y2="681" stroke="#190042"/>
<line x1="521.5" y1="2.17917e-08" x2="521.5" y2="681" stroke="#190042"/>
<line x1="560.5" y1="2.17917e-08" x2="560.5" y2="681" stroke="#190042"/>
<line x1="599.5" y1="2.17917e-08" x2="599.5" y2="681" stroke="#190042"/>
<line x1="638.5" y1="2.17917e-08" x2="638.5" y2="681" stroke="#190042"/>
<line x1="677.5" y1="2.17917e-08" x2="677.5" y2="681" stroke="#190042"/>
<line x1="716.5" y1="2.17917e-08" x2="716.5" y2="681" stroke="#190042"/>
<line x1="755.5" y1="2.17917e-08" x2="755.5" y2="681" stroke="#190042"/>
<line x1="794.5" y1="2.17917e-08" x2="794.5" y2="681" stroke="#190042"/>
<line x1="833.5" y1="2.17917e-08" x2="833.5" y2="681" stroke="#190042"/>
<line x1="872.5" y1="2.17917e-08" x2="872.5" y2="681" stroke="#190042"/>
<line x1="911.5" y1="2.17917e-08" x2="911.5" y2="681" stroke="#190042"/>
<line x1="950.5" y1="2.17917e-08" x2="950.5" y2="681" stroke="#190042"/>
<line x1="989.5" y1="2.17917e-08" x2="989.5" y2="681" stroke="#190042"/>
<line x1="1028.5" y1="2.17917e-08" x2="1028.5" y2="681" stroke="#190042"/>
<line x1="1067.5" y1="2.17917e-08" x2="1067.5" y2="681" stroke="#190042"/>
<line x1="1106.5" y1="2.17917e-08" x2="1106.5" y2="681" stroke="#190042"/>
<line x1="1145.5" y1="2.17917e-08" x2="1145.5" y2="681" stroke="#190042"/>
<rect width="1190" height="751" fill="url(#paint0_radial_1905_16268)"/>
<mask id="path-49-inside-1_1905_16268" fill="white">
<path d="M9 59C9 31.3858 31.3858 9 59 9H1131C1158.61 9 1181 31.3858 1181 59V714C1181 741.614 1158.61 764 1131 764H59C31.3858 764 9 741.614 9 714V59Z"/>
</mask>
<path d="M8 59C8 30.8335 30.8335 8 59 8H1131C1159.17 8 1182 30.8335 1182 59H1180C1180 31.938 1158.06 10 1131 10H59C31.938 10 10 31.938 10 59H8ZM1181 764H9H1181ZM59 764C30.8335 764 8 741.167 8 713V59C8 30.8335 30.8335 8 59 8V10C31.938 10 10 31.938 10 59V714C10 741.614 31.938 764 59 764ZM1131 8C1159.17 8 1182 30.8335 1182 59V713C1182 741.167 1159.17 764 1131 764C1158.06 764 1180 741.614 1180 714V59C1180 31.938 1158.06 10 1131 10V8Z" fill="url(#paint1_linear_1905_16268)" mask="url(#path-49-inside-1_1905_16268)"/>
</g>
<path d="M149.999 55C170.639 55 187.397 71.7577 187.397 92.3971C187.397 113.037 170.639 129.794 149.999 129.794C129.359 129.794 112.602 113.037 112.602 92.3971C112.602 71.7577 129.359 55 149.999 55Z" fill="url(#paint2_linear_1905_16268)"/>
<path d="M149.999 55C170.639 55 187.397 71.7577 187.397 92.3971C187.397 113.037 170.639 129.794 149.999 129.794C129.359 129.794 112.602 113.037 112.602 92.3971C112.602 71.7577 129.359 55 149.999 55Z" fill="url(#paint3_linear_1905_16268)" stroke="url(#paint4_linear_1905_16268)" stroke-opacity="0.2" stroke-width="0.973024"/>
<path d="M123 91.4979C123 99.1134 126.211 105.979 131.355 110.814C136.098 115.268 142.481 118 149.5 118" stroke="white" stroke-linecap="round" stroke-linejoin="round"/>
<path d="M149.723 65.001C145.969 64.9684 142.395 65.718 139.146 67.1032C136.185 68.3634 133.496 70.145 131.204 72.3341C128.564 74.8545 126.445 77.918 125.021 81.3401" stroke="white" stroke-linecap="round" stroke-linejoin="round"/>
<path d="M173.966 81.3076C172.613 78.0593 170.636 75.1478 168.185 72.7143C165.833 70.3732 163.041 68.4775 159.955 67.1467" stroke="white" stroke-linecap="round" stroke-linejoin="round"/>
<path d="M173.811 102.063C175.239 98.7766 176.027 95.1481 176 91.3295" stroke="white" stroke-linecap="round" stroke-linejoin="round"/>
<path d="M159.117 116.202C162.529 114.871 165.604 112.856 168.162 110.319" stroke="white" stroke-linecap="round" stroke-linejoin="round"/>
<path d="M150.036 89.9618C153.339 89.9618 156.017 87.2841 156.017 83.9809C156.017 80.6777 153.339 78 150.036 78C146.732 78 144.055 80.6777 144.055 83.9809C144.055 87.2841 146.732 89.9618 150.036 89.9618Z" stroke="white" stroke-miterlimit="10"/>
<path d="M140 104.607C140 101.095 141.835 98.0073 144.601 96.2592C146.125 95.2937 147.934 94.7346 149.873 94.7346C155.325 94.7346 159.745 99.1555 159.745 104.607" stroke="white" stroke-linecap="round" stroke-linejoin="round"/>
<path d="M446.599 55C467.239 55 483.996 71.7577 483.996 92.3971C483.996 113.037 467.239 129.794 446.599 129.794C425.959 129.794 409.201 113.037 409.201 92.3971C409.201 71.7577 425.959 55 446.599 55Z" fill="url(#paint5_linear_1905_16268)"/>
<path d="M446.599 55C467.239 55 483.996 71.7577 483.996 92.3971C483.996 113.037 467.239 129.794 446.599 129.794C425.959 129.794 409.201 113.037 409.201 92.3971C409.201 71.7577 425.959 55 446.599 55Z" fill="url(#paint6_linear_1905_16268)" stroke="url(#paint7_linear_1905_16268)" stroke-opacity="0.2" stroke-width="0.973024"/>
<path d="M419.998 91.4979C419.998 99.1134 423.209 105.979 428.353 110.814C433.096 115.268 439.479 118 446.498 118" stroke="white" stroke-linecap="round" stroke-linejoin="round"/>
<path d="M446.721 65.001C442.968 64.9684 439.393 65.718 436.144 67.1032C433.183 68.3634 430.494 70.145 428.202 72.3341C425.562 74.8545 423.443 77.918 422.02 81.3401" stroke="white" stroke-linecap="round" stroke-linejoin="round"/>
<path d="M470.964 81.3076C469.611 78.0593 467.634 75.1478 465.183 72.7143C462.831 70.3732 460.039 68.4775 456.953 67.1467" stroke="white" stroke-linecap="round" stroke-linejoin="round"/>
<path d="M470.809 102.063C472.237 98.7766 473.025 95.1481 472.998 91.3295" stroke="white" stroke-linecap="round" stroke-linejoin="round"/>
<path d="M456.115 116.202C459.527 114.871 462.602 112.856 465.16 110.319" stroke="white" stroke-linecap="round" stroke-linejoin="round"/>
<path d="M446.619 79.87V99.87" stroke="white" stroke-miterlimit="10" stroke-linecap="round"/>
<path d="M456.619 89.87H436.619" stroke="white" stroke-miterlimit="10" stroke-linecap="round"/>
<path d="M742.999 55C763.639 55 780.397 71.7577 780.397 92.3971C780.397 113.037 763.639 129.794 742.999 129.794C722.359 129.794 705.602 113.037 705.602 92.3971C705.602 71.7577 722.359 55 742.999 55Z" fill="url(#paint8_linear_1905_16268)"/>
<path d="M742.999 55C763.639 55 780.397 71.7577 780.397 92.3971C780.397 113.037 763.639 129.794 742.999 129.794C722.359 129.794 705.602 113.037 705.602 92.3971C705.602 71.7577 722.359 55 742.999 55Z" fill="url(#paint9_linear_1905_16268)" stroke="url(#paint10_linear_1905_16268)" stroke-opacity="0.2" stroke-width="0.973024"/>
<path d="M716.602 92.4979C716.602 100.113 719.812 106.979 724.957 111.814C729.699 116.268 736.083 119 743.102 119" stroke="white" stroke-linecap="round" stroke-linejoin="round"/>
<path d="M743.325 66.001C739.571 65.9684 735.996 66.718 732.748 68.1032C729.787 69.3634 727.098 71.145 724.805 73.3341C722.165 75.8545 720.046 78.918 718.623 82.3401" stroke="white" stroke-linecap="round" stroke-linejoin="round"/>
<path d="M767.567 82.3076C766.215 79.0593 764.237 76.1478 761.787 73.7143C759.435 71.3732 756.642 69.4775 753.557 68.1467" stroke="white" stroke-linecap="round" stroke-linejoin="round"/>
<path d="M767.412 103.063C768.841 99.7766 769.629 96.1481 769.601 92.3295" stroke="white" stroke-linecap="round" stroke-linejoin="round"/>
<path d="M752.719 117.202C756.13 115.871 759.205 113.856 761.764 111.319" stroke="white" stroke-linecap="round" stroke-linejoin="round"/>
<path opacity="0.963" fill-rule="evenodd" clip-rule="evenodd" d="M746.955 83.5332C750.633 83.2774 753.436 84.7032 755.363 87.8106C756.807 90.5839 756.807 93.3573 755.363 96.1309C753.608 99.0061 751.039 100.422 747.658 100.379C746.953 99.9875 746.826 99.4504 747.277 98.7676C747.385 98.6992 747.492 98.6309 747.6 98.5625C750.403 98.5084 752.484 97.2682 753.84 94.8418C755.072 91.8639 754.535 89.2565 752.229 87.0195C750.209 85.407 747.983 85.0359 745.549 85.9063C742.882 87.1495 741.505 89.2491 741.418 92.2051C741.196 92.7899 740.776 93.0144 740.158 92.8789C739.857 92.773 739.652 92.568 739.543 92.2637C739.555 88.5372 741.225 85.8517 744.553 84.207C745.333 83.8816 746.134 83.657 746.955 83.5332Z" fill="white"/>
<path opacity="0.962" fill-rule="evenodd" clip-rule="evenodd" d="M736.877 83.8261C737.229 83.8164 737.581 83.8262 737.932 83.8554C738.378 84.004 738.613 84.3165 738.635 84.7929C738.589 85.278 738.335 85.5905 737.873 85.7304C735.484 85.7604 733.638 86.7663 732.336 88.748C730.976 91.299 731.171 93.7208 732.922 96.0136C734.901 98.0928 737.255 98.6689 739.983 97.7422C741.816 96.9367 743.037 95.5794 743.645 93.6699C743.795 92.994 743.893 92.3103 743.938 91.6191C744.2 91.0928 744.62 90.9073 745.198 91.0625C745.461 91.1699 745.647 91.3554 745.754 91.6191C745.798 95.1165 744.285 97.6849 741.213 99.3242C737.972 100.694 734.984 100.284 732.248 98.0937C729.669 95.5867 728.917 92.6082 729.993 89.1582C731.28 86.0781 733.575 84.3008 736.877 83.8261Z" fill="white"/>
<g clip-path="url(#clip1_1905_16268)">
<rect width="197" height="32" transform="translate(645 139.794)" fill="#190042"/>
</g>
<rect x="682" y="181.794" width="122" height="39" rx="19.5" fill="white" fill-opacity="0.1"/>
9.788 784.32 199.984 783.993 200.376C783.676 200.768 783.517 201.291 783.517 201.944V205.794H782.383Z" fill="#86FFB6"/>
<path d="M1039.8 55C1060.44 55 1077.2 71.7577 1077.2 92.3971C1077.2 113.037 1060.44 129.794 1039.8 129.794C1019.16 129.794 1002.4 113.037 1002.4 92.3971C1002.4 71.7577 1019.16 55 1039.8 55Z" fill="url(#paint11_linear_1905_16268)"/>
<path d="M1039.8 55C1060.44 55 1077.2 71.7577 1077.2 92.3971C1077.2 113.037 1060.44 129.794 1039.8 129.794C1019.16 129.794 1002.4 113.037 1002.4 92.3971C1002.4 71.7577 1019.16 55 1039.8 55Z" fill="url(#paint12_linear_1905_16268)" stroke="url(#paint13_linear_1905_16268)" stroke-opacity="0.2" stroke-width="0.973024"/>
<path d="M1012.78 93.6279C1012.78 101.243 1015.99 108.109 1021.14 112.944C1025.88 117.398 1032.26 120.13 1039.28 120.13" stroke="white" stroke-linecap="round" stroke-linejoin="round"/>
<path d="M1039.5 67.131C1035.75 67.0984 1032.18 67.848 1028.93 69.2332C1025.97 70.4934 1023.28 72.275 1020.98 74.4641C1018.34 76.9845 1016.23 80.048 1014.8 83.4701" stroke="white" stroke-linecap="round" stroke-linejoin="round"/>
<path d="M1063.75 83.4376C1062.39 80.1893 1060.42 77.2778 1057.97 74.8444C1055.61 72.5032 1052.82 70.6075 1049.74 69.2767" stroke="white" stroke-linecap="round" stroke-linejoin="round"/>
<path d="M1063.59 104.193C1065.02 100.907 1065.81 97.2781 1065.78 93.4595" stroke="white" stroke-linecap="round" stroke-linejoin="round"/>
<path d="M1048.9 118.332C1052.31 117.001 1055.38 114.986 1057.94 112.449" stroke="white" stroke-linecap="round" stroke-linejoin="round"/>
<path d="M1040.44 90.9618C1043.74 90.9618 1046.42 88.2841 1046.42 84.9809C1046.42 81.6777 1043.74 79 1040.44 79C1037.13 79 1034.46 81.6777 1034.46 84.9809C1034.46 88.2841 1037.13 90.9618 1040.44 90.9618Z" stroke="white" stroke-miterlimit="10"/>
<path d="M1030.4 105.607C1030.4 102.095 1032.24 99.0073 1035 97.2592C1036.53 96.2937 1038.34 95.7346 1040.28 95.7346C1045.73 95.7346 1050.15 100.156 1050.15 105.607" stroke="white" stroke-linecap="round" stroke-linejoin="round"/>

<path d="M406.001 92H212.887" stroke="#7034F0" stroke-linecap="round"/>
<path d="M405 92L390 92" stroke="#7034F0" stroke-width="2" stroke-linecap="round"/>
<path d="M398 84L406 92L398 100" stroke="#7034F0" stroke-width="2" stroke-linecap="round" stroke-linejoin="round"/>
<rect opacity="0.4" width="40" height="40" rx="20" transform="matrix(-1 0 0 1 233 72)" fill="#7034F0"/>
<rect x="-1" y="1" width="38" height="38" rx="19" transform="matrix(-1 0 0 1 231 72)" stroke="#7034F0" stroke-width="2"/>
<circle cx="6" cy="6" r="4.5" transform="matrix(-1 0 0 1 219 86)" fill="white" stroke="#7034F0" stroke-width="3"/>
<path d="M701.783 92H508.783" stroke="#7034F0" stroke-linecap="round"/>
<path d="M700.783 92L685.783 92" stroke="#7034F0" stroke-width="2" stroke-linecap="round"/>
<path d="M693.783 84L701.783 92L693.783 100" stroke="#7034F0" stroke-width="2" stroke-linecap="round" stroke-linejoin="round"/>
<rect opacity="0.4" width="40" height="40" rx="20" transform="matrix(-1 0 0 1 528.783 72)" fill="#7034F0"/>
<rect x="-1" y="1" width="38" height="38" rx="19" transform="matrix(-1 0 0 1 526.783 72)" stroke="#7034F0" stroke-width="2"/>
<circle cx="6" cy="6" r="4.5" transform="matrix(-1 0 0 1 514.783 86)" fill="white" stroke="#7034F0" stroke-width="3"/>
<path d="M149.999 536C170.639 536 187.397 552.758 187.397 573.397C187.397 594.037 170.639 610.794 149.999 610.794C129.359 610.794 112.602 594.037 112.602 573.397C112.602 552.758 129.359 536 149.999 536Z" fill="url(#paint14_linear_1905_16268)"/>
<path d="M149.999 536C170.639 536 187.397 552.758 187.397 573.397C187.397 594.037 170.639 610.794 149.999 610.794C129.359 610.794 112.602 594.037 112.602 573.397C112.602 552.758 129.359 536 149.999 536Z" fill="url(#paint15_linear_1905_16268)" stroke="url(#paint16_linear_1905_16268)" stroke-opacity="0.2" stroke-width="0.973024"/>
<path d="M123 572.498C123 580.113 126.211 586.979 131.355 591.814C136.098 596.268 142.481 599 149.5 599" stroke="white" stroke-linecap="round" stroke-linejoin="round"/>
<path d="M149.723 546.001C145.969 545.968 142.395 546.718 139.146 548.103C136.185 549.363 133.496 551.145 131.204 553.334C128.564 555.854 126.445 558.918 125.021 562.34" stroke="white" stroke-linecap="round" stroke-linejoin="round"/>
<path d="M173.966 562.308C172.613 559.059 170.636 556.148 168.185 553.714C165.833 551.373 163.041 549.477 159.955 548.147" stroke="white" stroke-linecap="round" stroke-linejoin="round"/>
<path d="M173.811 583.063C175.239 579.777 176.027 576.148 176 572.329" stroke="white" stroke-linecap="round" stroke-linejoin="round"/>
<path d="M159.117 597.202C162.529 595.871 165.604 593.856 168.162 591.319" stroke="white" stroke-linecap="round" stroke-linejoin="round"/>
<path d="M150.036 570.962C153.339 570.962 156.017 568.284 156.017 564.981C156.017 561.678 153.339 559 150.036 559C146.732 559 144.055 561.678 144.055 564.981C144.055 568.284 146.732 570.962 150.036 570.962Z" stroke="white" stroke-miterlimit="10"/>
<path d="M140 585.607C140 582.095 141.835 579.007 144.601 577.259C146.125 576.294 147.934 575.735 149.873 575.735C155.325 575.735 159.745 580.156 159.745 585.607" stroke="white" stroke-linecap="round" stroke-linejoin="round"/>
<path d="M446.599 536C467.239 536 483.996 552.758 483.996 573.397C483.996 594.037 467.239 610.794 446.599 610.794C425.959 610.794 409.201 594.037 409.201 573.397C409.201 552.758 425.959 536 446.599 536Z" fill="url(#paint17_linear_1905_16268)"/>
<path d="M446.599 536C467.239 536 483.996 552.758 483.996 573.397C483.996 594.037 467.239 610.794 446.599 610.794C425.959 610.794 409.201 594.037 409.201 573.397C409.201 552.758 425.959 536 446.599 536Z" fill="url(#paint18_linear_1905_16268)" stroke="url(#paint19_linear_1905_16268)" stroke-opacity="0.2" stroke-width="0.973024"/>
<path d="M419.998 572.498C419.998 580.113 423.209 586.979 428.353 591.814C433.096 596.268 439.479 599 446.498 599" stroke="white" stroke-linecap="round" stroke-linejoin="round"/>
<path d="M446.721 546.001C442.968 545.968 439.393 546.718 436.144 548.103C433.183 549.363 430.494 551.145 428.202 553.334C425.562 555.854 423.443 558.918 422.02 562.34" stroke="white" stroke-linecap="round" stroke-linejoin="round"/>
<path d="M470.964 562.308C469.611 559.059 467.634 556.148 465.183 553.714C462.831 551.373 460.039 549.477 456.953 548.147" stroke="white" stroke-linecap="round" stroke-linejoin="round"/>
<path d="M470.809 583.063C472.237 579.777 473.025 576.148 472.998 572.329" stroke="white" stroke-linecap="round" stroke-linejoin="round"/>
<path d="M456.115 597.202C459.527 595.871 462.602 593.856 465.16 591.319" stroke="white" stroke-linecap="round" stroke-linejoin="round"/>
<path d="M441.514 584L436.678 579.154C435.772 578.246 435.772 576.771 436.678 575.863C437.584 574.955 439.056 574.955 439.962 575.863L442.71 578.617V562.142C442.71 560.958 443.666 560 444.848 560C446.029 560 446.985 560.958 446.985 562.142V571.408L454.42 572.783C456.257 573.124 457.398 574.985 456.868 576.781L454.745 584" stroke="white" stroke-linecap="round" stroke-linejoin="round"/>
<path d="M743.198 536C763.838 536 780.596 552.758 780.596 573.397C780.596 594.037 763.838 610.794 743.198 610.794C722.559 610.794 705.801 594.037 705.801 573.397C705.801 552.758 722.559 536 743.198 536Z" fill="url(#paint20_linear_1905_16268)"/>
<path d="M743.198 536C763.838 536 780.596 552.758 780.596 573.397C780.596 594.037 763.838 610.794 743.198 610.794C722.559 610.794 705.801 594.037 705.801 573.397C705.801 552.758 722.559 536 743.198 536Z" fill="url(#paint21_linear_1905_16268)" stroke="url(#paint22_linear_1905_16268)" stroke-opacity="0.2" stroke-width="0.973024"/>
<path d="M716.801 573.498C716.801 581.113 720.011 587.979 725.156 592.814C729.899 597.268 736.282 600 743.301 600" stroke="white" stroke-linecap="round" stroke-linejoin="round"/>
<path d="M743.524 547.001C739.77 546.968 736.196 547.718 732.947 549.103C729.986 550.363 727.297 552.145 725.005 554.334C722.364 556.854 720.246 559.918 718.822 563.34" stroke="white" stroke-linecap="round" stroke-linejoin="round"/>
<path d="M767.766 563.308C766.414 560.059 764.436 557.148 761.986 554.714C759.634 552.373 756.842 550.477 753.756 549.147" stroke="white" stroke-linecap="round" stroke-linejoin="round"/>
<path d="M767.611 584.063C769.04 580.777 769.828 577.148 769.801 573.329" stroke="white" stroke-linecap="round" stroke-linejoin="round"/>
<path d="M752.918 598.202C756.33 596.871 759.404 594.856 761.963 592.319" stroke="white" stroke-linecap="round" stroke-linejoin="round"/>
<path d="M753.801 567L740.757 580L732.801 572.07" stroke="white" stroke-linejoin="round"/>
<path d="M1039.8 536C1060.44 536 1077.2 552.758 1077.2 573.397C1077.2 594.037 1060.44 610.794 1039.8 610.794C1019.16 610.794 1002.4 594.037 1002.4 573.397C1002.4 552.758 1019.16 536 1039.8 536Z" fill="url(#paint23_linear_1905_16268)"/>
<path d="M1039.8 536C1060.44 536 1077.2 552.758 1077.2 573.397C1077.2 594.037 1060.44 610.794 1039.8 610.794C1019.16 610.794 1002.4 594.037 1002.4 573.397C1002.4 552.758 1019.16 536 1039.8 536Z" fill="url(#paint24_linear_1905_16268)" stroke="url(#paint25_linear_1905_16268)" stroke-opacity="0.2" stroke-width="0.973024"/>
<path d="M1013.4 573.498C1013.4 581.113 1016.61 587.979 1021.76 592.814C1026.5 597.268 1032.88 600 1039.9 600" stroke="white" stroke-linecap="round" stroke-linejoin="round"/>
<path d="M1040.13 547.001C1036.37 546.968 1032.8 547.718 1029.55 549.103C1026.59 550.363 1023.9 552.145 1021.61 554.334C1018.97 556.854 1016.85 559.918 1015.42 563.34" stroke="white" stroke-linecap="round" stroke-linejoin="round"/>
<path d="M1064.37 563.308C1063.02 560.059 1061.04 557.148 1058.59 554.714C1056.24 552.373 1053.44 550.477 1050.36 549.147" stroke="white" stroke-linecap="round" stroke-linejoin="round"/>
<path d="M1064.21 584.063C1065.64 580.777 1066.43 577.148 1066.4 573.329" stroke="white" stroke-linecap="round" stroke-linejoin="round"/>
<path d="M1049.52 598.202C1052.93 596.871 1056.01 594.856 1058.56 592.319" stroke="white" stroke-linecap="round" stroke-linejoin="round"/>
<path d="M1047.55 570.931C1050.48 570.931 1052.86 568.555 1052.86 565.624C1052.86 562.693 1050.48 560.317 1047.55 560.317C1044.62 560.317 1042.24 562.693 1042.24 565.624C1042.24 568.555 1044.62 570.931 1047.55 570.931Z" stroke="white" stroke-miterlimit="10"/>
<path d="M1032.35 585.592C1035.29 585.592 1037.66 583.216 1037.66 580.285C1037.66 577.354 1035.29 574.978 1032.35 574.978C1029.42 574.978 1027.05 577.354 1027.05 580.285C1027.05 583.216 1029.42 585.592 1032.35 585.592Z" stroke="white" stroke-miterlimit="10"/>
<path d="M1034.96 560.92L1037.66 563.621L1034.96 566.319" stroke="white" stroke-miterlimit="10"/>
<path d="M1029.69 571.594V568.616C1029.69 565.856 1031.93 563.618 1034.68 563.618H1037.66" stroke="white" stroke-miterlimit="10"/>
<path d="M1044.94 584.968L1042.24 582.27L1044.94 579.569" stroke="white" stroke-miterlimit="10"/>
<path d="M1050.22 574.294V577.272C1050.22 580.032 1047.98 582.27 1045.22 582.27H1042.24" stroke="white" stroke-miterlimit="10"/>
<path d="M403 574H213" stroke="#7034F0" stroke-linecap="round"/>
<path d="M402 574L387 574" stroke="#7034F0" stroke-width="2" stroke-linecap="round"/>
<path d="M395 566L403 574L395 582" stroke="#7034F0" stroke-width="2" stroke-linecap="round" stroke-linejoin="round"/>
<rect opacity="0.4" width="40" height="40" rx="20" transform="matrix(-1 0 0 1 233 554)" fill="#7034F0"/>
<rect x="-1" y="1" width="38" height="38" rx="19" transform="matrix(-1 0 0 1 231 554)" stroke="#7034F0" stroke-width="2"/>
<circle cx="6" cy="6" r="4.5" transform="matrix(-1 0 0 1 219 568)" fill="white" stroke="#7034F0" stroke-width="3"/>
<path d="M701 574H509" stroke="#7034F0" stroke-linecap="round"/>
<path d="M700 574L685 574" stroke="#7034F0" stroke-width="2" stroke-linecap="round"/>
<path d="M693 566L701 574L693 582" stroke="#7034F0" stroke-width="2" stroke-linecap="round" stroke-linejoin="round"/>
<rect opacity="0.4" width="40" height="40" rx="20" transform="matrix(-1 0 0 1 529 554)" fill="#7034F0"/>
<rect x="-1" y="1" width="38" height="38" rx="19" transform="matrix(-1 0 0 1 527 554)" stroke="#7034F0" stroke-width="2"/>
<circle cx="6" cy="6" r="4.5" transform="matrix(-1 0 0 1 515 568)" fill="white" stroke="#7034F0" stroke-width="3"/>
<path d="M998 574H806" stroke="#7034F0" stroke-linecap="round"/>
<path d="M997 574L982 574" stroke="#7034F0" stroke-width="2" stroke-linecap="round"/>
<path d="M990 566L998 574L990 582" stroke="#7034F0" stroke-width="2" stroke-linecap="round" stroke-linejoin="round"/>
<rect opacity="0.4" width="40" height="40" rx="20" transform="matrix(-1 0 0 1 826 554)" fill="#7034F0"/>
<rect x="-1" y="1" width="38" height="38" rx="19" transform="matrix(-1 0 0 1 824 554)" stroke="#7034F0" stroke-width="2"/>
<circle cx="6" cy="6" r="4.5" transform="matrix(-1 0 0 1 812 568)" fill="white" stroke="#7034F0" stroke-width="3"/>
<path d="M1039 370L1039 514" stroke="#7034F0" stroke-linecap="round"/>
<rect opacity="0.4" width="40" height="40" rx="20" transform="matrix(4.37114e-08 1 1 -4.37114e-08 1019 494)" fill="#7034F0"/>
<rect x="1" y="1" width="38" height="38" rx="19" transform="matrix(4.37114e-08 1 1 -4.37114e-08 1019 494)" stroke="#7034F0" stroke-width="2"/>
<circle cx="6" cy="6" r="4.5" transform="matrix(4.37114e-08 1 1 -4.37114e-08 1033 508)" fill="white" stroke="#7034F0" stroke-width="3"/>
<path d="M743 345L743 221" stroke="#7034F0" stroke-linecap="round" stroke-dasharray="7 10"/>
<circle cx="6" cy="6" r="4.5" transform="matrix(4.37114e-08 -1 -1 -4.37114e-08 749 227)" fill="white" stroke="#7034F0" stroke-width="3"/>
<path d="M603 344L742 344" stroke="#7034F0" stroke-linecap="round" stroke-dasharray="7 10"/>
<circle cx="6" cy="6" r="4.5" transform="matrix(1 8.74228e-08 8.74228e-08 -1 736 350)" fill="white" stroke="#7034F0" stroke-width="3"/>
<rect x="290" y="318.484" width="311.712" height="54.5219" rx="4" stroke="#7034F0" stroke-width="2"/>
<path d="M446 530L446 373" stroke="#7034F0" stroke-linecap="round"/>
<path d="M446 529L446 514" stroke="#7034F0" stroke-width="2" stroke-linecap="round"/>
<path d="M454 522L446 530L438 522" stroke="#7034F0" stroke-width="2" stroke-linecap="round" stroke-linejoin="round"/>
<circle cx="6" cy="6" r="4.5" transform="matrix(-4.33206e-08 -1 -1 4.41057e-08 452 379)" fill="white" stroke="#7034F0" stroke-width="3"/>
<rect x="827" y="318.085" width="311.712" height="54.5219" rx="4" stroke="#7034F0" stroke-width="2"/>
<circle cx="6" cy="6" r="4.5" transform="matrix(1 8.74228e-08 8.74228e-08 -1 596 351)" fill="white" stroke="#7034F0" stroke-width="3"/>
<circle cx="6" cy="6" r="4.5" transform="matrix(1 8.74228e-08 8.74228e-08 -1 1033 379)" fill="white" stroke="#7034F0" stroke-width="3"/>
<path d="M1039 223L1039 318" stroke="#7034F0" stroke-linecap="round"/>
<circle cx="6" cy="6" r="4.5" transform="matrix(-4.37114e-08 1 1 4.36014e-08 1033 312)" fill="white" stroke="#7034F0" stroke-width="3"/>
<path d="M1039 220L1039 235" stroke="#7034F0" stroke-width="2" stroke-linecap="round"/>
<path d="M1031 227L1039 219L1047 227" stroke="#7034F0" stroke-width="2" stroke-linecap="round" stroke-linejoin="round"/>
<defs>
<radialGradient id="paint0_radial_1905_16268" cx="0" cy="0" r="1" gradientUnits="userSpaceOnUse" gradientTransform="translate(586.25 362.502) rotate(90) scale(405.04 662.349)">
<stop stop-color="#190141" stop-opacity="0.27"/>
<stop offset="1" stop-color="#190141"/>
</radialGradient>
<linearGradient id="paint1_linear_1905_16268" x1="595" y1="9" x2="595" y2="511.013" gradientUnits="userSpaceOnUse">
<stop stop-color="#7027F0"/>
<stop offset="1" stop-color="#7027F0" stop-opacity="0"/>
</linearGradient>
<linearGradient id="paint2_linear_1905_16268" x1="171.355" y1="53.4736" x2="161.527" y2="124.372" gradientUnits="userSpaceOnUse">
<stop stop-color="#6C01F5"/>
<stop offset="1" stop-color="#1C0146"/>
</linearGradient>
<linearGradient id="paint3_linear_1905_16268" x1="171.355" y1="53.4736" x2="161.527" y2="124.372" gradientUnits="userSpaceOnUse">
<stop stop-color="#6C01F5"/>
<stop offset="1" stop-color="#1C0146"/>
</linearGradient>
<linearGradient id="paint4_linear_1905_16268" x1="150.118" y1="54.8069" x2="150.621" y2="130.128" gradientUnits="userSpaceOnUse">
<stop stop-color="white" stop-opacity="0.5"/>
<stop offset="0.5" stop-color="white" stop-opacity="0.25"/>
<stop offset="1" stop-color="white" stop-opacity="0"/>
</linearGradient>
<linearGradient id="paint5_linear_1905_16268" x1="467.955" y1="53.4736" x2="458.127" y2="124.372" gradientUnits="userSpaceOnUse">
<stop stop-color="#6C01F5"/>
<stop offset="1" stop-color="#1C0146"/>
</linearGradient>
<linearGradient id="paint6_linear_1905_16268" x1="467.955" y1="53.4736" x2="458.127" y2="124.372" gradientUnits="userSpaceOnUse">
<stop stop-color="#6C01F5"/>
<stop offset="1" stop-color="#1C0146"/>
</linearGradient>
<linearGradient id="paint7_linear_1905_16268" x1="446.718" y1="54.8069" x2="447.221" y2="130.128" gradientUnits="userSpaceOnUse">
<stop stop-color="white" stop-opacity="0.5"/>
<stop offset="0.5" stop-color="white" stop-opacity="0.25"/>
<stop offset="1" stop-color="white" stop-opacity="0"/>
</linearGradient>
<linearGradient id="paint8_linear_1905_16268" x1="764.355" y1="53.4736" x2="754.527" y2="124.372" gradientUnits="userSpaceOnUse">
<stop stop-color="#6C01F5"/>
<stop offset="1" stop-color="#1C0146"/>
</linearGradient>
<linearGradient id="paint9_linear_1905_16268" x1="764.355" y1="53.4736" x2="754.527" y2="124.372" gradientUnits="userSpaceOnUse">
<stop stop-color="#6C01F5"/>
<stop offset="1" stop-color="#1C0146"/>
</linearGradient>
<linearGradient id="paint10_linear_1905_16268" x1="743.118" y1="54.8069" x2="743.621" y2="130.128" gradientUnits="userSpaceOnUse">
<stop stop-color="white" stop-opacity="0.5"/>
<stop offset="0.5" stop-color="white" stop-opacity="0.25"/>
<stop offset="1" stop-color="white" stop-opacity="0"/>
</linearGradient>
<linearGradient id="paint11_linear_1905_16268" x1="1061.16" y1="53.4736" x2="1051.33" y2="124.372" gradientUnits="userSpaceOnUse">
<stop stop-color="#6C01F5"/>
<stop offset="1" stop-color="#1C0146"/>
</linearGradient>
<linearGradient id="paint12_linear_1905_16268" x1="1061.16" y1="53.4736" x2="1051.33" y2="124.372" gradientUnits="userSpaceOnUse">
<stop stop-color="#6C01F5"/>
<stop offset="1" stop-color="#1C0146"/>
</linearGradient>
<linearGradient id="paint13_linear_1905_16268" x1="1039.92" y1="54.8069" x2="1040.42" y2="130.128" gradientUnits="userSpaceOnUse">
<stop stop-color="white" stop-opacity="0.5"/>
<stop offset="0.5" stop-color="white" stop-opacity="0.25"/>
<stop offset="1" stop-color="white" stop-opacity="0"/>
</linearGradient>
<linearGradient id="paint14_linear_1905_16268" x1="171.355" y1="534.474" x2="161.527" y2="605.372" gradientUnits="userSpaceOnUse">
<stop stop-color="#6C01F5"/>
<stop offset="1" stop-color="#1C0146"/>
</linearGradient>
<linearGradient id="paint15_linear_1905_16268" x1="171.355" y1="534.474" x2="161.527" y2="605.372" gradientUnits="userSpaceOnUse">
<stop stop-color="#6C01F5"/>
<stop offset="1" stop-color="#1C0146"/>
</linearGradient>
<linearGradient id="paint16_linear_1905_16268" x1="150.118" y1="535.807" x2="150.621" y2="611.128" gradientUnits="userSpaceOnUse">
<stop stop-color="white" stop-opacity="0.5"/>
<stop offset="0.5" stop-color="white" stop-opacity="0.25"/>
<stop offset="1" stop-color="white" stop-opacity="0"/>
</linearGradient>
<linearGradient id="paint17_linear_1905_16268" x1="467.955" y1="534.474" x2="458.127" y2="605.372" gradientUnits="userSpaceOnUse">
<stop stop-color="#6C01F5"/>
<stop offset="1" stop-color="#1C0146"/>
</linearGradient>
<linearGradient id="paint18_linear_1905_16268" x1="467.955" y1="534.474" x2="458.127" y2="605.372" gradientUnits="userSpaceOnUse">
<stop stop-color="#6C01F5"/>
<stop offset="1" stop-color="#1C0146"/>
</linearGradient>
<linearGradient id="paint19_linear_1905_16268" x1="446.718" y1="535.807" x2="447.221" y2="611.128" gradientUnits="userSpaceOnUse">
<stop stop-color="white" stop-opacity="0.5"/>
<stop offset="0.5" stop-color="white" stop-opacity="0.25"/>
<stop offset="1" stop-color="white" stop-opacity="0"/>
</linearGradient>
<linearGradient id="paint20_linear_1905_16268" x1="764.555" y1="534.474" x2="754.726" y2="605.372" gradientUnits="userSpaceOnUse">
<stop stop-color="#6C01F5"/>
<stop offset="1" stop-color="#1C0146"/>
</linearGradient>
<linearGradient id="paint21_linear_1905_16268" x1="764.555" y1="534.474" x2="754.726" y2="605.372" gradientUnits="userSpaceOnUse">
<stop stop-color="#6C01F5"/>
<stop offset="1" stop-color="#1C0146"/>
</linearGradient>
<linearGradient id="paint22_linear_1905_16268" x1="743.318" y1="535.807" x2="743.82" y2="611.128" gradientUnits="userSpaceOnUse">
<stop stop-color="white" stop-opacity="0.5"/>
<stop offset="0.5" stop-color="white" stop-opacity="0.25"/>
<stop offset="1" stop-color="white" stop-opacity="0"/>
</linearGradient>
<linearGradient id="paint23_linear_1905_16268" x1="1061.16" y1="534.474" x2="1051.33" y2="605.372" gradientUnits="userSpaceOnUse">
<stop stop-color="#6C01F5"/>
<stop offset="1" stop-color="#1C0146"/>
</linearGradient>
<linearGradient id="paint24_linear_1905_16268" x1="1061.16" y1="534.474" x2="1051.33" y2="605.372" gradientUnits="userSpaceOnUse">
<stop stop-color="#6C01F5"/>
<stop offset="1" stop-color="#1C0146"/>
</linearGradient>
<linearGradient id="paint25_linear_1905_16268" x1="1039.92" y1="535.807" x2="1040.42" y2="611.128" gradientUnits="userSpaceOnUse">
<stop stop-color="white" stop-opacity="0.5"/>
<stop offset="0.5" stop-color="white" stop-opacity="0.25"/>
<stop offset="1" stop-color="white" stop-opacity="0"/>
</linearGradient>
<clipPath id="clip0_1905_16268">
<rect width="1190" height="751" rx="50" fill="white"/>
</clipPath>
<clipPath id="clip1_1905_16268">
<rect width="197" height="32" fill="white" transform="translate(645 139.794)"/>
</clipPath>
</defs>
<text x="125" y="160"><tspan style="fill:#ffffff; font-size:20px; font-weight:700;">Oscar</tspan></text>
<text x="117" y="190"><tspan style="fill:#A2A3B9; font-size: 18px;">(Feferrer)</tspan></text>
<text x="420" y="160"><tspan style="fill:#ffffff; font-size:20px; font-weight:700;">Oscar</tspan></text>
<text x="360" y="190"><tspan style="fill:#A2A3B9; font-size: 18px;">Selects <a href="#" fill="#86FFB6"> “Refer a friend”</a></tspan></text>
<text x="375" y="215"><tspan style="fill:#A2A3B9; font-size: 18px;">Option in your app</tspan></text>
<text x="655" y="160"><tspan style="fill:#ffffff; font-size:20px; font-weight:700;">Shared referrer link</tspan></text>
<text x="692" y="204"><tspan style="fill:#86FFB6; font-size:14px; font-weight:700;"><a href="https://exby.com">https://exby.com</a></tspan></text>
<text x="1015" y="160"><tspan style="fill:#ffffff; font-size:20px; font-weight:700;">Oscar</tspan></text>
<text x="962" y="185"><tspan style="fill:#A2A3B9; font-size: 18px;">Oscar gets his reward</tspan></text>
<text x="960" y="208"><tspan style="fill:#A2A3B9; font-size: 18px;">for a succesful referral</tspan></text>
<text x="125" y="645"><tspan style="fill:#ffffff; font-size:20px; font-weight:700;">Oscar</tspan></text>
<text x="117" y="680"><tspan style="fill:#A2A3B9; font-size: 18px;">(Feferrer)</tspan></text>
<text x="420" y="645"><tspan style="fill:#ffffff; font-size:20px; font-weight:700;">Mike</tspan></text>
<text x="370" y="673"><tspan style="fill:#A2A3B9; font-size: 18px;">Clicks on the shared</tspan></text>
<text x="400" y="692"><tspan style="fill:#A2A3B9; font-size: 18px;">referrer link</tspan></text>
<text x="725" y="645"><tspan style="fill:#ffffff; font-size:20px; font-weight:700;">Mike</tspan></text>
<text x="675" y="673"><tspan style="fill:#A2A3B9; font-size: 18px;">Opens the app and </tspan></text>
<text x="715" y="692"><tspan style="fill:#A2A3B9; font-size: 18px;">signs up</tspan></text>
<text x="965" y="645"><tspan style="fill:#A2A3B9; font-size: 18px;">The <a href="sign_up.html" fill="#86FFB6">“Sign Up”</a> event</tspan></text>
<text x="965" y="668"><tspan style="fill:#A2A3B9; font-size: 18px;">triggers an attribution</tspan></text>
<text x="1010" y="690"><tspan style="fill:#A2A3B9; font-size: 18px;">callback</tspan></text>
<text x="330" y="350"><tspan style="fill:#ffffff; font-size:14px; font-weight:700;">The link carries Oscar’s unique user ID</tspan></text>
<text x="880" y="350"><tspan style="fill:#ffffff; font-size:14px; font-weight:700;">Use the IDs to send Oscar a reward</tspan></text>
</svg>
