<svg width="1720" height="226" viewBox="0 0 1720 226" fill="none" xmlns="http://www.w3.org/2000/svg">
<path fill-rule="evenodd" clip-rule="evenodd" d="M139.658 0L27.0523 55.0875H74.2175L180.447 0H182.079L76.1043 55.0875H123.27L222.868 0H224.5L125.157 55.0875H172.322L265.289 0H266.921L174.209 55.0875H221.375L307.71 0H309.342L223.262 55.0875H270.427L350.131 0H351.763L272.314 55.0875H319.48L392.552 0H394.184L321.366 55.0875H368.532L434.973 0H436.605L370.419 55.0875H417.585L477.395 0H479.026L419.471 55.0875H466.637L519.816 0H521.447L468.524 55.0875H515.689L562.237 0H563.868L517.576 55.0875H564.742L604.658 0H606.289L566.629 55.0875H613.794L647.079 0H648.71L615.681 55.0875H662.847L689.5 0H691.132L664.734 55.0875H711.899L731.921 0H733.553L713.786 55.0875H760.952L774.342 0H775.974L762.838 55.0875H810.004L816.763 0H818.395L811.891 55.0875H859.057L859.184 0H860.816L860.943 55.0875H908.109L901.605 0H903.237L909.995 55.0875H957.161L944.026 0H945.658L959.047 55.0875H1006.21L986.447 0H988.079L1008.1 55.0875H1055.27L1028.87 0H1030.5L1057.15 55.0875H1104.32L1071.29 0H1072.92L1106.21 55.0875H1153.37L1113.71 0H1115.34L1155.26 55.0875H1202.42L1156.13 0H1157.76L1204.31 55.0875H1251.48L1198.55 0H1200.18L1253.36 55.0875H1300.53L1240.97 0H1242.61L1302.41 55.0875H1349.58L1283.4 0H1285.03L1351.47 55.0875H1398.63L1325.82 0H1327.45L1400.52 55.0875H1447.69L1368.24 0H1369.87L1449.57 55.0875H1496.74L1410.66 0H1412.29L1498.62 55.0875H1545.79L1453.08 0H1454.71L1547.68 55.0875H1594.84L1495.5 0H1497.13L1596.73 55.0875H1643.89L1537.92 0H1539.55L1645.78 55.0875H1692.95L1580.34 0H1581.97L1694.83 55.0875L1697.73 56.5L1781.65 97.4625L1784.54 98.875L1868.46 139.837L1871.36 141.25L1955.28 182.212L1958.17 183.625L2044.99 226H2042.31L1955.69 183.625H1893.65L1975.36 226H1972.69L1891.17 183.625H1829.12L1905.74 226H1903.06L1826.64 183.625H1764.6L1836.11 226H1833.43L1762.12 183.625H1700.07L1766.48 226H1763.81L1697.59 183.625H1635.55L1696.86 226H1694.18L1633.06 183.625H1571.02L1627.23 226H1624.55L1568.54 183.625H1506.5L1557.6 226H1554.93L1504.01 183.625H1441.97L1487.98 226H1485.3L1439.49 183.625H1377.44L1418.35 226H1415.67L1374.96 183.625H1312.92L1348.72 226H1346.05L1310.44 183.625H1248.39L1279.1 226H1276.42L1245.91 183.625H1183.87L1209.47 226H1206.79L1181.39 183.625H1119.34L1139.84 226H1137.17L1116.86 183.625H1054.82L1070.22 226H1067.54L1052.33 183.625H990.291L1000.59 226H997.914L987.81 183.625H925.766L930.965 226H928.288L923.284 183.625H861.24L861.339 226H858.661L858.759 183.625H796.715L791.713 226H789.035L794.233 183.625H732.189L722.086 226H719.408L729.708 183.625H667.664L652.459 226H649.782L665.182 183.625H603.139L582.833 226H580.155L600.657 183.625H538.613L513.206 226H510.529L536.131 183.625H474.088L443.58 226H440.902L471.606 183.625H409.562L373.953 226H371.276L407.08 183.625H345.037L304.327 226H301.649L342.555 183.625H280.511L234.7 226H232.023L278.03 183.625H215.986L165.074 226H162.396L213.504 183.625H151.459L95.4474 226H92.7695L148.979 183.625H86.9345L25.821 226H23.143L84.4525 183.625H22.4096L-43.8055 226H-46.4835L19.9275 183.625H-42.1166L-113.432 226H-116.11L-44.5987 183.625H-106.642L-183.059 226H-185.736L-109.124 183.625H-171.168L-252.685 226H-255.363L-173.65 183.625H-235.693L-322.312 226H-324.99L-238.175 183.625L-235.281 182.212L-151.359 141.25L-148.465 139.837L-64.5438 98.875L-61.6499 97.4625L22.2716 56.5L25.1655 55.0875L138.026 0H139.658ZM1869.07 141.25H1811.93L1890.92 182.212H1952.8L1869.07 141.25ZM-32.5102 141.25H-89.6494L-168.45 182.212H-106.57L-32.5102 141.25ZM26.9138 141.25H-30.2243L-104.094 182.212H-42.2149L26.9138 141.25ZM86.3388 141.25H29.1996L-39.7394 182.212H22.1412L86.3388 141.25ZM145.763 141.25H88.6247L24.6167 182.212H86.4961L145.763 141.25ZM205.188 141.25H148.049L88.9716 182.212H150.852L205.188 141.25ZM264.612 141.25H207.473L153.327 182.212H215.207L264.612 141.25ZM324.037 141.25H266.898L217.683 182.212H279.563L324.037 141.25ZM383.461 141.25H326.322L282.038 182.212H343.918L383.461 141.25ZM442.885 141.25H385.747L346.394 182.212H408.273L442.885 141.25ZM502.31 141.25H445.171L410.749 182.212H472.629L502.31 141.25ZM561.734 141.25H504.596L475.105 182.212H536.984L561.734 141.25ZM621.159 141.25H564.02L539.46 182.212H601.34L621.159 141.25ZM680.583 141.25H623.445L603.816 182.212H665.695L680.583 141.25ZM740.008 141.25H682.869L668.171 182.212H730.051L740.008 141.25ZM799.432 141.25H742.293L732.526 182.212H794.406L799.432 141.25ZM858.857 141.25H801.718L796.882 182.212H858.762L858.857 141.25ZM-91.9353 141.25H-149.073L-232.805 182.212H-170.926L-91.9353 141.25ZM918.281 141.25H861.142L861.237 182.212H923.117L918.281 141.25ZM977.706 141.25H920.567L925.593 182.212H987.473L977.706 141.25ZM1037.13 141.25H979.991L989.948 182.212H1051.83L1037.13 141.25ZM1096.55 141.25H1039.42L1054.3 182.212H1116.18L1096.55 141.25ZM1155.98 141.25H1098.84L1118.66 182.212H1180.54L1155.98 141.25ZM1215.4 141.25H1158.27L1183.01 182.212H1244.89L1215.4 141.25ZM1274.83 141.25H1217.69L1247.37 182.212H1309.25L1274.83 141.25ZM1334.25 141.25H1277.11L1311.73 182.212H1373.61L1334.25 141.25ZM1393.68 141.25H1336.54L1376.08 182.212H1437.96L1393.68 141.25ZM1453.1 141.25H1395.96L1440.44 182.212H1502.32L1453.1 141.25ZM1512.53 141.25H1455.39L1504.79 182.212H1566.67L1512.53 141.25ZM1571.95 141.25H1514.81L1569.15 182.212H1631.03L1571.95 141.25ZM1631.37 141.25H1574.24L1633.5 182.212H1695.38L1631.37 141.25ZM1690.8 141.25H1633.66L1697.86 182.212H1759.74L1690.8 141.25ZM1750.22 141.25H1693.09L1762.21 182.212H1824.09L1750.22 141.25ZM1809.65 141.25H1752.51L1826.57 182.212H1888.45L1809.65 141.25ZM1728.13 98.875H1675.9L1749.96 139.837H1806.93L1728.13 98.875ZM44.1032 98.875H-8.1312L-86.9322 139.837H-29.9564L44.1032 98.875ZM98.4262 98.875H46.1928L-27.6771 139.837H29.2975L98.4262 98.875ZM152.75 98.875H100.516L31.5768 139.837H88.5526L152.75 98.875ZM207.073 98.875H154.84L90.8319 139.837H147.807L207.073 98.875ZM261.397 98.875H209.163L150.086 139.837H207.062L261.397 98.875ZM315.72 98.875H263.486L209.34 139.837H266.315L315.72 98.875ZM370.044 98.875H317.81L268.595 139.837H325.57L370.044 98.875ZM424.367 98.875H372.133L327.849 139.837H384.824L424.367 98.875ZM478.69 98.875H426.457L387.104 139.837H444.078L478.69 98.875ZM533.014 98.875H480.78L446.358 139.837H503.333L533.014 98.875ZM587.337 98.875H535.104L505.613 139.837H562.587L587.337 98.875ZM641.661 98.875H589.427L564.867 139.837H621.842L641.661 98.875ZM695.984 98.875H643.751L624.122 139.837H681.096L695.984 98.875ZM750.308 98.875H698.074L683.376 139.837H740.351L750.308 98.875ZM804.631 98.875H752.397L742.63 139.837H799.605L804.631 98.875ZM858.955 98.875H806.721L801.885 139.837H858.86L858.955 98.875ZM913.278 98.875H861.044L861.139 139.837H918.114L913.278 98.875ZM1782.45 98.875H1730.22L1809.21 139.837H1866.19L1782.45 98.875ZM967.602 98.875H915.368L920.394 139.837H977.369L967.602 98.875ZM1021.93 98.875H969.691L979.647 139.837H1036.62L1021.93 98.875ZM1076.25 98.875H1024.01L1038.9 139.837H1095.88L1076.25 98.875ZM1130.57 98.875H1078.34L1098.16 139.837H1155.13L1130.57 98.875ZM1184.9 98.875H1132.66L1157.41 139.837H1214.39L1184.9 98.875ZM1239.22 98.875H1186.98L1216.67 139.837H1273.64L1239.22 98.875ZM1293.54 98.875H1241.31L1275.92 139.837H1332.9L1293.54 98.875ZM1347.87 98.875H1295.63L1335.17 139.837H1392.15L1347.87 98.875ZM1402.19 98.875H1349.95L1394.43 139.837H1451.4L1402.19 98.875ZM1456.51 98.875H1404.28L1453.68 139.837H1510.66L1456.51 98.875ZM1510.84 98.875H1458.6L1512.94 139.837H1569.91L1510.84 98.875ZM1565.16 98.875H1512.93L1572.19 139.837H1629.17L1565.16 98.875ZM1619.48 98.875H1567.25L1631.45 139.837H1688.42L1619.48 98.875ZM1673.81 98.875H1621.57L1690.7 139.837H1747.68L1673.81 98.875ZM-10.2208 98.875H-62.4542L-146.186 139.837H-89.2115L-10.2208 98.875ZM71.4937 56.5H24.165L-59.5669 97.4625H-7.49701L71.4937 56.5ZM1695.83 56.5H1648.51L1727.5 97.4625H1779.57L1695.83 56.5ZM1646.61 56.5H1599.28L1673.34 97.4625H1725.41L1646.61 56.5ZM1597.39 56.5H1550.06L1619.19 97.4625H1671.26L1597.39 56.5ZM1548.17 56.5H1500.84L1565.04 97.4625H1617.11L1548.17 56.5ZM1498.94 56.5H1451.62L1510.88 97.4625H1562.95L1498.94 56.5ZM1449.72 56.5H1402.39L1456.73 97.4625H1508.8L1449.72 56.5ZM1400.5 56.5H1353.17L1402.58 97.4625H1454.65L1400.5 56.5ZM1351.28 56.5H1303.95L1348.42 97.4625H1400.49L1351.28 56.5ZM1302.06 56.5H1254.73L1294.27 97.4625H1346.34L1302.06 56.5ZM1252.83 56.5H1205.5L1240.12 97.4625H1292.19L1252.83 56.5ZM1203.61 56.5H1156.28L1185.96 97.4625H1238.03L1203.61 56.5ZM1154.39 56.5H1107.06L1131.81 97.4625H1183.88L1154.39 56.5ZM1105.17 56.5H1057.84L1077.65 97.4625H1129.73L1105.17 56.5ZM1055.94 56.5H1008.61L1023.5 97.4625H1075.57L1055.94 56.5ZM1006.72 56.5H959.391L969.347 97.4625H1021.42L1006.72 56.5ZM957.498 56.5H910.169L915.195 97.4625H967.265L957.498 56.5ZM908.275 56.5H860.946L861.041 97.4625H913.111L908.275 56.5ZM859.053 56.5H811.724L806.888 97.4625H858.958L859.053 56.5ZM809.83 56.5H762.501L752.734 97.4625H804.804L809.83 56.5ZM760.608 56.5H713.279L698.581 97.4625H750.651L760.608 56.5ZM711.385 56.5H664.057L644.428 97.4625H696.498L711.385 56.5ZM662.163 56.5H614.834L590.274 97.4625H642.345L662.163 56.5ZM612.94 56.5H565.612L536.121 97.4625H588.191L612.94 56.5ZM563.718 56.5H516.389L481.967 97.4625H534.038L563.718 56.5ZM514.496 56.5H467.167L427.814 97.4625H479.884L514.496 56.5ZM465.273 56.5H417.944L373.66 97.4625H425.731L465.273 56.5ZM416.051 56.5H368.722L319.507 97.4625H371.578L416.051 56.5ZM366.828 56.5H319.499L265.353 97.4625H317.424L366.828 56.5ZM317.607 56.5H270.277L211.2 97.4625H263.271L317.607 56.5ZM268.384 56.5H221.055L157.047 97.4625H209.117L268.384 56.5ZM219.161 56.5H171.832L102.893 97.4625H154.964L219.161 56.5ZM169.939 56.5H122.61L48.7401 97.4625H100.81L169.939 56.5ZM120.717 56.5H73.3871L-5.41391 97.4625H46.657L120.717 56.5Z" fill="url(#paint0_linear_305_3836)"/>
<defs>
<linearGradient id="paint0_linear_305_3836" x1="860" y1="0" x2="860" y2="226" gradientUnits="userSpaceOnUse">
<stop/>
<stop offset="0.490464" stop-color="#7B61FF"/>
<stop offset="0.999879" stop-color="white"/>
</linearGradient>
</defs>
</svg>
