<svg width="211" height="13" viewBox="0 0 211 13" fill="none" xmlns="http://www.w3.org/2000/svg">
<path d="M1.00744 12.144L0.863437 10.464L1.99944 10.4C2.94877 10.336 3.42344 9.81333 3.42344 8.832V0.719999H5.47144V8.816C5.47144 10.8427 4.42077 11.9307 2.31944 12.08L1.00744 12.144ZM12.9989 12.16C11.9109 12.16 10.9563 11.92 10.1349 11.44C9.32427 10.96 8.69494 10.288 8.24694 9.424C7.79894 8.54933 7.57494 7.52533 7.57494 6.352C7.57494 5.168 7.79894 4.144 8.24694 3.28C8.69494 2.416 9.32427 1.74933 10.1349 1.28C10.9456 0.8 11.9003 0.559999 12.9989 0.559999C14.0976 0.559999 15.0523 0.8 15.8629 1.28C16.6736 1.74933 17.3029 2.416 17.7509 3.28C18.1989 4.144 18.4229 5.16267 18.4229 6.336C18.4229 7.52 18.1989 8.54933 17.7509 9.424C17.3029 10.288 16.6736 10.96 15.8629 11.44C15.0523 11.92 14.0976 12.16 12.9989 12.16ZM12.9989 10.4C14.0336 10.4 14.8389 10.0427 15.4149 9.328C15.9909 8.61333 16.2789 7.62133 16.2789 6.352C16.2789 5.072 15.9909 4.08 15.4149 3.376C14.8496 2.672 14.0443 2.32 12.9989 2.32C11.9643 2.32 11.1589 2.672 10.5829 3.376C10.0069 4.08 9.71894 5.072 9.71894 6.352C9.71894 7.62133 10.0069 8.61333 10.5829 9.328C11.1589 10.0427 11.9643 10.4 12.9989 10.4ZM20.5054 12V0.719999H22.5534V12H20.5054ZM25.0054 12V0.719999H26.5414L32.6054 8.592V0.719999H34.5094V12H32.9894L26.9094 4.096V12H25.0054ZM46.3427 12.16C45.2547 12.16 44.3 11.92 43.4787 11.44C42.668 10.96 42.0387 10.288 41.5907 9.424C41.1427 8.54933 40.9187 7.52533 40.9187 6.352C40.9187 5.168 41.1427 4.144 41.5907 3.28C42.0387 2.416 42.668 1.74933 43.4787 1.28C44.2894 0.8 45.244 0.559999 46.3427 0.559999C47.4414 0.559999 48.396 0.8 49.2067 1.28C50.0174 1.74933 50.6467 2.416 51.0947 3.28C51.5427 4.144 51.7667 5.16267 51.7667 6.336C51.7667 7.52 51.5427 8.54933 51.0947 9.424C50.6467 10.288 50.0174 10.96 49.2067 11.44C48.396 11.92 47.4414 12.16 46.3427 12.16ZM46.3427 10.4C47.3774 10.4 48.1827 10.0427 48.7587 9.328C49.3347 8.61333 49.6227 7.62133 49.6227 6.352C49.6227 5.072 49.3347 4.08 48.7587 3.376C48.1934 2.672 47.388 2.32 46.3427 2.32C45.308 2.32 44.5027 2.672 43.9267 3.376C43.3507 4.08 43.0627 5.072 43.0627 6.352C43.0627 7.62133 43.3507 8.61333 43.9267 9.328C44.5027 10.0427 45.308 10.4 46.3427 10.4ZM58.5372 12.16C56.9905 12.16 55.8065 11.76 54.9852 10.96C54.1745 10.1493 53.7692 8.95467 53.7692 7.376V0.719999H55.8172V7.36C55.8172 8.37333 56.0465 9.136 56.5052 9.648C56.9745 10.1493 57.6519 10.4 58.5372 10.4C60.3399 10.4 61.2412 9.38667 61.2412 7.36V0.719999H63.2732V7.376C63.2732 8.95467 62.8732 10.1493 62.0732 10.96C61.2732 11.76 60.0945 12.16 58.5372 12.16ZM65.6617 12V0.719999H70.5577C71.795 0.719999 72.7497 1.01867 73.4217 1.616C74.0937 2.20267 74.4297 3.02933 74.4297 4.096C74.4297 4.93867 74.211 5.63733 73.7737 6.192C73.3364 6.736 72.707 7.104 71.8857 7.296C72.4297 7.46667 72.8777 7.87733 73.2297 8.528L75.1177 12H72.8617L70.9097 8.4C70.7177 8.048 70.4884 7.808 70.2217 7.68C69.9657 7.552 69.635 7.488 69.2297 7.488H67.7097V12H65.6617ZM67.7097 5.968H70.2057C71.699 5.968 72.4457 5.36 72.4457 4.144C72.4457 2.93867 71.699 2.336 70.2057 2.336H67.7097V5.968ZM86.1909 12.16C85.0176 12.16 84.0096 11.9253 83.1669 11.456C82.3349 10.976 81.6949 10.304 81.2469 9.44C80.7989 8.56533 80.5749 7.536 80.5749 6.352C80.5749 5.168 80.7989 4.144 81.2469 3.28C81.6949 2.416 82.3349 1.74933 83.1669 1.28C84.0096 0.8 85.0176 0.559999 86.1909 0.559999C86.9483 0.559999 87.6629 0.677333 88.3349 0.912C89.0176 1.14667 89.5776 1.48267 90.0149 1.92L89.3429 3.552C88.8629 3.14667 88.3723 2.85333 87.8709 2.672C87.3696 2.48 86.8309 2.384 86.2549 2.384C85.1136 2.384 84.2443 2.73067 83.6469 3.424C83.0496 4.10667 82.7509 5.08267 82.7509 6.352C82.7509 7.62133 83.0496 8.60267 83.6469 9.296C84.2443 9.98933 85.1136 10.336 86.2549 10.336C86.8309 10.336 87.3696 10.2453 87.8709 10.064C88.3723 9.872 88.8629 9.57333 89.3429 9.168L90.0149 10.8C89.5776 11.2267 89.0176 11.5627 88.3349 11.808C87.6629 12.0427 86.9483 12.16 86.1909 12.16ZM96.4833 12.16C95.3953 12.16 94.4406 11.92 93.6193 11.44C92.8086 10.96 92.1793 10.288 91.7313 9.424C91.2833 8.54933 91.0593 7.52533 91.0593 6.352C91.0593 5.168 91.2833 4.144 91.7313 3.28C92.1793 2.416 92.8086 1.74933 93.6193 1.28C94.43 0.8 95.3846 0.559999 96.4833 0.559999C97.582 0.559999 98.5366 0.8 99.3473 1.28C100.158 1.74933 100.787 2.416 101.235 3.28C101.683 4.144 101.907 5.16267 101.907 6.336C101.907 7.52 101.683 8.54933 101.235 9.424C100.787 10.288 100.158 10.96 99.3473 11.44C98.5366 11.92 97.582 12.16 96.4833 12.16ZM96.4833 10.4C97.518 10.4 98.3233 10.0427 98.8993 9.328C99.4753 8.61333 99.7633 7.62133 99.7633 6.352C99.7633 5.072 99.4753 4.08 98.8993 3.376C98.334 2.672 97.5286 2.32 96.4833 2.32C95.4486 2.32 94.6433 2.672 94.0673 3.376C93.4913 4.08 93.2033 5.072 93.2033 6.352C93.2033 7.62133 93.4913 8.61333 94.0673 9.328C94.6433 10.0427 95.4486 10.4 96.4833 10.4ZM104.022 12V0.719999H105.734L109.734 8.096L113.718 0.719999H115.398V12H113.542V4.4L110.31 10.288H109.11L105.878 4.432V12H104.022ZM117.912 12V0.719999H119.624L123.624 8.096L127.608 0.719999H129.288V12H127.432V4.4L124.2 10.288H123L119.768 4.432V12H117.912ZM136.459 12.16C134.912 12.16 133.728 11.76 132.907 10.96C132.096 10.1493 131.691 8.95467 131.691 7.376V0.719999H133.739V7.36C133.739 8.37333 133.968 9.136 134.427 9.648C134.896 10.1493 135.574 10.4 136.459 10.4C138.262 10.4 139.163 9.38667 139.163 7.36V0.719999H141.195V7.376C141.195 8.95467 140.795 10.1493 139.995 10.96C139.195 11.76 138.016 12.16 136.459 12.16ZM143.584 12V0.719999H145.12L151.184 8.592V0.719999H153.088V12H151.568L145.488 4.096V12H143.584ZM155.552 12V0.719999H157.6V12H155.552ZM162.772 12V2.432H158.9V0.719999H168.692V2.432H164.82V12H162.772ZM172.881 12V6.816L168.545 0.719999H170.929L173.937 4.992L176.961 0.719999H179.249L174.929 6.832V12H172.881ZM192.685 11.472V9.936L198.717 7.408L192.685 4.88V3.328L200.493 6.64V8.16L192.685 11.472ZM202.279 11.472V9.936L208.311 7.408L202.279 4.88V3.328L210.087 6.64V8.16L202.279 11.472Z" fill="#9558FF"/>
</svg>
