<svg width="50" height="50" viewBox="0 0 50 50" fill="none" xmlns="http://www.w3.org/2000/svg">
<rect width="50" height="50" rx="25" fill="#53D4FD"/>
<path fill-rule="evenodd" clip-rule="evenodd" d="M40 16.2921C38.8963 16.795 37.711 17.1345 36.4647 17.2854C37.7354 16.5046 38.7116 15.2681 39.172 13.795C37.982 14.5171 36.6654 15.0441 35.2635 15.3258C34.1401 14.0998 32.5403 13.3335 30.7689 13.3335C27.3697 13.3335 24.6155 16.1585 24.6155 19.6441C24.6155 20.1383 24.669 20.621 24.774 21.0825C19.6587 20.8191 15.1238 18.3066 12.0874 14.4883C11.5585 15.421 11.2547 16.5046 11.2547 17.6614C11.2547 19.8518 12.3415 21.7825 13.9919 22.9152C12.9839 22.8816 12.0349 22.5989 11.205 22.1258C11.2041 22.1518 11.2041 22.1797 11.2041 22.2046C11.2041 25.2633 13.3252 27.8143 16.1412 28.3941C15.6255 28.5373 15.0816 28.6152 14.5199 28.6152C14.1223 28.6152 13.7378 28.5758 13.3627 28.5027C14.1448 31.0085 16.4188 32.8335 19.111 32.8854C17.0058 34.5777 14.352 35.5883 11.4685 35.5883C10.9715 35.5883 10.4811 35.5585 10 35.4998C12.7232 37.2883 15.9584 38.3335 19.4345 38.3335C30.7549 38.3335 36.9467 28.7171 36.9467 20.3768C36.9467 20.1037 36.9392 19.8306 36.928 19.5595C38.1311 18.67 39.1739 17.5595 40 16.2921Z" fill="white"/>
</svg>
