<svg width="50" height="50" viewBox="0 0 50 50" fill="none" xmlns="http://www.w3.org/2000/svg">
<rect width="50" height="50" rx="25" fill="#D11F1F"/>
<path fill-rule="evenodd" clip-rule="evenodd" d="M25.7384 36.6363L18.8997 36.5097C16.6855 36.4656 14.4657 36.5536 12.2949 36.0967C8.99263 35.414 8.75869 32.0667 8.51389 29.2589C8.17658 25.3116 8.30716 21.2925 8.94371 17.3781C9.30306 15.1817 10.7173 13.8711 12.9043 13.7285C20.287 13.2109 27.7188 13.2722 35.0852 13.5137C35.8632 13.5359 36.6465 13.6568 37.4137 13.7946C41.2004 14.4663 41.2927 18.2595 41.5382 21.4527C41.783 24.6789 41.6796 27.9216 41.2117 31.1258C40.8364 33.7788 40.1182 36.0036 37.0872 36.2184C33.2896 36.4992 29.5792 36.7253 25.771 36.6533C25.7711 36.6363 25.7493 36.6363 25.7384 36.6363ZM21.6666 30.0002C24.4675 28.3204 27.215 26.6687 29.9999 25.0002C27.1938 23.3204 24.4515 21.6687 21.6666 20.0002V30.0002Z" fill="white"/>
</svg>
