<svg width="181" height="182" viewBox="0 0 181 182" fill="none" xmlns="http://www.w3.org/2000/svg">
<g clip-path="url(#clip0_1778_12945)">
<g filter="url(#filter0_dd_1778_12945)">
<path d="M25 30.5C25 19.4543 33.9543 10.5 45 10.5H136C147.046 10.5 156 19.4543 156 30.5V122C156 133.046 147.046 142 136 142H45C33.9543 142 25 133.046 25 122V30.5Z" fill="url(#paint0_linear_1778_12945)" fill-opacity="0.03"/>
<path d="M25.75 31.25C25.75 20.2043 34.7043 11.25 45.75 11.25H135.25C146.296 11.25 155.25 20.2043 155.25 31.25V121.25C155.25 132.296 146.296 141.25 135.25 141.25H45.75C34.7043 141.25 25.75 132.296 25.75 121.25V31.25Z" stroke="#A2AFCA" stroke-opacity="0.21" stroke-width="1.5"/>
<path d="M25 30.5C25 19.4543 33.9543 10.5 45 10.5H136C147.046 10.5 156 19.4543 156 30.5V122C156 133.046 147.046 142 136 142H45C33.9543 142 25 133.046 25 122V30.5Z" fill="url(#paint1_radial_1778_12945)" fill-opacity="0.4"/>
<g opacity="0.14">
<mask id="mask0_1778_12945" style="mask-type:alpha" maskUnits="userSpaceOnUse" x="25" y="30" width="131" height="112">
<path fill-rule="evenodd" clip-rule="evenodd" d="M156 48C156 38.0589 147.941 30 138 30H43C33.0589 30 25 38.0589 25 48V124C25 133.941 33.0589 142 43 142H138C147.941 142 156 133.941 156 124V48Z" fill="#09101F"/>
</mask>
<g mask="url(#mask0_1778_12945)">
<g filter="url(#filter1_f_1778_12945)">
<path d="M139 175C160.539 175 178 157.539 178 136C178 114.461 160.539 97 139 97C117.461 97 100 114.461 100 136C100 157.539 117.461 175 139 175Z" fill="url(#paint2_radial_1778_12945)"/>
</g>
</g>
</g>
</g>
</g>
<path fill-rule="evenodd" clip-rule="evenodd" d="M33 76C33 43.9675 58.9675 18 91 18C123.033 18 149 43.9675 149 76C149 108.033 123.033 134 91 134C58.9675 134 33 108.033 33 76ZM46.2717 86.6088C47.8994 87.4712 49.7368 87.9025 51.7838 87.9025C53.7815 87.9025 55.5942 87.4775 57.222 86.627C58.8497 85.7765 60.1075 84.5984 60.9954 83.0919L56.9075 81.0692C56.2046 81.8953 55.4709 82.4967 54.7064 82.8732C53.9541 83.2498 53.0848 83.4381 52.0983 83.4381C51.0501 83.4381 50.1314 83.2437 49.3422 82.855C48.553 82.4541 47.9364 81.9014 47.4925 81.1968C47.0609 80.4922 46.8451 79.6661 46.8451 78.7186H61.3653C61.4023 78.4027 61.4208 78.1901 61.4208 78.0808C61.4332 77.9593 61.4393 77.8196 61.4393 77.6617C61.4393 75.7544 61.02 74.084 60.1815 72.6506C59.3553 71.2171 58.1962 70.0994 56.704 69.2977C55.2243 68.4837 53.4979 68.0768 51.5249 68.0768C50.0451 68.0768 48.6701 68.3319 47.4 68.8421C46.1299 69.3402 45.0139 70.0448 44.052 70.9559C43.0902 71.8548 42.338 72.9057 41.7954 74.1083C41.2651 75.311 41 76.6048 41 77.9897C41 79.8726 41.4748 81.5612 42.4243 83.0554C43.3738 84.5497 44.6563 85.7341 46.2717 86.6088ZM55.8532 75.6208H47.0486C47.1349 74.904 47.3692 74.2845 47.7514 73.7621C48.1337 73.2397 48.6393 72.8388 49.2682 72.5594C49.8971 72.28 50.6247 72.1403 51.4509 72.1403C52.2277 72.1403 52.9245 72.28 53.541 72.5594C54.1576 72.8388 54.6632 73.2397 55.0578 73.7621C55.4647 74.2845 55.7299 74.904 55.8532 75.6208ZM61.5202 87.3194L70.5824 76.2259L64.5825 68.5278H71.965L74.4601 71.7884L77.7052 76.2259L74.4601 80.6011L69.1515 87.3194H61.5202ZM82.354 70.9116L91.578 59.9861H83.8104L78.4069 66.6027L75.104 70.9116L78.4069 75.2818L80.9468 78.4931H88.461L82.354 70.9116ZM106.228 87.9253C104.921 87.9253 103.694 87.658 102.547 87.1236C101.4 86.5891 100.407 85.842 99.5688 84.8822V87.3422H93.8902V56H99.5688V70.9604C100.321 70.0615 101.264 69.363 102.399 68.8649C103.533 68.3547 104.76 68.0996 106.08 68.0996C107.905 68.0996 109.533 68.5369 110.963 69.4116C112.393 70.2741 113.516 71.4524 114.329 72.9467C115.143 74.4287 115.55 76.1173 115.55 78.0124C115.55 79.944 115.131 81.6569 114.292 83.1511C113.454 84.6453 112.326 85.8175 110.908 86.668C109.502 87.5062 107.942 87.9253 106.228 87.9253ZM104.526 83.1693C105.525 83.1693 106.4 82.9507 107.153 82.5133C107.905 82.0638 108.497 81.4564 108.928 80.6911C109.36 79.9136 109.576 79.0329 109.576 78.0489C109.576 77.0527 109.354 76.1659 108.91 75.3884C108.466 74.5988 107.868 73.9793 107.116 73.5298C106.363 73.0803 105.5 72.8556 104.526 72.8556C103.552 72.8556 102.676 73.0803 101.899 73.5298C101.135 73.9793 100.531 74.5927 100.087 75.3702C99.6428 76.1477 99.4208 77.0406 99.4208 78.0489C99.4208 79.0329 99.6367 79.9136 100.068 80.6911C100.512 81.4564 101.116 82.0638 101.881 82.5133C102.658 82.9507 103.54 83.1693 104.526 83.1693ZM126.114 85.0098L119.992 96.8178H126.484L140.968 68.6827H134.457L129.425 79.616L123.617 68.6827H117.106L126.114 85.0098Z" fill="url(#paint3_radial_1778_12945)"/>
<defs>
<filter id="filter0_dd_1778_12945" x="0" y="0.5" width="181" height="181.5" filterUnits="userSpaceOnUse" color-interpolation-filters="sRGB">
<feFlood flood-opacity="0" result="BackgroundImageFix"/>
<feColorMatrix in="SourceAlpha" type="matrix" values="0 0 0 0 0 0 0 0 0 0 0 0 0 0 0 0 0 0 127 0" result="hardAlpha"/>
<feOffset dy="5"/>
<feGaussianBlur stdDeviation="5"/>
<feColorMatrix type="matrix" values="0 0 0 0 0.0156863 0 0 0 0 0.027451 0 0 0 0 0.054902 0 0 0 0.04 0"/>
<feBlend mode="normal" in2="BackgroundImageFix" result="effect1_dropShadow_1778_12945"/>
<feColorMatrix in="SourceAlpha" type="matrix" values="0 0 0 0 0 0 0 0 0 0 0 0 0 0 0 0 0 0 127 0" result="hardAlpha"/>
<feOffset dy="15"/>
<feGaussianBlur stdDeviation="12.5"/>
<feColorMatrix type="matrix" values="0 0 0 0 0.0142188 0 0 0 0 0.0269295 0 0 0 0 0.0541667 0 0 0 0.7 0"/>
<feBlend mode="normal" in2="effect1_dropShadow_1778_12945" result="effect2_dropShadow_1778_12945"/>
<feBlend mode="normal" in="SourceGraphic" in2="effect2_dropShadow_1778_12945" result="shape"/>
</filter>
<filter id="filter1_f_1778_12945" x="64" y="61" width="150" height="150" filterUnits="userSpaceOnUse" color-interpolation-filters="sRGB">
<feFlood flood-opacity="0" result="BackgroundImageFix"/>
<feBlend mode="normal" in="SourceGraphic" in2="BackgroundImageFix" result="shape"/>
<feGaussianBlur stdDeviation="18" result="effect1_foregroundBlur_1778_12945"/>
</filter>
<linearGradient id="paint0_linear_1778_12945" x1="49" y1="24" x2="90.5" y2="142" gradientUnits="userSpaceOnUse">
<stop stop-color="#A2AFCA"/>
<stop offset="1" stop-color="#5E9EC9"/>
</linearGradient>
<radialGradient id="paint1_radial_1778_12945" cx="0" cy="0" r="1" gradientUnits="userSpaceOnUse" gradientTransform="translate(90.5 10) rotate(90) scale(53 52.7985)">
<stop offset="0.0282336" stop-color="#6A68FF"/>
<stop offset="1" stop-color="#6A68FF" stop-opacity="0"/>
</radialGradient>
<radialGradient id="paint2_radial_1778_12945" cx="0" cy="0" r="1" gradientUnits="userSpaceOnUse" gradientTransform="translate(134 97) rotate(-0.87523) scale(44.147 108.097)">
<stop stop-color="#86D3FF"/>
<stop offset="1" stop-color="#6C7EFF"/>
</radialGradient>
<radialGradient id="paint3_radial_1778_12945" cx="0" cy="0" r="1" gradientUnits="userSpaceOnUse" gradientTransform="translate(79 38) rotate(81.3692) scale(113.283)">
<stop stop-color="#B2BFDA"/>
<stop offset="0.504673" stop-color="#4F5971"/>
<stop offset="0.785047" stop-color="#222D46"/>
<stop offset="1" stop-color="#456187"/>
</radialGradient>
<clipPath id="clip0_1778_12945">
<rect width="181" height="182" fill="white"/>
</clipPath>
</defs>
</svg>
