<svg width="101" height="42" viewBox="0 0 101 42" fill="none" xmlns="http://www.w3.org/2000/svg">
<g clip-path="url(#clip0_2138_7697)">
<path d="M11.3702 32.4024C9.32322 32.4024 7.48585 31.9711 5.8581 31.1087C4.2427 30.234 2.96022 29.0495 2.0107 27.5553C1.06119 26.0611 0.586426 24.3725 0.586426 22.4895C0.586426 21.1047 0.851551 19.8109 1.3818 18.6082C1.92438 17.4055 2.6766 16.3547 3.63845 15.4558C4.6003 14.5447 5.71628 13.8401 6.98643 13.342C8.25657 12.8318 9.63151 12.5767 11.1113 12.5767C13.0843 12.5767 14.8107 12.9836 16.2905 13.7975C17.7826 14.5993 18.9417 15.7169 19.7679 17.1504C20.6065 18.5839 21.0257 20.2543 21.0257 22.1615C21.0257 22.3195 21.0196 22.4592 21.0072 22.5807C21.0072 22.69 20.9887 22.9026 20.9517 23.2184H6.43151C6.43151 24.166 6.64732 24.9921 7.07891 25.6967C7.52284 26.4013 8.1394 26.954 8.92862 27.3549C9.71784 27.7436 10.6365 27.938 11.6847 27.938C12.6712 27.938 13.5406 27.7497 14.2928 27.3731C15.0573 26.9965 15.7911 26.3952 16.4939 25.5691L20.5818 27.5918C19.6939 29.0982 18.4361 30.2764 16.8084 31.1269C15.1806 31.9773 13.3679 32.4024 11.3702 32.4024ZM6.63498 20.1207H15.4396C15.3163 19.4039 15.0512 18.7844 14.6442 18.262C14.2496 17.7396 13.744 17.3387 13.1275 17.0593C12.5109 16.7799 11.8142 16.6402 11.0373 16.6402C10.2111 16.6402 9.48354 16.7799 8.85463 17.0593C8.22573 17.3387 7.72015 17.7396 7.33787 18.262C6.95559 18.7844 6.72131 19.4039 6.63498 20.1207Z" fill="white"/>
<path d="M21.1064 31.8195L30.1686 20.7259L24.1687 13.0278H31.5512L34.0463 16.2885L37.2914 20.7259L34.0463 25.1012L28.7377 31.8195H21.1064Z" fill="url(#paint0_linear_2138_7697)"/>
<path d="M51.1644 4.48608L41.9404 15.4116L48.0474 22.993H40.5332L37.9933 19.7818L34.6904 15.4116L37.9933 11.1026L43.3968 4.48608H51.1644Z" fill="url(#paint1_linear_2138_7697)"/>
<path d="M65.8141 32.4253C64.5069 32.4253 63.28 32.158 62.1332 31.6236C60.9864 31.0891 59.9936 30.342 59.1552 29.3822V31.8422H53.4766V0.5H59.1552V15.4604C59.9075 14.5615 60.8508 13.863 61.9852 13.3649C63.1196 12.8547 64.3468 12.5996 65.6662 12.5996C67.4913 12.5996 69.119 13.0369 70.5494 13.9116C71.9797 14.7741 73.102 15.9524 73.9159 17.4467C74.7297 18.9287 75.1367 20.6173 75.1367 22.5124C75.1367 24.444 74.7173 26.1569 73.8789 27.6511C73.0404 29.1453 71.9121 30.3175 70.4939 31.168C69.0881 32.0062 67.5283 32.4253 65.8141 32.4253ZM64.1124 27.6693C65.1112 27.6693 65.9867 27.4507 66.739 27.0133C67.4913 26.5638 68.0832 25.9564 68.5147 25.1911C68.9462 24.4136 69.1621 23.5329 69.1621 22.5489C69.1621 21.5527 68.9401 20.6659 68.4962 19.8884C68.0523 19.0988 67.4543 18.4793 66.702 18.0298C65.9497 17.5803 65.0867 17.3556 64.1124 17.3556C63.1381 17.3556 62.2627 17.5803 61.4858 18.0298C60.7214 18.4793 60.117 19.0927 59.6731 19.8702C59.2292 20.6477 59.0072 21.5406 59.0072 22.5489C59.0072 23.5329 59.2231 24.4136 59.6546 25.1911C60.0985 25.9564 60.7029 26.5638 61.4673 27.0133C62.2442 27.4507 63.126 27.6693 64.1124 27.6693Z" fill="white"/>
<path d="M79.5784 41.3177L85.701 29.5097L76.6929 13.1826H83.2039L89.0119 24.116L94.0432 13.1826H100.554L86.0709 41.3177H79.5784Z" fill="white"/>
</g>
<defs>
<linearGradient id="paint0_linear_2138_7697" x1="25.5864" y1="9" x2="24.9914" y2="30.786" gradientUnits="userSpaceOnUse">
<stop stop-color="#7127F1" stop-opacity="0"/>
<stop offset="1" stop-color="#7127F1"/>
</linearGradient>
<linearGradient id="paint1_linear_2138_7697" x1="42.9274" y1="4.48608" x2="43.5864" y2="26" gradientUnits="userSpaceOnUse">
<stop stop-color="#54FCA7"/>
<stop offset="1" stop-color="#54FCA7" stop-opacity="0"/>
</linearGradient>
<clipPath id="clip0_2138_7697">
<rect width="100" height="41" fill="white" transform="translate(0.586426 0.5)"/>
</clipPath>
</defs>
</svg>
