<svg width="20" height="20" viewBox="0 0 20 20" fill="none" xmlns="http://www.w3.org/2000/svg">
<path fill-rule="evenodd" clip-rule="evenodd" d="M14 12.7199C13.4933 12.7199 13.04 12.9199 12.6933 13.2333L7.94 10.4666C7.97333 10.3133 8 10.1599 8 9.99992C8 9.83992 7.97333 9.68658 7.94 9.53325L12.64 6.79325C13 7.12659 13.4733 7.33325 14 7.33325C15.1067 7.33325 16 6.43992 16 5.33325C16 4.22659 15.1067 3.33325 14 3.33325C12.8933 3.33325 12 4.22659 12 5.33325C12 5.49325 12.0267 5.64659 12.06 5.79992L7.36 8.53992C7 8.20658 6.52667 7.99992 6 7.99992C4.89333 7.99992 4 8.89325 4 9.99992C4 11.1066 4.89333 11.9999 6 11.9999C6.52667 11.9999 7 11.7933 7.36 11.4599L12.1067 14.2333C12.0733 14.3733 12.0533 14.5199 12.0533 14.6666C12.0533 15.7399 12.9267 16.6133 14 16.6133C15.0733 16.6133 15.9467 15.7399 15.9467 14.6666C15.9467 13.5933 15.0733 12.7199 14 12.7199Z" fill="#A2A3B9"/>
</svg>
