<svg width="20" height="20" viewBox="0 0 20 20" fill="none" xmlns="http://www.w3.org/2000/svg">
<g clip-path="url(#clip0_1781_14912)">
<path d="M18.7166 5.00003C18.0749 5.2917 17.3832 5.48337 16.6666 5.57503C17.3999 5.13337 17.9666 4.43337 18.2332 3.5917C17.5416 4.00837 16.7749 4.30004 15.9666 4.4667C15.3082 3.75004 14.3832 3.33337 13.3332 3.33337C11.3749 3.33337 9.77487 4.93337 9.77487 6.90837C9.77487 7.1917 9.8082 7.4667 9.86653 7.72503C6.89987 7.57503 4.2582 6.15003 2.49987 3.9917C2.19153 4.5167 2.01653 5.13337 2.01653 5.78337C2.01653 7.02503 2.64153 8.12503 3.6082 8.75003C3.01653 8.75003 2.46653 8.58337 1.9832 8.33337V8.35837C1.9832 10.0917 3.21653 11.5417 4.84987 11.8667C4.32547 12.0102 3.77495 12.0302 3.24153 11.925C3.46787 12.6354 3.91115 13.257 4.50905 13.7025C5.10695 14.1479 5.82941 14.3948 6.57487 14.4084C5.31123 15.4087 3.74486 15.9495 2.1332 15.9417C1.84987 15.9417 1.56653 15.925 1.2832 15.8917C2.86653 16.9084 4.74987 17.5 6.76653 17.5C13.3332 17.5 16.9416 12.05 16.9416 7.32503C16.9416 7.1667 16.9416 7.0167 16.9332 6.85837C17.6332 6.35837 18.2332 5.72503 18.7166 5.00003Z" fill="#A2A3B9"/>
</g>
<defs>
<clipPath id="clip0_1781_14912">
<rect width="20" height="20" fill="white"/>
</clipPath>
</defs>
</svg>
