<svg width="30" height="30" viewBox="0 0 30 30" fill="none" xmlns="http://www.w3.org/2000/svg">
<g clip-path="url(#clip0_2104_17331)">
<path d="M0 0H30V30H0V0Z" fill="#EE1C25"/>
<path d="M12 6.15L4.35 11.1L7.5 3L10.2 11.1L3 6.15H12Z" fill="#FFFF00"/>
<path d="M13.8617 1.93644L16.5875 3.2715L13.7343 3.76175L15.5839 1.60116L15.4058 4.50621L13.8617 1.93644Z" fill="#FFFF00"/>
<path d="M17.3361 4.58242L19.3289 6.8745L16.5079 6.2154L19.0541 4.94395L17.7588 7.55249L17.3361 4.58242Z" fill="#FFFF00"/>
<path d="M17.9632 8.93745L18.8469 11.845L16.5397 10.0905L19.3847 9.96956L17.1358 11.8228L17.9632 8.93745Z" fill="#FFFF00"/>
<path d="M15.5866 12.0487L15.2798 15.0689L13.8301 12.5624L16.4986 13.5479L13.7116 14.3887L15.5866 12.0487Z" fill="#FFFF00"/>
</g>
<defs>
<clipPath id="clip0_2104_17331">
<rect width="30" height="30" fill="white"/>
</clipPath>
</defs>
</svg>
