<svg width="30" height="30" viewBox="0 0 30 30" fill="none" xmlns="http://www.w3.org/2000/svg">
<g clip-path="url(#clip0_2104_17299)">
<path fill-rule="evenodd" clip-rule="evenodd" d="M0 0H57V2.30859H0V0ZM0 4.61719H57V6.92578H0V4.61719ZM0 9.22852H57V11.543H0V9.22852ZM0 13.8457H57V16.1543H0V13.8457ZM0 18.4629H57V20.7715H0V18.4629ZM0 23.0742H57V25.3828H0V23.0742ZM0 27.6914H57V30H0V27.6914Z" fill="#BD3D44"/>
<path fill-rule="evenodd" clip-rule="evenodd" d="M0 2.30859H57V4.61719H0V2.30859ZM0 6.92578H57V9.22852H0V6.92578ZM0 11.5371H57V13.8457H0V11.5371ZM0 16.1543H57V18.457H0V16.1543ZM0 20.7715H57V23.0742H0V20.7715ZM0 25.3828H57V27.6914H0V25.3828Z" fill="white"/>
<path fill-rule="evenodd" clip-rule="evenodd" d="M0 0H22.7988V16.1543H0V0Z" fill="#192F5D"/>
<path fill-rule="evenodd" clip-rule="evenodd" d="M1.89258 0.691406L2.12695 1.33594H2.77148L2.23828 1.72852L2.44336 2.35547L1.89258 1.96289L1.38281 2.35547L1.59375 1.72852L1.03711 1.33594H1.72852L1.89258 0.691406ZM5.70117 0.691406L5.90625 1.33594H6.57422L6.02344 1.72852L6.25781 2.35547L5.70117 1.96289L5.14453 2.35547L5.37891 1.72852L4.82227 1.33594H5.49023L5.70117 0.691406ZM9.50977 0.691406L9.71484 1.33594H10.3828L9.83203 1.72852L10.0664 2.35547L9.50977 1.96289L8.95313 2.35547L9.1875 1.72852L8.63086 1.33594H9.29883L9.50977 0.691406ZM13.2949 0.691406L13.5234 1.33594H14.168L13.6406 1.72852L13.8457 2.35547L13.2949 1.96289L12.7617 2.35547L12.9668 1.72852L12.416 1.33594H13.1074L13.2949 0.691406ZM17.1035 0.691406L17.3086 1.33594H17.9766L17.4258 1.72852L17.6543 2.35547L17.0742 1.96289L16.5469 2.35547L16.752 1.72852L16.2012 1.33594H16.8691L17.1035 0.691406ZM20.9121 0.691406L21.1172 1.33594H21.7852L21.2285 1.72852L21.4629 2.35547L20.9062 1.96289L20.3555 2.35547L20.5898 1.72852L20.0332 1.33594H20.7012L20.9121 0.691406ZM3.80273 2.30859L4.01367 2.95312H4.6875L4.13086 3.3457L4.36523 3.9668L3.80859 3.57422L3.25195 3.9668L3.48633 3.3457L2.92969 2.95312H3.59766L3.80273 2.30859ZM7.59375 2.30859L7.82813 2.95312H8.47266L7.93945 3.3457L8.14453 3.9668L7.59375 3.57422L7.06641 3.9668L7.27148 3.3457L6.71484 2.95312H7.40625L7.59375 2.30859ZM11.4023 2.30859L11.6074 2.95312H12.2754L11.7246 3.3457L11.959 3.9668L11.4023 3.57422L10.8457 3.9668L11.0801 3.3457L10.5234 2.95312H11.1914L11.4023 2.30859ZM15.2109 2.30859L15.416 2.95312H16.084L15.5332 3.3457L15.7617 3.9668L15.2051 3.57422L14.6543 3.9668L14.8887 3.3457L14.332 2.95312H15L15.2109 2.30859ZM18.9902 2.30859L19.2246 2.95312H19.8457L19.3184 3.3457L19.5234 3.9668L18.9668 3.57422L18.4395 3.9668L18.6445 3.3457L18.0937 2.95312H18.7852L18.9902 2.30859ZM1.91602 3.92578L2.09766 4.57031H2.79492L2.23828 4.96289L2.44336 5.58398L1.89258 5.19141L1.38281 5.58398L1.59375 4.96289L1.03711 4.57031H1.72852L1.91602 3.92578ZM5.70117 3.92578L5.90625 4.57031H6.57422L6.04688 4.96289L6.25195 5.58398L5.70117 5.19141L5.17383 5.58398L5.37891 4.96289L4.82227 4.57031H5.49023L5.70117 3.92578ZM9.50977 3.92578L9.71484 4.57031H10.3828L9.83203 4.96289L10.0664 5.58398L9.50977 5.19141L8.95313 5.58398L9.1875 4.96289L8.63086 4.57031H9.29883L9.50977 3.92578ZM13.2949 3.92578L13.5234 4.57031H14.168L13.6406 4.96289L13.8457 5.58398L13.2949 5.19141L12.7617 5.58398L12.9668 4.96289L12.4219 4.57031H13.1133L13.2949 3.92578ZM17.1035 3.92578L17.3086 4.57031H17.9766L17.4492 4.96289L17.6543 5.58398L17.0977 5.19141L16.5703 5.58398L16.7754 4.96289L16.2305 4.57031H16.8984L17.1035 3.92578ZM20.9121 3.92578L21.1172 4.57031H21.7852L21.2285 4.96289L21.4629 5.58398L20.9062 5.19141L20.3555 5.58398L20.5898 4.96289L20.0332 4.57031H20.7012L20.9121 3.92578ZM3.80273 5.53711L4.01367 6.18164H4.6875L4.13086 6.57422L4.36523 7.20117L3.80859 6.80859L3.25195 7.20117L3.48633 6.57422L2.92969 6.1875H3.59766L3.80273 5.53711ZM7.59375 5.53711L7.82813 6.18164H8.47266L7.93945 6.57422L8.14453 7.20703L7.59375 6.81445L7.06641 7.20703L7.27148 6.58008L6.71484 6.19336H7.40625L7.59375 5.53711ZM11.4023 5.53711L11.6074 6.18164H12.2754L11.748 6.57422L11.9531 7.20703L11.4023 6.81445L10.8691 7.20703L11.0742 6.58008L10.5234 6.19336H11.1914L11.4023 5.53711ZM15.2109 5.53711L15.416 6.18164H16.084L15.5332 6.57422L15.7617 7.20703L15.2051 6.81445L14.6543 7.20703L14.8887 6.58008L14.332 6.19336H15L15.2109 5.53711ZM18.9902 5.53711L19.2246 6.18164H19.8457L19.3184 6.57422L19.5234 7.20117L18.9668 6.80859L18.4395 7.20117L18.6445 6.57422L18.0937 6.1875H18.7852L18.9902 5.53711ZM1.91602 7.1543L2.09766 7.79883H2.79492L2.23828 8.19141L2.44336 8.81836L1.89258 8.42578L1.38281 8.81836L1.59375 8.19141L1.03711 7.79883H1.72852L1.91602 7.1543ZM5.70117 7.1543L5.90625 7.79883H6.57422L6.04688 8.19141L6.25195 8.81836L5.70117 8.42578L5.17383 8.81836L5.37891 8.19141L4.82227 7.79883H5.49023L5.70117 7.1543ZM9.50977 7.1543L9.71484 7.79883H10.3828L9.83203 8.19141L10.0664 8.81836L9.50977 8.42578L8.95313 8.81836L9.1875 8.19141L8.63086 7.79883H9.29883L9.50977 7.1543ZM13.2949 7.1543L13.5234 7.79883H14.168L13.6406 8.19141L13.8457 8.81836L13.2949 8.42578L12.7617 8.81836L12.9668 8.19141L12.416 7.79883H13.1074L13.2949 7.1543ZM17.1035 7.1543L17.3086 7.79883H17.9766L17.4492 8.19141L17.6543 8.81836L17.0977 8.42578L16.5703 8.81836L16.7754 8.19141L16.2246 7.79883H16.8926L17.1035 7.1543ZM20.9121 7.1543L21.1172 7.79883H21.7852L21.2285 8.19141L21.4629 8.81836L20.9062 8.42578L20.3555 8.81836L20.5898 8.19141L20.0332 7.79883H20.7012L20.9121 7.1543ZM3.80273 8.77148L4.01367 9.41601H4.6875L4.13086 9.80859L4.36523 10.4297L3.80859 10.0371L3.25195 10.4297L3.48633 9.80859L2.92969 9.41601H3.59766L3.80273 8.77148ZM7.59375 8.77148L7.82813 9.41601H8.47266L7.93945 9.80859L8.14453 10.4297L7.59375 10.0371L7.06641 10.4297L7.27148 9.80859L6.71484 9.41601H7.40625L7.59375 8.77148ZM11.4023 8.77148L11.6074 9.41601H12.2754L11.748 9.80859L11.9531 10.4297L11.4023 10.0371L10.8691 10.4297L11.0742 9.80859L10.5234 9.41601H11.1914L11.4023 8.77148ZM15.2109 8.77148L15.416 9.41601H16.084L15.5332 9.80859L15.7617 10.4297L15.2051 10.0371L14.6543 10.4297L14.8887 9.80859L14.332 9.41601H15L15.2109 8.77148ZM18.9902 8.77148L19.2246 9.41601H19.8457L19.3184 9.80859L19.5234 10.4297L18.9668 10.0371L18.4395 10.4297L18.6445 9.80859L18.0937 9.41601H18.7852L18.9902 8.77148ZM1.91602 10.3828L2.09766 11.0273H2.79492L2.23828 11.4258L2.44336 12.0469L1.89258 11.6543L1.38281 12.0469L1.59375 11.4258L1.03711 11.0332H1.72852L1.91602 10.3828ZM5.70117 10.3828L5.90625 11.0273H6.57422L6.04688 11.4258L6.25195 12.0469L5.70117 11.6543L5.17383 12.0469L5.37891 11.4258L4.82227 11.0332H5.49023L5.70117 10.3828ZM9.50977 10.3828L9.71484 11.0273H10.3828L9.83203 11.4258L10.0664 12.0469L9.50977 11.6543L8.95313 12.0469L9.1875 11.4258L8.63086 11.0332H9.29883L9.50977 10.3828ZM13.2949 10.3828L13.5234 11.0273H14.168L13.6406 11.4258L13.8457 12.0469L13.2949 11.6543L12.7617 12.0469L12.9668 11.4258L12.416 11.0332H13.1074L13.2949 10.3828ZM17.1035 10.3828L17.3086 11.0273H17.9766L17.4492 11.4258L17.6543 12.0469L17.0977 11.6543L16.5703 12.0469L16.7754 11.4258L16.2246 11.0332H16.8926L17.1035 10.3828ZM20.9121 10.3828L21.1172 11.0273H21.7852L21.2285 11.4258L21.4629 12.0469L20.9062 11.6543L20.3555 12.0469L20.5898 11.4258L20.0332 11.0332H20.7012L20.9121 10.3828ZM3.80273 12L4.01367 12.6445H4.6875L4.13086 13.0371L4.36523 13.6641L3.80859 13.2715L3.25195 13.6641L3.48633 13.0371L2.92969 12.6445H3.59766L3.80273 12ZM7.59375 12L7.82813 12.6445H8.47266L7.93945 13.0371L8.14453 13.6641L7.59375 13.2715L7.06641 13.6641L7.27148 13.0371L6.71484 12.6445H7.40625L7.59375 12ZM11.4023 12L11.6074 12.6445H12.2754L11.748 13.0371L11.9531 13.6641L11.4023 13.2715L10.8691 13.6641L11.0742 13.0371L10.5234 12.6445H11.1914L11.4023 12ZM15.2109 12L15.416 12.6445H16.084L15.5332 13.0371L15.7617 13.6641L15.2051 13.2715L14.6543 13.6641L14.8887 13.0371L14.332 12.6445H15L15.2109 12ZM18.9902 12L19.2246 12.6445H19.8457L19.3184 13.0371L19.5234 13.6641L18.9668 13.2715L18.4395 13.6641L18.6445 13.0371L18.0937 12.6445H18.7852L18.9902 12ZM1.91602 13.6172L2.09766 14.2617H2.79492L2.23828 14.6543L2.44336 15.2754L1.89258 14.8828L1.38281 15.2754L1.59375 14.6543L1.03711 14.2617H1.72852L1.91602 13.6172ZM5.70117 13.6172L5.90625 14.2617H6.57422L6.04688 14.6543L6.25195 15.2754L5.70117 14.8828L5.17383 15.2754L5.37891 14.6543L4.82227 14.2617H5.49023L5.70117 13.6172ZM9.50977 13.6172L9.71484 14.2617H10.3828L9.83203 14.6543L10.0664 15.2754L9.50977 14.8828L8.95313 15.2754L9.1875 14.6543L8.63086 14.2617H9.29883L9.50977 13.6172ZM13.2949 13.6172L13.5234 14.2617H14.168L13.6406 14.6543L13.8457 15.2754L13.2949 14.8828L12.7617 15.2754L12.9668 14.6543L12.416 14.2617H13.1074L13.2949 13.6172ZM17.1035 13.6172L17.3086 14.2617H17.9766L17.4492 14.6543L17.6543 15.2754L17.0977 14.8828L16.5703 15.2754L16.7754 14.6543L16.2246 14.2617H16.8926L17.1035 13.6172ZM20.9121 13.6172L21.1172 14.2617H21.7852L21.2285 14.6543L21.4629 15.2754L20.9062 14.8828L20.3555 15.2754L20.5898 14.6543L20.0332 14.2617H20.7012L20.9121 13.6172Z" fill="white"/>
</g>
<defs>
<clipPath id="clip0_2104_17299">
<rect width="30" height="30" fill="white"/>
</clipPath>
</defs>
</svg>
