<svg width="251" height="160" viewBox="0 0 251 160" fill="none" xmlns="http://www.w3.org/2000/svg">
<g filter="url(#filter0_d_261_12903)">
<rect x="50" y="46" width="151" height="60" rx="10" fill="#7027F0"/>
<rect x="50.5" y="46.5" width="150" height="59" rx="9.5" stroke="#1C1C1C"/>
</g>
<g clip-path="url(#clip0_261_12903)">
<path d="M168.72 82.7383C168.739 82.7595 168.751 82.786 168.755 82.8146C168.76 82.8433 168.757 82.8727 168.746 82.8993C168.735 82.926 168.717 82.9486 168.694 82.9644C168.672 82.9802 168.645 82.9885 168.618 82.9883H165.557C165.538 82.9882 165.519 82.984 165.502 82.976C165.484 82.9679 165.468 82.9562 165.455 82.9414L161.387 78.3281L157.275 82.9531C157.247 82.9801 157.211 82.9954 157.173 82.9961H154.112C154.085 82.9963 154.059 82.988 154.036 82.9722C154.013 82.9564 153.996 82.9338 153.985 82.9072C153.974 82.8805 153.971 82.8511 153.975 82.8225C153.98 82.7938 153.992 82.7673 154.011 82.7461L159.62 76.4297L154.2 70.293C154.18 70.272 154.166 70.2451 154.161 70.2158C154.156 70.1864 154.159 70.1561 154.17 70.1287C154.181 70.1013 154.199 70.078 154.223 70.0621C154.246 70.0461 154.274 70.038 154.301 70.0391H157.363C157.382 70.0384 157.401 70.0423 157.418 70.0504C157.436 70.0585 157.452 70.0706 157.464 70.0859L161.358 74.5352L165.266 70.0898C165.279 70.0745 165.295 70.0624 165.312 70.0543C165.33 70.0462 165.349 70.0423 165.368 70.043H168.429C168.457 70.042 168.484 70.05 168.508 70.066C168.531 70.0819 168.55 70.1052 168.561 70.1326C168.572 70.16 168.575 70.1904 168.569 70.2197C168.564 70.249 168.551 70.2759 168.531 70.2969L163.129 76.4297L168.72 82.7383Z" fill="white"/>
<path d="M139.697 82.9961C139.646 82.9961 139.597 82.9743 139.561 82.9355C139.525 82.8966 139.505 82.844 139.505 82.7891V70.2383C139.505 70.1834 139.525 70.1307 139.561 70.0919C139.597 70.0531 139.646 70.0313 139.697 70.0313H151.262C151.313 70.0312 151.363 70.0529 151.4 70.0916C151.436 70.1304 151.457 70.183 151.458 70.2383V72.0352C151.457 72.0904 151.436 72.1431 151.4 72.1818C151.363 72.2205 151.313 72.2422 151.262 72.2422H142.308V75.1289H147.677C147.728 75.1289 147.777 75.1507 147.814 75.1895C147.85 75.2284 147.87 75.281 147.87 75.3359V77.1328C147.87 77.1877 147.85 77.2404 147.814 77.2792C147.777 77.318 147.728 77.3398 147.677 77.3398H142.308V80.5547H151.378C151.43 80.5547 151.479 80.5764 151.516 80.6151C151.553 80.6538 151.574 80.7065 151.575 80.7617V82.7812C151.575 82.8088 151.57 82.836 151.56 82.8614C151.55 82.8868 151.535 82.9098 151.517 82.929C151.499 82.9483 151.477 82.9635 151.453 82.9737C151.429 82.9838 151.404 82.9888 151.378 82.9883L139.697 82.9961Z" fill="white"/>
<path d="M119.218 82.9961C119.193 82.9966 119.167 82.9916 119.143 82.9815C119.12 82.9713 119.098 82.9561 119.08 82.9369C119.061 82.9176 119.047 82.8946 119.037 82.8692C119.027 82.8438 119.022 82.8166 119.022 82.7891V70.2383C119.023 70.183 119.044 70.1304 119.081 70.0916C119.117 70.0529 119.167 70.0312 119.218 70.0313H121.636C121.687 70.0313 121.736 70.0531 121.772 70.0919C121.808 70.1307 121.829 70.1834 121.829 70.2383V82.7891C121.829 82.844 121.808 82.8966 121.772 82.9355C121.736 82.9743 121.687 82.9961 121.636 82.9961H119.218Z" fill="white"/>
<path d="M105.469 82.9961C105.443 82.9966 105.417 82.9916 105.394 82.9815C105.37 82.9713 105.348 82.9561 105.33 82.9369C105.312 82.9176 105.297 82.8946 105.287 82.8692C105.277 82.8438 105.272 82.8166 105.272 82.7891V70.2383C105.273 70.183 105.294 70.1304 105.331 70.0916C105.368 70.0529 105.417 70.0312 105.469 70.0313H116.891C116.943 70.0312 116.992 70.0529 117.029 70.0916C117.066 70.1304 117.087 70.183 117.088 70.2383V72.082C117.088 72.138 117.067 72.1916 117.03 72.2312C116.993 72.2707 116.944 72.293 116.891 72.293H108.079V75.707H112.958C113.009 75.707 113.059 75.7287 113.095 75.7674C113.132 75.8061 113.153 75.8588 113.154 75.9141V77.8672C113.153 77.9225 113.132 77.9751 113.095 78.0138C113.059 78.0525 113.009 78.0742 112.958 78.0742H108.079V82.7891C108.079 82.8166 108.074 82.8438 108.064 82.8692C108.054 82.8946 108.039 82.9176 108.021 82.9369C108.003 82.9561 107.981 82.9713 107.957 82.9815C107.934 82.9916 107.908 82.9966 107.883 82.9961H105.469Z" fill="white"/>
<path d="M97.9647 72.3516V82.7891C97.9652 82.8164 97.9605 82.8436 97.951 82.8689C97.9415 82.8943 97.9274 82.9173 97.9094 82.9366C97.8914 82.956 97.8699 82.9712 97.8463 82.9814C97.8227 82.9916 97.7975 82.9966 97.772 82.9961H95.3544C95.3033 82.9961 95.2543 82.9743 95.2181 82.9355C95.182 82.8966 95.1617 82.844 95.1617 82.7891V72.3516H90.0101C89.9845 72.3516 89.9591 72.3461 89.9355 72.3354C89.9119 72.3248 89.8905 72.3092 89.8725 72.2896C89.8546 72.2699 89.8405 72.2466 89.831 72.2211C89.8216 72.1955 89.8169 72.1681 89.8174 72.1406V70.2383C89.8174 70.1834 89.8377 70.1307 89.8739 70.0919C89.91 70.0531 89.959 70.0312 90.0101 70.0312H103.142C103.193 70.0312 103.242 70.0531 103.278 70.0919C103.314 70.1307 103.334 70.1834 103.334 70.2383V72.1328C103.334 72.1881 103.314 72.2412 103.278 72.2806C103.242 72.3201 103.193 72.3427 103.142 72.3437L97.9647 72.3516Z" fill="white"/>
<path d="M85.2657 82.9961C85.2146 82.9961 85.1656 82.9743 85.1294 82.9355C85.0933 82.8966 85.073 82.844 85.073 82.7891V70.2383C85.073 70.1834 85.0933 70.1307 85.1294 70.0919C85.1656 70.0531 85.2146 70.0312 85.2657 70.0312H87.6833C87.7335 70.0332 87.7811 70.0558 87.8162 70.0943C87.8514 70.1328 87.8715 70.1843 87.8724 70.2383V82.7891C87.8724 82.8166 87.8673 82.8438 87.8574 82.8692C87.8475 82.8946 87.8329 82.9176 87.8147 82.9369C87.7964 82.9561 87.7747 82.9713 87.7509 82.9815C87.7271 82.9916 87.7017 82.9966 87.6761 82.9961H85.2657Z" fill="white"/>
<path fill-rule="evenodd" clip-rule="evenodd" d="M70 70.2383C70 70.1834 70.0203 70.1307 70.0564 70.0919C70.0926 70.0531 70.1416 70.0312 70.1927 70.0312H80.5213C81.1895 70.0312 81.8303 70.3165 82.3028 70.8241C82.7753 71.3318 83.0408 72.0203 83.0408 72.7383V73.6016C83.0408 74.3195 82.7753 75.0081 82.3028 75.5157C81.8303 76.0234 81.1895 76.3086 80.5213 76.3086H80.6013C80.9349 76.305 81.2659 76.3726 81.5749 76.5075C81.884 76.6424 82.1651 76.8419 82.4019 77.0945C82.6386 77.347 82.8263 77.6476 82.9541 77.9787C83.0819 78.3099 83.1472 78.665 83.1462 79.0234V80.293C83.1462 80.6506 83.0802 81.0047 82.9519 81.3347C82.8237 81.6647 82.6358 81.9641 82.3991 82.2155C82.1624 82.4669 81.8816 82.6654 81.573 82.7994C81.2644 82.9334 80.9341 83.0002 80.6013 82.9961H70.1927C70.1416 82.9961 70.0926 82.9743 70.0564 82.9355C70.0203 82.8966 70 82.844 70 82.7891V70.2383ZM72.7558 72.1406H79.2998C79.6083 72.1406 79.9042 72.2723 80.1224 72.5067C80.3406 72.7412 80.4631 73.0591 80.4631 73.3906V73.9883C80.4631 74.3198 80.3406 74.6377 80.1224 74.8722C79.9042 75.1066 79.6083 75.2383 79.2998 75.2383H72.7558V72.1406ZM72.7558 77.3633H79.3543C79.6628 77.3633 79.9588 77.495 80.1769 77.7294C80.3951 77.9638 80.5177 78.2818 80.5177 78.6133V79.3945C80.5177 79.5585 80.4876 79.7209 80.429 79.8723C80.3705 80.0237 80.2848 80.1613 80.1767 80.277C80.0686 80.3928 79.9404 80.4845 79.7992 80.5469C79.6581 80.6093 79.5069 80.6411 79.3543 80.6406H72.7558V77.3633Z" fill="white"/>
<path d="M123.766 82.7891V70.2383C123.766 70.1834 123.787 70.1307 123.823 70.0919C123.859 70.0531 123.908 70.0313 123.959 70.0313H125.609C125.656 70.0314 125.701 70.0494 125.737 70.082L135.04 78.9336V70.2383C135.041 70.183 135.062 70.1304 135.099 70.0916C135.136 70.0529 135.185 70.0312 135.236 70.0313H137.37C137.422 70.0312 137.471 70.0529 137.508 70.0916C137.545 70.1304 137.566 70.183 137.567 70.2383V82.7891C137.567 82.8166 137.562 82.8438 137.552 82.8692C137.542 82.8946 137.527 82.9176 137.509 82.9369C137.491 82.9561 137.469 82.9713 137.445 82.9815C137.422 82.9916 137.396 82.9966 137.37 82.9961H135.724C135.676 82.9973 135.629 82.9792 135.593 82.9453L126.289 74.0742V82.7891C126.289 82.844 126.269 82.8966 126.233 82.9355C126.197 82.9743 126.148 82.9961 126.097 82.9961H123.959C123.908 82.9961 123.859 82.9743 123.823 82.9355C123.787 82.8966 123.766 82.844 123.766 82.7891Z" fill="white"/>
<path d="M171.05 77.7811C171.02 76.604 171.219 75.4331 171.636 74.3439C172.052 73.2546 172.676 72.2712 173.468 71.4569C177.187 67.4647 184.927 68.0233 184.971 68.0272C184.942 68.0624 179.292 76.8788 172.581 77.703C172.073 77.7637 171.562 77.7898 171.05 77.7811Z" fill="#3FBB96"/>
<path d="M171.854 80.496C172.048 80.827 172.276 81.1336 172.534 81.4101C174.831 83.8788 178.976 83.4179 181.797 80.3866C185.527 76.3827 184.989 68.0273 184.989 68.0273C184.989 68.0273 180.914 77.8476 174.464 79.9804C173.616 80.2618 172.74 80.4348 171.854 80.496Z" fill="#3FBB96"/>
</g>
<defs>
<filter id="filter0_d_261_12903" x="0" y="0" width="251" height="160" filterUnits="userSpaceOnUse" color-interpolation-filters="sRGB">
<feFlood flood-opacity="0" result="BackgroundImageFix"/>
<feColorMatrix in="SourceAlpha" type="matrix" values="0 0 0 0 0 0 0 0 0 0 0 0 0 0 0 0 0 0 127 0" result="hardAlpha"/>
<feOffset dy="4"/>
<feGaussianBlur stdDeviation="25"/>
<feComposite in2="hardAlpha" operator="out"/>
<feColorMatrix type="matrix" values="0 0 0 0 0.201667 0 0 0 0 0 0 0 0 0 0.458333 0 0 0 1 0"/>
<feBlend mode="normal" in2="BackgroundImageFix" result="effect1_dropShadow_261_12903"/>
<feBlend mode="normal" in="SourceGraphic" in2="effect1_dropShadow_261_12903" result="shape"/>
</filter>
<clipPath id="clip0_261_12903">
<rect width="115" height="15" fill="white" transform="translate(70 68)"/>
</clipPath>
</defs>
</svg>
