<svg width="160" height="160" viewBox="0 0 160 160" fill="none" xmlns="http://www.w3.org/2000/svg">
<g filter="url(#filter0_d_261_12894)">
<rect x="50" y="46" width="60" height="60" rx="10" fill="#0D0323"/>
<rect x="50.5" y="46.5" width="59" height="59" rx="9.5" stroke="#D2D0D5"/>
</g>
<path opacity="0.2" d="M104.864 76.0005C104.864 89.7349 93.7307 100.869 79.9965 100.869C66.262 100.869 55.1282 89.7349 55.1282 76.0005C55.1282 62.2662 66.262 51.1323 79.9965 51.1323C93.7306 51.1323 104.864 62.2662 104.864 76.0005Z" fill="#505050"/>
<g opacity="0.8">
<path d="M79.9168 64.4615L79.7632 64.9836V80.1333L79.9168 80.2866L86.9491 76.1298L79.9168 64.4615Z" fill="white"/>
<path d="M79.9168 64.4615L72.8845 76.1298L79.9168 80.2866V72.9335V64.4615Z" fill="white"/>
<path d="M79.9166 82.5745L79.8301 82.6801V88.0767L79.9166 88.3295L86.9531 78.4199L79.9166 82.5745Z" fill="white"/>
<path d="M79.9168 88.3295V82.5745L72.8845 78.4199L79.9168 88.3295Z" fill="white"/>
<path d="M79.9167 80.2866L86.9489 76.1299L79.9167 72.9335V80.2866Z" fill="white"/>
<path d="M72.8845 76.1298L79.9167 80.2866V72.9335L72.8845 76.1298Z" fill="white"/>
</g>
<defs>
<filter id="filter0_d_261_12894" x="0" y="0" width="160" height="160" filterUnits="userSpaceOnUse" color-interpolation-filters="sRGB">
<feFlood flood-opacity="0" result="BackgroundImageFix"/>
<feColorMatrix in="SourceAlpha" type="matrix" values="0 0 0 0 0 0 0 0 0 0 0 0 0 0 0 0 0 0 127 0" result="hardAlpha"/>
<feOffset dy="4"/>
<feGaussianBlur stdDeviation="25"/>
<feComposite in2="hardAlpha" operator="out"/>
<feColorMatrix type="matrix" values="0 0 0 0 0.545833 0 0 0 0 0.545833 0 0 0 0 0.545833 0 0 0 1 0"/>
<feBlend mode="normal" in2="BackgroundImageFix" result="effect1_dropShadow_261_12894"/>
<feBlend mode="normal" in="SourceGraphic" in2="effect1_dropShadow_261_12894" result="shape"/>
</filter>
</defs>
</svg>
