<svg width="160" height="160" viewBox="0 0 160 160" fill="none" xmlns="http://www.w3.org/2000/svg">
<g filter="url(#filter0_d_261_12885)">
<rect x="50" y="46" width="60" height="60" rx="10" fill="#0D0323"/>
<rect x="50.5" y="46.5" width="59" height="59" rx="9.5" stroke="#F7931A"/>
</g>
<path opacity="0.2" d="M104.25 82.0481C100.911 95.4411 87.3454 103.591 73.9509 100.252C60.5626 96.913 52.4118 83.3473 55.7517 69.9552C59.0892 56.5606 72.654 48.4091 86.0446 51.7481C99.4384 55.0872 107.588 68.6544 104.249 82.0481H104.25Z" fill="#F7931A"/>
<path fill-rule="evenodd" clip-rule="evenodd" d="M87.5294 73.0956C87.8665 70.8389 86.1482 69.6258 83.7988 68.8165L84.5609 65.7595L82.6996 65.2958L81.9576 68.2722C81.469 68.1503 80.9665 68.0353 80.4673 67.9213L81.2146 64.9253L79.3549 64.4615L78.5922 67.5175C78.1873 67.4252 77.7898 67.3341 77.404 67.2382L77.4061 67.2286L74.8399 66.5879L74.3449 68.5753C74.3449 68.5753 75.7255 68.8917 75.6963 68.9113C76.45 69.0995 76.5867 69.5982 76.5634 69.9936L75.6953 73.4761C75.7472 73.4894 75.8145 73.5085 75.8887 73.5381L75.6926 73.4894L74.4752 78.3679C74.383 78.5969 74.1493 78.9403 73.6225 78.8099C73.641 78.837 72.27 78.4723 72.27 78.4723L71.3462 80.6029L73.7682 81.2065C74.0416 81.275 74.3116 81.3455 74.5786 81.4151L74.5789 81.4152C74.7519 81.4604 74.9237 81.5052 75.0943 81.5489L74.3242 84.6414L76.1829 85.1051L76.9461 82.046C77.4533 82.1838 77.9461 82.311 78.4284 82.4308L77.6684 85.4756L79.5292 85.9393L80.2993 82.8532C83.4723 83.4537 85.8589 83.2115 86.8621 80.3421C87.6714 78.0314 86.8224 76.6985 85.1529 75.8287C86.3687 75.5473 87.2845 74.7476 87.5289 73.0956H87.5294ZM83.2773 79.0574C82.749 81.1783 79.4287 80.3007 77.9108 79.8996C77.7749 79.8637 77.6534 79.8316 77.5497 79.8058L78.5715 75.7095C78.6983 75.7411 78.8532 75.7759 79.0286 75.8153C80.5989 76.1676 83.817 76.8898 83.2778 79.0574H83.2773ZM79.3442 73.9144C80.6108 74.2523 83.3714 74.9888 83.8523 73.0622C84.344 71.0912 81.6595 70.4972 80.3485 70.207C80.2011 70.1744 80.0711 70.1456 79.9649 70.1192L79.0384 73.8344C79.1261 73.8562 79.229 73.8837 79.3442 73.9144Z" fill="#F7931A"/>
<defs>
<filter id="filter0_d_261_12885" x="0" y="0" width="160" height="160" filterUnits="userSpaceOnUse" color-interpolation-filters="sRGB">
<feFlood flood-opacity="0" result="BackgroundImageFix"/>
<feColorMatrix in="SourceAlpha" type="matrix" values="0 0 0 0 0 0 0 0 0 0 0 0 0 0 0 0 0 0 127 0" result="hardAlpha"/>
<feOffset dy="4"/>
<feGaussianBlur stdDeviation="25"/>
<feComposite in2="hardAlpha" operator="out"/>
<feColorMatrix type="matrix" values="0 0 0 0 0.968627 0 0 0 0 0.576471 0 0 0 0 0.101961 0 0 0 1 0"/>
<feBlend mode="normal" in2="BackgroundImageFix" result="effect1_dropShadow_261_12885"/>
<feBlend mode="normal" in="SourceGraphic" in2="effect1_dropShadow_261_12885" result="shape"/>
</filter>
</defs>
</svg>
