<svg width="204" height="160" viewBox="0 0 204 160" fill="none" xmlns="http://www.w3.org/2000/svg">
<g filter="url(#filter0_d_261_12906)">
<rect x="50" y="46" width="104" height="60" rx="10" fill="#7027F0"/>
<rect x="50.5" y="46.5" width="103" height="59" rx="9.5" stroke="#1C1C1C"/>
</g>
<g clip-path="url(#clip0_261_12906)">
<path d="M116.929 65.2371L115.45 71.1023L105.553 72.4414L116.929 65.2371Z" fill="#59BBE6"/>
<path d="M122.079 78.242L118.876 76.8653L119.612 88.8895L122.079 78.242Z" fill="#005573"/>
<path d="M115.45 71.1024L112.845 76.6551L105.553 72.4414L115.45 71.1024Z" fill="#35AFE4"/>
<path d="M118.876 76.8653L112.845 76.6552L119.612 88.8895L118.876 76.8653Z" fill="#0677A7"/>
<path d="M115.45 71.1024L118.876 76.8653L112.845 76.6551L115.45 71.1024Z" fill="#1F9CD8"/>
<path d="M116.93 65.2371L125.14 66.3067L115.45 71.1023L116.93 65.2371Z" fill="#7CCDF1"/>
<path d="M134.132 62.5752L128.962 68.8123L129.328 63.0386L134.132 62.5752Z" fill="#7CCDF1"/>
<path d="M134.132 62.5752L137 59L136.368 62.8554L134.132 62.5752Z" fill="#7CCDF1"/>
<path d="M131.346 65.819L136.368 62.8554L134.132 62.5752L131.346 65.819Z" fill="#1BAAE2"/>
<path d="M122.079 78.242L122.323 71.0835L118.876 76.8653L122.079 78.242Z" fill="#0677A7"/>
<path d="M122.323 71.0835L118.876 76.8653L115.45 71.1024L122.323 71.0835Z" fill="#058EBE"/>
<path d="M125.14 66.3067L122.323 71.0835L115.45 71.1024L125.14 66.3067Z" fill="#59BBE6"/>
<path d="M122.323 71.0835L122.079 78.242L128.383 84.9398L122.323 71.0835Z" fill="#096A8E"/>
<path d="M131.681 81.1976L128.351 72.6111L128.383 84.9398L131.681 81.1976Z" fill="#0EA1CB"/>
<path d="M128.962 68.8123L128.351 72.6112L122.323 71.0835L128.962 68.8123Z" fill="#0EA1CB"/>
<path d="M132.016 73.9744L128.351 72.6112L128.962 68.8123L132.016 73.9744Z" fill="#90D9F8"/>
<path d="M133.327 80.9551L129.333 74.3139H131.609L133.327 80.9551Z" fill="#7CCDF1"/>
<path d="M125.892 64.8976L128.962 68.8123L129.328 63.0386L125.892 64.8976Z" fill="#59BBE6"/>
<path d="M128.351 72.6111L122.323 71.0835L128.383 84.9398L128.351 72.6111Z" fill="#058EBE"/>
<path d="M73.8038 88.8895V85.4895H71.1085V88.8895H69V80.0741H71.1085V83.4607H73.8038V80.0741H75.9123V88.8895H73.8038Z" fill="#2B4651"/>
<path d="M78.196 81.1437C78.2145 80.865 78.3389 80.6044 78.543 80.4169C78.7471 80.2295 79.0149 80.1297 79.2901 80.1387C79.4205 80.1281 79.5518 80.1437 79.6763 80.1845C79.8008 80.2253 79.9161 80.2907 80.0157 80.3767C80.1154 80.4628 80.1973 80.5679 80.2569 80.6861C80.3164 80.8043 80.3525 80.9332 80.363 81.0655C80.3734 81.1979 80.3581 81.331 80.3178 81.4573C80.2776 81.5836 80.2132 81.7006 80.1284 81.8017C80.0436 81.9028 79.9399 81.9859 79.8235 82.0464C79.707 82.1068 79.5799 82.1434 79.4495 82.154C79.3965 82.1594 79.3431 82.1594 79.2901 82.154C79.0141 82.1629 78.7455 82.0625 78.5412 81.8739C78.337 81.6852 78.2132 81.4233 78.196 81.1437ZM78.3448 83.1024L79.2901 83.617L80.262 83.1078V88.9057H78.3315V83.1078L78.3448 83.1024Z" fill="#2B4651"/>
<path d="M84.7313 88.8895H82.8007V84.498H82.0306V82.5932H82.7901V80.4782H84.7313V82.5932H85.4908V84.4791H84.7313V88.8895Z" fill="#2B4651"/>
<path d="M90.924 80.0741C93.4945 80.0741 93.9141 81.6583 93.9141 82.4692C93.9343 82.8493 93.8445 83.227 93.6558 83.5559C93.467 83.8847 93.1876 84.1504 92.8519 84.3202C93.254 84.4542 93.6017 84.7183 93.8415 85.0722C94.0814 85.426 94.2002 85.8499 94.1796 86.2789C94.1796 87.661 93.4069 88.8895 90.8655 88.8895H87.4691V80.0741H90.924ZM89.5803 83.4526H91.155C91.3225 83.4834 91.4952 83.4457 91.6355 83.3478C91.7758 83.2499 91.8722 83.0997 91.9038 82.93C91.9078 82.8869 91.9078 82.8436 91.9038 82.8006C91.9052 82.7148 91.8899 82.6295 91.8588 82.5497C91.8276 82.4699 91.7812 82.3971 91.7222 82.3355C91.6632 82.2739 91.5929 82.2247 91.5151 82.1908C91.4374 82.1569 91.3538 82.1389 91.2692 82.1379C91.2277 82.1339 91.1859 82.1339 91.1444 82.1379H89.5696V83.4419L89.5803 83.4526ZM89.5803 86.8662H91.3037C91.4914 86.8633 91.672 86.7932 91.8138 86.6684C91.9556 86.5436 92.0493 86.3719 92.0785 86.1838C92.1077 85.9957 92.0705 85.8031 91.9735 85.6401C91.8764 85.4771 91.7257 85.3541 91.548 85.2928C91.4671 85.2793 91.3846 85.2793 91.3037 85.2928H89.5803V86.8662Z" fill="#43ABDA"/>
<path d="M99.6023 88.8895H97.4779V82.0894H95.2526V80.0741H101.788V82.0894H99.6023V88.8895Z" fill="#43ABDA"/>
<path d="M110.607 81.4508L109.244 82.7548C108.713 82.2696 108.018 82.0085 107.303 82.0247C106.696 82.0211 106.113 82.2619 105.681 82.6942C105.249 83.1266 105.003 83.7152 104.998 84.3309C104.998 84.3821 104.998 84.4333 104.998 84.4845C104.958 85.0968 105.159 85.7003 105.558 86.1621C105.956 86.6238 106.519 86.9062 107.123 86.947C107.186 86.947 107.25 86.947 107.314 86.947C108.023 86.9675 108.713 86.711 109.242 86.2303L110.607 87.5343C110.187 87.9923 109.68 88.3584 109.116 88.61C108.552 88.8616 107.943 88.9934 107.327 88.9973C106.171 88.9686 105.071 88.4823 104.264 87.6424C103.456 86.8025 103.004 85.6755 103.004 84.502C103.004 83.3285 103.456 82.2015 104.264 81.3616C105.071 80.5217 106.171 80.0354 107.327 80.0067C107.942 80.0067 108.551 80.1349 109.115 80.3834C109.679 80.6318 110.187 80.9951 110.607 81.4508Z" fill="#43ABDA"/>
<path d="M131.681 81.1976L133.011 81.9654L128.401 84.9398L131.681 81.1976Z" fill="#0677A7"/>
<path d="M133.327 80.8824L128.351 72.6111L131.681 81.1976L133.327 80.8824Z" fill="#59BBE6"/>
<path d="M125.892 64.8976L122.323 71.0835L128.962 68.8123L125.892 64.8976Z" fill="#7CCDF1"/>
</g>
<defs>
<filter id="filter0_d_261_12906" x="0" y="0" width="204" height="160" filterUnits="userSpaceOnUse" color-interpolation-filters="sRGB">
<feFlood flood-opacity="0" result="BackgroundImageFix"/>
<feColorMatrix in="SourceAlpha" type="matrix" values="0 0 0 0 0 0 0 0 0 0 0 0 0 0 0 0 0 0 127 0" result="hardAlpha"/>
<feOffset dy="4"/>
<feGaussianBlur stdDeviation="25"/>
<feComposite in2="hardAlpha" operator="out"/>
<feColorMatrix type="matrix" values="0 0 0 0 0.201667 0 0 0 0 0 0 0 0 0 0.458333 0 0 0 1 0"/>
<feBlend mode="normal" in2="BackgroundImageFix" result="effect1_dropShadow_261_12906"/>
<feBlend mode="normal" in="SourceGraphic" in2="effect1_dropShadow_261_12906" result="shape"/>
</filter>
<clipPath id="clip0_261_12906">
<rect width="68" height="30" fill="white" transform="translate(69 59)"/>
</clipPath>
</defs>
</svg>
