<svg width="251" height="160" viewBox="0 0 251 160" fill="none" xmlns="http://www.w3.org/2000/svg">
<g filter="url(#filter0_d_261_12897)">
<rect x="50" y="46" width="151" height="60" rx="10" fill="#7027F0"/>
<rect x="50.5" y="46.5" width="150" height="59" rx="9.5" stroke="#1C1C1C"/>
</g>
<g clip-path="url(#clip0_261_12897)">
<path d="M83.0837 66.4335C81.7592 66.4335 80.4478 66.7287 79.2242 67.3024C78.0006 67.876 76.8888 68.7168 75.9525 69.7768C75.0161 70.8367 74.2734 72.095 73.7668 73.4798C73.2602 74.8646 72.9996 76.3487 73 77.8475V82.7401C73 83.173 73.1519 83.588 73.4224 83.8941C73.6928 84.2001 74.0597 84.3721 74.4421 84.3721C74.8246 84.3721 75.1914 84.2001 75.4619 83.8941C75.7323 83.588 75.8843 83.173 75.8843 82.7401V77.8475C75.8843 77.4155 76.0359 77.0012 76.3058 76.6958C76.5758 76.3903 76.9419 76.2187 77.3236 76.2187C77.7053 76.2187 78.0714 76.3903 78.3413 76.6958C78.6113 77.0012 78.7629 77.4155 78.7629 77.8475V82.7401C78.7793 83.1601 78.9383 83.5566 79.2067 83.8472C79.4751 84.1378 79.8322 84.3 80.2036 84.3C80.5751 84.3 80.9322 84.1378 81.2006 83.8472C81.469 83.5566 81.628 83.1601 81.6444 82.7401V77.8475C81.6358 77.6273 81.6667 77.4075 81.7352 77.2012C81.8037 76.9949 81.9084 76.8065 82.0431 76.6472C82.1777 76.488 82.3394 76.3612 82.5185 76.2747C82.6976 76.1881 82.8904 76.1435 83.0851 76.1435C83.2799 76.1435 83.4726 76.1881 83.6517 76.2747C83.8308 76.3612 83.9925 76.488 84.1271 76.6472C84.2618 76.8065 84.3665 76.9949 84.435 77.2012C84.5035 77.4075 84.5344 77.6273 84.5258 77.8475V82.7401C84.5258 83.1721 84.6775 83.5864 84.9474 83.8918C85.2173 84.1973 85.5834 84.3689 85.9652 84.3689C86.3469 84.3689 86.713 84.1973 86.9829 83.8918C87.2528 83.5864 87.4045 83.1721 87.4045 82.7401V77.8475C87.4045 77.4147 87.5564 76.9996 87.8269 76.6935C88.0973 76.3875 88.4641 76.2156 88.8466 76.2156C89.2291 76.2156 89.5959 76.3875 89.8664 76.6935C90.1368 76.9996 90.2887 77.4147 90.2887 77.8475V82.7401C90.2887 83.1721 90.4404 83.5864 90.7103 83.8918C90.9802 84.1973 91.3463 84.3689 91.7281 84.3689C92.1098 84.3689 92.4759 84.1973 92.7458 83.8918C93.0157 83.5864 93.1674 83.1721 93.1674 82.7401V77.8475C93.1678 76.3487 92.9072 74.8646 92.4006 73.4798C91.894 72.095 91.1513 70.8367 90.2149 69.7768C89.2785 68.7168 88.1668 67.876 86.9432 67.3024C85.7196 66.7287 84.4081 66.4335 83.0837 66.4335Z" fill="white"/>
<path d="M95.4319 66.4366H97.9922V74.0513L104.82 66.4366H108.222L102.133 73.1015L108.563 84.3625H105.161L100.178 75.2402L97.9922 77.6339V84.3657H95.4319V66.4366Z" fill="white"/>
<path d="M109.949 66.4367H112.484V69.5316C112.691 68.9281 113.199 68.195 114.008 67.3323C114.751 66.497 115.757 66.0293 116.805 66.0319C116.853 66.0319 116.937 66.0319 117.056 66.051C117.174 66.0701 117.374 66.0829 117.661 66.1179V69.3053C117.517 69.2724 117.371 69.25 117.225 69.2384C117.092 69.2384 116.943 69.2224 116.791 69.2224C115.446 69.2224 114.414 69.7101 113.692 70.6855C112.983 71.6242 112.599 72.8225 112.611 74.0577V84.3721H109.949V66.4367Z" fill="white"/>
<path d="M127.579 73.5127C128.19 73.4266 128.601 73.1366 128.807 72.6457C128.942 72.2788 129.002 71.8824 128.984 71.4855C128.984 70.456 128.663 69.7101 128.018 69.2543C127.373 68.7986 126.452 68.5595 125.249 68.5595C123.86 68.5595 122.876 68.9845 122.297 69.8345C121.925 70.4586 121.707 71.1835 121.664 71.9349H119.177C119.227 69.7229 119.86 68.1813 121.075 67.31C122.345 66.4294 123.811 65.9782 125.3 66.0096C127.165 66.0096 128.676 66.4112 129.835 67.2144C130.994 68.0176 131.57 69.2682 131.564 70.966V81.2931C131.553 81.5577 131.613 81.8199 131.736 82.0453C131.845 82.2366 132.084 82.3322 132.454 82.3322C132.573 82.3322 132.705 82.3322 132.854 82.3067C133.004 82.2812 133.161 82.2653 133.328 82.2302V84.4614C133.018 84.5673 132.703 84.6514 132.384 84.7132C132.089 84.7509 131.791 84.7679 131.494 84.7642C130.579 84.7642 129.911 84.3944 129.497 83.6581C129.247 83.1464 129.092 82.5825 129.041 82.0007C128.409 82.8866 127.61 83.6011 126.703 84.0916C125.664 84.6906 124.512 84.9957 123.345 84.9809C121.878 84.9809 120.675 84.4773 119.746 83.4669C119.288 82.9844 118.926 82.3979 118.684 81.7458C118.441 81.0937 118.323 80.3909 118.337 79.6835C118.337 78.0218 118.795 76.7341 119.712 75.8204C120.736 74.8572 121.994 74.2682 123.32 74.131L127.579 73.5127ZM121.974 81.6533C122.543 82.1572 123.248 82.4229 123.971 82.4055C124.917 82.4028 125.849 82.1507 126.694 81.6692C128.17 80.8554 128.909 79.5241 128.911 77.6754V75.2498C128.521 75.5164 128.097 75.7142 127.655 75.8363C127.16 75.9814 126.658 76.0879 126.151 76.155L124.542 76.3877C123.787 76.4631 123.05 76.6942 122.368 77.0698C121.972 77.3104 121.645 77.6741 121.426 78.118C121.207 78.5619 121.105 79.0675 121.131 79.5751C121.114 79.9725 121.182 80.3689 121.328 80.7306C121.475 81.0923 121.696 81.4088 121.974 81.6533Z" fill="white"/>
<path d="M137.629 66.4366V74.0513L144.456 66.4366H147.856L141.778 73.1015L148.208 84.3625H144.794L139.806 75.2402L137.62 77.6339V84.3657H135.06V66.4366H137.629Z" fill="white"/>
<path d="M159.058 66.9275C160.025 67.4445 160.852 68.2458 161.452 69.2479C162 70.2059 162.361 71.2849 162.511 72.413C162.701 73.7178 162.78 75.0402 162.748 76.3622H151.225C151.275 78.1853 151.651 79.6484 152.351 80.7512C153.055 81.8508 154.148 82.4054 155.624 82.4054C156.243 82.4348 156.86 82.3099 157.432 82.0394C158.003 81.769 158.515 81.3596 158.931 80.8404C159.392 80.2323 159.726 79.5144 159.908 78.7399H162.528C162.423 79.5157 162.188 80.262 161.838 80.9392C161.499 81.6744 161.06 82.3446 160.537 82.925C159.71 83.8316 158.676 84.4577 157.551 84.7322C156.843 84.9198 156.118 85.0097 155.391 85C154.455 85.0156 153.527 84.8066 152.668 84.3869C151.81 83.9671 151.039 83.3461 150.408 82.5648C149.046 80.9392 148.366 78.6656 148.366 75.7438C148.366 72.8667 149.052 70.5292 150.425 68.7316C151.797 66.9339 153.592 66.035 155.807 66.035C156.938 66.0378 158.052 66.3437 159.058 66.9275ZM160.01 73.9684C159.956 72.8784 159.701 71.8132 159.261 70.8416C158.54 69.3924 157.332 68.6668 155.638 68.6646C155.065 68.6515 154.496 68.7786 153.97 69.0371C153.444 69.2957 152.974 69.6796 152.591 70.1627C151.754 71.2049 151.289 72.5607 151.284 73.9684H160.01Z" fill="white"/>
<path d="M167.615 66.4367V68.9866C168.252 68.0434 169.066 67.2716 169.998 66.7267C170.871 66.2591 171.826 66.0236 172.792 66.0382C175.045 66.0382 176.564 66.9265 177.349 68.7029C177.783 69.6719 178 71.0616 178 72.872V84.3721H175.296V73.0664C175.328 72.1593 175.181 71.2554 174.865 70.4209C174.392 69.3096 173.535 68.7528 172.293 68.7507C171.768 68.734 171.244 68.807 170.739 68.9674C169.984 69.2338 169.316 69.746 168.818 70.44C168.404 70.9642 168.108 71.5926 167.953 72.2728C167.8 73.1629 167.734 74.0693 167.756 74.9757V84.3657H165.091V66.4367H167.615Z" fill="white"/>
</g>
<defs>
<filter id="filter0_d_261_12897" x="0" y="0" width="251" height="160" filterUnits="userSpaceOnUse" color-interpolation-filters="sRGB">
<feFlood flood-opacity="0" result="BackgroundImageFix"/>
<feColorMatrix in="SourceAlpha" type="matrix" values="0 0 0 0 0 0 0 0 0 0 0 0 0 0 0 0 0 0 127 0" result="hardAlpha"/>
<feOffset dy="4"/>
<feGaussianBlur stdDeviation="25"/>
<feComposite in2="hardAlpha" operator="out"/>
<feColorMatrix type="matrix" values="0 0 0 0 0.201667 0 0 0 0 0 0 0 0 0 0.458333 0 0 0 1 0"/>
<feBlend mode="normal" in2="BackgroundImageFix" result="effect1_dropShadow_261_12897"/>
<feBlend mode="normal" in="SourceGraphic" in2="effect1_dropShadow_261_12897" result="shape"/>
</filter>
<clipPath id="clip0_261_12897">
<rect width="105" height="19" fill="white" transform="translate(73 66)"/>
</clipPath>
</defs>
</svg>
