<svg width="1188" height="394" viewBox="0 0 1188 394" fill="none" xmlns="http://www.w3.org/2000/svg">
<g opacity="0.26">
<path d="M552.5 139H481.5C472.94 139 466 132.06 466 123.5V123.5C466 114.94 459.06 108 450.5 108H255.5C241.141 108 229.5 96.3594 229.5 82V29.5C229.5 15.1406 217.859 3.5 203.5 3.5H0.5" stroke="#996DFF" stroke-width="2" stroke-dasharray="10 10"/>
<path d="M544.5 167.5H259.5C245.141 167.5 233.5 179.141 233.5 193.5V201C233.5 215.359 221.859 227 207.5 227H2.5" stroke="#996DFF" stroke-width="2" stroke-dasharray="10 10"/>
<path d="M545.5 197H487.25C475.79 197 466.5 206.29 466.5 217.75V217.75C466.5 229.21 457.21 238.5 445.75 238.5H322.5C308.141 238.5 296.5 250.141 296.5 264.5V365.5C296.5 379.859 284.859 391.5 270.5 391.5H0" stroke="#996DFF" stroke-width="2" stroke-dasharray="10 10"/>
<path d="M636 142H737.012C745.465 142 752.317 135.148 752.317 126.696V126.696C752.317 118.243 759.169 111.391 767.621 111.391H945.413C959.773 111.391 971.413 99.7509 971.413 85.3915V27C971.413 12.6406 983.054 1 997.413 1H1187" stroke="#996DFF" stroke-width="2" stroke-dasharray="10 10"/>
<path d="M640 167H954.138C968.497 167 980.138 178.641 980.138 193V276C980.138 290.359 991.779 302 1006.14 302H1188" stroke="#996DFF" stroke-width="2" stroke-dasharray="10 10"/>
<path d="M634 202H729.359C742.649 202 753.422 212.773 753.422 226.063V226.063C753.422 239.353 764.196 250.126 777.485 250.126H876.08C890.44 250.126 902.08 261.767 902.08 276.126V367C902.08 381.359 913.721 393 928.08 393H1188" stroke="#996DFF" stroke-width="2" stroke-dasharray="10 10"/>
<path d="M596 212.5V318.5" stroke="#996DFF" stroke-width="2" stroke-dasharray="10 10"/>
</g>
</svg>
