<svg width="1190" height="683" viewBox="0 0 1190 683" fill="none" xmlns="http://www.w3.org/2000/svg">
<line y1="49.5" x2="1190" y2="49.5" stroke="#190042"/>
<line y1="89.5" x2="1190" y2="89.5" stroke="#190042"/>
<line y1="129.5" x2="1190" y2="129.5" stroke="#190042"/>
<line y1="169.5" x2="1190" y2="169.5" stroke="#190042"/>
<line y1="209.5" x2="1190" y2="209.5" stroke="#190042"/>
<line y1="249.5" x2="1190" y2="249.5" stroke="#190042"/>
<line y1="289.5" x2="1190" y2="289.5" stroke="#190042"/>
<line y1="329.5" x2="1190" y2="329.5" stroke="#190042"/>
<line y1="369.5" x2="1190" y2="369.5" stroke="#190042"/>
<line y1="409.5" x2="1190" y2="409.5" stroke="#190042"/>
<line y1="449.5" x2="1190" y2="449.5" stroke="#190042"/>
<line y1="489.5" x2="1190" y2="489.5" stroke="#190042"/>
<line y1="529.5" x2="1190" y2="529.5" stroke="#190042"/>
<line y1="569.5" x2="1190" y2="569.5" stroke="#190042"/>
<line y1="609.5" x2="1190" y2="609.5" stroke="#190042"/>
<line y1="649.5" x2="1190" y2="649.5" stroke="#190042"/>
<line x1="53.5" y1="2.18557e-08" x2="53.5" y2="681" stroke="#190042"/>
<line x1="92.5" y1="2.18557e-08" x2="92.5" y2="681" stroke="#190042"/>
<line x1="131.5" y1="2.18557e-08" x2="131.5" y2="681" stroke="#190042"/>
<line x1="170.5" y1="2.18557e-08" x2="170.5" y2="681" stroke="#190042"/>
<line x1="209.5" y1="2.18557e-08" x2="209.5" y2="681" stroke="#190042"/>
<line x1="248.5" y1="2.18557e-08" x2="248.5" y2="681" stroke="#190042"/>
<line x1="287.5" y1="2.18557e-08" x2="287.5" y2="681" stroke="#190042"/>
<line x1="326.5" y1="2.17917e-08" x2="326.5" y2="681" stroke="#190042"/>
<line x1="365.5" y1="2.17917e-08" x2="365.5" y2="681" stroke="#190042"/>
<line x1="404.5" y1="2.17917e-08" x2="404.5" y2="681" stroke="#190042"/>
<line x1="443.5" y1="2.17917e-08" x2="443.5" y2="681" stroke="#190042"/>
<line x1="482.5" y1="2.17917e-08" x2="482.5" y2="681" stroke="#190042"/>
<line x1="521.5" y1="2.17917e-08" x2="521.5" y2="681" stroke="#190042"/>
<line x1="560.5" y1="2.17917e-08" x2="560.5" y2="681" stroke="#190042"/>
<line x1="599.5" y1="2.17917e-08" x2="599.5" y2="681" stroke="#190042"/>
<line x1="638.5" y1="2.17917e-08" x2="638.5" y2="681" stroke="#190042"/>
<line x1="677.5" y1="2.17917e-08" x2="677.5" y2="681" stroke="#190042"/>
<line x1="716.5" y1="2.17917e-08" x2="716.5" y2="681" stroke="#190042"/>
<line x1="755.5" y1="2.17917e-08" x2="755.5" y2="681" stroke="#190042"/>
<line x1="794.5" y1="2.17917e-08" x2="794.5" y2="681" stroke="#190042"/>
<line x1="833.5" y1="2.17917e-08" x2="833.5" y2="681" stroke="#190042"/>
<line x1="872.5" y1="2.17917e-08" x2="872.5" y2="681" stroke="#190042"/>
<line x1="911.5" y1="2.17917e-08" x2="911.5" y2="681" stroke="#190042"/>
<line x1="950.5" y1="2.17917e-08" x2="950.5" y2="681" stroke="#190042"/>
<line x1="989.5" y1="2.17917e-08" x2="989.5" y2="681" stroke="#190042"/>
<line x1="1028.5" y1="2.17917e-08" x2="1028.5" y2="681" stroke="#190042"/>
<line x1="1067.5" y1="2.17917e-08" x2="1067.5" y2="681" stroke="#190042"/>
<line x1="1106.5" y1="2.17917e-08" x2="1106.5" y2="681" stroke="#190042"/>
<line x1="1145.5" y1="2.17917e-08" x2="1145.5" y2="681" stroke="#190042"/>
</svg>
