<svg width="251" height="160" viewBox="0 0 251 160" fill="none" xmlns="http://www.w3.org/2000/svg">
<g filter="url(#filter0_d_261_12900)">
<rect x="50" y="46" width="151" height="60" rx="30" fill="#190042"/>
<rect x="50.5" y="46.5" width="150" height="59" rx="29.5" stroke="url(#paint0_linear_261_12900)"/>
</g>
<path fill-rule="evenodd" clip-rule="evenodd" d="M84.4315 62.1558C87.1244 61.6977 89.8949 62.072 92.3619 63.2263L93.2095 61.4148C90.3727 60.0874 87.1894 59.6579 84.0961 60.1841C81.0027 60.7104 78.1483 62.1672 75.9259 64.3571C73.7032 66.5472 72.2216 69.3632 71.6872 72.4194C71.1528 75.4756 71.5925 78.6195 72.9447 81.4185C74.2969 84.2173 76.4943 86.5325 79.2327 88.0485C81.971 89.5644 85.1171 90.2076 88.2397 89.8913C91.3622 89.575 94.3107 88.3143 96.6798 86.28C99.049 84.2455 100.723 81.5366 101.468 78.524L99.527 78.0434C98.8821 80.6491 97.4333 82.9967 95.3768 84.7627C93.3201 86.5288 90.7567 87.6261 88.0381 87.9015C85.3195 88.1769 82.5818 87.6165 80.2014 86.2987C77.8212 84.981 75.9162 82.9715 74.7456 80.5485C73.5751 78.1256 73.1953 75.4065 73.6574 72.7638C74.1194 70.1211 75.4013 67.6818 77.3296 65.7817C79.2581 63.8815 81.7387 62.6139 84.4315 62.1558ZM85.3495 67.8653C86.8453 67.6108 88.384 67.8188 89.7536 68.4596L90.6012 66.6481C88.8618 65.8342 86.9103 65.571 85.0141 65.8936C83.1178 66.2162 81.3673 67.1093 80.0036 68.453C78.6398 69.7968 77.73 71.5255 77.4017 73.4026C77.0735 75.2798 77.3436 77.2106 78.1739 78.9292C79.0041 80.6476 80.3528 82.0681 82.0322 82.9978C83.7114 83.9274 85.6402 84.3216 87.5542 84.1277C89.4683 83.9339 91.2763 83.1611 92.7297 81.913C94.1833 80.6648 95.211 79.0021 95.669 77.1519L93.7276 76.6713C93.3703 78.1146 92.5676 79.416 91.4268 80.3957C90.2857 81.3755 88.8627 81.985 87.3526 82.1379C85.8425 82.2909 84.3222 81.9795 83.0008 81.248C81.6796 80.5166 80.6234 79.4019 79.9748 78.0592C79.3262 76.7167 79.116 75.2106 79.3719 73.7471C79.6278 72.2834 80.3379 70.9314 81.4074 69.8776C82.4771 68.8236 83.8539 68.1197 85.3495 67.8653Z" fill="url(#paint1_angular_261_12900)"/>
<path d="M88.2356 75.4451C88.0783 76.5005 87.0809 77.2266 86.0079 77.067C84.9348 76.9074 84.1924 75.9225 84.3497 74.8671C84.507 73.8118 85.5044 73.0856 86.5774 73.2452C87.1068 73.324 87.5558 73.6036 87.8559 73.9935C88.1641 74.3938 88.3153 74.9105 88.2356 75.4451Z" fill="url(#paint2_angular_261_12900)"/>
<path d="M87.8559 73.9935C87.5558 73.6036 87.1068 73.324 86.5774 73.2452C85.5044 73.0856 84.507 73.8118 84.3497 74.8671C84.1924 75.9225 84.9348 76.9074 86.0079 77.067C87.0809 77.2266 88.0783 76.5005 88.2356 75.4451C88.3153 74.9105 88.1641 74.3938 87.8559 73.9935ZM87.8559 73.9935L98.6088 67.7138" stroke="white" stroke-width="2"/>
<path d="M117.77 83V71.588H113.162V70.31H123.872V71.588H119.264V83H117.77ZM123.915 83V74.252H125.337V75.818C125.805 74.762 126.765 74.18 128.217 74.072L128.739 74.018L128.847 75.278L127.929 75.386C127.101 75.458 126.471 75.722 126.039 76.178C125.607 76.622 125.391 77.234 125.391 78.014V83H123.915ZM133.032 83.162C132.432 83.162 131.892 83.048 131.412 82.82C130.944 82.58 130.572 82.256 130.296 81.848C130.02 81.44 129.882 80.984 129.882 80.48C129.882 79.844 130.044 79.34 130.368 78.968C130.704 78.596 131.25 78.332 132.006 78.176C132.774 78.008 133.818 77.924 135.138 77.924H135.714V77.366C135.714 76.622 135.558 76.088 135.246 75.764C134.946 75.428 134.46 75.26 133.788 75.26C133.26 75.26 132.75 75.338 132.258 75.494C131.766 75.638 131.262 75.878 130.746 76.214L130.242 75.152C130.698 74.828 131.25 74.57 131.898 74.378C132.558 74.186 133.188 74.09 133.788 74.09C134.916 74.09 135.75 74.366 136.29 74.918C136.842 75.47 137.118 76.328 137.118 77.492V83H135.75V81.488C135.522 82.004 135.168 82.412 134.688 82.712C134.22 83.012 133.668 83.162 133.032 83.162ZM133.266 82.064C133.986 82.064 134.574 81.818 135.03 81.326C135.486 80.822 135.714 80.186 135.714 79.418V78.878H135.156C134.184 78.878 133.416 78.926 132.852 79.022C132.3 79.106 131.91 79.262 131.682 79.49C131.466 79.706 131.358 80.006 131.358 80.39C131.358 80.882 131.526 81.284 131.862 81.596C132.21 81.908 132.678 82.064 133.266 82.064ZM143.153 83.162C142.373 83.162 141.689 82.976 141.101 82.604C140.525 82.232 140.075 81.71 139.751 81.038C139.439 80.354 139.283 79.55 139.283 78.626C139.283 77.69 139.439 76.886 139.751 76.214C140.075 75.53 140.525 75.008 141.101 74.648C141.689 74.276 142.373 74.09 143.153 74.09C143.837 74.09 144.437 74.24 144.953 74.54C145.481 74.84 145.871 75.254 146.123 75.782V70.31H147.581V83H146.159V81.398C145.907 81.95 145.517 82.382 144.989 82.694C144.461 83.006 143.849 83.162 143.153 83.162ZM143.459 81.992C144.275 81.992 144.929 81.704 145.421 81.128C145.913 80.54 146.159 79.706 146.159 78.626C146.159 77.534 145.913 76.7 145.421 76.124C144.929 75.548 144.275 75.26 143.459 75.26C142.631 75.26 141.971 75.548 141.479 76.124C140.999 76.7 140.759 77.534 140.759 78.626C140.759 79.706 140.999 80.54 141.479 81.128C141.971 81.704 142.631 81.992 143.459 81.992ZM150.137 72.074V70.436H151.937V72.074H150.137ZM150.317 83V74.252H151.775V83H150.317ZM154.501 83V74.252H155.923V75.746C156.211 75.194 156.619 74.78 157.147 74.504C157.675 74.228 158.269 74.09 158.929 74.09C161.005 74.09 162.043 75.242 162.043 77.546V83H160.585V77.636C160.585 76.82 160.423 76.226 160.099 75.854C159.787 75.47 159.283 75.278 158.587 75.278C157.783 75.278 157.141 75.53 156.661 76.034C156.193 76.526 155.959 77.186 155.959 78.014V83H154.501ZM168.601 86.402C167.845 86.402 167.131 86.3 166.459 86.096C165.799 85.904 165.211 85.61 164.695 85.214L165.181 84.152C165.721 84.536 166.255 84.812 166.783 84.98C167.323 85.148 167.905 85.232 168.529 85.232C170.257 85.232 171.121 84.344 171.121 82.568V81.02C170.869 81.572 170.473 82.01 169.933 82.334C169.405 82.646 168.799 82.802 168.115 82.802C167.311 82.802 166.615 82.616 166.027 82.244C165.439 81.872 164.983 81.362 164.659 80.714C164.347 80.054 164.191 79.292 164.191 78.428C164.191 77.564 164.347 76.808 164.659 76.16C164.983 75.5 165.439 74.99 166.027 74.63C166.615 74.27 167.311 74.09 168.115 74.09C168.799 74.09 169.405 74.246 169.933 74.558C170.473 74.87 170.869 75.296 171.121 75.836V74.252H172.543V82.37C172.543 83.714 172.207 84.722 171.535 85.394C170.875 86.066 169.897 86.402 168.601 86.402ZM168.385 81.614C169.225 81.614 169.891 81.326 170.383 80.75C170.875 80.174 171.121 79.4 171.121 78.428C171.121 77.456 170.875 76.688 170.383 76.124C169.891 75.548 169.225 75.26 168.385 75.26C167.557 75.26 166.897 75.548 166.405 76.124C165.913 76.688 165.667 77.456 165.667 78.428C165.667 79.4 165.913 80.174 166.405 80.75C166.897 81.326 167.557 81.614 168.385 81.614Z" fill="#86FFB6"/>
<defs>
<filter id="filter0_d_261_12900" x="0" y="0" width="251" height="160" filterUnits="userSpaceOnUse" color-interpolation-filters="sRGB">
<feFlood flood-opacity="0" result="BackgroundImageFix"/>
<feColorMatrix in="SourceAlpha" type="matrix" values="0 0 0 0 0 0 0 0 0 0 0 0 0 0 0 0 0 0 127 0" result="hardAlpha"/>
<feOffset dy="4"/>
<feGaussianBlur stdDeviation="25"/>
<feComposite in2="hardAlpha" operator="out"/>
<feColorMatrix type="matrix" values="0 0 0 0 0.201667 0 0 0 0 0 0 0 0 0 0.458333 0 0 0 1 0"/>
<feBlend mode="normal" in2="BackgroundImageFix" result="effect1_dropShadow_261_12900"/>
<feBlend mode="normal" in="SourceGraphic" in2="effect1_dropShadow_261_12900" result="shape"/>
</filter>
<linearGradient id="paint0_linear_261_12900" x1="168.615" y1="44.7755" x2="165.432" y2="102.568" gradientUnits="userSpaceOnUse">
<stop stop-color="#6C01F5"/>
<stop offset="1" stop-color="#1C0146"/>
</linearGradient>
<radialGradient id="paint1_angular_261_12900" cx="0" cy="0" r="1" gradientUnits="userSpaceOnUse" gradientTransform="translate(86.4814 73.5159) rotate(92.7952) scale(19.8652 19.605)">
<stop stop-color="#6B8CF5"/>
<stop offset="0.354167" stop-color="#8488F1"/>
<stop offset="0.794411" stop-color="#66C1DE" stop-opacity="0"/>
<stop offset="0.893332" stop-color="#66C1DE" stop-opacity="0"/>
</radialGradient>
<radialGradient id="paint2_angular_261_12900" cx="0" cy="0" r="1" gradientUnits="userSpaceOnUse" gradientTransform="translate(91.4222 71.7153) rotate(101.76) scale(7.35608 8.52283)">
<stop stop-color="#6B8CF5"/>
<stop offset="0.354167" stop-color="#8488F1"/>
<stop offset="0.794411" stop-color="#66C1DE" stop-opacity="0"/>
<stop offset="0.893332" stop-color="#66C1DE" stop-opacity="0"/>
</radialGradient>
</defs>
</svg>
