<svg width="1093" height="681" viewBox="0 0 1093 681" fill="none" xmlns="http://www.w3.org/2000/svg">
<line x1="0.5" y1="2.18557e-08" x2="0.49997" y2="681" stroke="#190042"/>
<line x1="39.5" y1="2.18557e-08" x2="39.5" y2="681" stroke="#190042"/>
<line x1="78.5" y1="2.18557e-08" x2="78.5" y2="681" stroke="#190042"/>
<line x1="117.5" y1="2.18557e-08" x2="117.5" y2="681" stroke="#190042"/>
<line x1="156.5" y1="2.18557e-08" x2="156.5" y2="681" stroke="#190042"/>
<line x1="195.5" y1="2.18557e-08" x2="195.5" y2="681" stroke="#190042"/>
<line x1="234.5" y1="2.18557e-08" x2="234.5" y2="681" stroke="#190042"/>
<line x1="273.5" y1="2.17917e-08" x2="273.5" y2="681" stroke="#190042"/>
<line x1="312.5" y1="2.17917e-08" x2="312.5" y2="681" stroke="#190042"/>
<line x1="351.5" y1="2.17917e-08" x2="351.5" y2="681" stroke="#190042"/>
<line x1="390.5" y1="2.17917e-08" x2="390.5" y2="681" stroke="#190042"/>
<line x1="429.5" y1="2.17917e-08" x2="429.5" y2="681" stroke="#190042"/>
<line x1="468.5" y1="2.17917e-08" x2="468.5" y2="681" stroke="#190042"/>
<line x1="507.5" y1="2.17917e-08" x2="507.5" y2="681" stroke="#190042"/>
<line x1="546.5" y1="2.17917e-08" x2="546.5" y2="681" stroke="#190042"/>
<line x1="585.5" y1="2.17917e-08" x2="585.5" y2="681" stroke="#190042"/>
<line x1="624.5" y1="2.17917e-08" x2="624.5" y2="681" stroke="#190042"/>
<line x1="663.5" y1="2.17917e-08" x2="663.5" y2="681" stroke="#190042"/>
<line x1="702.5" y1="2.17917e-08" x2="702.5" y2="681" stroke="#190042"/>
<line x1="741.5" y1="2.17917e-08" x2="741.5" y2="681" stroke="#190042"/>
<line x1="780.5" y1="2.17917e-08" x2="780.5" y2="681" stroke="#190042"/>
<line x1="819.5" y1="2.17917e-08" x2="819.5" y2="681" stroke="#190042"/>
<line x1="858.5" y1="2.17917e-08" x2="858.5" y2="681" stroke="#190042"/>
<line x1="897.5" y1="2.17917e-08" x2="897.5" y2="681" stroke="#190042"/>
<line x1="936.5" y1="2.17917e-08" x2="936.5" y2="681" stroke="#190042"/>
<line x1="975.5" y1="2.17917e-08" x2="975.5" y2="681" stroke="#190042"/>
<line x1="1014.5" y1="2.17917e-08" x2="1014.5" y2="681" stroke="#190042"/>
<line x1="1053.5" y1="2.17917e-08" x2="1053.5" y2="681" stroke="#190042"/>
<line x1="1092.5" y1="2.17917e-08" x2="1092.5" y2="681" stroke="#190042"/>
</svg>
