<svg width="14" height="20" viewBox="0 0 14 20" fill="none" xmlns="http://www.w3.org/2000/svg">
<path fill-rule="evenodd" clip-rule="evenodd" d="M7 0.09375C3.13 0.09375 0 3.22375 0 7.09375C0 11.2638 4.42 17.0138 6.24 19.2038C6.64 19.6838 7.37 19.6838 7.77 19.2038C9.58 17.0138 14 11.2638 14 7.09375C14 3.22375 10.87 0.09375 7 0.09375ZM7 9.59375C5.62 9.59375 4.5 8.47375 4.5 7.09375C4.5 5.71375 5.62 4.59375 7 4.59375C8.38 4.59375 9.5 5.71375 9.5 7.09375C9.5 8.47375 8.38 9.59375 7 9.59375Z" fill="#7034F0"/>
</svg>
