<svg width="19" height="20" viewBox="0 0 19 20" fill="none" xmlns="http://www.w3.org/2000/svg">
<path fill-rule="evenodd" clip-rule="evenodd" d="M16.1294 2H11.9248C11.5023 0.84 10.3958 0 9.08815 0C7.7805 0 6.67402 0.84 6.25155 2H2.04693C0.940456 2 0.0351562 2.9 0.0351562 4V18C0.0351562 19.1 0.940456 20 2.04693 20H16.1294C17.2358 20 18.1411 19.1 18.1411 18V4C18.1411 2.9 17.2358 2 16.1294 2ZM9.08815 2C9.64139 2 10.094 2.45 10.094 3C10.094 3.55 9.64139 4 9.08815 4C8.53491 4 8.08226 3.55 8.08226 3C8.08226 2.45 8.53491 2 9.08815 2ZM10.094 16H5.0646C4.51136 16 4.05871 15.55 4.05871 15C4.05871 14.45 4.51136 14 5.0646 14H10.094C10.6473 14 11.0999 14.45 11.0999 15C11.0999 15.55 10.6473 16 10.094 16ZM13.1117 12H5.0646C4.51136 12 4.05871 11.55 4.05871 11C4.05871 10.45 4.51136 10 5.0646 10H13.1117C13.6649 10 14.1176 10.45 14.1176 11C14.1176 11.55 13.6649 12 13.1117 12ZM13.1117 8H5.0646C4.51136 8 4.05871 7.55 4.05871 7C4.05871 6.45 4.51136 6 5.0646 6H13.1117C13.6649 6 14.1176 6.45 14.1176 7C14.1176 7.55 13.6649 8 13.1117 8Z" fill="#7034F0"/>
</svg>
