<svg width="18" height="18" viewBox="0 0 18 18" fill="none" xmlns="http://www.w3.org/2000/svg">
<path d="M8.91211 17.9688C13.6934 17.9688 17.6309 14.0664 17.6309 9.25C17.6309 4.46875 13.6934 0.53125 8.91211 0.53125C4.0957 0.53125 0.193359 4.46875 0.193359 9.25C0.193359 14.0664 4.0957 17.9688 8.91211 17.9688ZM5.25586 15.2969L7.1543 13.3984C8.24414 13.8906 9.54492 13.8906 10.6348 13.3984L12.5332 15.2969C10.3184 16.6328 7.4707 16.6328 5.25586 15.2969ZM11.7246 9.25C11.7246 10.832 10.459 12.0625 8.91211 12.0625C7.33008 12.0625 6.09961 10.832 6.09961 9.25C6.09961 7.70312 7.33008 6.4375 8.91211 6.4375C10.459 6.4375 11.7246 7.70312 11.7246 9.25ZM14.9238 12.9062L13.0254 11.0078C13.5176 9.91797 13.5176 8.61719 13.0254 7.52734L14.9238 5.62891C16.2598 7.84375 16.2598 10.6914 14.9238 12.9062ZM12.5332 3.23828L10.6348 5.13672C9.54492 4.64453 8.24414 4.64453 7.1543 5.13672L5.25586 3.23828C7.4707 1.90234 10.3184 1.90234 12.5332 3.23828ZM2.86523 5.62891L4.76367 7.52734C4.27148 8.61719 4.27148 9.91797 4.76367 11.0078L2.86523 12.9062C1.5293 10.6914 1.5293 7.84375 2.86523 5.62891Z" fill="#86FFB6"/>
</svg>
