<svg width="18" height="18" viewBox="0 0 18 18" fill="none" xmlns="http://www.w3.org/2000/svg">
<path d="M9 0.03125C4.18359 0.03125 0.28125 3.96875 0.28125 8.75C0.28125 13.5664 4.18359 17.4688 9 17.4688C13.7812 17.4688 17.7188 13.5664 17.7188 8.75C17.7188 3.96875 13.7812 0.03125 9 0.03125ZM9 15.7812C5.09766 15.7812 1.96875 12.6523 1.96875 8.75C1.96875 4.88281 5.09766 1.71875 9 1.71875C12.8672 1.71875 16.0312 4.88281 16.0312 8.75C16.0312 12.6523 12.8672 15.7812 9 15.7812ZM12.7617 6.81641C12.7617 5.05859 10.8984 3.6875 9.17578 3.6875C7.52344 3.6875 6.46875 4.39062 5.66016 5.62109C5.51953 5.79688 5.55469 6.04297 5.73047 6.18359L6.71484 6.92188C6.89062 7.0625 7.17188 7.02734 7.3125 6.85156C7.83984 6.18359 8.22656 5.79688 9.03516 5.79688C9.66797 5.79688 10.4414 6.18359 10.4414 6.81641C10.4414 7.27344 10.0547 7.48438 9.42188 7.83594C8.71875 8.25781 7.76953 8.75 7.76953 10.0156V10.2969C7.76953 10.543 7.94531 10.7188 8.19141 10.7188H9.77344C10.0195 10.7188 10.1953 10.543 10.1953 10.2969V10.0859C10.1953 9.20703 12.7617 9.17188 12.7617 6.81641ZM10.4766 12.6875C10.4766 11.8789 9.80859 11.2109 9 11.2109C8.15625 11.2109 7.52344 11.8789 7.52344 12.6875C7.52344 13.5312 8.15625 14.1641 9 14.1641C9.80859 14.1641 10.4766 13.5312 10.4766 12.6875Z" fill="#86FFB6"/>
</svg>
