<svg width="9" height="12" viewBox="0 0 9 12" fill="none" xmlns="http://www.w3.org/2000/svg">
<path fill-rule="evenodd" clip-rule="evenodd" d="M1.96102 0.095L0.101023 1.955C-0.11231 2.16167 0.0343563 2.52167 0.334356 2.52167H1.52769V6.52833C1.52769 6.895 1.82769 7.195 2.19436 7.195C2.56102 7.195 2.86102 6.895 2.86102 6.52833V2.52167H4.05436C4.35436 2.52167 4.50102 2.16167 4.28769 1.955L2.42769 0.095C2.30102 -0.0316667 2.08769 -0.0316667 1.96102 0.095ZM6.86102 9.20167V5.195C6.86102 4.82833 6.56102 4.52833 6.19436 4.52833C5.82769 4.52833 5.52769 4.82833 5.52769 5.195V9.20167H4.33436C4.03436 9.20167 3.88769 9.56167 4.10102 9.76833L5.96102 11.6217C6.09436 11.7483 6.30102 11.7483 6.43436 11.6217L8.29436 9.76833C8.50769 9.56167 8.35436 9.20167 8.06102 9.20167H6.86102Z" fill="white"/>
</svg>
