<svg width="21" height="20" viewBox="0 0 21 20" fill="none" xmlns="http://www.w3.org/2000/svg">
<path fill-rule="evenodd" clip-rule="evenodd" d="M10.4999 0L4.356 6.14418L6.61596 8.40418L10.4999 4.52031L14.3861 8.40626L16.6459 6.14639L10.4999 0ZM0.5 9.99979L2.75995 12.2598L5.01992 9.99943L2.75995 7.73979L0.5 9.99979ZM15.9801 10.0009L18.2402 12.2607L20.5 10.0007L18.24 7.74072L15.9801 10.0009ZM10.4999 15.4799L6.61596 11.5958L4.35268 13.8529L4.35584 13.856L10.4999 20L16.6459 13.854L16.647 13.8527L14.3858 11.5941L10.4999 15.4799Z" fill="#FFBA00"/>
<path d="M12.7938 9.99874H12.7928L12.7949 9.99981L12.7938 10.0012L10.5004 12.2944L8.2092 10.0032L8.20605 9.99981L8.2092 9.99666L8.61094 9.595L8.80572 9.40019L10.5004 7.70557L12.7938 9.99874Z" fill="#FFBA00"/>
</svg>
