<svg width="21" height="20" viewBox="0 0 21 20" fill="none" xmlns="http://www.w3.org/2000/svg">
<path d="M5.25514 5.81055H7.49783L5.75407 10.142C5.75407 10.142 4.84251 10.1268 4.56379 9.31798C4.48572 9.07779 4.47916 8.81955 4.54494 8.57559L5.25514 5.81055Z" fill="#D53127"/>
<path d="M13.9528 5.9033L11.1011 5.85293L11.7428 3.70335C11.802 3.50657 11.8149 3.29848 11.7807 3.0957C11.7464 2.89293 11.666 2.70111 11.5457 2.53557C11.4254 2.37004 11.2686 2.23539 11.0879 2.14239C10.9072 2.0494 10.7075 2.00063 10.505 2H7.90221L4.92651 12.8537C4.92651 12.8537 3.86022 17.4953 7.90221 17.9154C7.90221 17.9154 14.292 19.242 16.3423 11.4012C16.3423 11.4012 17.4244 6.65878 13.9528 5.9033ZM12.0037 11.2863C12.0037 11.2863 11.8896 13.2888 10.4018 13.6404C10.1821 13.6965 9.94999 13.6722 9.74615 13.5719C9.51306 13.451 9.27202 13.2002 9.27798 12.6744C9.28187 12.5224 9.30589 12.3716 9.34939 12.2261L9.8989 10.142H11.3987C11.3987 10.142 12.0781 10.3667 12.0037 11.2863Z" fill="#F47320"/>
<path d="M16.4795 9.21516C16.2068 6.02906 13.9532 5.90315 13.9532 5.90315L11.1015 5.85278L9.87646 10.1671H11.3722C11.647 10.1822 12.1479 10.6425 11.9852 11.4574" fill="url(#paint0_linear_25_15101)"/>
<defs>
<linearGradient id="paint0_linear_25_15101" x1="15.9558" y1="13.4771" x2="11.3637" y2="6.53802" gradientUnits="userSpaceOnUse">
<stop offset="0.41" stop-color="#F47320"/>
<stop offset="0.5" stop-color="#F16D21"/>
<stop offset="0.62" stop-color="#E95C22"/>
<stop offset="0.75" stop-color="#DC4125"/>
<stop offset="0.81" stop-color="#D53127"/>
</linearGradient>
</defs>
</svg>
