<svg width="44" height="44" viewBox="0 0 44 44" fill="none" xmlns="http://www.w3.org/2000/svg">
<path opacity="0.2" d="M43.3402 27.3223C40.4019 39.1082 28.4641 46.2802 16.6769 43.3418C4.89523 40.4034 -2.27746 28.4657 0.661606 16.6805C3.59861 4.89335 15.5357 -2.28003 27.3194 0.658347C39.1059 3.59672 46.2779 15.5358 43.3395 27.3223H43.3402Z" fill="#F7931A"/>
<path fill-rule="evenodd" clip-rule="evenodd" d="M28.626 19.4442C28.9226 17.4583 27.4106 16.3907 25.3431 15.6785L26.0137 12.9884L24.3758 12.5803L23.7228 15.1995C23.2928 15.0923 22.8507 14.9911 22.4113 14.8908L23.0689 12.2543L21.4324 11.8462L20.7613 14.5354C20.4049 14.4542 20.0551 14.374 19.7156 14.2896L19.7175 14.2812L17.4592 13.7173L17.0236 15.4663C17.0236 15.4663 18.2385 15.7447 18.2129 15.762C18.8761 15.9276 18.9964 16.3664 18.9759 16.7144L18.212 19.779C18.2577 19.7907 18.3169 19.8075 18.3822 19.8336L18.2096 19.7907L17.1383 24.0838C17.0572 24.2853 16.8515 24.5875 16.3879 24.4728C16.4042 24.4966 15.1977 24.1757 15.1977 24.1757L14.3848 26.0506L16.5162 26.5818C16.7568 26.6421 16.9945 26.7041 17.2296 26.7654L17.2297 26.7655C17.3819 26.8052 17.533 26.8446 17.6831 26.8831L17.0054 29.6045L18.641 30.0126L19.3126 27.3205C19.759 27.4418 20.1927 27.5537 20.6171 27.6591L19.9483 30.3386L21.5858 30.7466L22.2635 28.0309C25.0558 28.5593 27.1559 28.3461 28.0388 25.8211C28.751 23.7876 28.0038 22.6147 26.5347 21.8493C27.6046 21.6017 28.4105 20.8979 28.6255 19.4442H28.626ZM20.1616 25.4317L20.1616 25.4317L20.1616 25.4317C20.042 25.4001 19.9351 25.3718 19.8439 25.3491L20.7431 21.7444C20.8546 21.7722 20.9909 21.8028 21.1453 21.8375C22.5272 22.1475 25.3591 22.783 24.8846 24.6906H24.8841C24.4193 26.5569 21.4974 25.7847 20.1616 25.4317ZM21.4231 20.1647C22.5376 20.4621 24.967 21.1102 25.3902 19.4148C25.8228 17.6803 23.4605 17.1575 22.3068 16.9022C22.1771 16.8735 22.0627 16.8482 21.9692 16.8249L21.154 20.0943C21.2311 20.1135 21.3216 20.1377 21.4231 20.1647Z" fill="#F7931A"/>
</svg>
