<svg width="44" height="44" viewBox="0 0 44 44" fill="none" xmlns="http://www.w3.org/2000/svg">
<path opacity="0.2" d="M43.8807 22.0004C43.8807 34.0867 34.0831 43.8846 21.9969 43.8846C9.91057 43.8846 0.112793 34.0867 0.112793 22.0004C0.112793 9.91423 9.91057 0.116455 21.9969 0.116455C34.0829 0.116455 43.8807 9.91423 43.8807 22.0004Z" fill="#D69331"/>
<path d="M20.2207 26.7867H27.3021V30.3107H22.9419C23.0128 31.3191 23.0518 32.2536 23.1228 33.2585H19.4544V30.3458H15.0942C15.0942 29.1934 14.9488 28.0445 15.1652 26.9659C15.2752 26.3897 15.9279 25.8872 16.3288 25.3848C17.7089 23.7651 19.089 22.1841 20.5046 20.5644C21.0509 19.953 21.5937 19.3768 22.211 18.6952H15.4206V15.1712H19.4509V12.2234H22.9738V15.1009H27.3695C27.3695 16.2885 27.5149 17.4374 27.2985 18.5195C27.1885 19.0957 26.5358 19.5981 26.0994 20.1006C24.7193 21.7203 23.3392 23.3013 21.9237 24.921C21.3844 25.564 20.8416 26.1367 20.2207 26.7867Z" fill="#D69331"/>
</svg>
