<svg width="44" height="44" viewBox="0 0 44 44" fill="none" xmlns="http://www.w3.org/2000/svg">
<path opacity="0.2" d="M22 44C34.1503 44 44 34.1503 44 22C44 9.84974 34.1503 0 22 0C9.84974 0 0 9.84974 0 22C0 34.1503 9.84974 44 22 44Z" fill="#1276A7"/>
<path d="M29.1798 13.5386H32.1158L26.0044 19.6226C23.7916 21.8254 20.2042 21.8254 17.9962 19.6226L11.8848 13.5386H14.8208L19.4618 18.1602C20.8652 19.5536 23.1354 19.5536 24.534 18.1602L29.1798 13.5386Z" fill="white"/>
<path d="M14.7822 30.4618H11.8462L17.996 24.3364C20.2087 22.1336 23.7961 22.1336 26.0089 24.3364L32.1539 30.4618H29.2179L24.5385 25.8034C23.1352 24.41 20.8649 24.41 19.4664 25.8034L14.7822 30.4618Z" fill="white"/>
</svg>
