<svg width="44" height="44" viewBox="0 0 44 44" fill="none" xmlns="http://www.w3.org/2000/svg">
<path opacity="0.2" d="M43.8807 22.0004C43.8807 34.0867 34.0831 43.8846 21.9969 43.8846C9.91057 43.8846 0.112793 34.0867 0.112793 22.0004C0.112793 9.91423 9.91057 0.116455 21.9969 0.116455C34.0829 0.116455 43.8807 9.91423 43.8807 22.0004Z" fill="#505050"/>
<g opacity="0.8">
<path d="M21.9269 11.8462L21.7917 12.3056V25.6373L21.9269 25.7722L28.1153 22.1143L21.9269 11.8462Z" fill="white"/>
<path d="M21.9269 11.8462L15.7385 22.1143L21.9269 25.7723V19.3015V11.8462Z" fill="white"/>
<path d="M21.927 27.7858L21.8508 27.8786V32.6276L21.927 32.8501L28.1191 24.1296L21.927 27.7858Z" fill="white"/>
<path d="M21.9269 32.8502V27.7858L15.7385 24.1296L21.9269 32.8502Z" fill="white"/>
<path d="M21.927 25.7722L28.1153 22.1143L21.927 19.3015V25.7722Z" fill="white"/>
<path d="M15.7385 22.1143L21.9268 25.7723V19.3015L15.7385 22.1143Z" fill="white"/>
</g>
</svg>
