<svg width="44" height="44" viewBox="0 0 44 44" fill="none" xmlns="http://www.w3.org/2000/svg">
<path opacity="0.2" d="M43.8807 22.0004C43.8807 34.0867 34.0831 43.8846 21.9969 43.8846C9.91057 43.8846 0.112793 34.0867 0.112793 22.0004C0.112793 9.91423 9.91057 0.116455 21.9969 0.116455C34.0829 0.116455 43.8807 9.91423 43.8807 22.0004Z" fill="#00A478"/>
<path d="M19.7527 21.6172V17.7887H14.5601V14.4329H29.0704V17.836H23.8777V21.6172H19.7527Z" fill="#00A478"/>
<path fill-rule="evenodd" clip-rule="evenodd" d="M12.3276 22.0426C12.3276 20.7664 16.5012 19.7266 21.6938 19.7266C26.8865 19.7266 31.06 20.7664 31.06 22.0426C31.06 23.3188 26.8865 24.3586 21.6938 24.3586C16.5012 24.3586 12.3276 23.3188 12.3276 22.0426ZM30.2835 22.0426C29.9438 21.5699 27.1291 20.1047 21.6938 20.1047C16.2585 20.1047 13.4438 21.5227 13.1041 22.0426C13.4438 22.5152 16.2585 23.2242 21.6938 23.2242C27.1776 23.2242 29.9438 22.5152 30.2835 22.0426Z" fill="#00A478"/>
<path d="M23.8777 22.7988V20.1519C23.1983 20.1046 22.4704 20.0574 21.7424 20.0574C21.063 20.0574 20.4322 20.0574 19.8013 20.1046V22.7515C20.3836 22.7515 21.063 22.7988 21.7424 22.7988C22.4704 22.846 23.1983 22.846 23.8777 22.7988Z" fill="#00A478"/>
<path d="M21.6939 24.3584C21.0144 24.3584 20.3836 24.3584 19.7527 24.3112V31.3538H23.8292V24.2639C23.1497 24.3112 22.4218 24.3584 21.6939 24.3584Z" fill="#00A478"/>
</svg>
