<svg width="44" height="44" viewBox="0 0 44 44" fill="none" xmlns="http://www.w3.org/2000/svg">
<path opacity="0.2" d="M22 44C34.1503 44 44 34.1503 44 22C44 9.84974 34.1503 0 22 0C9.84974 0 0 9.84974 0 22C0 34.1503 9.84974 44 22 44Z" fill="#2573C2"/>
<path d="M32.6226 17.1819C32.6013 16.8259 32.4968 16.4798 32.3176 16.1714C32.1587 15.8536 31.8759 15.6058 31.5454 15.4787C31.2084 15.3107 30.835 15.2288 30.4586 15.2403H16.3556L15.3451 18.2687H28.1229L26.105 24.4591H13.3304L12.3198 27.4875H26.4895C26.9117 27.4753 27.3292 27.3948 27.7257 27.2491C28.1229 27.0235 28.5773 26.7947 28.9618 26.4769C29.3372 26.181 29.6764 25.8418 29.9724 25.4664C30.217 25.0986 30.4256 24.708 30.5952 24.3002L32.4669 18.4149C32.6372 18.0277 32.6913 17.5993 32.6226 17.1819Z" fill="#2573C2"/>
<path d="M20.3817 19.9592H12.8631L11.8525 22.7589H19.4474L20.3817 19.9592Z" fill="#2573C2"/>
</svg>
