<svg width="205" height="3" viewBox="0 0 205 3" fill="transparent" xmlns="http://www.w3.org/2000/svg">

<path d="M1.40414 0.00317383C1.09326 0.00317383 0.841309 0.255122 0.841309 0.566005V2.06664C0.841309 2.37753 1.09326 2.62948 1.40414 2.62948C1.71502 2.62948 1.96697 2.37753 1.96697 2.06664V0.566005C1.96697 0.255122 1.71502 0.00317383 1.40414 0.00317383Z" fill="#3F4550"/>
<path d="M8.62533 0.00317383C8.31445 0.00317383 8.0625 0.255122 8.0625 0.566005V2.06664C8.0625 2.37753 8.31445 2.62948 8.62533 2.62948C8.93622 2.62948 9.18816 2.37753 9.18816 2.06664V0.566005C9.18816 0.255122 8.93622 0.00317383 8.62533 0.00317383Z" fill="#3F4550"/>
<path d="M15.8446 0.00317383C15.5337 0.00317383 15.2817 0.255122 15.2817 0.566005V2.06664C15.2817 2.37753 15.5337 2.62948 15.8446 2.62948C16.1555 2.62948 16.4074 2.37753 16.4074 2.06664V0.566005C16.4074 0.255122 16.1555 0.00317383 15.8446 0.00317383Z" fill="#3F4550"/>
<path d="M23.0682 0.00317383C22.7573 0.00317383 22.5054 0.255122 22.5054 0.566005V2.06664C22.5054 2.37753 22.7573 2.62948 23.0682 2.62948C23.3791 2.62948 23.631 2.37753 23.631 2.06664V0.566005C23.631 0.255122 23.3791 0.00317383 23.0682 0.00317383Z" fill="#3F4550"/>
<path d="M30.2894 0.00317383C29.9785 0.00317383 29.7266 0.255122 29.7266 0.566005V2.06664C29.7266 2.37753 29.9785 2.62948 30.2894 2.62948C30.6003 2.62948 30.8522 2.37753 30.8522 2.06664V0.566005C30.8522 0.255122 30.6003 0.00317383 30.2894 0.00317383Z" fill="#3F4550"/>
<path d="M37.5106 0.00317383C37.1997 0.00317383 36.9478 0.255122 36.9478 0.566005V2.06664C36.9478 2.37753 37.1997 2.62948 37.5106 2.62948C37.8215 2.62948 38.0734 2.37753 38.0734 2.06664V0.566005C38.0734 0.255122 37.8215 0.00317383 37.5106 0.00317383Z" fill="#3F4550"/>
<path d="M44.7323 0.00317383C44.4214 0.00317383 44.1694 0.255122 44.1694 0.566005V2.06664C44.1694 2.37753 44.4214 2.62948 44.7323 2.62948C45.0431 2.62948 45.2951 2.37753 45.2951 2.06664V0.566005C45.2951 0.255122 45.0431 0.00317383 44.7323 0.00317383Z" fill="#3F4550"/>
<path d="M51.9515 0.00317383C51.6406 0.00317383 51.3887 0.255122 51.3887 0.566005V2.06664C51.3887 2.37753 51.6406 2.62948 51.9515 2.62948C52.2624 2.62948 52.5143 2.37753 52.5143 2.06664V0.566005C52.5143 0.255122 52.2624 0.00317383 51.9515 0.00317383Z" fill="#3F4550"/>
<path d="M59.1727 0.00317383C58.8618 0.00317383 58.6099 0.255122 58.6099 0.566005V2.06664C58.6099 2.37753 58.8618 2.62948 59.1727 2.62948C59.4836 2.62948 59.7355 2.37753 59.7355 2.06664V0.566005C59.7355 0.255122 59.4836 0.00317383 59.1727 0.00317383Z" fill="#3F4550"/>
<path d="M66.3939 0.00317383C66.083 0.00317383 65.8311 0.255122 65.8311 0.566005V2.06664C65.8311 2.37753 66.083 2.62948 66.3939 2.62948C66.7048 2.62948 66.9567 2.37753 66.9567 2.06664V0.566005C66.9567 0.255122 66.7048 0.00317383 66.3939 0.00317383Z" fill="#3F4550"/>
<path d="M73.6146 0.00317383C73.3037 0.00317383 73.0518 0.255122 73.0518 0.566005V2.06664C73.0518 2.37753 73.3037 2.62948 73.6146 2.62948C73.9255 2.62948 74.1774 2.37753 74.1774 2.06664V0.566005C74.1774 0.255122 73.9255 0.00317383 73.6146 0.00317383Z" fill="#3F4550"/>
<path d="M80.8363 0.00317383C80.5254 0.00317383 80.2734 0.255122 80.2734 0.566005V2.06664C80.2734 2.37753 80.5254 2.62948 80.8363 2.62948C81.1472 2.62948 81.3991 2.37753 81.3991 2.06664V0.566005C81.3991 0.255122 81.1472 0.00317383 80.8363 0.00317383Z" fill="#3F4550"/>
<path d="M88.0579 0.00317383C87.7471 0.00317383 87.4951 0.255122 87.4951 0.566005V2.06664C87.4951 2.37753 87.7471 2.62948 88.0579 2.62948C88.3688 2.62948 88.6208 2.37753 88.6208 2.06664V0.566005C88.6208 0.255122 88.3688 0.00317383 88.0579 0.00317383Z" fill="#3F4550"/>
<path d="M95.2791 0.00317383C94.9683 0.00317383 94.7163 0.255122 94.7163 0.566005V2.06664C94.7163 2.37753 94.9683 2.62948 95.2791 2.62948C95.59 2.62948 95.842 2.37753 95.842 2.06664V0.566005C95.842 0.255122 95.59 0.00317383 95.2791 0.00317383Z" fill="#3F4550"/>
<path d="M102.5 0.00317383C102.189 0.00317383 101.938 0.255122 101.938 0.566005V2.06664C101.938 2.37753 102.189 2.62948 102.5 2.62948C102.811 2.62948 103.063 2.37753 103.063 2.06664V0.566005C103.063 0.255122 102.811 0.00317383 102.5 0.00317383Z" fill="#3F4550"/>
<path d="M110.285 0.565029V2.06567C110.285 2.37629 110.033 2.6285 109.722 2.6285C109.411 2.6285 109.159 2.37629 109.159 2.06567V0.565029C109.159 0.254402 109.411 0.00219727 109.722 0.00219727C110.033 0.00219727 110.285 0.254402 110.285 0.565029Z" fill="#3F4550"/>
<path d="M116.943 0.00317383C116.632 0.00317383 116.38 0.255122 116.38 0.566005V2.06664C116.38 2.37753 116.632 2.62948 116.943 2.62948C117.254 2.62948 117.506 2.37753 117.506 2.06664V0.566005C117.506 0.255122 117.254 0.00317383 116.943 0.00317383Z" fill="#3F4550"/>
<path d="M124.164 0.00317383C123.854 0.00317383 123.602 0.255122 123.602 0.566005V2.06664C123.602 2.37753 123.854 2.62948 124.164 2.62948C124.475 2.62948 124.727 2.37753 124.727 2.06664V0.566005C124.727 0.255122 124.475 0.00317383 124.164 0.00317383Z" fill="#3F4550"/>
<path d="M131.386 0.00317383C131.075 0.00317383 130.823 0.255122 130.823 0.566005V2.06664C130.823 2.37753 131.075 2.62948 131.386 2.62948C131.697 2.62948 131.949 2.37753 131.949 2.06664V0.566005C131.949 0.255122 131.697 0.00317383 131.386 0.00317383Z" fill="#3F4550"/>
<path d="M139.169 0.565029V2.06567C139.169 2.37629 138.917 2.6285 138.606 2.6285C138.296 2.6285 138.043 2.37629 138.043 2.06567V0.565029C138.043 0.254402 138.296 0.00219727 138.606 0.00219727C138.917 0.00219727 139.169 0.254402 139.169 0.565029Z" fill="#3F4550"/>
<path d="M145.827 0.00317383C145.517 0.00317383 145.265 0.255122 145.265 0.566005V2.06664C145.265 2.37753 145.517 2.62948 145.827 2.62948C146.138 2.62948 146.39 2.37753 146.39 2.06664V0.566005C146.39 0.255122 146.138 0.00317383 145.827 0.00317383Z" fill="#3F4550"/>
<path d="M153.612 0.565029V2.06567C153.612 2.37629 153.36 2.6285 153.049 2.6285C152.739 2.6285 152.486 2.37629 152.486 2.06567V0.565029C152.486 0.254402 152.739 0.00219727 153.049 0.00219727C153.36 0.00219727 153.612 0.254402 153.612 0.565029Z" fill="#3F4550"/>
<path d="M160.833 0.565029V2.06567C160.833 2.37629 160.58 2.6285 160.27 2.6285C159.959 2.6285 159.707 2.37629 159.707 2.06567V0.565029C159.707 0.254402 159.959 0.00219727 160.27 0.00219727C160.58 0.00219727 160.833 0.254402 160.833 0.565029Z" fill="#3F4550"/>
<path d="M167.491 0.00317383C167.18 0.00317383 166.928 0.255122 166.928 0.566005V2.06664C166.928 2.37753 167.18 2.62948 167.491 2.62948C167.801 2.62948 168.053 2.37753 168.053 2.06664V0.566005C168.053 0.255122 167.801 0.00317383 167.491 0.00317383Z" fill="#3F4550"/>
<path d="M174.712 0.00317383C174.401 0.00317383 174.149 0.255122 174.149 0.566005V2.06664C174.149 2.37753 174.401 2.62948 174.712 2.62948C175.023 2.62948 175.275 2.37753 175.275 2.06664V0.566005C175.275 0.255122 175.023 0.00317383 174.712 0.00317383Z" fill="#3F4550"/>
<path d="M181.934 0.00317383C181.623 0.00317383 181.371 0.255122 181.371 0.566005V2.06664C181.371 2.37753 181.623 2.62948 181.934 2.62948C182.245 2.62948 182.497 2.37753 182.497 2.06664V0.566005C182.497 0.255122 182.245 0.00317383 181.934 0.00317383Z" fill="#3F4550"/>
<path d="M189.717 0.564785V2.06542C189.717 2.37605 189.465 2.62826 189.155 2.62826C188.844 2.62826 188.592 2.37605 188.592 2.06542V0.564785C188.592 0.254158 188.844 0.00195312 189.155 0.00195312C189.465 0.00195312 189.717 0.254158 189.717 0.564785Z" fill="#3F4550"/>
<path d="M196.377 0.00317383C196.066 0.00317383 195.814 0.255122 195.814 0.566005V2.06664C195.814 2.37753 196.066 2.62948 196.377 2.62948C196.688 2.62948 196.94 2.37753 196.94 2.06664V0.566005C196.94 0.255122 196.688 0.00317383 196.377 0.00317383Z" fill="#3F4550"/>
<path d="M203.598 0.00317383C203.287 0.00317383 203.035 0.255122 203.035 0.566005V2.06664C203.035 2.37753 203.287 2.62948 203.598 2.62948C203.909 2.62948 204.161 2.37753 204.161 2.06664V0.566005C204.161 0.255122 203.909 0.00317383 203.598 0.00317383Z" fill="#3F4550"/>
</svg>
