<svg width="31" height="31" viewBox="0 0 31 31" fill="none" xmlns="http://www.w3.org/2000/svg">
<path fill-rule="evenodd" clip-rule="evenodd" d="M5.5 8.5C4.95 8.5 4.5 8.95 4.5 9.5V24.5C4.5 25.6 5.4 26.5 6.5 26.5H21.5C22.05 26.5 22.5 26.05 22.5 25.5C22.5 24.95 22.05 24.5 21.5 24.5H7.5C6.95 24.5 6.5 24.05 6.5 23.5V9.5C6.5 8.95 6.05 8.5 5.5 8.5ZM19.5 18.5C20.05 18.5 20.5 18.05 20.5 17.5V9.5C20.5 8.95 20.05 8.5 19.5 8.5C18.95 8.5 18.5 8.95 18.5 9.5V12.5H16.5V9.5C16.5 8.95 16.05 8.5 15.5 8.5C14.95 8.5 14.5 8.95 14.5 9.5V13.5C14.5 14.05 14.95 14.5 15.5 14.5H18.5V17.5C18.5 18.05 18.95 18.5 19.5 18.5ZM24.5 4.5H10.5C9.4 4.5 8.5 5.4 8.5 6.5V20.5C8.5 21.6 9.4 22.5 10.5 22.5H24.5C25.6 22.5 26.5 21.6 26.5 20.5V6.5C26.5 5.4 25.6 4.5 24.5 4.5ZM23.5 20.5H11.5C10.95 20.5 10.5 20.05 10.5 19.5V7.5C10.5 6.95 10.95 6.5 11.5 6.5H23.5C24.05 6.5 24.5 6.95 24.5 7.5V19.5C24.5 20.05 24.05 20.5 23.5 20.5Z" fill="white"/>
</svg>
