<svg width="30" height="30" viewBox="0 0 30 30" fill="none" xmlns="http://www.w3.org/2000/svg">
<rect x="1.5" y="1.5" width="27" height="27" rx="13.5" fill="white"/>
<path d="M14.7041 21.6V19.01H15.6841V21.6H14.7041ZM14.7041 10.106V7.6H15.6841V10.106H14.7041ZM14.8581 19.64C14.3168 19.64 13.7941 19.556 13.2901 19.388C12.7861 19.2107 12.3614 18.9773 12.0161 18.688L12.4361 17.708C12.7441 17.9787 13.1081 18.1887 13.5281 18.338C13.9481 18.4873 14.3728 18.562 14.8021 18.562C15.4648 18.562 15.9641 18.394 16.3001 18.058C16.6361 17.722 16.8041 17.288 16.8041 16.756C16.8041 16.308 16.6828 15.916 16.4401 15.58C16.1974 15.244 15.7821 15.0433 15.1941 14.978L14.5221 14.908C13.9994 14.852 13.5514 14.7167 13.1781 14.502C12.8048 14.2873 12.5201 13.998 12.3241 13.634C12.1281 13.2607 12.0301 12.822 12.0301 12.318C12.0301 11.786 12.1608 11.3147 12.4221 10.904C12.6834 10.484 13.0521 10.1573 13.5281 9.924C14.0134 9.68133 14.5874 9.56 15.2501 9.56C15.6608 9.56 16.0808 9.616 16.5101 9.728C16.9394 9.84 17.3408 10.0173 17.7141 10.26L17.3641 11.24C17.0281 11.0067 16.6781 10.8433 16.3141 10.75C15.9501 10.6567 15.6001 10.61 15.2641 10.61C14.5921 10.61 14.0741 10.764 13.7101 11.072C13.3554 11.3707 13.1781 11.7627 13.1781 12.248C13.1781 12.7427 13.3134 13.116 13.5841 13.368C13.8548 13.62 14.2141 13.7693 14.6621 13.816L15.3341 13.886C16.1834 13.9793 16.8274 14.278 17.2661 14.782C17.7141 15.286 17.9381 15.9207 17.9381 16.686C17.9381 17.246 17.8121 17.75 17.5601 18.198C17.3174 18.646 16.9674 19.0007 16.5101 19.262C16.0528 19.514 15.5021 19.64 14.8581 19.64Z" fill="#0D0323"/>
<rect x="1.5" y="1.5" width="27" height="27" rx="13.5" stroke="#7027F0" stroke-width="3"/>
</svg>
