<svg width="30" height="30" viewBox="0 0 30 30" fill="none" xmlns="http://www.w3.org/2000/svg">
<rect x="1.5" y="1.5" width="27" height="27" rx="13.5" fill="white"/>
<path d="M11.5432 19.5V9.7H12.5232L14.8472 14.096C14.8939 14.18 14.9452 14.222 15.0012 14.222C15.0665 14.222 15.1179 14.18 15.1552 14.096L17.4792 9.7H18.4592V19.5H17.3392V13.116L17.4792 12.234C17.4885 12.1687 17.4699 12.1267 17.4232 12.108C17.3859 12.0893 17.3439 12.1173 17.2972 12.192L15.3512 15.79H14.6512L12.7052 12.192C12.6679 12.1173 12.6259 12.0893 12.5792 12.108C12.5325 12.1267 12.5139 12.1687 12.5232 12.234L12.6632 13.116V19.5H11.5432Z" fill="#0D0323"/>
<rect x="1.5" y="1.5" width="27" height="27" rx="13.5" stroke="#7027F0" stroke-width="3"/>
</svg>
