<svg width="1112" height="321" viewBox="0 0 1112 321" fill="none" xmlns="http://www.w3.org/2000/svg">
<line x1="700" y1="80.6809" x2="410" y2="80.6809" stroke="url(#paint0_linear_261_12798)" stroke-width="10" stroke-dasharray="1 10"/>
<g filter="url(#filter0_d_261_12798)">
<rect x="522" y="46" width="70" height="70" rx="35" fill="#04001A" shape-rendering="crispEdges"/>
<g clip-path="url(#clip0_261_12798)">
<path fill-rule="evenodd" clip-rule="evenodd" d="M556.121 66.8789C556.121 66.3935 556.515 66 557 66C557.485 66 557.879 66.3935 557.879 66.8789V72.5273C557.879 73.0127 557.485 73.4063 557 73.4063C556.515 73.4063 556.121 73.0127 556.121 72.5273V66.8789ZM556.121 89.4727C556.121 88.9873 556.515 88.5938 557 88.5938C557.485 88.5938 557.879 88.9872 557.879 89.4727V95.121C557.879 95.6064 557.485 95.9999 557 95.9999C556.515 95.9999 556.121 95.6064 556.121 95.121V89.4727ZM553.525 73.2229L550.701 68.3312C550.458 67.9108 549.92 67.7668 549.5 68.0095C549.08 68.2522 548.936 68.7898 549.178 69.2101L552.003 74.1018C552.165 74.3838 552.461 74.5414 552.765 74.5414C552.914 74.5414 553.065 74.5034 553.203 74.4235C553.624 74.1808 553.768 73.6433 553.525 73.2229ZM561.998 87.8981L564.822 92.7897C565.064 93.21 564.92 93.7476 564.5 93.9903C564.362 94.0702 564.211 94.1082 564.061 94.1082C563.758 94.1082 563.462 93.9506 563.299 93.6686L560.475 88.777C560.233 88.3567 560.377 87.8191 560.797 87.5764C561.217 87.3337 561.755 87.4777 561.998 87.8981ZM550.102 76.0028L545.21 73.1785C544.79 72.9357 544.252 73.0798 544.01 73.5002C543.767 73.9205 543.911 74.4581 544.331 74.7008L549.223 77.5251C549.362 77.605 549.513 77.643 549.662 77.643C549.966 77.643 550.261 77.4854 550.424 77.2034C550.666 76.783 550.522 76.2455 550.102 76.0028ZM564.777 84.4753L569.669 87.2995C570.089 87.5421 570.233 88.0797 569.99 88.5001C569.828 88.7821 569.532 88.9397 569.228 88.9397C569.079 88.9397 568.928 88.9017 568.79 88.8218L563.898 85.9976C563.478 85.755 563.334 85.2175 563.576 84.7971C563.819 84.3766 564.357 84.2326 564.777 84.4753ZM548.527 80.1211H542.879C542.394 80.1211 542 80.5146 542 81C542 81.4854 542.394 81.8789 542.879 81.8789H548.527C549.013 81.8789 549.406 81.4854 549.406 81C549.406 80.5146 549.013 80.1211 548.527 80.1211ZM565.473 80.1211H571.121C571.606 80.1211 572 80.5146 572 81C572 81.4854 571.606 81.8789 571.121 81.8789H565.473C564.987 81.8789 564.594 81.4854 564.594 81C564.594 80.5146 564.987 80.1211 565.473 80.1211ZM550.424 84.797C550.181 84.3766 549.644 84.2326 549.223 84.4754L544.331 87.2996C543.911 87.5423 543.767 88.0798 544.01 88.5002C544.173 88.7822 544.468 88.9397 544.772 88.9397C544.921 88.9397 545.072 88.9018 545.21 88.8218L550.102 85.9976C550.522 85.7549 550.666 85.2174 550.424 84.797ZM568.79 73.1785C569.21 72.9358 569.748 73.0797 569.99 73.5001C570.233 73.9205 570.089 74.458 569.669 74.7007L564.777 77.5249C564.639 77.6049 564.487 77.6428 564.338 77.6428C564.035 77.6428 563.739 77.4852 563.576 77.2032C563.334 76.7828 563.478 76.2453 563.898 76.0027L568.79 73.1785ZM553.203 87.5765C552.783 87.3336 552.245 87.4777 552.003 87.8981L549.178 92.7898C548.936 93.2102 549.08 93.7477 549.5 93.9904C549.639 94.0703 549.79 94.1083 549.939 94.1083C550.243 94.1083 550.538 93.9507 550.701 93.6687L553.525 88.777C553.768 88.3567 553.624 87.8192 553.203 87.5765ZM563.3 68.3312C563.542 67.9108 564.08 67.7667 564.5 68.0096C564.92 68.2523 565.064 68.7898 564.822 69.2101L561.998 74.1017C561.835 74.3837 561.539 74.5413 561.236 74.5413C561.087 74.5413 560.935 74.5033 560.797 74.4234C560.377 74.1807 560.233 73.6432 560.475 73.2228L563.3 68.3312Z" fill="url(#paint1_linear_261_12798)"/>
</g>
<rect x="522.5" y="46.5" width="69" height="69" rx="34.5" stroke="#130034" stroke-opacity="0.72" shape-rendering="crispEdges"/>
<rect x="522.5" y="46.5" width="69" height="69" rx="34.5" stroke="url(#paint2_angular_261_12798)" shape-rendering="crispEdges"/>
</g>
<path d="M1 320.3V93.6472C1 87.0198 6.37258 81.6472 13 81.6472H407" stroke="url(#paint3_linear_261_12798)"/>
<path d="M1111 320.3V93.6472C1111 87.0198 1105.63 81.6472 1099 81.6472H701" stroke="url(#paint4_linear_261_12798)"/>
<defs>
<filter id="filter0_d_261_12798" x="472" y="0" width="170" height="170" filterUnits="userSpaceOnUse" color-interpolation-filters="sRGB">
<feFlood flood-opacity="0" result="BackgroundImageFix"/>
<feColorMatrix in="SourceAlpha" type="matrix" values="0 0 0 0 0 0 0 0 0 0 0 0 0 0 0 0 0 0 127 0" result="hardAlpha"/>
<feOffset dy="4"/>
<feGaussianBlur stdDeviation="25"/>
<feComposite in2="hardAlpha" operator="out"/>
<feColorMatrix type="matrix" values="0 0 0 0 0.0300833 0 0 0 0 0 0 0 0 0 0.0791667 0 0 0 1 0"/>
<feBlend mode="normal" in2="BackgroundImageFix" result="effect1_dropShadow_261_12798"/>
<feBlend mode="normal" in="SourceGraphic" in2="effect1_dropShadow_261_12798" result="shape"/>
</filter>
<linearGradient id="paint0_linear_261_12798" x1="698.766" y1="75.1787" x2="452.771" y2="74.7055" gradientUnits="userSpaceOnUse">
<stop stop-color="#25259D"/>
<stop offset="0.18" stop-color="#493CCE"/>
<stop offset="0.36" stop-color="#6E54FF"/>
<stop offset="0.54" stop-color="#924BF1"/>
<stop offset="0.71" stop-color="#B542E3"/>
<stop offset="0.86" stop-color="#BB87EA"/>
<stop offset="1" stop-color="#C1CDF1"/>
</linearGradient>
<linearGradient id="paint1_linear_261_12798" x1="552.246" y1="45.5455" x2="585.12" y2="59.946" gradientUnits="userSpaceOnUse">
<stop stop-color="#53FDA9"/>
<stop offset="1" stop-color="#7027F0"/>
</linearGradient>
<radialGradient id="paint2_angular_261_12798" cx="0" cy="0" r="1" gradientUnits="userSpaceOnUse" gradientTransform="translate(564.993 81.5185) rotate(-78.0986) scale(39.3458 18.9934)">
<stop offset="0.104167" stop-color="#414141" stop-opacity="0"/>
<stop offset="0.442708" stop-color="#7000FF"/>
<stop offset="0.734375" stop-color="#303030" stop-opacity="0"/>
<stop offset="0.890625" stop-color="#7000FF"/>
</radialGradient>
<linearGradient id="paint3_linear_261_12798" x1="250.5" y1="26.4588" x2="226.81" y2="353.929" gradientUnits="userSpaceOnUse">
<stop stop-color="#53FDA9"/>
<stop offset="1"/>
</linearGradient>
<linearGradient id="paint4_linear_261_12798" x1="788.933" y1="76.7768" x2="807.418" y2="305.854" gradientUnits="userSpaceOnUse">
<stop stop-color="#6C01F5"/>
<stop offset="1" stop-color="#1C0146"/>
</linearGradient>
<clipPath id="clip0_261_12798">
<rect width="30" height="30" fill="white" transform="translate(542 66)"/>
</clipPath>
</defs>
</svg>
