<svg width="741" height="462" viewBox="0 0 741 462" fill="none" xmlns="http://www.w3.org/2000/svg">
<g clip-path="url(#clip0_390_3970)">
<g filter="url(#filter0_b_390_3970)">
<path d="M734 388H15.0002L38.2007 385.128L49.801 382.256L61.4012 368.472L67.2014 362.728L73.0015 345.497L84.6017 368.472L96.202 332.287L107.802 354.113L122.164 317.354L129.346 280.02L139.104 307.015L157.039 284.615L167.296 317.354L177.552 264.513L191.352 317.354L205.152 284.615L218.953 312.185L232.753 268.533L242.392 284.615L252.032 339.754L261.671 186.974L271.31 258.769L292.392 200.759L313.474 246.096L330.645 134.708L347.816 187.549L364.986 150.79L373.572 52L382.157 119.2L402.712 238.092L423.266 168.02L443.821 268.533L454.098 230.626L464.375 324.246L483.133 200.759L501.89 254.174L530.935 186.974L559.233 238.092L573.381 146.195L587.53 218.564L601.679 195.59L615.828 284.615L632.923 238.092L644.125 284.615L666.594 195.59L689.063 168.02L711.532 179.508L734 91.0564V388Z" fill="url(#paint0_linear_390_3970)"/>
</g>
<g filter="url(#filter1_b_390_3970)">
<rect x="15.325" y="-32.8152" width="723" height="421.037" fill="#04001A" fill-opacity="0.01"/>
</g>
</g>
<g clip-path="url(#clip1_390_3970)">
<line x1="4" y1="-2.19196e-08" x2="4.00002" y2="400" stroke="#190042"/>
<line x1="1193.5" y1="400.5" x2="3.5" y2="400.5" stroke="#190042"/>
</g>
<g clip-path="url(#clip2_390_3970)">
<line x1="962.234" y1="27.5" x2="-213.766" y2="27.5" stroke="#080068" stroke-opacity="0.1"/>
<line x1="962.234" y1="47.5" x2="-213.766" y2="47.5" stroke="#080068" stroke-opacity="0.1"/>
<line x1="962.234" y1="67.5" x2="-213.766" y2="67.5" stroke="#080068" stroke-opacity="0.1"/>
<line x1="962.234" y1="87.5" x2="-213.766" y2="87.5" stroke="#080068" stroke-opacity="0.1"/>
<line x1="962.234" y1="107.5" x2="-213.766" y2="107.5" stroke="#080068" stroke-opacity="0.1"/>
<line x1="962.234" y1="127.5" x2="-213.766" y2="127.5" stroke="#080068" stroke-opacity="0.1"/>
<line x1="962.234" y1="147.5" x2="-213.766" y2="147.5" stroke="#080068" stroke-opacity="0.1"/>
<line x1="962.234" y1="167.5" x2="-213.766" y2="167.5" stroke="#080068" stroke-opacity="0.1"/>
<line x1="962.234" y1="187.5" x2="-213.766" y2="187.5" stroke="#080068" stroke-opacity="0.1"/>
<line x1="962.234" y1="207.5" x2="-213.766" y2="207.5" stroke="#080068" stroke-opacity="0.1"/>
<line x1="962.234" y1="227.5" x2="-213.766" y2="227.5" stroke="#080068" stroke-opacity="0.1"/>
<line x1="962.234" y1="247.5" x2="-213.766" y2="247.5" stroke="#080068" stroke-opacity="0.1"/>
<line x1="962.234" y1="267.5" x2="-213.766" y2="267.5" stroke="#080068" stroke-opacity="0.1"/>
<line x1="962.234" y1="287.5" x2="-213.766" y2="287.5" stroke="#080068" stroke-opacity="0.1"/>
<line x1="962.234" y1="307.5" x2="-213.766" y2="307.5" stroke="#080068" stroke-opacity="0.1"/>
<line x1="962.234" y1="327.5" x2="-213.766" y2="327.5" stroke="#080068" stroke-opacity="0.1"/>
<line x1="962.234" y1="347.5" x2="-213.766" y2="347.5" stroke="#080068" stroke-opacity="0.1"/>
<line x1="962.234" y1="367.5" x2="-213.766" y2="367.5" stroke="#080068" stroke-opacity="0.1"/>
<line x1="962.234" y1="387.5" x2="-213.766" y2="387.5" stroke="#080068" stroke-opacity="0.1"/>
</g>
<g clip-path="url(#clip3_390_3970)">
<line x1="15.825" y1="27" x2="15.825" y2="388" stroke="#080068" stroke-opacity="0.1" stroke-dasharray="10 10"/>
<line x1="80.825" y1="27" x2="80.825" y2="388" stroke="#080068" stroke-opacity="0.1" stroke-dasharray="10 10"/>
<line x1="145.825" y1="27" x2="145.825" y2="388" stroke="#080068" stroke-opacity="0.1" stroke-dasharray="10 10"/>
<line x1="210.825" y1="27" x2="210.825" y2="388" stroke="#080068" stroke-opacity="0.1" stroke-dasharray="10 10"/>
<line x1="275.825" y1="27" x2="275.825" y2="388" stroke="#080068" stroke-opacity="0.1" stroke-dasharray="10 10"/>
<line x1="340.825" y1="27" x2="340.825" y2="388" stroke="#080068" stroke-opacity="0.1" stroke-dasharray="10 10"/>
<line x1="405.825" y1="27" x2="405.825" y2="388" stroke="#080068" stroke-opacity="0.1" stroke-dasharray="10 10"/>
<line x1="470.825" y1="27" x2="470.825" y2="388" stroke="#080068" stroke-opacity="0.1" stroke-dasharray="10 10"/>
<line x1="535.825" y1="27" x2="535.825" y2="388" stroke="#080068" stroke-opacity="0.1" stroke-dasharray="10 10"/>
<line x1="600.825" y1="27" x2="600.825" y2="388" stroke="#080068" stroke-opacity="0.1" stroke-dasharray="10 10"/>
<line x1="665.825" y1="27" x2="665.826" y2="388" stroke="#080068" stroke-opacity="0.1" stroke-dasharray="10 10"/>
<line x1="730.825" y1="27" x2="730.826" y2="388" stroke="#080068" stroke-opacity="0.1" stroke-dasharray="10 10"/>
</g>
<g clip-path="url(#clip4_390_3970)">
<path d="M12.1879 441.168C11.8425 441.168 11.4552 441.098 11.0259 440.958C10.6059 440.809 10.2465 440.589 9.94786 440.3L10.2979 439.306C10.4379 439.493 10.6152 439.642 10.8299 439.754C11.0539 439.866 11.2872 439.95 11.5299 440.006C11.7819 440.053 12.0012 440.076 12.1879 440.076C12.6359 440.076 12.9905 439.969 13.2519 439.754C13.5225 439.539 13.6579 439.236 13.6579 438.844V432.292H11.4179V431.2H14.8059V438.844C14.8059 439.572 14.5679 440.141 14.0919 440.552C13.6252 440.963 12.9905 441.168 12.1879 441.168ZM21.2916 441.168L20.8296 440.482C20.7736 440.398 20.7082 440.389 20.6336 440.454C20.4096 440.65 20.1716 440.818 19.9196 440.958C19.6769 441.089 19.3502 441.154 18.9396 441.154C18.2769 441.154 17.7496 440.972 17.3576 440.608C16.9656 440.244 16.7696 439.768 16.7696 439.18C16.7696 438.76 16.8582 438.405 17.0356 438.116C17.2222 437.827 17.4836 437.607 17.8196 437.458C18.1556 437.299 18.5476 437.22 18.9956 437.22H20.6336V436.212C20.6336 435.811 20.5169 435.489 20.2836 435.246C20.0502 435.003 19.6816 434.882 19.1776 434.882C18.8136 434.882 18.4869 434.938 18.1976 435.05C17.9082 435.153 17.6142 435.321 17.3156 435.554L16.9656 434.574C17.3202 434.303 17.6796 434.112 18.0436 434C18.4076 433.888 18.8089 433.832 19.2476 433.832C20.0782 433.832 20.6942 434.047 21.0956 434.476C21.5062 434.905 21.7116 435.442 21.7116 436.086V439.656L22.3136 440.552L21.2916 441.168ZM18.9956 440.188C19.4996 440.188 19.8962 440.067 20.1856 439.824C20.4842 439.581 20.6336 439.259 20.6336 438.858V438.228C20.6336 438.051 20.5496 437.985 20.3816 438.032L19.6116 438.2H19.0796C18.7062 438.2 18.4122 438.284 18.1976 438.452C17.9922 438.611 17.8896 438.839 17.8896 439.138C17.8896 439.446 17.9876 439.698 18.1836 439.894C18.3889 440.09 18.6596 440.188 18.9956 440.188ZM23.9998 441V434H25.1198V434.406C25.3065 434.257 25.5491 434.126 25.8478 434.014C26.1558 433.893 26.4965 433.832 26.8698 433.832C27.3551 433.832 27.7705 433.925 28.1158 434.112C28.4705 434.289 28.7411 434.541 28.9278 434.868C29.1145 435.195 29.2078 435.573 29.2078 436.002V441H28.0878V436.128C28.0878 435.736 27.9618 435.423 27.7098 435.19C27.4671 434.957 27.1031 434.84 26.6178 434.84C26.1418 434.84 25.7731 434.957 25.5118 435.19C25.2505 435.423 25.1198 435.736 25.1198 436.128V441H23.9998ZM10.5499 458V456.404C10.5499 455.629 10.7272 454.976 11.0819 454.444C11.4459 453.903 12.0105 453.483 12.7759 453.184L13.5599 452.876C14.0639 452.689 14.4419 452.433 14.6939 452.106C14.9552 451.779 15.0859 451.364 15.0859 450.86C15.0859 450.449 14.9925 450.118 14.8059 449.866C14.6285 449.614 14.3905 449.432 14.0919 449.32C13.8025 449.199 13.4852 449.138 13.1399 449.138C12.7385 449.138 12.3419 449.189 11.9499 449.292C11.5579 449.395 11.2032 449.581 10.8859 449.852L10.5079 448.872C10.9465 448.545 11.3852 448.331 11.8239 448.228C12.2625 448.116 12.7105 448.06 13.1679 448.06C13.5132 448.06 13.8632 448.111 14.2179 448.214C14.5725 448.317 14.8992 448.48 15.1979 448.704C15.5059 448.928 15.7532 449.217 15.9399 449.572C16.1265 449.927 16.2199 450.356 16.2199 450.86C16.2199 451.635 16.0192 452.26 15.6179 452.736C15.2259 453.212 14.7219 453.571 14.1059 453.814L13.2939 454.136C12.7899 454.332 12.4212 454.57 12.1879 454.85C11.9639 455.121 11.8192 455.391 11.7539 455.662C11.6979 455.923 11.6699 456.152 11.6699 456.348V456.908H16.2479V458H10.5499ZM21.1866 458.168C20.6826 458.168 20.2299 458.093 19.8286 457.944C19.4366 457.795 19.1006 457.575 18.8206 457.286C18.6246 457.081 18.4472 456.824 18.2886 456.516C18.1299 456.199 18.0039 455.769 17.9106 455.228C17.8266 454.687 17.7846 453.977 17.7846 453.1C17.7846 452.223 17.8266 451.513 17.9106 450.972C18.0039 450.431 18.1299 450.001 18.2886 449.684C18.4472 449.367 18.6246 449.11 18.8206 448.914C19.1006 448.625 19.4366 448.405 19.8286 448.256C20.2299 448.107 20.6826 448.032 21.1866 448.032C21.6906 448.032 22.1386 448.107 22.5306 448.256C22.9319 448.405 23.2726 448.625 23.5526 448.914C23.7579 449.11 23.9352 449.367 24.0846 449.684C24.2432 450.001 24.3646 450.431 24.4486 450.972C24.5419 451.513 24.5886 452.223 24.5886 453.1C24.5886 453.977 24.5419 454.687 24.4486 455.228C24.3646 455.769 24.2432 456.199 24.0846 456.516C23.9352 456.824 23.7579 457.081 23.5526 457.286C23.2726 457.575 22.9319 457.795 22.5306 457.944C22.1386 458.093 21.6906 458.168 21.1866 458.168ZM21.1866 457.076C21.8772 457.076 22.3999 456.889 22.7546 456.516C23.1186 456.143 23.3192 455.639 23.3566 455.004C23.3846 454.593 23.4032 454.248 23.4126 453.968C23.4312 453.679 23.4406 453.389 23.4406 453.1C23.4406 452.801 23.4312 452.512 23.4126 452.232C23.4032 451.943 23.3846 451.597 23.3566 451.196C23.3192 450.561 23.1186 450.057 22.7546 449.684C22.3999 449.311 21.8772 449.124 21.1866 449.124C20.4959 449.124 19.9686 449.311 19.6046 449.684C19.2499 450.057 19.0539 450.561 19.0166 451.196C18.9886 451.597 18.9652 451.943 18.9466 452.232C18.9372 452.512 18.9326 452.801 18.9326 453.1C18.9326 453.389 18.9372 453.679 18.9466 453.968C18.9652 454.248 18.9886 454.593 19.0166 455.004C19.0539 455.639 19.2499 456.143 19.6046 456.516C19.9686 456.889 20.4959 457.076 21.1866 457.076ZM20.6266 454.22V451.98H21.7466V454.22H20.6266ZM26.1768 458V456.404C26.1768 455.629 26.3541 454.976 26.7088 454.444C27.0728 453.903 27.6375 453.483 28.4028 453.184L29.1868 452.876C29.6908 452.689 30.0688 452.433 30.3208 452.106C30.5821 451.779 30.7128 451.364 30.7128 450.86C30.7128 450.449 30.6195 450.118 30.4328 449.866C30.2555 449.614 30.0175 449.432 29.7188 449.32C29.4295 449.199 29.1121 449.138 28.7668 449.138C28.3655 449.138 27.9688 449.189 27.5768 449.292C27.1848 449.395 26.8301 449.581 26.5128 449.852L26.1348 448.872C26.5735 448.545 27.0121 448.331 27.4508 448.228C27.8895 448.116 28.3375 448.06 28.7948 448.06C29.1401 448.06 29.4901 448.111 29.8448 448.214C30.1995 448.317 30.5261 448.48 30.8248 448.704C31.1328 448.928 31.3801 449.217 31.5668 449.572C31.7535 449.927 31.8468 450.356 31.8468 450.86C31.8468 451.635 31.6461 452.26 31.2448 452.736C30.8528 453.212 30.3488 453.571 29.7328 453.814L28.9208 454.136C28.4168 454.332 28.0481 454.57 27.8148 454.85C27.5908 455.121 27.4461 455.391 27.3808 455.662C27.3248 455.923 27.2968 456.152 27.2968 456.348V456.908H31.8748V458H26.1768ZM33.3135 458V456.404C33.3135 455.629 33.4909 454.976 33.8455 454.444C34.2095 453.903 34.7742 453.483 35.5395 453.184L36.3235 452.876C36.8275 452.689 37.2055 452.433 37.4575 452.106C37.7189 451.779 37.8495 451.364 37.8495 450.86C37.8495 450.449 37.7562 450.118 37.5695 449.866C37.3922 449.614 37.1542 449.432 36.8555 449.32C36.5662 449.199 36.2489 449.138 35.9035 449.138C35.5022 449.138 35.1055 449.189 34.7135 449.292C34.3215 449.395 33.9669 449.581 33.6495 449.852L33.2715 448.872C33.7102 448.545 34.1489 448.331 34.5875 448.228C35.0262 448.116 35.4742 448.06 35.9315 448.06C36.2769 448.06 36.6269 448.111 36.9815 448.214C37.3362 448.317 37.6629 448.48 37.9615 448.704C38.2695 448.928 38.5169 449.217 38.7035 449.572C38.8902 449.927 38.9835 450.356 38.9835 450.86C38.9835 451.635 38.7829 452.26 38.3815 452.736C37.9895 453.212 37.4855 453.571 36.8695 453.814L36.0575 454.136C35.5535 454.332 35.1849 454.57 34.9515 454.85C34.7275 455.121 34.5829 455.391 34.5175 455.662C34.4615 455.923 34.4335 456.152 34.4335 456.348V456.908H39.0115V458H33.3135Z" fill="#68738D"/>
<path d="M83.0679 441V431.2H88.5559V432.292H84.2299V435.554H88.1919V436.646H84.2299V441H83.0679ZM92.7483 441.14C92.179 441.14 91.6983 441.037 91.3063 440.832C90.9143 440.617 90.6063 440.328 90.3823 439.964C90.1676 439.6 90.0323 439.189 89.9763 438.732C89.9483 438.508 89.925 438.298 89.9063 438.102C89.897 437.906 89.8923 437.71 89.8923 437.514C89.8923 437.141 89.9203 436.725 89.9763 436.268C90.051 435.577 90.3123 435.003 90.7603 434.546C91.2176 434.089 91.8383 433.86 92.6223 433.86C93.1916 433.86 93.649 433.963 93.9943 434.168C94.3396 434.373 94.601 434.639 94.7783 434.966C94.9556 435.293 95.0723 435.638 95.1283 436.002C95.1936 436.366 95.2263 436.702 95.2263 437.01L94.9463 437.752L90.7183 437.738V436.772H94.1623C94.1623 436.455 94.1203 436.151 94.0363 435.862C93.9616 435.563 93.8123 435.321 93.5883 435.134C93.3643 434.938 93.0423 434.84 92.6223 434.84C92.1276 434.84 91.745 434.994 91.4743 435.302C91.2036 435.601 91.0496 435.946 91.0123 436.338C90.9936 436.571 90.975 436.893 90.9563 437.304C90.947 437.705 90.9703 438.163 91.0263 438.676C91.073 439.077 91.227 439.432 91.4883 439.74C91.759 440.039 92.179 440.188 92.7483 440.188C93.103 440.188 93.439 440.132 93.7563 440.02C94.083 439.908 94.377 439.749 94.6383 439.544L94.9743 440.398C94.5916 440.669 94.2416 440.86 93.9243 440.972C93.607 441.084 93.215 441.14 92.7483 441.14ZM97.4445 441.168L96.4225 440.552L97.0245 439.67V430.5H98.1445V434.49C98.3312 434.313 98.5692 434.163 98.8585 434.042C99.1572 433.921 99.4745 433.86 99.8105 433.86C100.623 433.86 101.234 434.084 101.645 434.532C102.065 434.971 102.317 435.545 102.401 436.254C102.429 436.487 102.447 436.702 102.457 436.898C102.466 437.094 102.471 437.29 102.471 437.486C102.471 437.673 102.461 437.869 102.443 438.074C102.433 438.27 102.419 438.489 102.401 438.732C102.335 439.441 102.088 440.02 101.659 440.468C101.239 440.916 100.623 441.14 99.8105 441.14C99.4092 441.14 99.0732 441.075 98.8025 440.944C98.5412 440.813 98.3265 440.678 98.1585 440.538C98.0372 440.445 97.9392 440.449 97.8645 440.552L97.4445 441.168ZM99.6845 440.188C100.245 440.188 100.646 440.039 100.889 439.74C101.141 439.441 101.285 439.082 101.323 438.662C101.36 438.279 101.374 437.892 101.365 437.5C101.365 437.108 101.351 436.721 101.323 436.338C101.285 435.918 101.141 435.563 100.889 435.274C100.646 434.985 100.245 434.84 99.6845 434.84C99.1992 434.84 98.8212 434.952 98.5505 435.176C98.2799 435.391 98.1445 435.689 98.1445 436.072V438.928C98.1445 439.301 98.2799 439.605 98.5505 439.838C98.8212 440.071 99.1992 440.188 99.6845 440.188Z" fill="#68738D"/>
<path d="M147.068 441V431.2H148.048L150.372 435.596C150.419 435.68 150.47 435.722 150.526 435.722C150.591 435.722 150.643 435.68 150.68 435.596L153.004 431.2H153.984V441H152.864V434.616L153.004 433.734C153.013 433.669 152.995 433.627 152.948 433.608C152.911 433.589 152.869 433.617 152.822 433.692L150.876 437.29H150.176L148.23 433.692C148.193 433.617 148.151 433.589 148.104 433.608C148.057 433.627 148.039 433.669 148.048 433.734L148.188 434.616V441H147.068ZM160.463 441.168L160.001 440.482C159.945 440.398 159.88 440.389 159.805 440.454C159.581 440.65 159.343 440.818 159.091 440.958C158.849 441.089 158.522 441.154 158.111 441.154C157.449 441.154 156.921 440.972 156.529 440.608C156.137 440.244 155.941 439.768 155.941 439.18C155.941 438.76 156.03 438.405 156.207 438.116C156.394 437.827 156.655 437.607 156.991 437.458C157.327 437.299 157.719 437.22 158.167 437.22H159.805V436.212C159.805 435.811 159.689 435.489 159.455 435.246C159.222 435.003 158.853 434.882 158.349 434.882C157.985 434.882 157.659 434.938 157.369 435.05C157.08 435.153 156.786 435.321 156.487 435.554L156.137 434.574C156.492 434.303 156.851 434.112 157.215 434C157.579 433.888 157.981 433.832 158.419 433.832C159.25 433.832 159.866 434.047 160.267 434.476C160.678 434.905 160.883 435.442 160.883 436.086V439.656L161.485 440.552L160.463 441.168ZM158.167 440.188C158.671 440.188 159.068 440.067 159.357 439.824C159.656 439.581 159.805 439.259 159.805 438.858V438.228C159.805 438.051 159.721 437.985 159.553 438.032L158.783 438.2H158.251C157.878 438.2 157.584 438.284 157.369 438.452C157.164 438.611 157.061 438.839 157.061 439.138C157.061 439.446 157.159 439.698 157.355 439.894C157.561 440.09 157.831 440.188 158.167 440.188ZM163.242 441V435.596L162.472 434.448L163.494 433.832L164.026 434.63C164.091 434.723 164.152 434.77 164.208 434.77C164.264 434.761 164.324 434.723 164.39 434.658C164.642 434.406 164.954 434.205 165.328 434.056C165.701 433.907 166.126 433.832 166.602 433.832H166.756V434.98C165.953 434.98 165.351 435.125 164.95 435.414C164.558 435.694 164.362 436.072 164.362 436.548V441H163.242Z" fill="#68738D"/>
<path d="M210.228 441L212.986 431.2H214.666L217.452 441H216.262L214.05 432.964L213.938 432.222C213.929 432.166 213.896 432.138 213.84 432.138C213.793 432.138 213.765 432.166 213.756 432.222L213.63 432.964L211.418 441H210.228ZM211.74 438.382L212.048 437.346H215.632L215.94 438.382H211.74ZM211.39 432.222V431.2H213.364V432.222H211.39ZM218.928 443.8V434H220.048V434.392C220.234 434.233 220.477 434.107 220.776 434.014C221.074 433.911 221.387 433.86 221.714 433.86C222.526 433.86 223.146 434.084 223.576 434.532C224.005 434.971 224.252 435.545 224.318 436.254C224.336 436.487 224.35 436.702 224.36 436.898C224.369 437.094 224.374 437.29 224.374 437.486C224.374 437.673 224.369 437.869 224.36 438.074C224.35 438.27 224.336 438.489 224.318 438.732C224.252 439.441 224.005 440.02 223.576 440.468C223.146 440.916 222.526 441.14 221.714 441.14C221.555 441.14 221.429 441.131 221.336 441.112C221.252 441.103 221.154 441.089 221.042 441.07L220.342 440.622C220.267 440.575 220.197 440.571 220.132 440.608C220.076 440.636 220.048 440.692 220.048 440.776V443.8H218.928ZM221.588 440.188C222.148 440.188 222.549 440.039 222.792 439.74C223.044 439.441 223.188 439.082 223.226 438.662C223.254 438.279 223.268 437.892 223.268 437.5C223.277 437.108 223.263 436.721 223.226 436.338C223.188 435.918 223.044 435.563 222.792 435.274C222.549 434.985 222.148 434.84 221.588 434.84C221.102 434.84 220.724 434.952 220.454 435.176C220.183 435.391 220.048 435.689 220.048 436.072V438.928C220.048 439.301 220.183 439.605 220.454 439.838C220.724 440.071 221.102 440.188 221.588 440.188ZM226.408 441V435.596L225.638 434.448L226.66 433.832L227.192 434.63C227.257 434.723 227.318 434.77 227.374 434.77C227.43 434.761 227.49 434.723 227.556 434.658C227.808 434.406 228.12 434.205 228.494 434.056C228.867 433.907 229.292 433.832 229.768 433.832H229.922V434.98C229.119 434.98 228.517 435.125 228.116 435.414C227.724 435.694 227.528 436.072 227.528 436.548V441H226.408Z" fill="#68738D"/>
<path d="M274.068 441V431.2H275.048L277.372 435.596C277.419 435.68 277.47 435.722 277.526 435.722C277.591 435.722 277.643 435.68 277.68 435.596L280.004 431.2H280.984V441H279.864V434.616L280.004 433.734C280.013 433.669 279.995 433.627 279.948 433.608C279.911 433.589 279.869 433.617 279.822 433.692L277.876 437.29H277.176L275.23 433.692C275.193 433.617 275.151 433.589 275.104 433.608C275.057 433.627 275.039 433.669 275.048 433.734L275.188 434.616V441H274.068ZM287.463 441.168L287.001 440.482C286.945 440.398 286.88 440.389 286.805 440.454C286.581 440.65 286.343 440.818 286.091 440.958C285.849 441.089 285.522 441.154 285.111 441.154C284.449 441.154 283.921 440.972 283.529 440.608C283.137 440.244 282.941 439.768 282.941 439.18C282.941 438.76 283.03 438.405 283.207 438.116C283.394 437.827 283.655 437.607 283.991 437.458C284.327 437.299 284.719 437.22 285.167 437.22H286.805V436.212C286.805 435.811 286.689 435.489 286.455 435.246C286.222 435.003 285.853 434.882 285.349 434.882C284.985 434.882 284.659 434.938 284.369 435.05C284.08 435.153 283.786 435.321 283.487 435.554L283.137 434.574C283.492 434.303 283.851 434.112 284.215 434C284.579 433.888 284.981 433.832 285.419 433.832C286.25 433.832 286.866 434.047 287.267 434.476C287.678 434.905 287.883 435.442 287.883 436.086V439.656L288.485 440.552L287.463 441.168ZM285.167 440.188C285.671 440.188 286.068 440.067 286.357 439.824C286.656 439.581 286.805 439.259 286.805 438.858V438.228C286.805 438.051 286.721 437.985 286.553 438.032L285.783 438.2H285.251C284.878 438.2 284.584 438.284 284.369 438.452C284.164 438.611 284.061 438.839 284.061 439.138C284.061 439.446 284.159 439.698 284.355 439.894C284.561 440.09 284.831 440.188 285.167 440.188ZM290.259 444.08L289.853 443.072C290.338 442.932 290.693 442.703 290.917 442.386C291.141 442.069 291.323 441.681 291.463 441.224L291.645 440.622L289.125 434H290.301L291.981 438.41L292.107 439.166C292.126 439.241 292.158 439.278 292.205 439.278C292.261 439.278 292.294 439.241 292.303 439.166L292.471 438.41L293.829 434H294.991L292.513 441.672C292.326 442.251 292.046 442.745 291.673 443.156C291.3 443.567 290.828 443.875 290.259 444.08Z" fill="#68738D"/>
<path d="M340.188 441.168C339.843 441.168 339.455 441.098 339.026 440.958C338.606 440.809 338.247 440.589 337.948 440.3L338.298 439.306C338.438 439.493 338.615 439.642 338.83 439.754C339.054 439.866 339.287 439.95 339.53 440.006C339.782 440.053 340.001 440.076 340.188 440.076C340.636 440.076 340.991 439.969 341.252 439.754C341.523 439.539 341.658 439.236 341.658 438.844V432.292H339.418V431.2H342.806V438.844C342.806 439.572 342.568 440.141 342.092 440.552C341.625 440.963 340.991 441.168 340.188 441.168ZM347.332 441.168C346.856 441.168 346.445 441.079 346.1 440.902C345.764 440.725 345.502 440.473 345.316 440.146C345.138 439.819 345.05 439.437 345.05 438.998V434H346.17V438.872C346.17 439.264 346.291 439.577 346.534 439.81C346.786 440.043 347.154 440.16 347.64 440.16C348.116 440.16 348.484 440.043 348.746 439.81C349.007 439.577 349.138 439.264 349.138 438.872V434H350.258V441H349.138V440.748C349.138 440.655 349.11 440.599 349.054 440.58C348.998 440.561 348.932 440.575 348.858 440.622L348.144 441.07C347.938 441.135 347.668 441.168 347.332 441.168ZM352.642 441V434H353.762V434.406C353.949 434.257 354.192 434.126 354.49 434.014C354.798 433.893 355.139 433.832 355.512 433.832C355.998 433.832 356.413 433.925 356.758 434.112C357.113 434.289 357.384 434.541 357.57 434.868C357.757 435.195 357.85 435.573 357.85 436.002V441H356.73V436.128C356.73 435.736 356.604 435.423 356.352 435.19C356.11 434.957 355.746 434.84 355.26 434.84C354.784 434.84 354.416 434.957 354.154 435.19C353.893 435.423 353.762 435.736 353.762 436.128V441H352.642Z" fill="#68738D"/>
<path d="M404.188 441.168C403.843 441.168 403.455 441.098 403.026 440.958C402.606 440.809 402.247 440.589 401.948 440.3L402.298 439.306C402.438 439.493 402.615 439.642 402.83 439.754C403.054 439.866 403.287 439.95 403.53 440.006C403.782 440.053 404.001 440.076 404.188 440.076C404.636 440.076 404.991 439.969 405.252 439.754C405.523 439.539 405.658 439.236 405.658 438.844V432.292H403.418V431.2H406.806V438.844C406.806 439.572 406.568 440.141 406.092 440.552C405.625 440.963 404.991 441.168 404.188 441.168ZM411.332 441.168C410.856 441.168 410.445 441.079 410.1 440.902C409.764 440.725 409.502 440.473 409.316 440.146C409.138 439.819 409.05 439.437 409.05 438.998V434H410.17V438.872C410.17 439.264 410.291 439.577 410.534 439.81C410.786 440.043 411.154 440.16 411.64 440.16C412.116 440.16 412.484 440.043 412.746 439.81C413.007 439.577 413.138 439.264 413.138 438.872V434H414.258V441H413.138V440.748C413.138 440.655 413.11 440.599 413.054 440.58C412.998 440.561 412.932 440.575 412.858 440.622L412.144 441.07C411.938 441.135 411.668 441.168 411.332 441.168ZM418.238 441C417.753 441 417.366 440.865 417.076 440.594C416.787 440.314 416.642 439.945 416.642 439.488V430.5H417.762V439.488C417.762 439.647 417.804 439.777 417.888 439.88C417.972 439.973 418.089 440.02 418.238 440.02H418.812V441H418.238Z" fill="#68738D"/>
<path d="M462.228 441L464.986 431.2H466.666L469.452 441H468.262L466.05 432.964L465.938 432.222C465.929 432.166 465.896 432.138 465.84 432.138C465.793 432.138 465.765 432.166 465.756 432.222L465.63 432.964L463.418 441H462.228ZM463.74 438.382L464.048 437.346H467.632L467.94 438.382H463.74ZM463.39 432.222V431.2H465.364V432.222H463.39ZM473 441.168C472.524 441.168 472.113 441.079 471.768 440.902C471.432 440.725 471.17 440.473 470.984 440.146C470.806 439.819 470.718 439.437 470.718 438.998V434H471.838V438.872C471.838 439.264 471.959 439.577 472.202 439.81C472.454 440.043 472.822 440.16 473.308 440.16C473.784 440.16 474.152 440.043 474.414 439.81C474.675 439.577 474.806 439.264 474.806 438.872V434H475.926V441H474.806V440.748C474.806 440.655 474.778 440.599 474.722 440.58C474.666 440.561 474.6 440.575 474.526 440.622L473.812 441.07C473.606 441.135 473.336 441.168 473 441.168ZM480.522 443.842C480.224 443.842 479.948 443.819 479.696 443.772C479.454 443.735 479.225 443.669 479.01 443.576C478.796 443.492 478.59 443.38 478.394 443.24L478.66 442.33C478.81 442.442 478.973 442.535 479.15 442.61C479.337 442.685 479.542 442.741 479.766 442.778C480 442.815 480.247 442.834 480.508 442.834C481.031 442.834 481.446 442.722 481.754 442.498C482.062 442.274 482.216 441.961 482.216 441.56V440.748C482.216 440.645 482.188 440.589 482.132 440.58C482.086 440.561 482.025 440.575 481.95 440.622L481.222 441.042C481.11 441.079 481.008 441.103 480.914 441.112C480.83 441.131 480.709 441.14 480.55 441.14C479.738 441.14 479.118 440.916 478.688 440.468C478.259 440.02 478.012 439.441 477.946 438.732C477.928 438.489 477.914 438.27 477.904 438.074C477.895 437.869 477.89 437.673 477.89 437.486C477.89 437.29 477.895 437.094 477.904 436.898C477.914 436.702 477.928 436.487 477.946 436.254C478.012 435.545 478.259 434.971 478.688 434.532C479.118 434.084 479.738 433.86 480.55 433.86C480.877 433.86 481.19 433.911 481.488 434.014C481.796 434.107 482.039 434.233 482.216 434.392V434H483.336V441.308C483.336 441.737 483.243 442.143 483.056 442.526C482.879 442.918 482.585 443.235 482.174 443.478C481.764 443.721 481.213 443.842 480.522 443.842ZM480.676 440.188C481.171 440.188 481.549 440.071 481.81 439.838C482.081 439.605 482.216 439.301 482.216 438.928V436.072C482.216 435.689 482.081 435.391 481.81 435.176C481.549 434.952 481.171 434.84 480.676 434.84C480.116 434.84 479.715 434.985 479.472 435.274C479.23 435.563 479.085 435.918 479.038 436.338C479.001 436.721 478.982 437.108 478.982 437.5C478.992 437.892 479.01 438.279 479.038 438.662C479.076 439.082 479.216 439.441 479.458 439.74C479.71 440.039 480.116 440.188 480.676 440.188Z" fill="#68738D"/>
<path d="M530.238 441.14C529.697 441.14 529.174 441.056 528.67 440.888C528.166 440.711 527.741 440.477 527.396 440.188L527.816 439.208C528.124 439.479 528.488 439.689 528.908 439.838C529.328 439.987 529.753 440.062 530.182 440.062C530.845 440.062 531.344 439.894 531.68 439.558C532.016 439.222 532.184 438.788 532.184 438.256C532.184 437.808 532.063 437.416 531.82 437.08C531.577 436.744 531.162 436.543 530.574 436.478L529.902 436.408C529.379 436.352 528.931 436.217 528.558 436.002C528.185 435.787 527.9 435.498 527.704 435.134C527.508 434.761 527.41 434.322 527.41 433.818C527.41 433.286 527.541 432.815 527.802 432.404C528.063 431.984 528.432 431.657 528.908 431.424C529.393 431.181 529.967 431.06 530.63 431.06C531.041 431.06 531.461 431.116 531.89 431.228C532.319 431.34 532.721 431.517 533.094 431.76L532.744 432.74C532.408 432.507 532.058 432.343 531.694 432.25C531.33 432.157 530.98 432.11 530.644 432.11C529.972 432.11 529.454 432.264 529.09 432.572C528.735 432.871 528.558 433.263 528.558 433.748C528.558 434.243 528.693 434.616 528.964 434.868C529.235 435.12 529.594 435.269 530.042 435.316L530.714 435.386C531.563 435.479 532.207 435.778 532.646 436.282C533.094 436.786 533.318 437.421 533.318 438.186C533.318 438.746 533.192 439.25 532.94 439.698C532.697 440.146 532.347 440.501 531.89 440.762C531.433 441.014 530.882 441.14 530.238 441.14ZM537.475 441.14C536.906 441.14 536.425 441.037 536.033 440.832C535.641 440.617 535.333 440.328 535.109 439.964C534.894 439.6 534.759 439.189 534.703 438.732C534.675 438.508 534.652 438.298 534.633 438.102C534.624 437.906 534.619 437.71 534.619 437.514C534.619 437.141 534.647 436.725 534.703 436.268C534.778 435.577 535.039 435.003 535.487 434.546C535.944 434.089 536.565 433.86 537.349 433.86C537.918 433.86 538.376 433.963 538.721 434.168C539.066 434.373 539.328 434.639 539.505 434.966C539.682 435.293 539.799 435.638 539.855 436.002C539.92 436.366 539.953 436.702 539.953 437.01L539.673 437.752L535.445 437.738V436.772H538.889C538.889 436.455 538.847 436.151 538.763 435.862C538.688 435.563 538.539 435.321 538.315 435.134C538.091 434.938 537.769 434.84 537.349 434.84C536.854 434.84 536.472 434.994 536.201 435.302C535.93 435.601 535.776 435.946 535.739 436.338C535.72 436.571 535.702 436.893 535.683 437.304C535.674 437.705 535.697 438.163 535.753 438.676C535.8 439.077 535.954 439.432 536.215 439.74C536.486 440.039 536.906 440.188 537.475 440.188C537.83 440.188 538.166 440.132 538.483 440.02C538.81 439.908 539.104 439.749 539.365 439.544L539.701 440.398C539.318 440.669 538.968 440.86 538.651 440.972C538.334 441.084 537.942 441.14 537.475 441.14ZM541.779 443.8V434H542.899V434.392C543.086 434.233 543.328 434.107 543.627 434.014C543.926 433.911 544.238 433.86 544.565 433.86C545.377 433.86 545.998 434.084 546.427 434.532C546.856 434.971 547.104 435.545 547.169 436.254C547.188 436.487 547.202 436.702 547.211 436.898C547.22 437.094 547.225 437.29 547.225 437.486C547.225 437.673 547.22 437.869 547.211 438.074C547.202 438.27 547.188 438.489 547.169 438.732C547.104 439.441 546.856 440.02 546.427 440.468C545.998 440.916 545.377 441.14 544.565 441.14C544.406 441.14 544.28 441.131 544.187 441.112C544.103 441.103 544.005 441.089 543.893 441.07L543.193 440.622C543.118 440.575 543.048 440.571 542.983 440.608C542.927 440.636 542.899 440.692 542.899 440.776V443.8H541.779ZM544.439 440.188C544.999 440.188 545.4 440.039 545.643 439.74C545.895 439.441 546.04 439.082 546.077 438.662C546.105 438.279 546.119 437.892 546.119 437.5C546.128 437.108 546.114 436.721 546.077 436.338C546.04 435.918 545.895 435.563 545.643 435.274C545.4 434.985 544.999 434.84 544.439 434.84C543.954 434.84 543.576 434.952 543.305 435.176C543.034 435.391 542.899 435.689 542.899 436.072V438.928C542.899 439.301 543.034 439.605 543.305 439.838C543.576 440.071 543.954 440.188 544.439 440.188Z" fill="#68738D"/>
<path d="M595.05 441.168C594.546 441.168 594.093 441.093 593.692 440.944C593.3 440.795 592.964 440.575 592.684 440.286C592.488 440.081 592.311 439.824 592.152 439.516C591.993 439.199 591.867 438.769 591.774 438.228C591.69 437.687 591.648 436.977 591.648 436.1C591.648 435.223 591.69 434.513 591.774 433.972C591.867 433.431 591.993 433.001 592.152 432.684C592.311 432.367 592.488 432.11 592.684 431.914C592.964 431.625 593.3 431.405 593.692 431.256C594.093 431.107 594.546 431.032 595.05 431.032C595.554 431.032 596.002 431.107 596.394 431.256C596.795 431.405 597.136 431.625 597.416 431.914C597.621 432.11 597.799 432.367 597.948 432.684C598.107 433.001 598.228 433.431 598.312 433.972C598.405 434.513 598.452 435.223 598.452 436.1C598.452 436.977 598.405 437.687 598.312 438.228C598.228 438.769 598.107 439.199 597.948 439.516C597.799 439.824 597.621 440.081 597.416 440.286C597.136 440.575 596.795 440.795 596.394 440.944C596.002 441.093 595.554 441.168 595.05 441.168ZM595.05 440.076C595.741 440.076 596.263 439.889 596.618 439.516C596.982 439.143 597.183 438.639 597.22 438.004C597.248 437.593 597.267 437.248 597.276 436.968C597.295 436.679 597.304 436.389 597.304 436.1C597.304 435.801 597.295 435.512 597.276 435.232C597.267 434.943 597.248 434.597 597.22 434.196C597.183 433.561 596.982 433.057 596.618 432.684C596.263 432.311 595.741 432.124 595.05 432.124C594.359 432.124 593.832 432.311 593.468 432.684C593.113 433.057 592.917 433.561 592.88 434.196C592.852 434.597 592.829 434.943 592.81 435.232C592.801 435.512 592.796 435.801 592.796 436.1C592.796 436.389 592.801 436.679 592.81 436.968C592.829 437.248 592.852 437.593 592.88 438.004C592.917 438.639 593.113 439.143 593.468 439.516C593.832 439.889 594.359 440.076 595.05 440.076ZM602.868 441.196C602.056 441.196 601.421 440.967 600.964 440.51C600.507 440.043 600.236 439.46 600.152 438.76C600.096 438.293 600.068 437.878 600.068 437.514C600.068 437.318 600.073 437.122 600.082 436.926C600.101 436.721 600.124 436.501 600.152 436.268C600.236 435.568 600.507 434.989 600.964 434.532C601.421 434.065 602.056 433.832 602.868 433.832C603.279 433.832 603.633 433.883 603.932 433.986C604.231 434.089 604.534 434.243 604.842 434.448L604.506 435.358C604.245 435.19 603.988 435.064 603.736 434.98C603.484 434.887 603.199 434.84 602.882 434.84C602.369 434.84 601.967 434.989 601.678 435.288C601.398 435.577 601.244 435.927 601.216 436.338C601.188 436.777 601.169 437.173 601.16 437.528C601.16 437.873 601.179 438.261 601.216 438.69C601.253 439.091 601.412 439.441 601.692 439.74C601.972 440.039 602.369 440.188 602.882 440.188C603.19 440.188 603.484 440.146 603.764 440.062C604.053 439.978 604.329 439.852 604.59 439.684L604.912 440.524C604.557 440.757 604.221 440.925 603.904 441.028C603.596 441.14 603.251 441.196 602.868 441.196ZM608.432 441C607.946 441 607.559 440.865 607.27 440.594C606.98 440.314 606.836 439.945 606.836 439.488V434.98H605.618V434H606.682C606.766 434 606.831 433.972 606.878 433.916C606.934 433.86 606.985 433.72 607.032 433.496C607.088 433.272 607.158 432.913 607.242 432.418L607.284 432.18H607.956V434H609.678V434.98H607.956V439.488C607.956 439.647 607.998 439.777 608.082 439.88C608.166 439.973 608.282 440.02 608.432 440.02H609.678V441H608.432Z" fill="#68738D"/>
<path d="M654.068 441V431.2H655.02L659.122 438.858C659.159 438.923 659.201 438.947 659.248 438.928C659.295 438.9 659.313 438.853 659.304 438.788L659.15 437.85V431.2H660.27V441H659.15L655.244 433.762C655.207 433.678 655.16 433.645 655.104 433.664C655.057 433.683 655.039 433.729 655.048 433.804L655.188 434.714V441H654.068ZM665.101 441.154C664.289 441.154 663.654 440.925 663.197 440.468C662.739 440.001 662.469 439.423 662.385 438.732C662.329 438.284 662.301 437.878 662.301 437.514C662.301 437.318 662.305 437.122 662.315 436.926C662.333 436.721 662.357 436.501 662.385 436.268C662.469 435.568 662.739 434.989 663.197 434.532C663.654 434.075 664.289 433.846 665.101 433.846C665.913 433.846 666.547 434.075 667.005 434.532C667.462 434.989 667.733 435.568 667.817 436.268C667.873 436.725 667.901 437.141 667.901 437.514C667.901 437.878 667.873 438.284 667.817 438.732C667.733 439.423 667.462 440.001 667.005 440.468C666.547 440.925 665.913 441.154 665.101 441.154ZM665.101 440.188C665.614 440.188 666.006 440.039 666.277 439.74C666.547 439.441 666.701 439.091 666.739 438.69C666.776 438.27 666.795 437.883 666.795 437.528C666.795 437.164 666.776 436.767 666.739 436.338C666.701 435.927 666.547 435.577 666.277 435.288C666.006 434.989 665.614 434.84 665.101 434.84C664.587 434.84 664.191 434.989 663.911 435.288C663.631 435.577 663.477 435.927 663.449 436.338C663.421 436.767 663.407 437.164 663.407 437.528C663.407 437.883 663.425 438.27 663.463 438.69C663.509 439.091 663.663 439.441 663.925 439.74C664.195 440.039 664.587 440.188 665.101 440.188ZM671.009 441L668.951 434H670.127L671.625 439.32L671.723 440.006C671.741 440.081 671.769 440.118 671.807 440.118C671.853 440.118 671.881 440.081 671.891 440.006L672.003 439.32L673.529 434H674.691L672.591 441H671.009Z" fill="#68738D"/>
<path d="M719.068 441V431.2H721.616C722.745 431.2 723.604 431.489 724.192 432.068C724.78 432.647 725.116 433.431 725.2 434.42C725.219 434.672 725.233 434.947 725.242 435.246C725.261 435.545 725.27 435.829 725.27 436.1C725.27 436.371 725.261 436.655 725.242 436.954C725.233 437.253 725.219 437.528 725.2 437.78C725.125 438.769 724.789 439.553 724.192 440.132C723.604 440.711 722.745 441 721.616 441H719.068ZM720.188 439.992H721.616C722.437 439.992 723.035 439.773 723.408 439.334C723.791 438.895 724.01 438.335 724.066 437.654C724.094 437.337 724.108 437.066 724.108 436.842C724.117 436.618 724.122 436.371 724.122 436.1C724.122 435.829 724.117 435.582 724.108 435.358C724.108 435.134 724.094 434.863 724.066 434.546C724.01 433.865 723.791 433.305 723.408 432.866C723.035 432.427 722.437 432.213 721.616 432.222H720.188V439.992ZM729.733 441.14C729.163 441.14 728.683 441.037 728.291 440.832C727.899 440.617 727.591 440.328 727.367 439.964C727.152 439.6 727.017 439.189 726.961 438.732C726.933 438.508 726.909 438.298 726.891 438.102C726.881 437.906 726.877 437.71 726.877 437.514C726.877 437.141 726.905 436.725 726.961 436.268C727.035 435.577 727.297 435.003 727.745 434.546C728.202 434.089 728.823 433.86 729.607 433.86C730.176 433.86 730.633 433.963 730.979 434.168C731.324 434.373 731.585 434.639 731.763 434.966C731.94 435.293 732.057 435.638 732.113 436.002C732.178 436.366 732.211 436.702 732.211 437.01L731.931 437.752L727.703 437.738V436.772H731.147C731.147 436.455 731.105 436.151 731.021 435.862C730.946 435.563 730.797 435.321 730.573 435.134C730.349 434.938 730.027 434.84 729.607 434.84C729.112 434.84 728.729 434.994 728.459 435.302C728.188 435.601 728.034 435.946 727.997 436.338C727.978 436.571 727.959 436.893 727.941 437.304C727.931 437.705 727.955 438.163 728.011 438.676C728.057 439.077 728.211 439.432 728.473 439.74C728.743 440.039 729.163 440.188 729.733 440.188C730.087 440.188 730.423 440.132 730.741 440.02C731.067 439.908 731.361 439.749 731.623 439.544L731.959 440.398C731.576 440.669 731.226 440.86 730.909 440.972C730.591 441.084 730.199 441.14 729.733 441.14ZM736.417 441.196C735.605 441.196 734.97 440.967 734.513 440.51C734.056 440.043 733.785 439.46 733.701 438.76C733.645 438.293 733.617 437.878 733.617 437.514C733.617 437.318 733.622 437.122 733.631 436.926C733.65 436.721 733.673 436.501 733.701 436.268C733.785 435.568 734.056 434.989 734.513 434.532C734.97 434.065 735.605 433.832 736.417 433.832C736.828 433.832 737.182 433.883 737.481 433.986C737.78 434.089 738.083 434.243 738.391 434.448L738.055 435.358C737.794 435.19 737.537 435.064 737.285 434.98C737.033 434.887 736.748 434.84 736.431 434.84C735.918 434.84 735.516 434.989 735.227 435.288C734.947 435.577 734.793 435.927 734.765 436.338C734.737 436.777 734.718 437.173 734.709 437.528C734.709 437.873 734.728 438.261 734.765 438.69C734.802 439.091 734.961 439.441 735.241 439.74C735.521 440.039 735.918 440.188 736.431 440.188C736.739 440.188 737.033 440.146 737.313 440.062C737.602 439.978 737.878 439.852 738.139 439.684L738.461 440.524C738.106 440.757 737.77 440.925 737.453 441.028C737.145 441.14 736.8 441.196 736.417 441.196Z" fill="#68738D"/>
</g>
<defs>
<filter id="filter0_b_390_3970" x="-3.14791" y="33.8519" width="755.296" height="372.296" filterUnits="userSpaceOnUse" color-interpolation-filters="sRGB">
<feFlood flood-opacity="0" result="BackgroundImageFix"/>
<feGaussianBlur in="BackgroundImageFix" stdDeviation="9.07407"/>
<feComposite in2="SourceAlpha" operator="in" result="effect1_backgroundBlur_390_3970"/>
<feBlend mode="normal" in="SourceGraphic" in2="effect1_backgroundBlur_390_3970" result="shape"/>
</filter>
<filter id="filter1_b_390_3970" x="-70.206" y="-118.346" width="894.062" height="592.099" filterUnits="userSpaceOnUse" color-interpolation-filters="sRGB">
<feFlood flood-opacity="0" result="BackgroundImageFix"/>
<feGaussianBlur in="BackgroundImageFix" stdDeviation="42.7655"/>
<feComposite in2="SourceAlpha" operator="in" result="effect1_backgroundBlur_390_3970"/>
<feBlend mode="normal" in="SourceGraphic" in2="effect1_backgroundBlur_390_3970" result="shape"/>
</filter>
<linearGradient id="paint0_linear_390_3970" x1="260.56" y1="-177.091" x2="760.419" y2="291.466" gradientUnits="userSpaceOnUse">
<stop stop-color="#53FDA9"/>
<stop offset="1" stop-color="#7027F0"/>
</linearGradient>
<clipPath id="clip0_390_3970">
<rect width="717.819" height="361" fill="white" transform="translate(15.325 27)"/>
</clipPath>
<clipPath id="clip1_390_3970">
<rect width="736.209" height="401" fill="white"/>
</clipPath>
<clipPath id="clip2_390_3970">
<rect width="717.819" height="361" fill="white" transform="translate(15.325 27)"/>
</clipPath>
<clipPath id="clip3_390_3970">
<rect width="361" height="717.819" fill="white" transform="translate(15.325 388) rotate(-90)"/>
</clipPath>
<clipPath id="clip4_390_3970">
<rect width="730.692" height="34" fill="white" transform="translate(9.80786 428)"/>
</clipPath>
</defs>
</svg>
