<svg width="221" height="7" viewBox="0 0 221 7" fill="none" xmlns="http://www.w3.org/2000/svg">
<path d="M3.13084 0.119141H217.869C219.598 0.119141 221 1.52102 221 3.24998C221 4.97893 219.598 6.38081 217.869 6.38081H3.13084C1.40188 6.38081 0 4.97893 0 3.24998C0 1.52102 1.40188 0.119141 3.13084 0.119141Z" fill="#996DFF" fill-opacity="0.44"/>
<path d="M3.31432 1.39209L216.764 1.45986C217.781 1.45986 218.605 2.28419 218.605 3.30153C218.605 4.31887 217.781 5.1432 216.764 5.1432L3.31432 5.07543C2.29698 5.07543 1.47266 4.2511 1.47266 3.23376C1.47266 2.21642 2.29698 1.39209 3.31432 1.39209Z" fill="url(#paint0_linear_2221_15194)"/>
<path d="M9.40414 2.00317C9.09326 2.00317 8.84131 2.25512 8.84131 2.56601V4.06664C8.84131 4.37753 9.09326 4.62948 9.40414 4.62948C9.71502 4.62948 9.96697 4.37753 9.96697 4.06664V2.56601C9.96697 2.25512 9.71502 2.00317 9.40414 2.00317Z" fill="#3F4550"/>
<path d="M16.6253 2.00317C16.3144 2.00317 16.0625 2.25512 16.0625 2.56601V4.06664C16.0625 4.37753 16.3144 4.62948 16.6253 4.62948C16.9362 4.62948 17.1882 4.37753 17.1882 4.06664V2.56601C17.1882 2.25512 16.9362 2.00317 16.6253 2.00317Z" fill="#3F4550"/>
<path d="M23.8446 2.00317C23.5337 2.00317 23.2817 2.25512 23.2817 2.56601V4.06664C23.2817 4.37753 23.5337 4.62948 23.8446 4.62948C24.1555 4.62948 24.4074 4.37753 24.4074 4.06664V2.56601C24.4074 2.25512 24.1555 2.00317 23.8446 2.00317Z" fill="#3F4550"/>
<path d="M31.0682 2.00317C30.7573 2.00317 30.5054 2.25512 30.5054 2.56601V4.06664C30.5054 4.37753 30.7573 4.62948 31.0682 4.62948C31.3791 4.62948 31.631 4.37753 31.631 4.06664V2.56601C31.631 2.25512 31.3791 2.00317 31.0682 2.00317Z" fill="#3F4550"/>
<path d="M38.2894 2.00317C37.9785 2.00317 37.7266 2.25512 37.7266 2.56601V4.06664C37.7266 4.37753 37.9785 4.62948 38.2894 4.62948C38.6003 4.62948 38.8522 4.37753 38.8522 4.06664V2.56601C38.8522 2.25512 38.6003 2.00317 38.2894 2.00317Z" fill="#3F4550"/>
<path d="M45.5106 2.00317C45.1997 2.00317 44.9478 2.25512 44.9478 2.56601V4.06664C44.9478 4.37753 45.1997 4.62948 45.5106 4.62948C45.8215 4.62948 46.0734 4.37753 46.0734 4.06664V2.56601C46.0734 2.25512 45.8215 2.00317 45.5106 2.00317Z" fill="#3F4550"/>
<path d="M52.7323 2.00317C52.4214 2.00317 52.1694 2.25512 52.1694 2.56601V4.06664C52.1694 4.37753 52.4214 4.62948 52.7323 4.62948C53.0431 4.62948 53.2951 4.37753 53.2951 4.06664V2.56601C53.2951 2.25512 53.0431 2.00317 52.7323 2.00317Z" fill="#3F4550"/>
<path d="M59.9515 2.00317C59.6406 2.00317 59.3887 2.25512 59.3887 2.56601V4.06664C59.3887 4.37753 59.6406 4.62948 59.9515 4.62948C60.2624 4.62948 60.5143 4.37753 60.5143 4.06664V2.56601C60.5143 2.25512 60.2624 2.00317 59.9515 2.00317Z" fill="#3F4550"/>
<path d="M67.1727 2.00317C66.8618 2.00317 66.6099 2.25512 66.6099 2.56601V4.06664C66.6099 4.37753 66.8618 4.62948 67.1727 4.62948C67.4836 4.62948 67.7355 4.37753 67.7355 4.06664V2.56601C67.7355 2.25512 67.4836 2.00317 67.1727 2.00317Z" fill="#3F4550"/>
<path d="M74.3939 2.00317C74.083 2.00317 73.8311 2.25512 73.8311 2.56601V4.06664C73.8311 4.37753 74.083 4.62948 74.3939 4.62948C74.7048 4.62948 74.9567 4.37753 74.9567 4.06664V2.56601C74.9567 2.25512 74.7048 2.00317 74.3939 2.00317Z" fill="#3F4550"/>
<path d="M81.6146 2.00317C81.3037 2.00317 81.0518 2.25512 81.0518 2.56601V4.06664C81.0518 4.37753 81.3037 4.62948 81.6146 4.62948C81.9255 4.62948 82.1774 4.37753 82.1774 4.06664V2.56601C82.1774 2.25512 81.9255 2.00317 81.6146 2.00317Z" fill="#3F4550"/>
<path d="M88.8363 2.00317C88.5254 2.00317 88.2734 2.25512 88.2734 2.56601V4.06664C88.2734 4.37753 88.5254 4.62948 88.8363 4.62948C89.1472 4.62948 89.3991 4.37753 89.3991 4.06664V2.56601C89.3991 2.25512 89.1472 2.00317 88.8363 2.00317Z" fill="#3F4550"/>
<path d="M96.0579 2.00317C95.7471 2.00317 95.4951 2.25512 95.4951 2.56601V4.06664C95.4951 4.37753 95.7471 4.62948 96.0579 4.62948C96.3688 4.62948 96.6208 4.37753 96.6208 4.06664V2.56601C96.6208 2.25512 96.3688 2.00317 96.0579 2.00317Z" fill="#3F4550"/>
<path d="M103.279 2.00317C102.968 2.00317 102.716 2.25512 102.716 2.56601V4.06664C102.716 4.37753 102.968 4.62948 103.279 4.62948C103.59 4.62948 103.842 4.37753 103.842 4.06664V2.56601C103.842 2.25512 103.59 2.00317 103.279 2.00317Z" fill="#3F4550"/>
<path d="M110.5 2.00317C110.189 2.00317 109.938 2.25512 109.938 2.56601V4.06664C109.938 4.37753 110.189 4.62948 110.5 4.62948C110.811 4.62948 111.063 4.37753 111.063 4.06664V2.56601C111.063 2.25512 110.811 2.00317 110.5 2.00317Z" fill="#3F4550"/>
<path d="M118.285 2.56503V4.06567C118.285 4.37629 118.033 4.6285 117.722 4.6285C117.411 4.6285 117.159 4.37629 117.159 4.06567V2.56503C117.159 2.2544 117.411 2.0022 117.722 2.0022C118.033 2.0022 118.285 2.2544 118.285 2.56503Z" fill="#3F4550"/>
<path d="M124.943 2.00317C124.632 2.00317 124.38 2.25512 124.38 2.56601V4.06664C124.38 4.37753 124.632 4.62948 124.943 4.62948C125.254 4.62948 125.506 4.37753 125.506 4.06664V2.56601C125.506 2.25512 125.254 2.00317 124.943 2.00317Z" fill="#3F4550"/>
<path d="M132.164 2.00317C131.854 2.00317 131.602 2.25512 131.602 2.56601V4.06664C131.602 4.37753 131.854 4.62948 132.164 4.62948C132.475 4.62948 132.727 4.37753 132.727 4.06664V2.56601C132.727 2.25512 132.475 2.00317 132.164 2.00317Z" fill="#3F4550"/>
<path d="M139.386 2.00317C139.075 2.00317 138.823 2.25512 138.823 2.56601V4.06664C138.823 4.37753 139.075 4.62948 139.386 4.62948C139.697 4.62948 139.949 4.37753 139.949 4.06664V2.56601C139.949 2.25512 139.697 2.00317 139.386 2.00317Z" fill="#3F4550"/>
<path d="M147.169 2.56503V4.06567C147.169 4.37629 146.917 4.6285 146.606 4.6285C146.296 4.6285 146.043 4.37629 146.043 4.06567V2.56503C146.043 2.2544 146.296 2.0022 146.606 2.0022C146.917 2.0022 147.169 2.2544 147.169 2.56503Z" fill="#3F4550"/>
<path d="M153.827 2.00317C153.517 2.00317 153.265 2.25512 153.265 2.56601V4.06664C153.265 4.37753 153.517 4.62948 153.827 4.62948C154.138 4.62948 154.39 4.37753 154.39 4.06664V2.56601C154.39 2.25512 154.138 2.00317 153.827 2.00317Z" fill="#3F4550"/>
<path d="M161.612 2.56503V4.06567C161.612 4.37629 161.36 4.6285 161.049 4.6285C160.739 4.6285 160.486 4.37629 160.486 4.06567V2.56503C160.486 2.2544 160.739 2.0022 161.049 2.0022C161.36 2.0022 161.612 2.2544 161.612 2.56503Z" fill="#3F4550"/>
<path d="M168.833 2.56503V4.06567C168.833 4.37629 168.58 4.6285 168.27 4.6285C167.959 4.6285 167.707 4.37629 167.707 4.06567V2.56503C167.707 2.2544 167.959 2.0022 168.27 2.0022C168.58 2.0022 168.833 2.2544 168.833 2.56503Z" fill="#3F4550"/>
<path d="M175.491 2.00317C175.18 2.00317 174.928 2.25512 174.928 2.56601V4.06664C174.928 4.37753 175.18 4.62948 175.491 4.62948C175.801 4.62948 176.053 4.37753 176.053 4.06664V2.56601C176.053 2.25512 175.801 2.00317 175.491 2.00317Z" fill="#3F4550"/>
<path d="M182.712 2.00317C182.401 2.00317 182.149 2.25512 182.149 2.56601V4.06664C182.149 4.37753 182.401 4.62948 182.712 4.62948C183.023 4.62948 183.275 4.37753 183.275 4.06664V2.56601C183.275 2.25512 183.023 2.00317 182.712 2.00317Z" fill="#3F4550"/>
<path d="M189.934 2.00317C189.623 2.00317 189.371 2.25512 189.371 2.56601V4.06664C189.371 4.37753 189.623 4.62948 189.934 4.62948C190.245 4.62948 190.497 4.37753 190.497 4.06664V2.56601C190.497 2.25512 190.245 2.00317 189.934 2.00317Z" fill="#3F4550"/>
<path d="M197.717 2.56478V4.06542C197.717 4.37605 197.465 4.62826 197.155 4.62826C196.844 4.62826 196.592 4.37605 196.592 4.06542V2.56478C196.592 2.25416 196.844 2.00195 197.155 2.00195C197.465 2.00195 197.717 2.25416 197.717 2.56478Z" fill="#3F4550"/>
<path d="M204.377 2.00317C204.066 2.00317 203.814 2.25512 203.814 2.56601V4.06664C203.814 4.37753 204.066 4.62948 204.377 4.62948C204.688 4.62948 204.94 4.37753 204.94 4.06664V2.56601C204.94 2.25512 204.688 2.00317 204.377 2.00317Z" fill="#3F4550"/>
<path d="M211.598 2.00317C211.287 2.00317 211.035 2.25512 211.035 2.56601V4.06664C211.035 4.37753 211.287 4.62948 211.598 4.62948C211.909 4.62948 212.161 4.37753 212.161 4.06664V2.56601C212.161 2.25512 211.909 2.00317 211.598 2.00317Z" fill="#3F4550"/>
<defs>
<linearGradient id="paint0_linear_2221_15194" x1="2.39644" y1="3.27575" x2="186.582" y2="3.34647" gradientUnits="userSpaceOnUse">
<stop stop-color="#25259D"/>
<stop offset="0.18" stop-color="#493CCE"/>
<stop offset="0.36" stop-color="#6E54FF"/>
<stop offset="0.54" stop-color="#924BF1"/>
<stop offset="0.71" stop-color="#B542E3"/>
<stop offset="0.86" stop-color="#BB87EA"/>
<stop offset="1" stop-color="#C1CDF1"/>
</linearGradient>
</defs>
</svg>
