<svg width="14" height="15" viewBox="0 0 14 15" fill="none" xmlns="http://www.w3.org/2000/svg">
<path fill-rule="evenodd" clip-rule="evenodd" d="M6.3335 4.02389H7.66683V5.35722H6.3335V4.02389ZM7.00016 10.6906C7.36683 10.6906 7.66683 10.3906 7.66683 10.0239V7.35722C7.66683 6.99055 7.36683 6.69055 7.00016 6.69055C6.6335 6.69055 6.3335 6.99055 6.3335 7.35722V10.0239C6.3335 10.3906 6.6335 10.6906 7.00016 10.6906ZM7.00016 0.690552C3.32016 0.690552 0.333496 3.67722 0.333496 7.35722C0.333496 11.0372 3.32016 14.0239 7.00016 14.0239C10.6802 14.0239 13.6668 11.0372 13.6668 7.35722C13.6668 3.67722 10.6802 0.690552 7.00016 0.690552ZM7.00016 12.6906C4.06016 12.6906 1.66683 10.2972 1.66683 7.35722C1.66683 4.41722 4.06016 2.02389 7.00016 2.02389C9.94016 2.02389 12.3335 4.41722 12.3335 7.35722C12.3335 10.2972 9.94016 12.6906 7.00016 12.6906Z" fill="#7034F0"/>
</svg>
