<svg width="16" height="16" viewBox="0 0 16 16" fill="none" xmlns="http://www.w3.org/2000/svg">
<rect x="0.5" y="0.857178" width="15" height="15" rx="7.5" fill="#A2A3B7"/>
<path fill-rule="evenodd" clip-rule="evenodd" d="M10.9462 5.00842C10.8528 4.91479 10.726 4.86218 10.5938 4.86218C10.4615 4.86218 10.3347 4.91479 10.2413 5.00842L7.79625 7.44842L5.35125 5.00342C5.25783 4.90979 5.13101 4.85718 4.99875 4.85718C4.86649 4.85718 4.73967 4.90979 4.64625 5.00342C4.45125 5.19842 4.45125 5.51342 4.64625 5.70842L7.09125 8.15342L4.64625 10.5984C4.45125 10.7934 4.45125 11.1084 4.64625 11.3034C4.84125 11.4984 5.15625 11.4984 5.35125 11.3034L7.79625 8.85842L10.2413 11.3034C10.4363 11.4984 10.7512 11.4984 10.9462 11.3034C11.1413 11.1084 11.1413 10.7934 10.9462 10.5984L8.50125 8.15342L10.9462 5.70842C11.1363 5.51842 11.1363 5.19842 10.9462 5.00842Z" fill="#15161C"/>
</svg>
