<svg width="7" height="7" viewBox="0 0 7 7" fill="none" xmlns="http://www.w3.org/2000/svg">
<path fill-rule="evenodd" clip-rule="evenodd" d="M1.0987 6.32675L5.31117 2.11428L5.31117 5.795C5.31117 6.08916 5.55253 6.33052 5.84669 6.33052C6.14084 6.33052 6.37843 6.09293 6.37843 5.79878L6.37843 0.828286C6.37859 0.68721 6.32262 0.551866 6.22286 0.452111C6.12311 0.352355 5.98776 0.296383 5.84669 0.296542L0.876198 0.288999C0.582042 0.288999 0.344454 0.526588 0.344454 0.820744C0.344454 1.1149 0.582042 1.35249 0.876198 1.35249L4.55692 1.36003L0.344454 5.5725C0.137036 5.77992 0.137036 6.11933 0.344454 6.32675C0.551872 6.53417 0.891283 6.53417 1.0987 6.32675Z" fill="white" fill-opacity="0.3"/>
</svg>
