<svg width="662" height="286" viewBox="0 0 662 286" fill="none" xmlns="http://www.w3.org/2000/svg">
<g clip-path="url(#clip0_24_21310)">
<path d="M499 13.7241V245.276C499 251.746 493.638 257 487.035 257H174.965C168.362 257 163 251.746 163 245.276V13.7241C163 7.25358 168.362 2 174.965 2H487.035C493.638 2 499 7.25358 499 13.7241Z" stroke="url(#paint0_linear_24_21310)" stroke-width="2"/>
<path d="M499 13.7241V245.276C499 251.746 493.638 257 487.035 257H174.965C168.362 257 163 251.746 163 245.276V13.7241C163 7.25358 168.362 2 174.965 2H487.035C493.638 2 499 7.25358 499 13.7241Z" fill="#1A1D23" fill-opacity="0.98039"/>
<g opacity="0.01">
<mask id="mask0_24_21310" style="mask-type:luminance" maskUnits="userSpaceOnUse" x="147" y="45" width="32" height="63">
<path d="M178.597 76.6677C178.597 93.8886 171.605 107.871 162.995 107.871C154.384 107.871 147.393 93.8886 147.393 76.6677C147.393 59.4467 154.384 45.4646 162.995 45.4646C171.605 45.4646 178.597 59.4467 178.597 76.6677Z" fill="url(#paint1_radial_24_21310)"/>
</mask>
<g mask="url(#mask0_24_21310)">
<path d="M178.597 76.6677C178.597 93.8886 171.605 107.871 162.995 107.871C154.384 107.871 147.393 93.8886 147.393 76.6677C147.393 59.4467 154.384 45.4646 162.995 45.4646C171.605 45.4646 178.597 59.4467 178.597 76.6677Z" fill="url(#paint2_radial_24_21310)"/>
</g>
</g>
<g opacity="0.01">
<mask id="mask1_24_21310" style="mask-type:luminance" maskUnits="userSpaceOnUse" x="485" y="157" width="33" height="63">
<path d="M517.085 188.411C517.085 205.632 510.094 219.614 501.483 219.614C492.873 219.614 485.881 205.632 485.881 188.411C485.881 171.19 492.873 157.208 501.483 157.208C510.094 157.208 517.085 171.19 517.085 188.411Z" fill="url(#paint3_radial_24_21310)"/>
</mask>
<g mask="url(#mask1_24_21310)">
<path d="M517.085 188.411C517.085 205.632 510.094 219.614 501.483 219.614C492.873 219.614 485.881 205.632 485.881 188.411C485.881 171.19 492.873 157.208 501.483 157.208C510.094 157.208 517.085 171.19 517.085 188.411Z" fill="url(#paint4_radial_24_21310)"/>
</g>
</g>
<path d="M239.235 35.2805L237.092 27.9977H238.557L239.984 33.3456H240.055L241.487 27.9977H242.952L244.374 33.3226H244.445L245.863 27.9977H247.328L245.189 35.2805H243.743L242.264 30.0227H242.155L240.676 35.2805H239.235ZM232.905 34.2375C233.348 34.2375 233.714 34.1205 234.005 33.8865C234.296 33.6525 234.511 33.3416 234.65 32.9526C234.792 32.5636 234.863 32.1356 234.863 31.6676C234.863 31.2026 234.792 30.7766 234.65 30.3876C234.511 29.9957 234.296 29.6807 234.005 29.4437C233.714 29.2067 233.348 29.0887 232.905 29.0887C232.46 29.0887 232.09 29.2067 231.796 29.4437C231.505 29.6807 231.288 29.9957 231.146 30.3876C231.007 30.7766 230.938 31.2026 230.938 31.6676C230.938 32.1356 231.007 32.5636 231.146 32.9526C231.288 33.3416 231.505 33.6525 231.796 33.8865C232.09 34.1205 232.46 34.2375 232.905 34.2375ZM232.9 35.4275C232.218 35.4275 231.622 35.2705 231.113 34.9575C230.604 34.6445 230.21 34.2075 229.929 33.6445C229.647 33.0816 229.507 32.4246 229.507 31.6726C229.507 30.9166 229.647 30.2567 229.929 29.6907C230.21 29.1247 230.604 28.6857 231.113 28.3727C231.622 28.0597 232.218 27.9037 232.9 27.9037C233.583 27.9037 234.179 28.0597 234.688 28.3727C235.197 28.6857 235.592 29.1247 235.873 29.6907C236.154 30.2567 236.295 30.9166 236.295 31.6726C236.295 32.4246 236.154 33.0816 235.873 33.6445C235.592 34.2075 235.197 34.6445 234.688 34.9575C234.179 35.2705 233.583 35.4275 232.9 35.4275ZM223.272 30.9566V35.2805H221.855V27.9977H223.215V29.1837H223.305C223.473 28.7977 223.735 28.4877 224.092 28.2537C224.453 28.0207 224.906 27.9037 225.453 27.9037C225.949 27.9037 226.384 28.0077 226.757 28.2167C227.13 28.4217 227.419 28.7287 227.625 29.1357C227.83 29.5437 227.933 30.0477 227.933 30.6486V35.2805H226.515V30.8186C226.515 30.2907 226.378 29.8787 226.103 29.5817C225.828 29.2817 225.45 29.1317 224.97 29.1317C224.641 29.1317 224.349 29.2027 224.092 29.3447C223.84 29.4867 223.639 29.6957 223.49 29.9707C223.345 30.2427 223.272 30.5706 223.272 30.9566ZM213.624 35.4275C212.907 35.4275 212.289 35.2735 211.77 34.9675C211.255 34.6575 210.857 34.2225 210.576 33.6635C210.297 33.1006 210.158 32.4416 210.158 31.6866C210.158 30.9406 210.297 30.2837 210.576 29.7147C210.857 29.1457 211.249 28.7017 211.751 28.3817C212.257 28.0627 212.848 27.9037 213.525 27.9037C213.935 27.9037 214.334 27.9707 214.719 28.1067C215.105 28.2427 215.451 28.4567 215.758 28.7467C216.064 29.0377 216.306 29.4157 216.483 29.8807C216.66 30.3416 216.749 30.9026 216.749 31.5636V32.0656H210.96V31.0036H215.359C215.359 30.6306 215.284 30.3007 215.132 30.0127C214.98 29.7227 214.767 29.4927 214.492 29.3257C214.22 29.1577 213.901 29.0747 213.534 29.0747C213.136 29.0747 212.788 29.1727 212.491 29.3687C212.197 29.5607 211.969 29.8137 211.808 30.1267C211.65 30.4366 211.571 30.7736 211.571 31.1366V31.9666C211.571 32.4536 211.657 32.8676 211.827 33.2086C212.001 33.5495 212.243 33.8105 212.553 33.9905C212.862 34.1675 213.224 34.2565 213.638 34.2565C213.907 34.2565 214.152 34.2185 214.373 34.1425C214.594 34.0635 214.786 33.9465 214.947 33.7915C215.108 33.6365 215.231 33.4456 215.317 33.2176L216.658 33.4596C216.551 33.8545 216.358 34.2005 216.08 34.4975C215.805 34.7915 215.459 35.0215 215.042 35.1855C214.628 35.3465 214.155 35.4275 213.624 35.4275ZM205.167 34.2135C205.575 34.2135 205.919 34.1065 206.201 33.8915C206.485 33.6735 206.7 33.3716 206.846 32.9856C206.994 32.5996 207.068 32.1516 207.068 31.6396C207.068 31.1336 206.996 30.6906 206.85 30.3117C206.705 29.9327 206.492 29.6367 206.21 29.4257C205.929 29.2137 205.581 29.1077 205.167 29.1077C204.74 29.1077 204.385 29.2177 204.1 29.4397C203.816 29.6607 203.601 29.9627 203.456 30.3446C203.313 30.7276 203.242 31.1586 203.242 31.6396C203.242 32.1256 203.315 32.5636 203.46 32.9526C203.606 33.3416 203.821 33.6495 204.105 33.8765C204.393 34.1015 204.747 34.2135 205.167 34.2135ZM204.854 35.4225C204.266 35.4225 203.742 35.2725 203.28 34.9725C202.822 34.6685 202.462 34.2375 202.199 33.6775C201.94 33.1156 201.81 32.4406 201.81 31.6536C201.81 30.8666 201.942 30.1927 202.204 29.6337C202.469 29.0747 202.833 28.6457 203.294 28.3487C203.756 28.0517 204.279 27.9037 204.864 27.9037C205.316 27.9037 205.679 27.9787 205.954 28.1307C206.232 28.2797 206.447 28.4537 206.599 28.6527C206.754 28.8517 206.874 29.0267 206.959 29.1787H207.045V25.5708H208.462V35.2805H207.078V34.1475H206.959C206.874 34.3025 206.751 34.4795 206.589 34.6785C206.431 34.8775 206.213 35.0515 205.935 35.1995C205.657 35.3485 205.297 35.4225 204.854 35.4225ZM196.955 34.3035C197.347 34.3035 197.682 34.2265 197.96 34.0715C198.242 33.9165 198.455 33.7145 198.601 33.4646C198.749 33.2116 198.823 32.9416 198.823 32.6536V31.7146C198.773 31.7656 198.675 31.8126 198.529 31.8576C198.387 31.8986 198.224 31.9346 198.041 31.9666C197.858 31.9946 197.679 32.0216 197.505 32.0466C197.332 32.0686 197.186 32.0876 197.069 32.1036C196.794 32.1386 196.543 32.1966 196.315 32.2796C196.091 32.3616 195.911 32.4796 195.775 32.6346C195.642 32.7866 195.576 32.9886 195.576 33.2416C195.576 33.5925 195.705 33.8575 195.964 34.0385C196.224 34.2155 196.554 34.3035 196.955 34.3035ZM196.647 35.4415C196.186 35.4415 195.769 35.3565 195.396 35.1855C195.023 35.0115 194.727 34.7605 194.509 34.4315C194.294 34.1025 194.187 33.6995 194.187 33.2226C194.187 32.8116 194.266 32.4736 194.424 32.2076C194.582 31.9426 194.795 31.7326 195.064 31.5776C195.332 31.4226 195.633 31.3056 195.964 31.2266C196.296 31.1476 196.635 31.0876 196.979 31.0466C197.415 30.9956 197.769 30.9546 198.041 30.9236C198.313 30.8886 198.51 30.8336 198.634 30.7576C198.757 30.6816 198.819 30.5586 198.819 30.3876V30.3546C198.819 29.9407 198.702 29.6197 198.468 29.3917C198.237 29.1647 197.893 29.0507 197.434 29.0507C196.957 29.0507 196.581 29.1567 196.306 29.3687C196.034 29.5767 195.846 29.8087 195.742 30.0657L194.409 29.7617C194.567 29.3197 194.798 28.9617 195.102 28.6907C195.408 28.4157 195.761 28.2167 196.159 28.0927C196.557 27.9667 196.976 27.9037 197.415 27.9037C197.706 27.9037 198.014 27.9377 198.34 28.0077C198.668 28.0737 198.974 28.1967 199.259 28.3777C199.546 28.5577 199.782 28.8147 199.965 29.1497C200.148 29.4817 200.24 29.9137 200.24 30.4446V35.2805H198.857V34.2845H198.8C198.708 34.4675 198.571 34.6485 198.387 34.8255C198.204 35.0025 197.968 35.1495 197.681 35.2655C197.393 35.3835 197.049 35.4415 196.647 35.4415ZM189.469 35.2805V27.9977H190.839V29.1547H190.915C191.048 28.7627 191.282 28.4547 191.617 28.2307C191.955 28.0027 192.338 27.8887 192.764 27.8887C192.853 27.8887 192.957 27.8917 193.077 27.8987C193.2 27.9047 193.297 27.9127 193.366 27.9227V29.2777C193.309 29.2627 193.208 29.2447 193.063 29.2257C192.918 29.2037 192.772 29.1927 192.627 29.1927C192.292 29.1927 191.993 29.2637 191.731 29.4057C191.471 29.5457 191.266 29.7397 191.114 29.9897C190.963 30.2357 190.887 30.5166 190.887 30.8336V35.2805H189.469ZM181.164 26.8318V25.5708H188.679V26.8318H185.649V35.2805H184.189V26.8318H181.164Z" fill="white"/>
<path d="M469.626 18.8372C475.946 18.8372 481.069 23.9612 481.069 30.2812C481.069 36.6012 475.946 41.7242 469.626 41.7242C463.305 41.7242 458.182 36.6012 458.182 30.2812C458.182 23.9612 463.305 18.8372 469.626 18.8372Z" fill="#2B303B"/>
<path d="M474.026 29.0437C473.368 29.0437 472.834 29.5777 472.834 30.2357C472.834 30.8937 473.368 31.4267 474.026 31.4267C474.684 31.4267 475.217 30.8937 475.217 30.2357C475.217 29.5777 474.684 29.0437 474.026 29.0437ZM469.737 29.0737C469.079 29.0737 468.545 29.6077 468.545 30.2657C468.545 30.9237 469.079 31.4567 469.737 31.4567C470.395 31.4567 470.928 30.9237 470.928 30.2657C470.928 29.6077 470.395 29.0737 469.737 29.0737ZM465.335 29.0887C464.677 29.0887 464.143 29.6227 464.143 30.2807C464.143 30.9387 464.677 31.4717 465.335 31.4717C465.993 31.4717 466.526 30.9387 466.526 30.2807C466.526 29.6227 465.993 29.0887 465.335 29.0887Z" fill="white" fill-opacity="0.50196"/>
<path d="M180.576 58.8877H481.07" stroke="#2B303B" stroke-width="0.95397"/>
<g opacity="0.37">
<g clip-path="url(#clip1_24_21310)">
<rect x="179" y="111" width="118.5" height="79" rx="3.95" fill="#0F1015"/>
<rect width="79" height="20.54" transform="translate(199.54 111) rotate(90)" fill="#15161C"/>
<rect x="184.925" y="146.155" width="8.69" height="8.69" rx="4.345" stroke="white" stroke-opacity="0.1" stroke-width="0.79"/>
<g filter="url(#filter0_d_24_21310)">
<mask id="path-15-inside-1_24_21310" fill="white">
<path d="M205.465 129.367H213.365V171.632H205.465V129.367Z"/>
</mask>
<path d="M205.465 129.367V128.577H204.675V129.367H205.465ZM205.465 171.632H204.675V172.422H205.465V171.632ZM205.465 130.157H213.365V128.577H205.465V130.157ZM213.365 170.842H205.465V172.422H213.365V170.842ZM206.255 171.632V129.367H204.675V171.632H206.255Z" fill="#4F4566" mask="url(#path-15-inside-1_24_21310)"/>
<line x1="205.86" y1="150.105" x2="212.97" y2="150.105" stroke="#4F4566" stroke-width="0.79"/>
</g>
<path d="M220.775 133.077C219.897 133.077 219.23 132.846 218.775 132.385C218.32 131.917 218.092 131.238 218.092 130.347V126.308H218.87V130.309C218.87 131.693 219.505 132.385 220.775 132.385C222.033 132.385 222.662 131.693 222.662 130.309V126.308H223.439V130.347C223.439 131.238 223.212 131.917 222.756 132.385C222.308 132.846 221.647 133.077 220.775 133.077ZM227.198 133.077C226.674 133.077 226.2 133.01 225.776 132.878C225.353 132.739 224.986 132.54 224.677 132.28L224.951 131.655C225.274 131.901 225.612 132.085 225.966 132.205C226.32 132.325 226.731 132.385 227.198 132.385C227.767 132.385 228.187 132.28 228.459 132.072C228.737 131.857 228.876 131.576 228.876 131.228C228.876 130.95 228.775 130.729 228.573 130.565C228.377 130.4 228.045 130.271 227.577 130.176L226.591 129.977C225.997 129.85 225.552 129.645 225.255 129.361C224.964 129.07 224.819 128.684 224.819 128.204C224.819 127.806 224.92 127.458 225.122 127.161C225.331 126.864 225.618 126.634 225.985 126.469C226.351 126.305 226.775 126.223 227.255 126.223C227.704 126.223 228.121 126.295 228.506 126.441C228.892 126.58 229.217 126.782 229.483 127.047L229.208 127.654C228.924 127.395 228.623 127.209 228.307 127.095C227.991 126.975 227.637 126.915 227.246 126.915C226.746 126.915 226.348 127.032 226.051 127.266C225.754 127.493 225.606 127.796 225.606 128.176C225.606 128.479 225.697 128.719 225.88 128.896C226.07 129.073 226.377 129.203 226.8 129.285L227.786 129.493C228.424 129.626 228.895 129.828 229.198 130.1C229.508 130.365 229.663 130.729 229.663 131.19C229.663 131.563 229.562 131.892 229.36 132.176C229.164 132.461 228.879 132.682 228.506 132.84C228.14 132.998 227.704 133.077 227.198 133.077ZM230.869 132.991V126.308H233.125C234.206 126.308 235.04 126.596 235.628 127.171C236.216 127.74 236.51 128.564 236.51 129.645C236.51 130.726 236.216 131.554 235.628 132.129C235.04 132.704 234.206 132.991 233.125 132.991H230.869ZM231.647 132.328H233.069C234.813 132.328 235.685 131.434 235.685 129.645C235.685 127.863 234.813 126.972 233.069 126.972H231.647V132.328ZM239.129 132.991V126.981H236.702V126.308H242.342V126.981H239.915V132.991H239.129Z" fill="white" fill-opacity="0.9"/>
<path opacity="0.2" d="M270.679 132.858C269.097 139.206 262.667 143.07 256.318 141.487C249.972 139.904 246.108 133.474 247.691 127.126C249.273 120.777 255.703 116.913 262.05 118.496C268.399 120.079 272.262 126.51 270.679 132.858H270.679Z" fill="#F7931A"/>
<path fill-rule="evenodd" clip-rule="evenodd" d="M262.754 128.615C262.914 127.545 262.099 126.97 260.986 126.586L261.347 125.137L260.465 124.918L260.113 126.328C259.881 126.271 259.643 126.216 259.406 126.162L259.761 124.742L258.879 124.522L258.518 125.971C258.326 125.927 258.137 125.884 257.954 125.838L257.955 125.834L256.739 125.53L256.504 126.472C256.504 126.472 257.159 126.622 257.145 126.631C257.502 126.721 257.567 126.957 257.556 127.144L257.144 128.795C257.169 128.801 257.201 128.81 257.236 128.825L257.143 128.801L256.566 131.114C256.522 131.222 256.412 131.385 256.162 131.323C256.171 131.336 255.521 131.163 255.521 131.163L255.083 132.173L256.231 132.459C256.361 132.492 256.489 132.525 256.615 132.558L256.615 132.558C256.697 132.58 256.779 132.601 256.86 132.622L256.495 134.087L257.376 134.307L257.737 132.857C257.978 132.923 258.211 132.983 258.44 133.04L258.08 134.483L258.962 134.703L259.327 133.24C260.831 133.524 261.962 133.41 262.438 132.05C262.821 130.954 262.419 130.323 261.627 129.91C262.204 129.777 262.638 129.398 262.754 128.615H262.754ZM260.738 131.441C260.488 132.446 258.914 132.03 258.195 131.84C258.13 131.823 258.073 131.808 258.024 131.795L258.508 129.854C258.568 129.869 258.641 129.885 258.725 129.904C259.469 130.071 260.994 130.413 260.739 131.441H260.738ZM258.874 129.003C259.474 129.163 260.783 129.512 261.011 128.599C261.244 127.665 259.971 127.383 259.35 127.246C259.28 127.23 259.219 127.216 259.168 127.204L258.729 128.965C258.771 128.975 258.819 128.988 258.874 129.003Z" fill="#F7931A"/>
<path d="M218.265 153.5V146.817H220.938C221.627 146.817 222.158 146.971 222.531 147.281C222.91 147.584 223.1 148.011 223.1 148.561C223.1 148.927 223.005 149.24 222.815 149.499C222.626 149.759 222.363 149.948 222.028 150.068C222.414 150.169 222.714 150.356 222.929 150.628C223.15 150.899 223.261 151.244 223.261 151.661C223.261 152.255 223.068 152.71 222.682 153.026C222.297 153.342 221.753 153.5 221.052 153.5H218.265ZM219.023 149.803H220.824C221.829 149.803 222.332 149.411 222.332 148.627C222.332 147.837 221.829 147.442 220.824 147.442H219.023V149.803ZM219.023 152.874H220.976C221.987 152.874 222.493 152.467 222.493 151.651C222.493 150.836 221.987 150.428 220.976 150.428H219.023V152.874ZM226.219 153.5V147.49H223.792V146.817H229.432V147.49H227.005V153.5H226.219ZM232.756 153.585C232.099 153.585 231.536 153.446 231.069 153.168C230.601 152.89 230.241 152.495 229.988 151.983C229.742 151.471 229.618 150.861 229.618 150.154C229.618 149.452 229.742 148.845 229.988 148.333C230.241 147.821 230.601 147.426 231.069 147.148C231.536 146.87 232.099 146.731 232.756 146.731C233.218 146.731 233.641 146.804 234.026 146.949C234.418 147.095 234.75 147.306 235.022 147.584L234.719 148.22C234.428 147.948 234.124 147.752 233.808 147.632C233.499 147.505 233.154 147.442 232.775 147.442C232.023 147.442 231.448 147.679 231.05 148.153C230.652 148.627 230.453 149.294 230.453 150.154C230.453 151.019 230.652 151.689 231.05 152.163C231.448 152.637 232.023 152.874 232.775 152.874C233.154 152.874 233.499 152.814 233.808 152.694C234.124 152.568 234.428 152.369 234.719 152.097L235.022 152.732C234.75 153.004 234.418 153.216 234.026 153.367C233.641 153.513 233.218 153.585 232.756 153.585Z" fill="white" fill-opacity="0.9"/>
<path opacity="0.2" d="M271.035 150.469C271.035 156.979 265.758 162.257 259.248 162.257C252.737 162.257 247.46 156.979 247.46 150.469C247.46 143.959 252.737 138.681 259.248 138.681C265.758 138.681 271.035 143.959 271.035 150.469" fill="#00A478"/>
<path fill-rule="evenodd" clip-rule="evenodd" d="M255.244 142.623L252.939 147.492C252.93 147.51 252.928 147.531 252.931 147.551C252.935 147.571 252.945 147.589 252.959 147.602L259.184 153.602C259.201 153.619 259.225 153.629 259.249 153.629C259.274 153.629 259.298 153.619 259.315 153.602L265.54 147.603C265.554 147.589 265.564 147.571 265.568 147.551C265.571 147.531 265.569 147.511 265.56 147.493L263.255 142.623C263.248 142.607 263.236 142.593 263.221 142.583C263.206 142.574 263.188 142.569 263.17 142.569H255.33C255.312 142.568 255.294 142.573 255.279 142.583C255.264 142.593 255.251 142.607 255.244 142.623V142.623V142.623Z" fill="#00A478"/>
<path fill-rule="evenodd" clip-rule="evenodd" d="M260.049 147.992C260.004 147.996 259.773 148.01 259.258 148.01C258.849 148.01 258.558 147.997 258.456 147.992C256.873 147.922 255.691 147.645 255.691 147.313C255.691 146.981 256.873 146.705 258.456 146.633V147.716C258.559 147.724 258.856 147.741 259.265 147.741C259.757 147.741 260.003 147.721 260.047 147.717V146.634C261.627 146.705 262.806 146.982 262.806 147.313C262.806 147.644 261.628 147.922 260.047 147.992L260.049 147.992ZM260.049 146.522V145.553H262.254V144.075H256.251V145.553H258.456V146.522C256.664 146.605 255.317 146.962 255.317 147.389C255.317 147.817 256.664 148.174 258.456 148.257V151.362H260.049V148.256C261.836 148.173 263.181 147.816 263.181 147.389C263.181 146.962 261.837 146.605 260.049 146.522L260.049 146.522Z" fill="white"/>
<rect x="249.77" y="155.208" width="18.96" height="7.11" rx="1.58" fill="#0F1015"/>
<rect x="249.967" y="155.406" width="18.565" height="6.715" rx="1.3825" stroke="white" stroke-opacity="0.1" stroke-width="0.395"/>
<path d="M252.055 160.63V157.606H250.832V157.065H253.926V157.606H252.703V160.63H252.055Z" fill="white"/>
<path d="M254.336 160.63V157.065H255.884C256.275 157.065 256.576 157.16 256.789 157.348C257.001 157.534 257.107 157.795 257.107 158.132C257.107 158.398 257.038 158.619 256.9 158.794C256.762 158.966 256.563 159.083 256.303 159.143C256.475 159.197 256.617 159.327 256.728 159.533L257.325 160.63H256.612L255.995 159.492C255.934 159.381 255.862 159.305 255.777 159.265C255.696 159.224 255.592 159.204 255.464 159.204H254.983V160.63H254.336ZM254.983 158.724H255.772C256.244 158.724 256.48 158.532 256.48 158.147C256.48 157.766 256.244 157.576 255.772 157.576H254.983V158.724Z" fill="white"/>
<path d="M259.436 160.68C259.066 160.68 258.747 160.606 258.481 160.458C258.218 160.306 258.016 160.094 257.874 159.821C257.732 159.544 257.662 159.219 257.662 158.845C257.662 158.471 257.732 158.147 257.874 157.874C258.016 157.601 258.218 157.391 258.481 157.242C258.747 157.09 259.066 157.015 259.436 157.015C259.676 157.015 259.902 157.052 260.114 157.126C260.33 157.2 260.507 157.306 260.645 157.444L260.433 157.96C260.281 157.832 260.126 157.739 259.967 157.682C259.809 157.621 259.639 157.591 259.457 157.591C259.096 157.591 258.821 157.701 258.632 157.92C258.444 158.135 258.349 158.444 258.349 158.845C258.349 159.246 258.444 159.556 258.632 159.775C258.821 159.995 259.096 160.104 259.457 160.104C259.639 160.104 259.809 160.075 259.967 160.018C260.126 159.957 260.281 159.863 260.433 159.735L260.645 160.251C260.507 160.386 260.33 160.492 260.114 160.569C259.902 160.643 259.676 160.68 259.436 160.68Z" fill="white"/>
<path d="M261.225 160.63V160.15L262.378 158.921C262.533 158.752 262.644 158.604 262.711 158.476C262.779 158.344 262.813 158.211 262.813 158.076C262.813 157.733 262.605 157.561 262.191 157.561C261.867 157.561 261.569 157.682 261.296 157.925L261.078 157.439C261.22 157.311 261.397 157.208 261.609 157.131C261.822 157.053 262.042 157.015 262.272 157.015C262.652 157.015 262.944 157.101 263.146 157.273C263.352 157.444 263.455 157.691 263.455 158.011C263.455 158.226 263.402 158.434 263.298 158.633C263.197 158.832 263.037 159.046 262.818 159.275L262.034 160.094H263.591V160.63H261.225Z" fill="white"/>
<path d="M265.369 160.68C264.948 160.68 264.626 160.522 264.403 160.205C264.181 159.885 264.07 159.43 264.07 158.84C264.07 158.243 264.181 157.79 264.403 157.48C264.626 157.17 264.948 157.015 265.369 157.015C265.794 157.015 266.116 157.17 266.335 157.48C266.557 157.79 266.669 158.242 266.669 158.835C266.669 159.428 266.557 159.885 266.335 160.205C266.112 160.522 265.79 160.68 265.369 160.68ZM265.369 160.15C265.598 160.15 265.767 160.045 265.875 159.836C265.986 159.624 266.042 159.29 266.042 158.835C266.042 158.383 265.986 158.056 265.875 157.854C265.767 157.648 265.598 157.546 265.369 157.546C265.143 157.546 264.975 157.648 264.863 157.854C264.752 158.056 264.697 158.383 264.697 158.835C264.697 159.29 264.752 159.624 264.863 159.836C264.975 160.045 265.143 160.15 265.369 160.15Z" fill="white"/>
<path d="M220.775 174.094C219.897 174.094 219.23 173.863 218.775 173.402C218.32 172.934 218.092 172.255 218.092 171.364V167.325H218.87V171.326C218.87 172.71 219.505 173.402 220.775 173.402C222.033 173.402 222.662 172.71 222.662 171.326V167.325H223.439V171.364C223.439 172.255 223.212 172.934 222.756 173.402C222.308 173.863 221.647 174.094 220.775 174.094ZM227.198 174.094C226.674 174.094 226.2 174.028 225.776 173.895C225.353 173.756 224.986 173.557 224.677 173.298L224.951 172.672C225.274 172.918 225.612 173.102 225.966 173.222C226.32 173.342 226.731 173.402 227.198 173.402C227.767 173.402 228.187 173.298 228.459 173.089C228.737 172.874 228.876 172.593 228.876 172.245C228.876 171.967 228.775 171.746 228.573 171.582C228.377 171.417 228.045 171.288 227.577 171.193L226.591 170.994C225.997 170.868 225.552 170.662 225.255 170.378C224.964 170.087 224.819 169.701 224.819 169.221C224.819 168.823 224.92 168.475 225.122 168.178C225.331 167.881 225.618 167.651 225.985 167.486C226.351 167.322 226.775 167.24 227.255 167.24C227.704 167.24 228.121 167.313 228.506 167.458C228.892 167.597 229.217 167.799 229.483 168.065L229.208 168.671C228.924 168.412 228.623 168.226 228.307 168.112C227.991 167.992 227.637 167.932 227.246 167.932C226.746 167.932 226.348 168.049 226.051 168.283C225.754 168.51 225.606 168.814 225.606 169.193C225.606 169.496 225.697 169.736 225.88 169.913C226.07 170.09 226.377 170.22 226.8 170.302L227.786 170.51C228.424 170.643 228.895 170.845 229.198 171.117C229.508 171.383 229.663 171.746 229.663 172.207C229.663 172.58 229.562 172.909 229.36 173.193C229.164 173.478 228.879 173.699 228.506 173.857C228.14 174.015 227.704 174.094 227.198 174.094ZM230.869 174.009V167.325H233.125C234.206 167.325 235.04 167.613 235.628 168.188C236.216 168.757 236.51 169.581 236.51 170.662C236.51 171.743 236.216 172.571 235.628 173.146C235.04 173.721 234.206 174.009 233.125 174.009H230.869ZM231.647 173.345H233.069C234.813 173.345 235.685 172.451 235.685 170.662C235.685 168.88 234.813 167.989 233.069 167.989H231.647V173.345ZM239.129 174.009V167.998H236.702V167.325H242.342V167.998H239.915V174.009H239.129Z" fill="white" fill-opacity="0.9"/>
<path opacity="0.2" d="M270.679 173.875C269.097 180.224 262.667 184.087 256.318 182.504C249.972 180.921 246.108 174.491 247.691 168.143C249.273 161.794 255.703 157.93 262.05 159.513C268.399 161.096 272.262 167.527 270.679 173.875H270.679Z" fill="#F7931A"/>
<path fill-rule="evenodd" clip-rule="evenodd" d="M262.754 169.632C262.914 168.562 262.099 167.987 260.986 167.604L261.347 166.155L260.465 165.935L260.113 167.346C259.881 167.288 259.643 167.233 259.406 167.179L259.761 165.759L258.879 165.539L258.518 166.988C258.326 166.944 258.137 166.901 257.954 166.855L257.955 166.851L256.739 166.547L256.504 167.489C256.504 167.489 257.159 167.639 257.145 167.649C257.502 167.738 257.567 167.974 257.556 168.161L257.144 169.812C257.169 169.818 257.201 169.828 257.236 169.842L257.143 169.818L256.566 172.131C256.522 172.239 256.412 172.402 256.162 172.34C256.171 172.353 255.521 172.18 255.521 172.18L255.083 173.19L256.231 173.476C256.361 173.509 256.489 173.542 256.615 173.575L256.615 173.575C256.697 173.597 256.779 173.618 256.86 173.639L256.495 175.105L257.376 175.324L257.737 173.874C257.978 173.94 258.211 174 258.44 174.057L258.08 175.5L258.962 175.72L259.327 174.257C260.831 174.542 261.962 174.427 262.438 173.067C262.821 171.971 262.419 171.34 261.627 170.927C262.204 170.794 262.638 170.415 262.754 169.632H262.754ZM260.738 172.458C260.488 173.463 258.914 173.047 258.195 172.857C258.13 172.84 258.073 172.825 258.024 172.812L258.508 170.871C258.568 170.886 258.641 170.902 258.725 170.921C259.469 171.088 260.994 171.43 260.739 172.458H260.738ZM258.874 170.02C259.474 170.18 260.783 170.529 261.011 169.616C261.244 168.682 259.971 168.4 259.35 168.263C259.28 168.247 259.219 168.234 259.168 168.221L258.729 169.982C258.771 169.992 258.819 170.005 258.874 170.02Z" fill="#F7931A"/>
<rect width="79" height="20.54" transform="matrix(4.37114e-08 1 1 -4.37114e-08 276.96 111)" fill="#15161C"/>
<path d="M287.074 153.585C286.309 153.585 285.728 153.291 285.33 152.704C284.932 152.116 284.732 151.266 284.732 150.154C284.732 149.035 284.932 148.185 285.33 147.603C285.728 147.022 286.309 146.731 287.074 146.731C287.845 146.731 288.426 147.022 288.818 147.603C289.216 148.179 289.416 149.025 289.416 150.144C289.416 151.263 289.213 152.116 288.809 152.704C288.411 153.291 287.832 153.585 287.074 153.585ZM287.074 152.912C287.605 152.912 287.997 152.688 288.25 152.239C288.509 151.79 288.638 151.092 288.638 150.144C288.638 149.196 288.512 148.504 288.259 148.068C288.006 147.626 287.611 147.404 287.074 147.404C286.543 147.404 286.148 147.626 285.889 148.068C285.636 148.51 285.51 149.202 285.51 150.144C285.51 151.092 285.636 151.79 285.889 152.239C286.148 152.688 286.543 152.912 287.074 152.912Z" fill="#747584"/>
</g>
<rect x="179.395" y="111.395" width="117.71" height="78.21" rx="3.555" stroke="#4F4566" stroke-width="0.79"/>
</g>
<g clip-path="url(#clip2_24_21310)">
<g filter="url(#filter1_d_24_21310)">
<g clip-path="url(#clip3_24_21310)">
<rect x="222" y="99" width="150" height="100" rx="5" fill="#0F1015"/>
<rect width="100" height="26" transform="translate(248 99) rotate(90)" fill="#7149B6"/>
<rect x="229" y="143" width="12" height="12" rx="6" fill="#7149B6"/>
<rect x="229.5" y="143.5" width="11" height="11" rx="5.5" stroke="white" stroke-opacity="0.1"/>
<circle cx="235" cy="149" r="4" fill="white" fill-opacity="0.9"/>
<g filter="url(#filter2_d_24_21310)">
<mask id="path-38-inside-2_24_21310" fill="white">
<path d="M255.5 122.25H265.5V175.75H255.5V122.25Z"/>
</mask>
<path d="M255.5 122.25V121.25H254.5V122.25H255.5ZM255.5 175.75H254.5V176.75H255.5V175.75ZM255.5 123.25H265.5V121.25H255.5V123.25ZM265.5 174.75H255.5V176.75H265.5V174.75ZM256.5 175.75V122.25H254.5V175.75H256.5Z" fill="#4F4566" mask="url(#path-38-inside-2_24_21310)"/>
<line x1="256" y1="148.5" x2="265" y2="148.5" stroke="#4F4566"/>
</g>
<path d="M271.544 127.04V118.58H274.928C275.8 118.58 276.472 118.776 276.944 119.168C277.424 119.552 277.664 120.092 277.664 120.788C277.664 121.252 277.544 121.648 277.304 121.976C277.064 122.304 276.732 122.544 276.308 122.696C276.796 122.824 277.176 123.06 277.448 123.404C277.728 123.748 277.868 124.184 277.868 124.712C277.868 125.464 277.624 126.04 277.136 126.44C276.648 126.84 275.96 127.04 275.072 127.04H271.544ZM272.504 122.36H274.784C276.056 122.36 276.692 121.864 276.692 120.872C276.692 119.872 276.056 119.372 274.784 119.372H272.504V122.36ZM272.504 126.248H274.976C276.256 126.248 276.896 125.732 276.896 124.7C276.896 123.668 276.256 123.152 274.976 123.152H272.504V126.248ZM281.612 127.04V119.432H278.54V118.58H285.68V119.432H282.608V127.04H281.612ZM289.888 127.148C289.056 127.148 288.344 126.972 287.752 126.62C287.16 126.268 286.704 125.768 286.384 125.12C286.072 124.472 285.916 123.7 285.916 122.804C285.916 121.916 286.072 121.148 286.384 120.5C286.704 119.852 287.16 119.352 287.752 119C288.344 118.648 289.056 118.472 289.888 118.472C290.472 118.472 291.008 118.564 291.496 118.748C291.992 118.932 292.412 119.2 292.756 119.552L292.372 120.356C292.004 120.012 291.62 119.764 291.22 119.612C290.828 119.452 290.392 119.372 289.912 119.372C288.96 119.372 288.232 119.672 287.728 120.272C287.224 120.872 286.972 121.716 286.972 122.804C286.972 123.9 287.224 124.748 287.728 125.348C288.232 125.948 288.96 126.248 289.912 126.248C290.392 126.248 290.828 126.172 291.22 126.02C291.62 125.86 292.004 125.608 292.372 125.264L292.756 126.068C292.412 126.412 291.992 126.68 291.496 126.872C291.008 127.056 290.472 127.148 289.888 127.148Z" fill="white" fill-opacity="0.9"/>
<path opacity="0.2" d="M338.05 126.669C336.047 134.704 327.907 139.594 319.871 137.591C311.838 135.588 306.947 127.448 308.951 119.413C310.954 111.376 319.092 106.485 327.127 108.489C335.163 110.492 340.053 118.632 338.05 126.669H338.05Z" fill="#F7931A"/>
<path fill-rule="evenodd" clip-rule="evenodd" d="M328.018 121.297C328.22 119.943 327.189 119.215 325.779 118.73L326.236 116.895L325.12 116.617L324.674 118.403C324.381 118.33 324.08 118.261 323.78 118.193L324.229 116.395L323.113 116.117L322.655 117.95C322.412 117.895 322.174 117.84 321.942 117.783L321.944 117.777L320.404 117.392L320.107 118.585C320.107 118.585 320.935 118.775 320.918 118.787C321.37 118.899 321.452 119.199 321.438 119.436L320.917 121.525C320.948 121.533 320.989 121.545 321.033 121.563L320.915 121.533L320.185 124.461C320.13 124.598 319.989 124.804 319.673 124.726C319.685 124.742 318.862 124.523 318.862 124.523L318.308 125.801L319.761 126.164C319.925 126.205 320.087 126.247 320.247 126.289L320.248 126.289C320.351 126.316 320.454 126.343 320.556 126.369L320.094 128.225L321.21 128.503L321.668 126.667C321.972 126.75 322.268 126.826 322.557 126.898L322.101 128.725L323.217 129.003L323.679 127.152C325.583 127.512 327.015 127.367 327.617 125.645C328.103 124.259 327.593 123.459 326.592 122.937C327.321 122.768 327.871 122.288 328.017 121.297H328.018ZM325.466 124.874C325.149 126.147 323.157 125.62 322.246 125.38C322.165 125.358 322.092 125.339 322.03 125.323L322.643 122.865C322.719 122.884 322.812 122.905 322.917 122.929L322.917 122.929C323.859 123.14 325.79 123.574 325.467 124.874H325.466ZM323.106 121.788C323.866 121.991 325.523 122.433 325.811 121.277C326.106 120.095 324.496 119.738 323.709 119.564C323.621 119.544 323.543 119.527 323.479 119.511L322.923 121.74C322.976 121.754 323.037 121.77 323.106 121.788Z" fill="#F7931A"/>
<path d="M275.038 153.108C273.926 153.108 273.082 152.816 272.506 152.232C271.93 151.64 271.642 150.78 271.642 149.652V144.54H272.626V149.604C272.626 151.356 273.43 152.232 275.038 152.232C276.63 152.232 277.426 151.356 277.426 149.604V144.54H278.41V149.652C278.41 150.78 278.122 151.64 277.546 152.232C276.978 152.816 276.142 153.108 275.038 153.108ZM283.169 153.108C282.505 153.108 281.905 153.024 281.369 152.856C280.833 152.68 280.369 152.428 279.977 152.1L280.325 151.308C280.733 151.62 281.161 151.852 281.609 152.004C282.057 152.156 282.577 152.232 283.169 152.232C283.889 152.232 284.421 152.1 284.765 151.836C285.117 151.564 285.293 151.208 285.293 150.768C285.293 150.416 285.165 150.136 284.909 149.928C284.661 149.72 284.241 149.556 283.649 149.436L282.401 149.184C281.649 149.024 281.085 148.764 280.709 148.404C280.341 148.036 280.157 147.548 280.157 146.94C280.157 146.436 280.285 145.996 280.541 145.62C280.805 145.244 281.169 144.952 281.633 144.744C282.097 144.536 282.633 144.432 283.241 144.432C283.809 144.432 284.337 144.524 284.825 144.708C285.313 144.884 285.725 145.14 286.061 145.476L285.713 146.244C285.353 145.916 284.973 145.68 284.573 145.536C284.173 145.384 283.725 145.308 283.229 145.308C282.597 145.308 282.093 145.456 281.717 145.752C281.341 146.04 281.153 146.424 281.153 146.904C281.153 147.288 281.269 147.592 281.501 147.816C281.741 148.04 282.129 148.204 282.665 148.308L283.913 148.572C284.721 148.74 285.317 148.996 285.701 149.34C286.093 149.676 286.289 150.136 286.289 150.72C286.289 151.192 286.161 151.608 285.905 151.968C285.657 152.328 285.297 152.608 284.825 152.808C284.361 153.008 283.809 153.108 283.169 153.108ZM287.815 153V144.54H290.671C292.039 144.54 293.095 144.904 293.839 145.632C294.583 146.352 294.955 147.396 294.955 148.764C294.955 150.132 294.583 151.18 293.839 151.908C293.095 152.636 292.039 153 290.671 153H287.815ZM288.799 152.16H290.599C292.807 152.16 293.911 151.028 293.911 148.764C293.911 146.508 292.807 145.38 290.599 145.38H288.799V152.16ZM298.27 153V145.392H295.198V144.54H302.338V145.392H299.266V153H298.27Z" fill="white" fill-opacity="0.9"/>
<path opacity="0.2" d="M338.5 148.961C338.5 157.201 331.82 163.882 323.579 163.882C315.339 163.882 308.658 157.201 308.658 148.961C308.658 140.72 315.339 134.04 323.579 134.04C331.82 134.04 338.5 140.72 338.5 148.961Z" fill="#00A478"/>
<path fill-rule="evenodd" clip-rule="evenodd" d="M318.511 139.029L315.594 145.193C315.583 145.216 315.579 145.242 315.584 145.267C315.588 145.292 315.601 145.315 315.619 145.332L323.498 152.927C323.521 152.948 323.551 152.96 323.582 152.96C323.613 152.96 323.642 152.948 323.665 152.927L331.544 145.333C331.562 145.315 331.575 145.292 331.579 145.267C331.584 145.242 331.58 145.216 331.569 145.193L328.652 139.029C328.642 139.009 328.627 138.991 328.608 138.979C328.589 138.967 328.567 138.96 328.544 138.96H318.62C318.597 138.96 318.574 138.966 318.555 138.978C318.536 138.991 318.521 139.008 318.511 139.029Z" fill="#00A478"/>
<path fill-rule="evenodd" clip-rule="evenodd" d="M324.594 145.826C324.537 145.83 324.245 145.848 323.593 145.848C323.074 145.848 322.706 145.832 322.577 145.826C320.573 145.737 319.077 145.386 319.077 144.966C319.077 144.546 320.573 144.196 322.577 144.106V145.476C322.708 145.486 323.083 145.508 323.602 145.508C324.224 145.508 324.536 145.482 324.592 145.477V144.107C326.591 144.196 328.084 144.547 328.084 144.966C328.084 145.385 326.592 145.736 324.592 145.825L324.594 145.826ZM324.594 143.965V142.738H327.384V140.868H319.786V142.738H322.577V143.964C320.309 144.069 318.603 144.521 318.603 145.062C318.603 145.604 320.309 146.055 322.577 146.161V150.091H324.593V146.159C326.856 146.054 328.558 145.603 328.558 145.062C328.558 144.521 326.857 144.07 324.593 143.964L324.594 143.965Z" fill="white"/>
<rect x="311.582" y="154.96" width="24" height="9" rx="2" fill="#0F1015"/>
<rect x="311.832" y="155.21" width="23.5" height="8.5" rx="1.75" stroke="white" stroke-opacity="0.1" stroke-width="0.5"/>
<path d="M314.475 161.823V157.995H312.926V157.31H316.843V157.995H315.294V161.823H314.475Z" fill="white"/>
<path d="M317.362 161.823V157.31H319.321C319.816 157.31 320.198 157.43 320.467 157.669C320.735 157.903 320.87 158.234 320.87 158.661C320.87 158.998 320.782 159.277 320.607 159.499C320.432 159.717 320.181 159.864 319.852 159.941C320.07 160.009 320.249 160.173 320.39 160.434L321.145 161.823H320.243L319.462 160.383C319.385 160.242 319.293 160.146 319.186 160.095C319.084 160.043 318.952 160.018 318.79 160.018H318.182V161.823H317.362ZM318.182 159.41H319.18C319.777 159.41 320.076 159.166 320.076 158.68C320.076 158.198 319.777 157.957 319.18 157.957H318.182V159.41Z" fill="white"/>
<path d="M323.818 161.887C323.349 161.887 322.946 161.793 322.609 161.605C322.276 161.413 322.02 161.144 321.84 160.799C321.661 160.449 321.572 160.037 321.572 159.563C321.572 159.09 321.661 158.68 321.84 158.334C322.02 157.989 322.276 157.722 322.609 157.534C322.946 157.342 323.349 157.246 323.818 157.246C324.121 157.246 324.407 157.293 324.676 157.387C324.949 157.481 325.173 157.615 325.348 157.79L325.079 158.443C324.887 158.281 324.691 158.164 324.49 158.091C324.29 158.014 324.074 157.976 323.844 157.976C323.387 157.976 323.039 158.115 322.801 158.392C322.562 158.665 322.442 159.056 322.442 159.563C322.442 160.071 322.562 160.464 322.801 160.741C323.039 161.018 323.387 161.157 323.844 161.157C324.074 161.157 324.29 161.121 324.49 161.048C324.691 160.971 324.887 160.852 325.079 160.69L325.348 161.343C325.173 161.513 324.949 161.648 324.676 161.746C324.407 161.84 324.121 161.887 323.818 161.887Z" fill="white"/>
<path d="M326.082 161.823V161.215L327.541 159.659C327.738 159.446 327.878 159.258 327.964 159.096C328.049 158.93 328.092 158.761 328.092 158.59C328.092 158.155 327.829 157.938 327.305 157.938C326.895 157.938 326.517 158.091 326.172 158.398L325.896 157.784C326.076 157.622 326.3 157.492 326.569 157.394C326.837 157.295 327.117 157.246 327.407 157.246C327.889 157.246 328.258 157.355 328.514 157.573C328.775 157.79 328.905 158.102 328.905 158.507C328.905 158.78 328.839 159.043 328.706 159.294C328.578 159.546 328.376 159.817 328.098 160.107L327.106 161.144H329.077V161.823H326.082Z" fill="white"/>
<path d="M331.328 161.887C330.795 161.887 330.387 161.686 330.105 161.285C329.824 160.88 329.683 160.304 329.683 159.557C329.683 158.802 329.824 158.228 330.105 157.835C330.387 157.443 330.795 157.246 331.328 157.246C331.866 157.246 332.273 157.443 332.55 157.835C332.832 158.228 332.973 158.8 332.973 159.55C332.973 160.301 332.832 160.88 332.55 161.285C332.269 161.686 331.861 161.887 331.328 161.887ZM331.328 161.215C331.618 161.215 331.831 161.082 331.968 160.818C332.109 160.549 332.179 160.127 332.179 159.55C332.179 158.979 332.109 158.565 331.968 158.309C331.831 158.049 331.618 157.918 331.328 157.918C331.042 157.918 330.829 158.049 330.688 158.309C330.547 158.565 330.477 158.979 330.477 159.55C330.477 160.127 330.547 160.549 330.688 160.818C330.829 161.082 331.042 161.215 331.328 161.215Z" fill="white"/>
<path d="M271.544 178.96V170.5H276.884V171.328H272.504V174.256H276.632V175.084H272.504V178.132H276.884V178.96H271.544ZM280.464 178.96V171.352H277.392V170.5H284.532V171.352H281.46V178.96H280.464ZM285.607 178.96V170.5H286.591V174.244H291.667V170.5H292.651V178.96H291.667V175.096H286.591V178.96H285.607Z" fill="white" fill-opacity="0.9"/>
<path opacity="0.2" d="M338.5 174.921C338.5 183.183 331.784 189.881 323.5 189.881C315.216 189.881 308.5 183.183 308.5 174.921C308.5 166.658 315.216 159.96 323.5 159.96C331.784 159.96 338.5 166.658 338.5 174.921" fill="#B8ABDC"/>
<g opacity="0.8">
<path d="M323.452 164.894L323.36 165.208V174.322L323.452 174.414L327.694 171.913L323.452 164.894Z" fill="white"/>
<path d="M323.452 164.894L319.21 171.913L323.452 174.414V169.99V164.894Z" fill="white"/>
<path d="M323.452 175.79L323.4 175.854V179.1L323.452 179.253L327.696 173.291L323.452 175.79Z" fill="white"/>
<path d="M323.452 179.253V175.79L319.21 173.291L323.452 179.253Z" fill="white"/>
<path d="M323.452 174.414L327.694 171.913L323.452 169.99V174.414Z" fill="white"/>
<path d="M319.21 171.913L323.452 174.414V169.99L319.21 171.913Z" fill="white"/>
</g>
<rect x="311.439" y="180.936" width="24.1273" height="9.02388" rx="2" fill="#0F1015"/>
<rect x="311.689" y="181.186" width="23.6273" height="8.52388" rx="1.75" stroke="white" stroke-opacity="0.1" stroke-width="0.5"/>
<path d="M313.737 187.817V183.293H316.755V183.947H314.528V185.192H316.613V185.847H314.528V187.162H316.755V187.817H313.737Z" fill="white"/>
<path d="M317.576 187.817V183.293H319.545C320.043 183.293 320.426 183.412 320.697 183.652C320.967 183.887 321.102 184.219 321.102 184.647C321.102 184.985 321.014 185.265 320.838 185.487C320.662 185.706 320.409 185.853 320.079 185.93C320.298 185.999 320.478 186.163 320.62 186.424L321.379 187.817H320.472L319.687 186.373C319.609 186.232 319.517 186.136 319.41 186.084C319.307 186.033 319.174 186.007 319.011 186.007H318.4V187.817H317.576ZM318.4 185.398H319.403C320.004 185.398 320.304 185.154 320.304 184.666C320.304 184.183 320.004 183.941 319.403 183.941H318.4V185.398Z" fill="white"/>
<path d="M324.066 187.881C323.594 187.881 323.189 187.787 322.85 187.599C322.515 187.406 322.258 187.137 322.078 186.79C321.898 186.439 321.808 186.026 321.808 185.552C321.808 185.077 321.898 184.666 322.078 184.319C322.258 183.973 322.515 183.706 322.85 183.517C323.189 183.325 323.594 183.229 324.066 183.229C324.371 183.229 324.658 183.276 324.928 183.37C325.203 183.464 325.428 183.599 325.604 183.774L325.334 184.429C325.141 184.266 324.943 184.148 324.742 184.076C324.54 183.999 324.324 183.96 324.092 183.96C323.633 183.96 323.283 184.099 323.043 184.377C322.803 184.651 322.683 185.042 322.683 185.552C322.683 186.061 322.803 186.454 323.043 186.732C323.283 187.01 323.633 187.15 324.092 187.15C324.324 187.15 324.54 187.113 324.742 187.04C324.943 186.963 325.141 186.844 325.334 186.681L325.604 187.336C325.428 187.507 325.203 187.642 324.928 187.74C324.658 187.834 324.371 187.881 324.066 187.881Z" fill="white"/>
<path d="M326.342 187.817V187.207L327.809 185.648C328.006 185.434 328.148 185.246 328.234 185.083C328.32 184.916 328.362 184.747 328.362 184.576C328.362 184.14 328.099 183.922 327.571 183.922C327.159 183.922 326.78 184.076 326.432 184.384L326.155 183.768C326.336 183.605 326.561 183.475 326.831 183.376C327.101 183.278 327.382 183.229 327.674 183.229C328.159 183.229 328.53 183.338 328.787 183.556C329.049 183.774 329.18 184.086 329.18 184.493C329.18 184.767 329.113 185.03 328.98 185.282C328.851 185.534 328.648 185.806 328.369 186.097L327.372 187.137H329.353V187.817H326.342Z" fill="white"/>
<path d="M331.616 187.881C331.08 187.881 330.67 187.68 330.387 187.278C330.104 186.871 329.962 186.294 329.962 185.545C329.962 184.788 330.104 184.213 330.387 183.819C330.67 183.425 331.08 183.229 331.616 183.229C332.156 183.229 332.566 183.425 332.845 183.819C333.128 184.213 333.269 184.786 333.269 185.539C333.269 186.292 333.128 186.871 332.845 187.278C332.562 187.68 332.152 187.881 331.616 187.881ZM331.616 187.207C331.907 187.207 332.122 187.075 332.259 186.809C332.401 186.54 332.471 186.116 332.471 185.539C332.471 184.965 332.401 184.55 332.259 184.294C332.122 184.033 331.907 183.902 331.616 183.902C331.328 183.902 331.114 184.033 330.972 184.294C330.831 184.55 330.76 184.965 330.76 185.539C330.76 186.116 330.831 186.54 330.972 186.809C331.114 187.075 331.328 187.207 331.616 187.207Z" fill="white"/>
<rect width="100" height="26" transform="matrix(4.37114e-08 1 1 -4.37114e-08 346 99)" fill="#7149B6"/>
<path d="M352.988 153V152.16H354.92V145.728L353.396 146.688L352.976 145.956L355.196 144.54H355.904V152.16H357.716V153H352.988ZM359.775 153V152.256L362.667 149.136C363.075 148.688 363.367 148.28 363.543 147.912C363.727 147.544 363.819 147.168 363.819 146.784C363.819 145.8 363.247 145.308 362.103 145.308C361.247 145.308 360.491 145.628 359.835 146.268L359.463 145.5C359.775 145.18 360.171 144.924 360.651 144.732C361.139 144.532 361.651 144.432 362.187 144.432C363.035 144.432 363.683 144.632 364.131 145.032C364.587 145.424 364.815 145.984 364.815 146.712C364.815 147.216 364.691 147.712 364.443 148.2C364.195 148.68 363.815 149.192 363.303 149.736L361.035 152.16H365.163V153H359.775Z" fill="white"/>
</g>
<rect x="222.5" y="99.5" width="149" height="99" rx="4.5" stroke="#7149B6"/>
</g>
<g clip-path="url(#clip4_24_21310)">
<rect x="382" y="99" width="150" height="100" rx="5" fill="#0F1015"/>
<rect width="100" height="26" transform="translate(408 99) rotate(90)" fill="#15161C"/>
<rect x="389.5" y="143.5" width="11" height="11" rx="5.5" stroke="white" stroke-opacity="0.1"/>
<g filter="url(#filter3_d_24_21310)">
<mask id="path-67-inside-3_24_21310" fill="white">
<path d="M415.5 122.25H425.5V175.75H415.5V122.25Z"/>
</mask>
<path d="M415.5 122.25V121.25H414.5V122.25H415.5ZM415.5 175.75H414.5V176.75H415.5V175.75ZM415.5 123.25H425.5V121.25H415.5V123.25ZM425.5 174.75H415.5V176.75H425.5V174.75ZM416.5 175.75V122.25H414.5V175.75H416.5Z" fill="#4F4566" mask="url(#path-67-inside-3_24_21310)"/>
<line x1="416" y1="148.5" x2="425" y2="148.5" stroke="#4F4566"/>
</g>
<path d="M434.88 127.148C433.768 127.148 432.924 126.856 432.348 126.272C431.772 125.68 431.484 124.82 431.484 123.692V118.58H432.468V123.644C432.468 125.396 433.272 126.272 434.88 126.272C436.472 126.272 437.268 125.396 437.268 123.644V118.58H438.252V123.692C438.252 124.82 437.964 125.68 437.388 126.272C436.82 126.856 435.984 127.148 434.88 127.148ZM443.01 127.148C442.346 127.148 441.746 127.064 441.21 126.896C440.674 126.72 440.21 126.468 439.818 126.14L440.166 125.348C440.574 125.66 441.002 125.892 441.45 126.044C441.898 126.196 442.418 126.272 443.01 126.272C443.73 126.272 444.262 126.14 444.606 125.876C444.958 125.604 445.134 125.248 445.134 124.808C445.134 124.456 445.006 124.176 444.75 123.968C444.502 123.76 444.082 123.596 443.49 123.476L442.242 123.224C441.49 123.064 440.926 122.804 440.55 122.444C440.182 122.076 439.998 121.588 439.998 120.98C439.998 120.476 440.126 120.036 440.382 119.66C440.646 119.284 441.01 118.992 441.474 118.784C441.938 118.576 442.474 118.472 443.082 118.472C443.65 118.472 444.178 118.564 444.666 118.748C445.154 118.924 445.566 119.18 445.902 119.516L445.554 120.284C445.194 119.956 444.814 119.72 444.414 119.576C444.014 119.424 443.566 119.348 443.07 119.348C442.438 119.348 441.934 119.496 441.558 119.792C441.182 120.08 440.994 120.464 440.994 120.944C440.994 121.328 441.11 121.632 441.342 121.856C441.582 122.08 441.97 122.244 442.506 122.348L443.754 122.612C444.562 122.78 445.158 123.036 445.542 123.38C445.934 123.716 446.13 124.176 446.13 124.76C446.13 125.232 446.002 125.648 445.746 126.008C445.498 126.368 445.138 126.648 444.666 126.848C444.202 127.048 443.65 127.148 443.01 127.148ZM447.657 127.04V118.58H450.513C451.881 118.58 452.937 118.944 453.681 119.672C454.425 120.392 454.797 121.436 454.797 122.804C454.797 124.172 454.425 125.22 453.681 125.948C452.937 126.676 451.881 127.04 450.513 127.04H447.657ZM448.641 126.2H450.441C452.649 126.2 453.753 125.068 453.753 122.804C453.753 120.548 452.649 119.42 450.441 119.42H448.641V126.2ZM458.112 127.04V119.432H455.04V118.58H462.18V119.432H459.108V127.04H458.112Z" fill="white" fill-opacity="0.9"/>
<path opacity="0.2" d="M498.5 123C498.5 131.263 491.784 137.961 483.5 137.961C475.216 137.961 468.5 131.263 468.5 123C468.5 114.738 475.216 108.04 483.5 108.04C491.784 108.04 498.5 114.738 498.5 123" fill="#00A478"/>
<path fill-rule="evenodd" clip-rule="evenodd" d="M478.405 113.042L475.472 119.223C475.461 119.246 475.458 119.272 475.462 119.297C475.467 119.322 475.479 119.345 475.498 119.362L483.419 126.977C483.441 126.999 483.471 127.011 483.502 127.011C483.534 127.011 483.564 126.999 483.586 126.977L491.507 119.363C491.525 119.345 491.538 119.322 491.543 119.297C491.547 119.272 491.544 119.246 491.532 119.223L488.6 113.043C488.59 113.022 488.575 113.004 488.556 112.992C488.537 112.98 488.514 112.973 488.492 112.973H478.514C478.491 112.973 478.469 112.979 478.449 112.992C478.43 113.004 478.415 113.022 478.405 113.042V113.042V113.042Z" fill="#00A478"/>
<path fill-rule="evenodd" clip-rule="evenodd" d="M484.52 119.857C484.463 119.862 484.169 119.879 483.514 119.879C482.993 119.879 482.622 119.863 482.493 119.857C480.478 119.768 478.975 119.417 478.975 118.995C478.975 118.574 480.478 118.223 482.493 118.133V119.507C482.624 119.516 483.002 119.539 483.523 119.539C484.148 119.539 484.462 119.513 484.518 119.507V118.133C486.528 118.223 488.028 118.575 488.028 118.995C488.028 119.416 486.529 119.767 484.518 119.857L484.52 119.857ZM484.52 117.991V116.761H487.325V114.886H479.687V116.761H482.492V117.991C480.212 118.096 478.498 118.549 478.498 119.092C478.498 119.635 480.212 120.087 482.492 120.193V124.134H484.519V120.191C486.794 120.086 488.506 119.634 488.506 119.091C488.506 118.549 486.795 118.096 484.519 117.991L484.52 117.991Z" fill="white"/>
<rect x="471.439" y="129.016" width="24.1273" height="9.02394" rx="2" fill="#0F1015"/>
<rect x="471.689" y="129.266" width="23.6273" height="8.52394" rx="1.75" stroke="white" stroke-opacity="0.1" stroke-width="0.5"/>
<path d="M474.348 135.897V132.059H472.791V131.372H476.728V132.059H475.171V135.897H474.348Z" fill="white"/>
<path d="M477.25 135.897V131.372H479.219C479.717 131.372 480.101 131.492 480.371 131.732C480.641 131.967 480.776 132.299 480.776 132.726C480.776 133.064 480.688 133.345 480.512 133.567C480.336 133.785 480.083 133.933 479.753 134.01C479.972 134.078 480.152 134.243 480.294 134.504L481.053 135.897H480.146L479.361 134.453C479.283 134.311 479.191 134.215 479.084 134.164C478.981 134.113 478.848 134.087 478.685 134.087H478.074V135.897H477.25ZM478.074 133.477H479.077C479.678 133.477 479.978 133.233 479.978 132.746C479.978 132.262 479.678 132.02 479.077 132.02H478.074V133.477Z" fill="white"/>
<path d="M483.74 135.961C483.268 135.961 482.863 135.867 482.524 135.678C482.19 135.486 481.932 135.216 481.752 134.87C481.572 134.519 481.482 134.106 481.482 133.631C481.482 133.156 481.572 132.746 481.752 132.399C481.932 132.053 482.19 131.785 482.524 131.597C482.863 131.404 483.268 131.308 483.74 131.308C484.045 131.308 484.332 131.355 484.602 131.449C484.877 131.543 485.102 131.678 485.278 131.854L485.008 132.508C484.815 132.346 484.617 132.228 484.416 132.155C484.214 132.078 483.998 132.04 483.766 132.04C483.307 132.04 482.957 132.179 482.717 132.457C482.477 132.731 482.357 133.122 482.357 133.631C482.357 134.14 482.477 134.534 482.717 134.812C482.957 135.09 483.307 135.229 483.766 135.229C483.998 135.229 484.214 135.193 484.416 135.12C484.617 135.043 484.815 134.923 485.008 134.761L485.278 135.415C485.102 135.586 484.877 135.721 484.602 135.82C484.332 135.914 484.045 135.961 483.74 135.961Z" fill="white"/>
<path d="M486.016 135.897V135.287L487.483 133.727C487.68 133.514 487.822 133.325 487.908 133.163C487.994 132.996 488.037 132.827 488.037 132.656C488.037 132.219 487.773 132.001 487.245 132.001C486.833 132.001 486.454 132.155 486.106 132.463L485.83 131.847C486.01 131.685 486.235 131.554 486.505 131.456C486.775 131.357 487.056 131.308 487.348 131.308C487.833 131.308 488.204 131.417 488.461 131.635C488.723 131.854 488.854 132.166 488.854 132.572C488.854 132.846 488.787 133.109 488.654 133.362C488.526 133.614 488.322 133.886 488.043 134.177L487.046 135.216H489.027V135.897H486.016Z" fill="white"/>
<path d="M491.29 135.961C490.754 135.961 490.344 135.76 490.061 135.358C489.778 134.951 489.636 134.373 489.636 133.625C489.636 132.868 489.778 132.292 490.061 131.899C490.344 131.505 490.754 131.308 491.29 131.308C491.83 131.308 492.24 131.505 492.519 131.899C492.802 132.292 492.943 132.865 492.943 133.618C492.943 134.371 492.802 134.951 492.519 135.358C492.236 135.76 491.826 135.961 491.29 135.961ZM491.29 135.287C491.581 135.287 491.796 135.154 491.933 134.889C492.075 134.619 492.146 134.196 492.146 133.618C492.146 133.045 492.075 132.63 491.933 132.373C491.796 132.112 491.581 131.982 491.29 131.982C491.002 131.982 490.788 132.112 490.646 132.373C490.505 132.63 490.434 133.045 490.434 133.618C490.434 134.196 490.505 134.619 490.646 134.889C490.788 135.154 491.002 135.287 491.29 135.287Z" fill="white"/>
<path d="M431.702 153V144.54H435.086C435.958 144.54 436.63 144.736 437.102 145.128C437.582 145.512 437.822 146.052 437.822 146.748C437.822 147.212 437.702 147.608 437.462 147.936C437.222 148.264 436.89 148.504 436.466 148.656C436.954 148.784 437.334 149.02 437.606 149.364C437.886 149.708 438.026 150.144 438.026 150.672C438.026 151.424 437.782 152 437.294 152.4C436.806 152.8 436.118 153 435.23 153H431.702ZM432.662 148.32H434.942C436.214 148.32 436.85 147.824 436.85 146.832C436.85 145.832 436.214 145.332 434.942 145.332H432.662V148.32ZM432.662 152.208H435.134C436.414 152.208 437.054 151.692 437.054 150.66C437.054 149.628 436.414 149.112 435.134 149.112H432.662V152.208ZM441.77 153V145.392H438.698V144.54H445.838V145.392H442.766V153H441.77ZM450.046 153.108C449.214 153.108 448.502 152.932 447.91 152.58C447.318 152.228 446.862 151.728 446.542 151.08C446.23 150.432 446.074 149.66 446.074 148.764C446.074 147.876 446.23 147.108 446.542 146.46C446.862 145.812 447.318 145.312 447.91 144.96C448.502 144.608 449.214 144.432 450.046 144.432C450.63 144.432 451.166 144.524 451.654 144.708C452.15 144.892 452.57 145.16 452.914 145.512L452.53 146.316C452.162 145.972 451.778 145.724 451.378 145.572C450.986 145.412 450.55 145.332 450.07 145.332C449.118 145.332 448.39 145.632 447.886 146.232C447.382 146.832 447.13 147.676 447.13 148.764C447.13 149.86 447.382 150.708 447.886 151.308C448.39 151.908 449.118 152.208 450.07 152.208C450.55 152.208 450.986 152.132 451.378 151.98C451.778 151.82 452.162 151.568 452.53 151.224L452.914 152.028C452.57 152.372 452.15 152.64 451.654 152.832C451.166 153.016 450.63 153.108 450.046 153.108Z" fill="white" fill-opacity="0.9"/>
<path opacity="0.2" d="M498.5 148.961C498.5 157.201 491.82 163.882 483.579 163.882C475.339 163.882 468.658 157.201 468.658 148.961C468.658 140.72 475.339 134.04 483.579 134.04C491.82 134.04 498.5 140.72 498.5 148.961Z" fill="#B8ABDC"/>
<g opacity="0.8">
<path d="M483.531 142.04L483.439 142.353V151.443L483.531 151.535L487.751 149.041L483.531 142.04Z" fill="white"/>
<path d="M483.531 142.04L479.312 149.041L483.531 151.535V147.123V142.04Z" fill="white"/>
<path d="M483.531 152.908L483.479 152.971V156.209L483.531 156.361L487.753 150.415L483.531 152.908Z" fill="white"/>
<path d="M483.531 156.361V152.908L479.312 150.415L483.531 156.361Z" fill="white"/>
<path d="M483.531 151.535L487.751 149.041L483.531 147.123V151.535Z" fill="white"/>
<path d="M479.312 149.041L483.531 151.535V147.123L479.312 149.041Z" fill="white"/>
</g>
<path d="M433.62 178.96V171.352H430.548V170.5H437.688V171.352H434.616V178.96H433.62ZM438.763 178.96V170.5H442.111C443.023 170.5 443.719 170.712 444.199 171.136C444.687 171.56 444.931 172.164 444.931 172.948C444.931 173.572 444.759 174.084 444.415 174.484C444.079 174.884 443.599 175.144 442.975 175.264C443.343 175.392 443.659 175.704 443.923 176.2L445.411 178.96H444.331L442.867 176.248C442.683 175.912 442.471 175.684 442.231 175.564C441.991 175.444 441.675 175.384 441.283 175.384H439.747V178.96H438.763ZM439.747 174.604H441.967C443.295 174.604 443.959 174.052 443.959 172.948C443.959 171.86 443.295 171.316 441.967 171.316H439.747V174.604ZM445.749 178.96L448.965 174.64L445.905 170.5H447.057L449.541 173.896L452.001 170.5H453.165L450.093 174.64L453.309 178.96H452.145L449.529 175.384L446.925 178.96H445.749Z" fill="white" fill-opacity="0.9"/>
<path opacity="0.2" d="M483.5 188.96C491.784 188.96 498.5 182.244 498.5 173.96C498.5 165.676 491.784 158.96 483.5 158.96C475.216 158.96 468.5 165.676 468.5 173.96C468.5 182.244 475.216 188.96 483.5 188.96Z" fill="black"/>
<path fill-rule="evenodd" clip-rule="evenodd" d="M488.616 171.456L488.33 171.253C487.884 170.937 487.419 170.607 486.963 170.28C486.95 170.27 486.938 170.261 486.923 170.252C486.861 170.205 486.791 170.155 486.705 170.127L486.699 170.124C485.344 169.792 483.969 169.452 482.629 169.121L482.629 169.121L482.245 169.026C481.583 168.863 480.922 168.7 480.26 168.536L480.26 168.536L480.259 168.536L480.259 168.536C479.597 168.373 478.935 168.209 478.273 168.046L478.273 168.046L478.273 168.046L478.273 168.046L478.273 168.046C478.239 168.037 478.205 168.027 478.169 168.018C478.049 167.984 477.911 167.947 477.764 167.965C477.721 167.971 477.684 167.987 477.65 168.009L477.613 168.04C477.555 168.096 477.525 168.167 477.509 168.208L477.5 168.233V168.376L477.506 168.398C478.136 170.187 478.778 171.996 479.409 173.776C479.618 174.364 479.825 174.948 480.031 175.528L480.604 177.143L480.604 177.144L480.605 177.146L480.605 177.146C481.061 178.431 481.523 179.733 481.978 181.019C482.018 181.143 482.132 181.224 482.273 181.237H482.303C482.435 181.237 482.552 181.171 482.61 181.066L485.039 177.472C485.335 177.036 485.631 176.598 485.927 176.161L485.927 176.16L485.928 176.158C486.224 175.721 486.52 175.283 486.815 174.847C486.937 174.668 487.058 174.488 487.179 174.308L487.179 174.308C487.3 174.129 487.421 173.949 487.542 173.77L487.592 173.696L487.592 173.696C487.975 173.128 488.369 172.545 488.76 171.975L488.782 171.944V171.907C488.791 171.798 488.794 171.574 488.616 171.456ZM485.77 172.765C485.557 172.878 485.342 172.992 485.126 173.106L485.126 173.106C484.764 173.299 484.398 173.493 484.03 173.686L485.055 172.572C485.426 172.166 485.811 171.748 486.192 171.334L486.362 171.151L486.371 171.141C486.408 171.091 486.454 171.045 486.503 170.995L486.528 170.97L486.528 170.97C486.554 170.943 486.582 170.917 486.607 170.886C486.834 171.045 487.064 171.207 487.285 171.365C487.444 171.48 487.607 171.595 487.772 171.711C487.098 172.059 486.423 172.417 485.77 172.765ZM482.96 174.081C483.411 173.593 483.865 173.098 484.303 172.616L484.69 172.195L484.69 172.195C485.144 171.699 485.606 171.195 486.067 170.696C485.177 170.477 484.287 170.258 483.397 170.038L483.395 170.038C482.505 169.819 481.616 169.6 480.727 169.381C480.411 169.3 480.089 169.222 479.779 169.147C479.426 169.063 479.067 168.976 478.712 168.883C478.73 168.905 478.748 168.927 478.766 168.949L478.766 168.949L478.766 168.949C478.806 168.997 478.845 169.045 478.883 169.094C478.911 169.128 478.938 169.163 478.966 169.197C479.025 169.271 479.084 169.345 479.144 169.415L479.147 169.418L479.738 170.138L480.328 170.858C481.193 171.913 482.086 173.005 482.96 174.081ZM482.789 178.407L482.789 178.407L482.789 178.407C482.814 178.168 482.839 177.925 482.862 177.687L482.889 177.421C482.908 177.243 482.926 177.065 482.944 176.893L482.964 176.707C483.001 176.352 483.039 175.988 483.07 175.63L483.079 175.556C483.11 175.288 483.141 175.011 483.159 174.734C483.193 174.716 483.23 174.697 483.27 174.681C483.281 174.676 483.293 174.671 483.304 174.665L483.304 174.665C483.339 174.65 483.373 174.634 483.408 174.613L483.408 174.613L483.408 174.613C484.116 174.236 484.825 173.86 485.536 173.487C486.245 173.113 486.972 172.728 487.693 172.345C487.036 173.309 486.377 174.283 485.739 175.232L485.379 175.764L485.379 175.764C484.945 176.407 484.503 177.06 484.064 177.705C483.939 177.892 483.811 178.08 483.684 178.267L483.684 178.267C483.587 178.411 483.49 178.554 483.395 178.695C483.15 179.055 482.898 179.426 482.653 179.796C482.684 179.423 482.721 179.046 482.76 178.679C482.77 178.589 482.779 178.498 482.789 178.407ZM478.444 169.504C478.458 169.542 478.471 169.579 478.485 169.617C479.178 171.575 479.871 173.53 480.564 175.485C480.911 176.462 481.257 177.44 481.604 178.418L481.932 179.342C481.975 179.469 482.021 179.6 482.067 179.724C482.073 179.741 482.08 179.758 482.086 179.776C482.096 179.804 482.107 179.833 482.116 179.861C482.129 179.743 482.141 179.624 482.153 179.506C482.167 179.364 482.181 179.223 482.196 179.084C482.202 179.03 482.207 178.976 482.213 178.922C482.272 178.357 482.333 177.778 482.383 177.204L482.386 177.183C482.386 177.183 482.435 176.753 482.457 176.564C482.46 176.533 482.464 176.501 482.468 176.47C482.48 176.363 482.493 176.255 482.5 176.147V176.144C482.524 175.923 482.546 175.705 482.567 175.487L482.567 175.487C482.581 175.362 482.594 175.235 482.607 175.107C482.627 174.916 482.646 174.724 482.668 174.532C482.585 174.438 482.506 174.34 482.428 174.244C482.401 174.21 482.374 174.177 482.346 174.143C482.267 174.044 482.184 173.941 482.101 173.845C481.821 173.5 481.541 173.159 481.261 172.817C481.12 172.647 480.98 172.476 480.84 172.305C480.027 171.315 479.193 170.295 478.365 169.281C478.39 169.353 478.417 169.429 478.444 169.504Z" fill="#FD5353"/>
</g>
<rect x="382.5" y="99.5" width="149" height="99" rx="4.5" stroke="#4F4566"/>
</g>
</g>
<g opacity="0.5">
<path d="M661.935 266.403L661.888 266.383C661.845 266.365 661.782 266.338 661.698 266.303C661.53 266.233 661.277 266.129 660.939 265.993C660.262 265.724 659.244 265.327 657.875 264.822C655.135 263.812 650.99 262.37 645.365 260.641C634.113 257.181 616.939 252.57 593.239 247.961C546.127 238.795 473.216 229.638 369.796 229.526V229.521H291.991V229.526C188.657 229.643 115.799 238.798 68.7178 247.961C45.0255 252.57 27.8561 257.181 16.6085 260.641C10.9846 262.37 6.84179 263.812 4.10286 264.822C2.73392 265.327 1.71494 265.724 1.03897 265.993C0.700966 266.129 0.447984 266.233 0.27999 266.303C0.196008 266.338 0.131984 266.365 0.0899937 266.383L0.0429981 266.403L0.0299981 266.408L0.0270074 266.409C0.0260004 266.41 0.0270074 266.41 0.113003 266.776C0.200006 267.142 0.198999 267.142 0.200006 267.141L0.202997 267.14L0.213983 267.135L0.260002 267.116C0.300985 267.098 0.364002 267.072 0.446977 267.037C0.612987 266.968 0.863986 266.865 1.19997 266.73C1.87195 266.461 2.8869 266.065 4.25188 265.562C6.98277 264.556 11.1186 263.117 16.7344 261.39C27.9671 257.935 45.1195 253.328 68.7977 248.721C116.154 239.505 189.609 230.289 293.982 230.289V230.234H367.9V230.289C472.308 230.289 545.786 239.505 593.158 248.721C616.844 253.328 634.003 257.935 645.239 261.39C650.857 263.117 654.994 264.556 657.726 265.562C659.091 266.065 660.105 266.461 660.778 266.73C661.114 266.865 661.365 266.968 661.531 267.037C661.614 267.072 661.676 267.098 661.718 267.116L661.764 267.135L661.775 267.14L661.778 267.141C661.778 267.142 661.779 267.142 661.865 266.776C661.952 266.41 661.951 266.41 661.95 266.409L661.947 266.408L661.935 266.403ZM593.173 224.47C616.861 227.542 634.022 230.614 645.261 232.918C650.88 234.069 655.019 235.028 657.752 235.7C659.117 236.035 660.132 236.298 660.805 236.478C661.142 236.568 661.393 236.637 661.559 236.684C661.643 236.707 661.705 236.724 661.746 236.736L661.793 236.749L661.807 236.753C661.808 236.754 661.808 236.754 661.867 236.378C661.926 236.002 661.926 236.002 661.925 236.002L661.91 235.997L661.863 235.984C661.821 235.972 661.758 235.955 661.673 235.931C661.505 235.885 661.253 235.815 660.915 235.725C660.239 235.545 659.221 235.28 657.853 234.944C655.115 234.271 650.971 233.311 645.346 232.158C634.097 229.852 616.925 226.779 593.227 223.705C546.12 217.596 473.213 211.49 369.796 211.416V211.413H291.991V211.416C188.66 211.494 115.807 217.597 68.7298 223.705C45.0395 226.779 27.8731 229.852 16.6274 232.158C11.0046 233.311 6.86278 234.271 4.12487 234.944C2.75592 235.28 1.73896 235.545 1.06295 235.725C0.724983 235.815 0.472977 235.885 0.304983 235.931C0.221001 235.955 0.157008 235.972 0.114987 235.984L0.0679912 235.997L0.0530076 236.002C0.0520005 236.002 0.0520005 236.002 0.110989 236.378C0.170008 236.754 0.170008 236.754 0.170985 236.753L0.184992 236.749L0.231987 236.736C0.273002 236.724 0.335988 236.707 0.418993 236.684C0.58598 236.637 0.836978 236.568 1.17297 236.478C1.84595 236.298 2.85989 236.035 4.22588 235.7C6.95778 235.028 11.0956 234.069 16.7125 232.918C27.9471 230.614 45.1035 227.542 68.7838 224.47C116.145 218.326 189.603 212.181 293.98 212.181V212.125H367.902V212.181C472.314 212.181 545.796 218.326 593.173 224.47ZM593.183 201.22C616.873 202.947 634.037 204.675 645.277 205.971C650.898 206.619 655.037 207.159 657.771 207.537C659.137 207.726 660.153 207.875 660.827 207.976C661.164 208.026 661.415 208.065 661.582 208.091C661.665 208.104 661.728 208.114 661.769 208.121L661.83 208.13C661.831 208.131 661.831 208.131 661.865 207.749C661.899 207.368 661.898 207.368 661.898 207.368L661.836 207.358C661.794 207.351 661.731 207.341 661.647 207.328C661.479 207.302 661.227 207.263 660.889 207.212C660.214 207.111 659.198 206.962 657.829 206.773C655.092 206.395 650.949 205.854 645.326 205.206C634.079 203.909 616.909 202.18 593.213 200.453C546.11 197.016 473.208 193.582 369.796 193.54V193.538H291.991V193.54C188.665 193.584 115.815 197.017 68.7428 200.453C45.0545 202.18 27.8901 203.909 16.6475 205.206C11.0256 205.854 6.88378 206.395 4.14788 206.773C2.77991 206.962 1.76294 207.111 1.08798 207.212C0.749976 207.263 0.498977 207.302 0.330983 207.328C0.247001 207.341 0.183985 207.351 0.141994 207.358L0.0799842 207.368C0.0790077 207.368 0.0790077 207.368 0.113003 207.749C0.146999 208.131 0.146999 208.131 0.148006 208.13L0.208001 208.121C0.249992 208.114 0.312978 208.104 0.395983 208.091C0.56297 208.065 0.813969 208.026 1.15096 207.976C1.82395 207.875 2.8389 207.726 4.20586 207.537C6.93877 207.159 11.0766 206.619 16.6955 205.971C27.9321 204.675 45.0915 202.947 68.7738 201.22C116.139 197.763 189.601 194.307 293.982 194.307V194.251H367.9V194.307C472.316 194.307 545.802 197.763 593.183 201.22ZM593.187 176.72C616.878 177.968 634.042 179.217 645.284 180.154C650.904 180.622 655.044 181.012 657.779 181.285C659.145 181.421 660.161 181.527 660.835 181.6C661.172 181.637 661.423 181.665 661.59 181.684L661.778 181.705L661.839 181.712C661.84 181.712 661.84 181.712 661.864 181.33C661.889 180.947 661.889 180.947 661.888 180.947L661.826 180.94L661.637 180.919C661.47 180.9 661.218 180.871 660.88 180.835C660.205 180.761 659.188 180.655 657.821 180.518C655.084 180.245 650.942 179.854 645.318 179.386C634.072 178.449 616.904 177.202 593.209 175.953C546.107 173.472 473.206 170.991 369.796 170.961V170.96H291.991V170.961C188.666 170.993 115.818 173.473 68.7478 175.953C45.0605 177.202 27.8961 178.449 16.6545 179.386C11.0336 179.854 6.89278 180.245 4.15688 180.518C2.78891 180.655 1.77295 180.761 1.09796 180.835C0.760962 180.871 0.507979 180.9 0.339985 180.919L0.152003 180.94L0.0899937 180.947C0.0889866 180.947 0.0880101 180.947 0.113003 181.33C0.137996 181.712 0.137996 181.712 0.139003 181.712L0.200006 181.705L0.387988 181.684C0.554975 181.665 0.805974 181.637 1.14297 181.6C1.81693 181.527 2.83191 181.421 4.19887 181.285C6.93279 181.012 11.0707 180.622 16.6895 180.154C27.9271 179.217 45.0865 177.968 68.7698 176.72C116.136 174.224 189.601 171.727 293.983 171.727V171.672H367.9V171.727C472.317 171.727 545.804 174.224 593.187 176.72ZM593.195 151.722C616.888 152.106 634.054 152.49 645.297 152.778C650.918 152.922 655.059 153.042 657.794 153.125C659.161 153.167 660.177 153.201 660.852 153.224C661.189 153.235 661.44 153.243 661.608 153.249L661.857 153.258C661.858 153.258 661.858 153.257 661.866 152.874C661.873 152.49 661.873 152.49 661.872 152.49L661.622 152.483C661.455 152.477 661.203 152.467 660.866 152.456C660.191 152.433 659.174 152.4 657.807 152.358C655.071 152.274 650.93 152.155 645.308 152.011C634.063 151.723 616.896 151.339 593.202 150.955C546.103 150.192 473.204 149.427 369.796 149.418V149.417H291.991V149.418C188.668 149.428 115.823 150.192 68.7547 150.955C45.0685 151.339 27.9061 151.723 16.6654 152.011C11.0447 152.155 6.90477 152.274 4.16988 152.358C2.80292 152.4 1.78595 152.433 1.11196 152.456C0.774969 152.467 0.52397 152.477 0.355976 152.483L0.105984 152.49C0.105008 152.49 0.104001 152.49 0.111996 152.874C0.119991 153.257 0.119991 153.258 0.120999 153.258L0.369983 153.249C0.53697 153.243 0.788976 153.235 1.12597 153.224C1.79993 153.201 2.81592 153.167 4.18288 153.125C6.91677 153.042 11.0566 152.922 16.6765 152.778C27.9161 152.49 45.0755 152.106 68.7608 151.722C116.13 150.954 189.597 150.186 293.982 150.186V150.13H367.901V150.186C472.32 150.186 545.81 150.954 593.195 151.722ZM68.7758 124.705C45.0925 123.456 27.9331 122.208 16.6955 121.272C11.0766 120.805 6.93877 120.415 4.20485 120.142C2.83792 120.006 1.82294 119.898 1.14895 119.825C0.811985 119.789 0.55998 119.761 0.392993 119.742L0.205987 119.721L0.144985 119.713C0.144008 119.713 0.143001 119.713 0.118984 120.096C0.0939913 120.479 0.0949984 120.479 0.0960054 120.479L0.157985 120.486L0.345997 120.507C0.513991 120.526 0.765966 120.554 1.10296 120.591C1.77796 120.664 2.79492 120.772 4.16286 120.908C6.89876 121.18 11.0396 121.571 16.6605 122.039C27.9031 122.975 45.0665 124.224 68.7538 125.472C115.823 127.953 188.67 130.433 291.991 130.465V130.466H369.796V130.465C473.204 130.435 546.102 127.954 593.203 125.472C616.898 124.224 634.066 122.975 645.313 122.039C650.936 121.571 655.078 121.18 657.815 120.908C659.182 120.772 660.199 120.664 660.874 120.591C661.212 120.554 661.464 120.526 661.632 120.507L661.82 120.486L661.882 120.479C661.883 120.479 661.883 120.479 661.859 120.096C661.834 119.713 661.834 119.713 661.833 119.713L661.772 119.721L661.584 119.742C661.417 119.761 661.166 119.789 660.829 119.825C660.155 119.898 659.139 120.006 657.773 120.142C655.039 120.415 650.899 120.805 645.278 121.272C634.036 122.208 616.872 123.456 593.181 124.705C545.798 127.201 472.311 129.698 367.894 129.698V129.753H293.989V129.698C189.606 129.698 116.142 127.201 68.7758 124.705ZM68.7798 99.9558C45.0975 98.2269 27.9381 96.5 16.7015 95.2041C11.0826 94.5561 6.94478 94.0152 4.21187 93.6372C2.84491 93.4482 1.82993 93.3012 1.15698 93.2002C0.819981 93.1492 0.568982 93.1102 0.401995 93.0832C0.317983 93.0702 0.256004 93.0622 0.213983 93.0552L0.153987 93.0442C0.15301 93.0442 0.15301 93.0452 0.118984 93.4262C0.0849889 93.8082 0.0849889 93.8072 0.085996 93.8072L0.148006 93.8182C0.189997 93.8252 0.252983 93.8342 0.336995 93.8482C0.504989 93.8742 0.755988 93.9132 1.09396 93.9632C1.76895 94.0652 2.78592 94.2122 4.15386 94.4021C6.88979 94.7801 11.0317 95.3201 16.6534 95.969C27.8961 97.265 45.0605 98.9939 68.7488 100.723C115.82 104.158 188.668 107.59 291.991 107.634V107.636H369.796V107.634C473.205 107.592 546.105 104.159 593.208 100.723C616.903 98.9939 634.073 97.265 645.32 95.969C650.943 95.3201 655.086 94.7801 657.823 94.4021C659.191 94.2122 660.208 94.0652 660.883 93.9632C661.221 93.9132 661.473 93.8742 661.641 93.8482C661.725 93.8342 661.788 93.8252 661.83 93.8182L661.892 93.8072C661.893 93.8072 661.893 93.8082 661.859 93.4262C661.825 93.0452 661.825 93.0442 661.824 93.0442L661.763 93.0552C661.722 93.0622 661.66 93.0702 661.576 93.0832C661.409 93.1102 661.158 93.1492 660.821 93.2002C660.147 93.3012 659.132 93.4482 657.766 93.6372C655.032 94.0152 650.892 94.5561 645.272 95.2041C634.031 96.5 616.867 98.2269 593.177 99.9558C545.796 103.412 472.31 106.869 367.894 106.869V106.924H293.988V106.869C189.607 106.869 116.145 103.412 68.7798 99.9558ZM68.8058 51.9548C45.1275 47.3471 27.9741 42.7404 16.7415 39.2856C11.1256 37.5587 6.98976 36.1198 4.25886 35.1128C2.89392 34.6099 1.87994 34.2139 1.20797 33.9449C0.871981 33.8099 0.619975 33.7069 0.453995 33.6379C0.37099 33.6029 0.308981 33.5769 0.267997 33.5589L0.221978 33.5389L0.210992 33.5349L0.208001 33.5329C0.208001 33.5329 0.206994 33.5329 0.120999 33.8989C0.0339957 34.2649 0.0339957 34.2649 0.0350028 34.2649L0.0379934 34.2669L0.0499864 34.2719L0.097989 34.2919C0.14001 34.3099 0.204004 34.3369 0.287985 34.3719C0.455979 34.4419 0.708992 34.5459 1.04696 34.6808C1.72294 34.9518 2.74091 35.3488 4.10985 35.8538C6.84878 36.8637 10.9927 38.3046 16.6165 40.0345C27.8641 43.4933 45.0335 48.104 68.7258 52.7147C115.806 61.8762 188.661 71.0306 291.991 71.1486V71.1546H369.796V71.1496C473.211 71.0376 546.121 61.8792 593.231 52.7147C616.931 48.104 634.105 43.4933 645.357 40.0345C650.983 38.3046 655.128 36.8637 657.867 35.8538C659.236 35.3488 660.254 34.9518 660.931 34.6808C661.269 34.5459 661.522 34.4419 661.69 34.3719C661.775 34.3369 661.838 34.3099 661.88 34.2919L661.928 34.2719L661.94 34.2669L661.943 34.2649C661.943 34.2649 661.944 34.2649 661.857 33.8989C661.771 33.5329 661.771 33.5329 661.77 33.5329L661.767 33.5349L661.756 33.5389L661.71 33.5589C661.669 33.5769 661.607 33.6029 661.523 33.6379C661.357 33.7069 661.106 33.8099 660.77 33.9449C660.097 34.2139 659.083 34.6099 657.718 35.1128C654.986 36.1198 650.849 37.5587 645.231 39.2856C633.995 42.7404 616.836 47.3471 593.15 51.9548C545.778 61.1702 472.301 70.3866 367.893 70.3866L293.99 70.4416V70.3866C189.617 70.3866 116.162 61.1702 68.8058 51.9548ZM661.856 0.345972C661.734 0 661.733 0 661.733 0L661.73 0.00199878L661.719 0.00900213L661.673 0.037992C661.632 0.0639914 661.57 0.103997 661.487 0.155996C661.321 0.259978 661.07 0.413976 660.734 0.615959C660.062 1.01994 659.049 1.6119 657.684 2.36686C654.954 3.87577 650.818 6.03362 645.201 8.62347C633.968 13.8041 616.812 20.7137 593.13 27.6243C545.764 41.4454 472.293 51.4288 367.892 51.4288H293.991C189.624 51.4288 116.176 41.4454 68.8268 27.6243C45.1515 20.7137 28.0011 13.8041 16.7715 8.62347C11.1566 6.03362 7.02177 3.87577 4.29286 2.36686C2.92791 1.6119 1.91495 1.01994 1.24297 0.615959C0.906984 0.413976 0.656992 0.259978 0.490982 0.155996C0.407976 0.103997 0.345997 0.0639914 0.304983 0.037992L0.258994 0.00900213L0.247978 0.00199878L0.244987 0C0.244987 0 0.244987 0 0.122006 0.345972C-0.00100679 0.691958 2.6134e-07 0.69295 2.6134e-07 0.69295L0.00299089 0.694964L0.0150144 0.702959L0.0629865 0.732956C0.105008 0.759947 0.169001 0.799953 0.252983 0.852944C0.421984 0.957933 0.674966 1.11494 1.01297 1.31791C1.68995 1.7249 2.70893 2.31986 4.07888 3.07781C6.81878 4.59272 10.9636 6.75658 16.5884 9.35142C27.8391 14.5411 45.0105 21.4587 68.7068 28.3752C115.793 42.1194 188.656 52.0628 291.991 52.1908V52.1918H369.796V52.1908C473.218 52.0688 546.132 42.1234 593.249 28.3752C616.953 21.4587 634.13 14.5411 645.384 9.35142C651.012 6.75658 655.158 4.59272 657.899 3.07781C659.268 2.31986 660.287 1.7249 660.964 1.31791C661.303 1.11494 661.556 0.957933 661.725 0.852944C661.809 0.799953 661.872 0.759947 661.915 0.732956L661.963 0.702959L661.975 0.694964L661.978 0.69295C661.978 0.69295 661.979 0.691958 661.856 0.345972ZM68.7928 76.0453C45.1125 72.9725 27.9561 69.9007 16.7214 67.5978C11.1046 66.4459 6.96776 65.4859 4.23585 64.815C2.8699 64.479 1.85495 64.215 1.18197 64.035C0.845981 63.945 0.594982 63.876 0.427995 63.83C0.34499 63.807 0.282004 63.79 0.24099 63.778L0.195001 63.765L0.180994 63.761C0.180994 63.761 0.179987 63.76 0.120999 64.136C0.06201 64.512 0.06201 64.512 0.0629865 64.512L0.0780006 64.517L0.124996 64.53C0.166987 64.542 0.230004 64.56 0.313985 64.583C0.481979 64.63 0.734962 64.699 1.07296 64.789C1.74894 64.969 2.7659 65.2339 4.13488 65.5709C6.87276 66.2439 11.0136 67.2048 16.6364 68.3568C27.8821 70.6626 45.0485 73.7364 68.7388 76.8092C115.814 82.9159 188.665 89.0195 291.991 89.0975V89.1015H369.796V89.0975C473.208 89.0225 546.112 82.9179 593.218 76.8092C616.915 73.7364 634.087 70.6626 645.336 68.3568C650.961 67.2048 655.105 66.2439 657.843 65.5709C659.211 65.2339 660.229 64.969 660.905 64.789C661.243 64.699 661.496 64.63 661.664 64.583C661.748 64.56 661.811 64.542 661.853 64.53L661.9 64.517L661.915 64.512C661.916 64.512 661.916 64.512 661.857 64.136C661.798 63.76 661.798 63.761 661.797 63.761L661.783 63.765L661.737 63.778C661.695 63.79 661.633 63.807 661.55 63.83C661.383 63.876 661.132 63.945 660.795 64.035C660.122 64.215 659.107 64.479 657.742 64.815C655.009 65.4859 650.871 66.4459 645.251 67.5978C634.013 69.9007 616.851 72.9725 593.163 76.0453C545.786 82.1889 472.305 88.3335 367.892 88.3335V88.3885H293.99V88.3335C189.613 88.3335 116.154 82.1889 68.7928 76.0453Z" fill="url(#paint5_linear_24_21310)"/>
</g>
<mask id="mask2_24_21310" style="mask-type:luminance" maskUnits="userSpaceOnUse" x="27" y="47" width="55" height="54">
<path d="M54.5736 47.1772C69.3258 47.1772 81.3035 59.1546 81.3035 73.9063C81.3035 88.6581 69.3258 100.635 54.5736 100.635C39.8214 100.635 27.8438 88.6581 27.8438 73.9063C27.8438 59.1546 39.8214 47.1772 54.5736 47.1772Z" fill="url(#paint6_radial_24_21310)"/>
</mask>
<g mask="url(#mask2_24_21310)">
<path d="M54.5736 47.1772C69.3258 47.1772 81.3035 59.1546 81.3035 73.9063C81.3035 88.6581 69.3258 100.635 54.5736 100.635C39.8214 100.635 27.8438 88.6581 27.8438 73.9063C27.8438 59.1546 39.8214 47.1772 54.5736 47.1772Z" fill="url(#paint7_radial_24_21310)"/>
</g>
<mask id="mask3_24_21310" style="mask-type:luminance" maskUnits="userSpaceOnUse" x="528" y="171" width="54" height="55">
<path d="M555.068 171.943C569.82 171.943 581.798 183.92 581.798 198.672C581.798 213.424 569.82 225.401 555.068 225.401C540.316 225.401 528.338 213.424 528.338 198.672C528.338 183.92 540.316 171.943 555.068 171.943Z" fill="url(#paint8_radial_24_21310)"/>
</mask>
<g mask="url(#mask3_24_21310)">
<path d="M555.068 171.943C569.82 171.943 581.798 183.92 581.798 198.672C581.798 213.424 569.82 225.401 555.068 225.401C540.316 225.401 528.338 213.424 528.338 198.672C528.338 183.92 540.316 171.943 555.068 171.943Z" fill="url(#paint9_radial_24_21310)"/>
</g>
<defs>
<filter id="filter0_d_24_21310" x="202.305" y="129.367" width="14.2199" height="48.5849" filterUnits="userSpaceOnUse" color-interpolation-filters="sRGB">
<feFlood flood-opacity="0" result="BackgroundImageFix"/>
<feColorMatrix in="SourceAlpha" type="matrix" values="0 0 0 0 0 0 0 0 0 0 0 0 0 0 0 0 0 0 127 0" result="hardAlpha"/>
<feOffset dy="3.16"/>
<feGaussianBlur stdDeviation="1.58"/>
<feComposite in2="hardAlpha" operator="out"/>
<feColorMatrix type="matrix" values="0 0 0 0 0 0 0 0 0 0 0 0 0 0 0 0 0 0 0.25 0"/>
<feBlend mode="normal" in2="BackgroundImageFix" result="effect1_dropShadow_24_21310"/>
<feBlend mode="normal" in="SourceGraphic" in2="effect1_dropShadow_24_21310" result="shape"/>
</filter>
<filter id="filter1_d_24_21310" x="198" y="79" width="198" height="148" filterUnits="userSpaceOnUse" color-interpolation-filters="sRGB">
<feFlood flood-opacity="0" result="BackgroundImageFix"/>
<feColorMatrix in="SourceAlpha" type="matrix" values="0 0 0 0 0 0 0 0 0 0 0 0 0 0 0 0 0 0 127 0" result="hardAlpha"/>
<feOffset dy="4"/>
<feGaussianBlur stdDeviation="12"/>
<feComposite in2="hardAlpha" operator="out"/>
<feColorMatrix type="matrix" values="0 0 0 0 0 0 0 0 0 0 0 0 0 0 0 0 0 0 1 0"/>
<feBlend mode="normal" in2="BackgroundImageFix" result="effect1_dropShadow_24_21310"/>
<feBlend mode="normal" in="SourceGraphic" in2="effect1_dropShadow_24_21310" result="shape"/>
</filter>
<filter id="filter2_d_24_21310" x="251.5" y="122.25" width="18" height="61.5" filterUnits="userSpaceOnUse" color-interpolation-filters="sRGB">
<feFlood flood-opacity="0" result="BackgroundImageFix"/>
<feColorMatrix in="SourceAlpha" type="matrix" values="0 0 0 0 0 0 0 0 0 0 0 0 0 0 0 0 0 0 127 0" result="hardAlpha"/>
<feOffset dy="4"/>
<feGaussianBlur stdDeviation="2"/>
<feComposite in2="hardAlpha" operator="out"/>
<feColorMatrix type="matrix" values="0 0 0 0 0 0 0 0 0 0 0 0 0 0 0 0 0 0 0.25 0"/>
<feBlend mode="normal" in2="BackgroundImageFix" result="effect1_dropShadow_24_21310"/>
<feBlend mode="normal" in="SourceGraphic" in2="effect1_dropShadow_24_21310" result="shape"/>
</filter>
<filter id="filter3_d_24_21310" x="411.5" y="122.25" width="18" height="61.5" filterUnits="userSpaceOnUse" color-interpolation-filters="sRGB">
<feFlood flood-opacity="0" result="BackgroundImageFix"/>
<feColorMatrix in="SourceAlpha" type="matrix" values="0 0 0 0 0 0 0 0 0 0 0 0 0 0 0 0 0 0 127 0" result="hardAlpha"/>
<feOffset dy="4"/>
<feGaussianBlur stdDeviation="2"/>
<feComposite in2="hardAlpha" operator="out"/>
<feColorMatrix type="matrix" values="0 0 0 0 0 0 0 0 0 0 0 0 0 0 0 0 0 0 0.25 0"/>
<feBlend mode="normal" in2="BackgroundImageFix" result="effect1_dropShadow_24_21310"/>
<feBlend mode="normal" in="SourceGraphic" in2="effect1_dropShadow_24_21310" result="shape"/>
</filter>
<linearGradient id="paint0_linear_24_21310" x1="331" y1="10.3046" x2="331" y2="247.718" gradientUnits="userSpaceOnUse">
<stop stop-color="#21242A"/>
<stop offset="0.11" stop-color="#342446"/>
<stop offset="0.2" stop-color="#472461"/>
<stop offset="0.5" stop-color="#472461"/>
<stop offset="0.8" stop-color="#472461"/>
<stop offset="0.9" stop-color="#342446"/>
<stop offset="1" stop-color="#21242A"/>
</linearGradient>
<radialGradient id="paint1_radial_24_21310" cx="0" cy="0" r="1" gradientUnits="userSpaceOnUse" gradientTransform="translate(163.09 77.1235) rotate(90) scale(27.1912 13.596)">
<stop stop-color="white"/>
<stop offset="0.5" stop-color="white" stop-opacity="0.5"/>
<stop offset="1" stop-color="white" stop-opacity="0"/>
</radialGradient>
<radialGradient id="paint2_radial_24_21310" cx="0" cy="0" r="1" gradientUnits="userSpaceOnUse" gradientTransform="translate(163.09 77.1235) rotate(90) scale(27.1912 13.596)">
<stop stop-color="#FC3D7D"/>
<stop offset="0.55" stop-color="#FC3D7D"/>
<stop offset="1" stop-color="#FC3D7D"/>
</radialGradient>
<radialGradient id="paint3_radial_24_21310" cx="0" cy="0" r="1" gradientUnits="userSpaceOnUse" gradientTransform="translate(501.579 188.866) rotate(90) scale(27.1912 13.596)">
<stop stop-color="white"/>
<stop offset="0.5" stop-color="white" stop-opacity="0.5"/>
<stop offset="1" stop-color="white" stop-opacity="0"/>
</radialGradient>
<radialGradient id="paint4_radial_24_21310" cx="0" cy="0" r="1" gradientUnits="userSpaceOnUse" gradientTransform="translate(501.579 188.866) rotate(90) scale(27.1912 13.596)">
<stop stop-color="#FC3D7D"/>
<stop offset="0.55" stop-color="#FC3D7D"/>
<stop offset="1" stop-color="#FC3D7D"/>
</radialGradient>
<linearGradient id="paint5_linear_24_21310" x1="-0.799961" y1="133.439" x2="669.778" y2="133.039" gradientUnits="userSpaceOnUse">
<stop offset="0.1" stop-color="#5B21FF"/>
<stop offset="0.14" stop-color="#8330FF"/>
<stop offset="0.18" stop-color="#AA3FFF"/>
<stop offset="0.47" stop-color="#C740C7"/>
<stop offset="0.75" stop-color="#E54190"/>
<stop offset="0.88" stop-color="#EE495F"/>
<stop offset="1" stop-color="#F8522E"/>
</linearGradient>
<radialGradient id="paint6_radial_24_21310" cx="0" cy="0" r="1" gradientUnits="userSpaceOnUse" gradientTransform="translate(54.5736 73.9063) scale(27.0508 27.05)">
<stop offset="0.18" stop-color="white"/>
<stop offset="0.59" stop-color="white" stop-opacity="0.5"/>
<stop offset="1" stop-color="white" stop-opacity="0"/>
</radialGradient>
<radialGradient id="paint7_radial_24_21310" cx="0" cy="0" r="1" gradientUnits="userSpaceOnUse" gradientTransform="translate(54.5736 73.9063) scale(27.0508 27.05)">
<stop stop-color="#E72452"/>
<stop offset="0.47" stop-color="#942667"/>
<stop offset="0.93" stop-color="#41287B"/>
</radialGradient>
<radialGradient id="paint8_radial_24_21310" cx="0" cy="0" r="1" gradientUnits="userSpaceOnUse" gradientTransform="translate(555.068 198.672) scale(27.0508 27.05)">
<stop offset="0.18" stop-color="white"/>
<stop offset="0.59" stop-color="white" stop-opacity="0.5"/>
<stop offset="1" stop-color="white" stop-opacity="0"/>
</radialGradient>
<radialGradient id="paint9_radial_24_21310" cx="0" cy="0" r="1" gradientUnits="userSpaceOnUse" gradientTransform="translate(555.068 198.672) scale(27.0508 27.05)">
<stop stop-color="#E72452"/>
<stop offset="0.47" stop-color="#942667"/>
<stop offset="0.93" stop-color="#41287B"/>
</radialGradient>
<clipPath id="clip0_24_21310">
<rect width="340" height="286" fill="white" transform="translate(161)"/>
</clipPath>
<clipPath id="clip1_24_21310">
<rect x="179" y="111" width="118.5" height="79" rx="3.95" fill="white"/>
</clipPath>
<clipPath id="clip2_24_21310">
<rect width="305" height="178" fill="white" transform="translate(194 69)"/>
</clipPath>
<clipPath id="clip3_24_21310">
<rect x="222" y="99" width="150" height="100" rx="5" fill="white"/>
</clipPath>
<clipPath id="clip4_24_21310">
<rect x="382" y="99" width="150" height="100" rx="5" fill="white"/>
</clipPath>
</defs>
</svg>
