<svg viewBox="0 0 522 344" fill="none" xmlns="http://www.w3.org/2000/svg">
<g clip-path="url(#clip0_1877_13986)">
<g clip-path="url(#clip1_1877_13986)">
<path d="M559.136 11.9993V490.97C559.136 497.592 553.759 502.969 547.137 502.969H13.1541C6.53156 502.969 1.15454 497.592 1.15454 490.97V11.9993C1.15454 5.37686 6.53156 0 13.1541 0H547.137C553.759 0 559.136 5.37686 559.136 11.9993Z" fill="#04001A"/>
<g opacity="0.5">
<path d="M611.092 302.226L611.045 302.206C611.002 302.188 610.939 302.161 610.855 302.126C610.687 302.056 610.434 301.952 610.096 301.816C609.419 301.546 608.401 301.149 607.031 300.644C604.291 299.634 600.146 298.192 594.521 296.464C583.27 293.004 566.095 288.393 542.395 283.783C495.283 274.618 422.372 265.461 318.952 265.349V265.344H241.148V265.349C137.813 265.466 64.9555 274.621 17.874 283.783C-5.81821 288.393 -22.9877 293.004 -34.2353 296.464C-39.8591 298.192 -44.002 299.634 -46.7409 300.644C-48.1098 301.149 -49.1288 301.546 -49.8048 301.816C-50.1428 301.952 -50.3958 302.056 -50.5638 302.126C-50.6477 302.161 -50.7118 302.188 -50.7538 302.206L-50.8008 302.226L-50.8138 302.231L-50.8167 302.232C-50.8177 302.233 -50.8167 302.233 -50.7307 302.599C-50.6437 302.965 -50.6448 302.965 -50.6437 302.964L-50.6408 302.963L-50.6298 302.958L-50.5837 302.939C-50.5428 302.921 -50.4797 302.895 -50.3968 302.86C-50.2308 302.791 -49.9798 302.688 -49.6438 302.553C-48.9718 302.284 -47.9569 301.888 -46.5919 301.385C-43.861 300.378 -39.7251 298.939 -34.1093 297.213C-22.8767 293.758 -5.72422 289.151 17.954 284.543C65.3105 275.328 138.765 266.111 243.139 266.111V266.056H317.056V266.111C421.464 266.111 494.942 275.328 542.314 284.543C566 289.151 583.16 293.758 594.395 297.213C600.013 298.939 604.15 300.378 606.882 301.385C608.248 301.888 609.262 302.284 609.935 302.553C610.271 302.688 610.522 302.791 610.688 302.86C610.771 302.895 610.833 302.921 610.875 302.939L610.921 302.958L610.932 302.963L610.935 302.964C610.935 302.965 610.936 302.965 611.022 302.599C611.109 302.233 611.108 302.233 611.107 302.232L611.104 302.231L611.092 302.226ZM542.329 260.293C566.017 263.365 583.179 266.436 594.417 268.74C600.036 269.892 604.175 270.851 606.908 271.523C608.274 271.858 609.289 272.121 609.962 272.301C610.299 272.391 610.55 272.46 610.716 272.507C610.8 272.53 610.862 272.547 610.903 272.559L610.95 272.572L610.964 272.576C610.965 272.577 610.965 272.577 611.024 272.201C611.083 271.825 611.083 271.825 611.082 271.825L611.067 271.82L611.02 271.807C610.978 271.795 610.915 271.778 610.83 271.754C610.662 271.708 610.41 271.638 610.072 271.548C609.396 271.368 608.378 271.103 607.009 270.767C604.271 270.094 600.127 269.133 594.502 267.98C583.254 265.674 566.081 262.602 542.383 259.528C495.276 253.419 422.369 247.313 318.952 247.239V247.236H241.148V247.239C137.816 247.317 64.9635 253.42 17.886 259.528C-5.80424 262.602 -22.9707 265.674 -34.2163 267.98C-39.8391 269.133 -43.981 270.094 -46.7189 270.767C-48.0878 271.103 -49.1048 271.368 -49.7808 271.548C-50.1188 271.638 -50.3708 271.708 -50.5388 271.754C-50.6227 271.778 -50.6867 271.795 -50.7288 271.807L-50.7758 271.82L-50.7907 271.825C-50.7917 271.825 -50.7917 271.825 -50.7328 272.201C-50.6737 272.577 -50.6737 272.577 -50.6728 272.576L-50.6588 272.572L-50.6118 272.559C-50.5707 272.547 -50.5078 272.53 -50.4248 272.507C-50.2578 272.46 -50.0068 272.391 -49.6708 272.301C-48.9978 272.121 -47.9839 271.858 -46.6179 271.523C-43.886 270.851 -39.7481 269.892 -34.1313 268.74C-22.8967 266.436 -5.74021 263.365 17.94 260.293C65.3015 254.149 138.759 248.004 243.137 248.004V247.948H317.058V248.004C421.47 248.004 494.952 254.149 542.329 260.293ZM542.339 237.042C566.029 238.77 583.194 240.498 594.433 241.794C600.054 242.442 604.193 242.982 606.927 243.36C608.294 243.549 609.31 243.698 609.984 243.799C610.321 243.849 610.572 243.888 610.739 243.914C610.822 243.927 610.885 243.937 610.926 243.944L610.987 243.953C610.988 243.954 610.988 243.954 611.022 243.572C611.056 243.191 611.055 243.191 611.055 243.191L610.993 243.181C610.951 243.174 610.888 243.164 610.804 243.151C610.636 243.125 610.384 243.086 610.046 243.035C609.371 242.934 608.354 242.785 606.985 242.596C604.248 242.218 600.105 241.677 594.482 241.029C583.236 239.732 566.065 238.003 542.369 236.275C495.266 232.839 422.364 229.405 318.952 229.363V229.361H241.148V229.363C137.821 229.407 64.9715 232.84 17.899 236.275C-5.78922 238.003 -22.9537 239.732 -34.1963 241.029C-39.8181 241.677 -43.96 242.218 -46.6959 242.596C-48.0638 242.785 -49.0808 242.934 -49.7558 243.035C-50.0938 243.086 -50.3448 243.125 -50.5128 243.151C-50.5967 243.164 -50.6598 243.174 -50.7018 243.181L-50.7638 243.191C-50.7647 243.191 -50.7647 243.191 -50.7307 243.572C-50.6968 243.954 -50.6968 243.954 -50.6957 243.953L-50.6357 243.944C-50.5938 243.937 -50.5308 243.927 -50.4478 243.914C-50.2808 243.888 -50.0298 243.849 -49.6928 243.799C-49.0198 243.698 -48.0049 243.549 -46.6379 243.36C-43.905 242.982 -39.7671 242.442 -34.1483 241.794C-22.9116 240.498 -5.75224 238.77 17.93 237.042C65.2955 233.585 138.757 230.13 243.139 230.13V230.074H317.056V230.13C421.472 230.13 494.958 233.585 542.339 237.042ZM542.343 212.543C566.034 213.791 583.199 215.04 594.44 215.977C600.06 216.445 604.2 216.835 606.935 217.108C608.302 217.243 609.318 217.349 609.992 217.422C610.329 217.459 610.58 217.487 610.747 217.506L610.935 217.527L610.996 217.534C610.997 217.534 610.997 217.534 611.021 217.153C611.046 216.77 611.046 216.77 611.045 216.77L610.983 216.763L610.794 216.742C610.627 216.723 610.375 216.694 610.037 216.658C609.362 216.584 608.345 216.478 606.977 216.341C604.24 216.068 600.098 215.677 594.474 215.209C583.229 214.272 566.06 213.025 542.365 211.776C495.263 209.295 422.362 206.814 318.952 206.784V206.783H241.148V206.784C137.822 206.816 64.9745 209.296 17.904 211.776C-5.78321 213.025 -22.9477 214.272 -34.1893 215.209C-39.8101 215.677 -43.951 216.068 -46.6869 216.341C-48.0548 216.478 -49.0708 216.584 -49.7458 216.658C-50.0828 216.694 -50.3358 216.723 -50.5038 216.742L-50.6917 216.763L-50.7538 216.77C-50.7548 216.77 -50.7557 216.77 -50.7307 217.153C-50.7058 217.534 -50.7058 217.534 -50.7047 217.534L-50.6437 217.527L-50.4558 217.506C-50.2888 217.487 -50.0378 217.459 -49.7008 217.422C-49.0268 217.349 -48.0118 217.243 -46.6449 217.108C-43.911 216.835 -39.7731 216.445 -34.1543 215.977C-22.9167 215.04 -5.75721 213.791 17.926 212.543C65.2925 210.047 138.757 207.55 243.14 207.55V207.495H317.056V207.55C421.473 207.55 494.96 210.047 542.343 212.543ZM542.351 187.544C566.044 187.928 583.211 188.312 594.453 188.6C600.074 188.744 604.215 188.864 606.95 188.948C608.318 188.99 609.334 189.024 610.009 189.047C610.346 189.058 610.597 189.066 610.765 189.072L611.014 189.081C611.015 189.081 611.015 189.08 611.023 188.696C611.03 188.312 611.03 188.312 611.029 188.312L610.779 188.305C610.612 188.299 610.36 188.289 610.023 188.278C609.348 188.255 608.331 188.222 606.963 188.18C604.227 188.096 600.086 187.977 594.464 187.833C583.22 187.545 566.052 187.161 542.358 186.777C495.259 186.014 422.36 185.249 318.952 185.24V185.239H241.148V185.24C137.824 185.25 64.9795 186.014 17.911 186.777C-5.77522 187.161 -22.9376 187.545 -34.1783 187.833C-39.7991 187.977 -43.939 188.096 -46.6739 188.18C-48.0408 188.222 -49.0578 188.255 -49.7318 188.278C-50.0688 188.289 -50.3198 188.299 -50.4878 188.305L-50.7378 188.312C-50.7387 188.312 -50.7397 188.312 -50.7318 188.696C-50.7238 189.08 -50.7238 189.081 -50.7228 189.081L-50.4738 189.072C-50.3068 189.066 -50.0548 189.058 -49.7178 189.047C-49.0438 189.024 -48.0278 188.99 -46.6609 188.948C-43.927 188.864 -39.7871 188.744 -34.1673 188.6C-22.9277 188.312 -5.76823 187.928 17.917 187.544C65.2865 186.776 138.753 186.008 243.139 186.008V185.952H317.057V186.008C421.476 186.008 494.966 186.776 542.351 187.544ZM17.932 160.528C-5.75123 159.279 -22.9107 158.031 -34.1483 157.095C-39.7671 156.627 -43.905 156.237 -46.6389 155.964C-48.0058 155.828 -49.0208 155.72 -49.6948 155.647C-50.0318 155.611 -50.2838 155.583 -50.4508 155.564L-50.6378 155.543L-50.6988 155.535C-50.6997 155.535 -50.7007 155.535 -50.7248 155.918C-50.7498 156.301 -50.7488 156.301 -50.7477 156.301L-50.6858 156.308L-50.4978 156.329C-50.3298 156.348 -50.0778 156.376 -49.7408 156.413C-49.0658 156.486 -48.0488 156.594 -46.6809 156.73C-43.945 157.003 -39.8041 157.394 -34.1833 157.862C-22.9407 158.798 -5.77723 160.047 17.91 161.295C64.9795 163.776 137.826 166.256 241.148 166.288V166.289H318.952V166.288C422.36 166.258 495.258 163.777 542.359 161.295C566.054 160.047 583.223 158.798 594.469 157.862C600.092 157.394 604.234 157.003 606.971 156.73C608.339 156.594 609.356 156.486 610.031 156.413C610.369 156.376 610.621 156.348 610.789 156.329L610.977 156.308L611.039 156.301C611.04 156.301 611.04 156.301 611.016 155.918C610.991 155.535 610.991 155.535 610.99 155.535L610.929 155.543L610.741 155.564C610.574 155.583 610.323 155.611 609.986 155.647C609.312 155.72 608.296 155.828 606.929 155.964C604.195 156.237 600.055 156.627 594.434 157.095C583.193 158.031 566.028 159.279 542.337 160.528C494.954 163.024 421.467 165.521 317.05 165.521V165.576H243.146V165.521C138.762 165.521 65.2985 163.024 17.932 160.528ZM17.936 135.779C-5.74622 134.05 -22.9057 132.323 -34.1423 131.027C-39.7611 130.379 -43.899 129.838 -46.6319 129.46C-47.9988 129.271 -49.0138 129.124 -49.6868 129.023C-50.0238 128.972 -50.2748 128.933 -50.4418 128.906C-50.5258 128.893 -50.5877 128.885 -50.6298 128.878L-50.6898 128.867C-50.6907 128.867 -50.6907 128.868 -50.7248 129.249C-50.7588 129.631 -50.7588 129.63 -50.7578 129.63L-50.6957 129.641C-50.6538 129.648 -50.5908 129.657 -50.5068 129.671C-50.3388 129.697 -50.0878 129.736 -49.7498 129.786C-49.0748 129.888 -48.0578 130.035 -46.6899 130.225C-43.954 130.603 -39.8121 131.143 -34.1903 131.792C-22.9477 133.088 -5.78321 134.817 17.905 136.546C64.9765 139.98 137.824 143.413 241.148 143.457V143.459H318.952V143.457C422.361 143.415 495.261 139.981 542.364 136.546C566.059 134.817 583.23 133.088 594.476 131.792C600.099 131.143 604.242 130.603 606.979 130.225C608.348 130.035 609.365 129.888 610.04 129.786C610.378 129.736 610.63 129.697 610.798 129.671C610.882 129.657 610.945 129.648 610.987 129.641L611.049 129.63C611.05 129.63 611.05 129.631 611.016 129.249C610.982 128.868 610.982 128.867 610.981 128.867L610.92 128.878C610.879 128.885 610.817 128.893 610.733 128.906C610.566 128.933 610.315 128.972 609.978 129.023C609.304 129.124 608.289 129.271 606.922 129.46C604.188 129.838 600.048 130.379 594.428 131.027C583.188 132.323 566.023 134.05 542.333 135.779C494.952 139.234 421.466 142.692 317.05 142.692V142.747H243.145V142.692C138.763 142.692 65.3015 139.234 17.936 135.779ZM17.962 87.7775C-5.71622 83.1698 -22.8697 78.5631 -34.1023 75.1083C-39.7181 73.3814 -43.854 71.9425 -46.5849 70.9356C-47.9498 70.4326 -48.9638 70.0366 -49.6358 69.7676C-49.9718 69.6327 -50.2238 69.5297 -50.3898 69.4607C-50.4728 69.4257 -50.5348 69.3997 -50.5758 69.3817L-50.6218 69.3617L-50.6328 69.3577L-50.6357 69.3557C-50.6357 69.3557 -50.6368 69.3557 -50.7228 69.7217C-50.8098 70.0876 -50.8098 70.0876 -50.8087 70.0876L-50.8058 70.0896L-50.7938 70.0946L-50.7458 70.1146C-50.7037 70.1326 -50.6397 70.1596 -50.5558 70.1946C-50.3878 70.2646 -50.1348 70.3686 -49.7968 70.5036C-49.1208 70.7746 -48.1028 71.1716 -46.7339 71.6765C-43.995 72.6865 -39.8511 74.1274 -34.2273 75.8573C-22.9797 79.3161 -5.81022 83.9268 17.882 88.5375C64.9625 97.6989 137.817 106.853 241.148 106.971V106.977H318.952V106.972C422.367 106.86 495.277 97.7019 542.387 88.5375C566.087 83.9268 583.262 79.3161 594.513 75.8573C600.139 74.1274 604.284 72.6865 607.023 71.6765C608.393 71.1716 609.411 70.7746 610.088 70.5036C610.426 70.3686 610.679 70.2646 610.847 70.1946C610.932 70.1596 610.995 70.1326 611.037 70.1146L611.085 70.0946L611.097 70.0896L611.1 70.0876C611.1 70.0876 611.101 70.0876 611.014 69.7217C610.928 69.3557 610.928 69.3557 610.927 69.3557L610.924 69.3577L610.913 69.3617L610.867 69.3817C610.826 69.3997 610.764 69.4257 610.68 69.4607C610.514 69.5297 610.263 69.6327 609.927 69.7676C609.254 70.0366 608.24 70.4326 606.874 70.9356C604.142 71.9425 600.005 73.3814 594.387 75.1083C583.152 78.5631 565.992 83.1698 542.306 87.7775C494.934 96.993 421.457 106.209 317.049 106.209L243.147 106.264V106.209C138.773 106.209 65.3185 96.993 17.962 87.7775ZM611.013 36.1687C610.891 35.8228 610.89 35.8228 610.89 35.8228L610.887 35.8248L610.876 35.8318L610.83 35.8607C610.789 35.8867 610.727 35.9268 610.644 35.9788C610.478 36.0827 610.227 36.2367 609.891 36.4387C609.219 36.8427 608.206 37.4347 606.84 38.1896C604.11 39.6985 599.974 41.8564 594.357 44.4462C583.125 49.6269 565.968 56.5365 542.286 63.447C494.92 77.2682 421.449 87.2516 317.048 87.2516H243.148C138.78 87.2516 65.3325 77.2682 17.983 63.447C-5.69221 56.5365 -22.8427 49.6269 -34.0723 44.4462C-39.6871 41.8564 -43.822 39.6985 -46.5509 38.1896C-47.9158 37.4347 -48.9288 36.8427 -49.6008 36.4387C-49.9368 36.2367 -50.1868 36.0827 -50.3528 35.9788C-50.4358 35.9268 -50.4978 35.8867 -50.5388 35.8607L-50.5848 35.8318L-50.5958 35.8248L-50.5988 35.8228C-50.5988 35.8228 -50.5988 35.8228 -50.7217 36.1687C-50.8448 36.5147 -50.8437 36.5157 -50.8437 36.5157L-50.8408 36.5177L-50.8287 36.5257L-50.7808 36.5557C-50.7387 36.5827 -50.6747 36.6227 -50.5908 36.6757C-50.4218 36.7807 -50.1688 36.9377 -49.8308 37.1407C-49.1538 37.5477 -48.1348 38.1426 -46.7649 38.9006C-44.025 40.4155 -39.8801 42.5793 -34.2553 45.1742C-23.0047 50.3639 -5.83323 57.2814 17.863 64.198C64.9495 77.9421 137.812 87.8855 241.148 88.0135V88.0145H318.952V88.0135C422.374 87.8915 495.288 77.9461 542.405 64.198C566.109 57.2814 583.287 50.3639 594.54 45.1742C600.168 42.5793 604.314 40.4155 607.055 38.9006C608.425 38.1426 609.444 37.5477 610.121 37.1407C610.46 36.9377 610.713 36.7807 610.882 36.6757C610.966 36.6227 611.029 36.5827 611.072 36.5557L611.12 36.5257L611.132 36.5177L611.135 36.5157C611.135 36.5157 611.136 36.5147 611.013 36.1687ZM17.949 111.868C-5.73121 108.795 -22.8877 105.723 -34.1223 103.421C-39.7391 102.269 -43.876 101.309 -46.6079 100.638C-47.9738 100.302 -48.9888 100.038 -49.6618 99.8578C-49.9978 99.7678 -50.2488 99.6988 -50.4158 99.6528C-50.4988 99.6298 -50.5617 99.6128 -50.6028 99.6008L-50.6487 99.5878L-50.6628 99.5838C-50.6628 99.5838 -50.6638 99.5828 -50.7228 99.9588C-50.7817 100.335 -50.7817 100.335 -50.7808 100.335L-50.7657 100.34L-50.7188 100.353C-50.6768 100.365 -50.6137 100.383 -50.5298 100.406C-50.3618 100.453 -50.1088 100.522 -49.7708 100.612C-49.0948 100.792 -48.0778 101.057 -46.7089 101.394C-43.971 102.067 -39.8301 103.028 -34.2073 104.18C-22.9617 106.485 -5.79523 109.559 17.895 112.632C64.9705 118.739 137.821 124.842 241.148 124.92V124.924H318.952V124.92C422.364 124.845 495.268 118.741 542.374 112.632C566.071 109.559 583.244 106.485 594.492 104.18C600.117 103.028 604.261 102.067 606.999 101.394C608.368 101.057 609.386 100.792 610.062 100.612C610.4 100.522 610.653 100.453 610.821 100.406C610.905 100.383 610.968 100.365 611.01 100.353L611.057 100.34L611.072 100.335C611.073 100.335 611.073 100.335 611.014 99.9588C610.955 99.5828 610.955 99.5838 610.954 99.5838L610.94 99.5878L610.894 99.6008C610.852 99.6128 610.79 99.6298 610.707 99.6528C610.54 99.6988 610.289 99.7678 609.952 99.8578C609.279 100.038 608.264 100.302 606.898 100.638C604.165 101.309 600.027 102.269 594.407 103.421C583.17 105.723 566.007 108.795 542.319 111.868C494.942 118.012 421.461 124.156 317.048 124.156V124.211H243.147V124.156C138.769 124.156 65.3105 118.012 17.949 111.868Z" fill="url(#paint0_linear_1877_13986)"/>
</g>
<mask id="mask0_1877_13986" style="mask-type:luminance" maskUnits="userSpaceOnUse" x="-23" y="83" width="54" height="54">
<path d="M3.72988 83C18.4821 83 30.4598 94.9773 30.4598 109.729C30.4598 124.481 18.4821 136.458 3.72988 136.458C-11.0223 136.458 -23 124.481 -23 109.729C-23 94.9773 -11.0223 83 3.72988 83Z" fill="url(#paint1_radial_1877_13986)"/>
</mask>
<g mask="url(#mask0_1877_13986)">
<path d="M3.72988 83C18.4821 83 30.4598 94.9773 30.4598 109.729C30.4598 124.481 18.4821 136.458 3.72988 136.458C-11.0223 136.458 -23 124.481 -23 109.729C-23 94.9773 -11.0223 83 3.72988 83Z" fill="url(#paint2_radial_1877_13986)"/>
</g>
<mask id="mask1_1877_13986" style="mask-type:luminance" maskUnits="userSpaceOnUse" x="477" y="207" width="54" height="55">
<path d="M504.225 207.766C518.977 207.766 530.954 219.743 530.954 234.495C530.954 249.247 518.977 261.224 504.225 261.224C489.472 261.224 477.495 249.247 477.495 234.495C477.495 219.743 489.472 207.766 504.225 207.766Z" fill="url(#paint3_radial_1877_13986)"/>
</mask>
<g mask="url(#mask1_1877_13986)">
<path d="M504.225 207.766C518.977 207.766 530.954 219.743 530.954 234.495C530.954 249.247 518.977 261.224 504.225 261.224C489.472 261.224 477.495 249.247 477.495 234.495C477.495 219.743 489.472 207.766 504.225 207.766Z" fill="url(#paint4_radial_1877_13986)"/>
</g>
<g clip-path="url(#clip2_1877_13986)">
<path d="M446.156 43.7241V275.276C446.156 281.746 440.795 287 434.191 287H122.121C115.518 287 110.156 281.746 110.156 275.276V43.7241C110.156 37.2536 115.518 32 122.121 32H434.191C440.795 32 446.156 37.2536 446.156 43.7241Z" stroke="url(#paint5_linear_1877_13986)" stroke-width="2"/>
<path d="M446.156 43.7241V275.276C446.156 281.746 440.795 287 434.191 287H122.121C115.518 287 110.156 281.746 110.156 275.276V43.7241C110.156 37.2536 115.518 32 122.121 32H434.191C440.795 32 446.156 37.2536 446.156 43.7241Z" fill="#1A1D23" fill-opacity="0.98039"/>
<g opacity="0.01">
<mask id="mask2_1877_13986" style="mask-type:luminance" maskUnits="userSpaceOnUse" x="94" y="75" width="32" height="63">
<path d="M125.753 106.668C125.753 123.889 118.762 137.871 110.151 137.871C101.54 137.871 94.5489 123.889 94.5489 106.668C94.5489 89.4467 101.54 75.4646 110.151 75.4646C118.762 75.4646 125.753 89.4467 125.753 106.668Z" fill="url(#paint6_radial_1877_13986)"/>
</mask>
<g mask="url(#mask2_1877_13986)">
<path d="M125.753 106.668C125.753 123.889 118.762 137.871 110.151 137.871C101.54 137.871 94.5489 123.889 94.5489 106.668C94.5489 89.4467 101.54 75.4646 110.151 75.4646C118.762 75.4646 125.753 89.4467 125.753 106.668Z" fill="url(#paint7_radial_1877_13986)"/>
</g>
</g>
<g opacity="0.01">
<mask id="mask3_1877_13986" style="mask-type:luminance" maskUnits="userSpaceOnUse" x="433" y="187" width="32" height="63">
<path d="M464.242 218.411C464.242 235.632 457.25 249.614 448.64 249.614C440.029 249.614 433.038 235.632 433.038 218.411C433.038 201.19 440.029 187.208 448.64 187.208C457.25 187.208 464.242 201.19 464.242 218.411Z" fill="url(#paint8_radial_1877_13986)"/>
</mask>
<g mask="url(#mask3_1877_13986)">
<path d="M464.242 218.411C464.242 235.632 457.25 249.614 448.64 249.614C440.029 249.614 433.038 235.632 433.038 218.411C433.038 201.19 440.029 187.208 448.64 187.208C457.25 187.208 464.242 201.19 464.242 218.411Z" fill="url(#paint9_radial_1877_13986)"/>
</g>
</g>
<path d="M186.391 65.2805L184.249 57.9977H185.713L187.14 63.3456H187.211L188.643 57.9977H190.108L191.53 63.3226H191.601L193.019 57.9977H194.484L192.345 65.2805H190.899L189.42 60.0227H189.311L187.832 65.2805H186.391ZM180.062 64.2375C180.505 64.2375 180.871 64.1205 181.162 63.8865C181.453 63.6525 181.668 63.3416 181.807 62.9526C181.949 62.5636 182.02 62.1356 182.02 61.6676C182.02 61.2026 181.949 60.7766 181.807 60.3876C181.668 59.9957 181.453 59.6807 181.162 59.4437C180.871 59.2067 180.505 59.0887 180.062 59.0887C179.617 59.0887 179.247 59.2067 178.953 59.4437C178.662 59.6807 178.445 59.9957 178.303 60.3876C178.164 60.7766 178.095 61.2026 178.095 61.6676C178.095 62.1356 178.164 62.5636 178.303 62.9526C178.445 63.3416 178.662 63.6525 178.953 63.8865C179.247 64.1205 179.617 64.2375 180.062 64.2375ZM180.057 65.4275C179.375 65.4275 178.779 65.2705 178.27 64.9575C177.761 64.6445 177.366 64.2075 177.085 63.6445C176.803 63.0816 176.663 62.4246 176.663 61.6726C176.663 60.9166 176.803 60.2567 177.085 59.6907C177.366 59.1247 177.761 58.6857 178.27 58.3727C178.779 58.0597 179.375 57.9037 180.057 57.9037C180.74 57.9037 181.336 58.0597 181.845 58.3727C182.354 58.6857 182.749 59.1247 183.03 59.6907C183.311 60.2567 183.452 60.9166 183.452 61.6726C183.452 62.4246 183.311 63.0816 183.03 63.6445C182.749 64.2075 182.354 64.6445 181.845 64.9575C181.336 65.2705 180.74 65.4275 180.057 65.4275ZM170.428 60.9566V65.2805H169.011V57.9977H170.371V59.1837H170.461C170.629 58.7977 170.891 58.4877 171.248 58.2537C171.609 58.0207 172.062 57.9037 172.609 57.9037C173.105 57.9037 173.54 58.0077 173.913 58.2167C174.286 58.4217 174.575 58.7287 174.781 59.1357C174.986 59.5437 175.089 60.0477 175.089 60.6486V65.2805H173.671V60.8186C173.671 60.2907 173.534 59.8787 173.259 59.5817C172.984 59.2817 172.606 59.1317 172.126 59.1317C171.797 59.1317 171.505 59.2027 171.248 59.3447C170.996 59.4867 170.795 59.6957 170.646 59.9707C170.501 60.2427 170.428 60.5706 170.428 60.9566ZM160.78 65.4275C160.063 65.4275 159.445 65.2735 158.926 64.9675C158.411 64.6575 158.013 64.2225 157.732 63.6635C157.453 63.1006 157.314 62.4416 157.314 61.6866C157.314 60.9406 157.453 60.2837 157.732 59.7147C158.013 59.1457 158.405 58.7017 158.907 58.3817C159.413 58.0627 160.004 57.9037 160.681 57.9037C161.091 57.9037 161.49 57.9707 161.875 58.1067C162.261 58.2427 162.607 58.4567 162.914 58.7467C163.22 59.0377 163.462 59.4157 163.639 59.8807C163.816 60.3416 163.905 60.9026 163.905 61.5636V62.0656H158.116V61.0036H162.515C162.515 60.6306 162.44 60.3007 162.288 60.0127C162.136 59.7227 161.923 59.4927 161.648 59.3257C161.376 59.1577 161.057 59.0747 160.69 59.0747C160.292 59.0747 159.944 59.1727 159.647 59.3687C159.353 59.5607 159.125 59.8137 158.964 60.1267C158.806 60.4366 158.727 60.7736 158.727 61.1366V61.9666C158.727 62.4536 158.813 62.8676 158.983 63.2086C159.157 63.5495 159.399 63.8105 159.709 63.9905C160.018 64.1675 160.38 64.2565 160.794 64.2565C161.063 64.2565 161.308 64.2185 161.529 64.1425C161.75 64.0635 161.942 63.9465 162.103 63.7915C162.264 63.6365 162.387 63.4456 162.473 63.2176L163.814 63.4596C163.707 63.8545 163.514 64.2005 163.236 64.4975C162.961 64.7915 162.615 65.0215 162.198 65.1855C161.784 65.3465 161.311 65.4275 160.78 65.4275ZM152.324 64.2135C152.732 64.2135 153.076 64.1065 153.358 63.8915C153.642 63.6735 153.857 63.3716 154.002 62.9856C154.15 62.5996 154.224 62.1516 154.224 61.6396C154.224 61.1336 154.152 60.6906 154.006 60.3117C153.862 59.9327 153.649 59.6367 153.367 59.4257C153.086 59.2137 152.738 59.1077 152.324 59.1077C151.897 59.1077 151.542 59.2177 151.257 59.4397C150.973 59.6607 150.758 59.9627 150.613 60.3446C150.47 60.7276 150.399 61.1586 150.399 61.6396C150.399 62.1256 150.472 62.5636 150.617 62.9526C150.763 63.3416 150.978 63.6495 151.262 63.8765C151.55 64.1015 151.904 64.2135 152.324 64.2135ZM152.011 65.4225C151.423 65.4225 150.899 65.2725 150.437 64.9725C149.979 64.6685 149.619 64.2375 149.356 63.6775C149.097 63.1156 148.967 62.4406 148.967 61.6536C148.967 60.8666 149.099 60.1927 149.361 59.6337C149.626 59.0747 149.99 58.6457 150.451 58.3487C150.913 58.0517 151.436 57.9037 152.021 57.9037C152.473 57.9037 152.836 57.9787 153.111 58.1307C153.389 58.2797 153.604 58.4537 153.756 58.6527C153.911 58.8517 154.03 59.0267 154.115 59.1787H154.201V55.5708H155.618V65.2805H154.234V64.1475H154.115C154.03 64.3025 153.908 64.4795 153.746 64.6785C153.588 64.8775 153.37 65.0515 153.092 65.1995C152.814 65.3485 152.454 65.4225 152.011 65.4225ZM144.111 64.3035C144.503 64.3035 144.838 64.2265 145.116 64.0715C145.398 63.9165 145.611 63.7145 145.757 63.4646C145.905 63.2116 145.979 62.9416 145.979 62.6536V61.7146C145.929 61.7656 145.831 61.8126 145.685 61.8576C145.543 61.8986 145.38 61.9346 145.197 61.9666C145.014 61.9946 144.835 62.0216 144.661 62.0466C144.488 62.0686 144.342 62.0876 144.225 62.1036C143.95 62.1386 143.699 62.1966 143.471 62.2796C143.247 62.3616 143.067 62.4796 142.931 62.6346C142.798 62.7866 142.732 62.9886 142.732 63.2416C142.732 63.5925 142.861 63.8575 143.12 64.0385C143.38 64.2155 143.71 64.3035 144.111 64.3035ZM143.803 65.4415C143.342 65.4415 142.925 65.3565 142.552 65.1855C142.179 65.0115 141.883 64.7605 141.665 64.4315C141.45 64.1025 141.343 63.6995 141.343 63.2226C141.343 62.8116 141.422 62.4736 141.58 62.2076C141.738 61.9426 141.951 61.7326 142.22 61.5776C142.488 61.4226 142.789 61.3056 143.12 61.2266C143.452 61.1476 143.791 61.0876 144.135 61.0466C144.571 60.9956 144.925 60.9546 145.197 60.9236C145.469 60.8886 145.666 60.8336 145.79 60.7576C145.913 60.6816 145.975 60.5586 145.975 60.3876V60.3546C145.975 59.9407 145.858 59.6197 145.624 59.3917C145.393 59.1647 145.049 59.0507 144.59 59.0507C144.113 59.0507 143.737 59.1567 143.462 59.3687C143.19 59.5767 143.002 59.8087 142.898 60.0657L141.565 59.7617C141.723 59.3197 141.954 58.9617 142.258 58.6907C142.564 58.4157 142.917 58.2167 143.315 58.0927C143.713 57.9667 144.132 57.9037 144.571 57.9037C144.862 57.9037 145.17 57.9377 145.496 58.0077C145.824 58.0737 146.131 58.1967 146.416 58.3777C146.703 58.5577 146.939 58.8147 147.122 59.1497C147.305 59.4817 147.397 59.9137 147.397 60.4446V65.2805H146.013V64.2845H145.956C145.864 64.4675 145.727 64.6485 145.543 64.8255C145.36 65.0025 145.124 65.1495 144.837 65.2655C144.549 65.3835 144.205 65.4415 143.803 65.4415ZM136.625 65.2805V57.9977H137.995V59.1547H138.071C138.204 58.7627 138.438 58.4547 138.773 58.2307C139.111 58.0027 139.494 57.8887 139.92 57.8887C140.009 57.8887 140.113 57.8917 140.233 57.8987C140.356 57.9047 140.453 57.9127 140.522 57.9227V59.2777C140.465 59.2627 140.364 59.2447 140.219 59.2257C140.074 59.2037 139.928 59.1927 139.783 59.1927C139.448 59.1927 139.149 59.2637 138.887 59.4057C138.627 59.5457 138.422 59.7397 138.27 59.9897C138.119 60.2357 138.043 60.5166 138.043 60.8336V65.2805H136.625ZM128.32 56.8318V55.5708H135.835V56.8318H132.805V65.2805H131.345V56.8318H128.32Z" fill="white"/>
<path d="M416.782 48.8372C423.102 48.8372 428.225 53.9612 428.225 60.2812C428.225 66.6012 423.102 71.7242 416.782 71.7242C410.461 71.7242 405.338 66.6012 405.338 60.2812C405.338 53.9612 410.461 48.8372 416.782 48.8372Z" fill="#2B303B"/>
<path d="M421.182 59.0437C420.524 59.0437 419.99 59.5777 419.99 60.2357C419.99 60.8937 420.524 61.4267 421.182 61.4267C421.84 61.4267 422.373 60.8937 422.373 60.2357C422.373 59.5777 421.84 59.0437 421.182 59.0437ZM416.893 59.0737C416.235 59.0737 415.701 59.6077 415.701 60.2657C415.701 60.9237 416.235 61.4567 416.893 61.4567C417.551 61.4567 418.084 60.9237 418.084 60.2657C418.084 59.6077 417.551 59.0737 416.893 59.0737ZM412.491 59.0887C411.833 59.0887 411.299 59.6227 411.299 60.2807C411.299 60.9387 411.833 61.4717 412.491 61.4717C413.149 61.4717 413.682 60.9387 413.682 60.2807C413.682 59.6227 413.149 59.0887 412.491 59.0887Z" fill="white" fill-opacity="0.50196"/>
<path d="M127.732 88.8877H428.226" stroke="#2B303B" stroke-width="0.95397"/>
<g opacity="0.37">
<g clip-path="url(#clip3_1877_13986)">
<rect x="126.156" y="141" width="118.5" height="79" rx="3.95" fill="#0F1015"/>
<rect width="79" height="20.54" transform="translate(146.696 141) rotate(90)" fill="#15161C"/>
<rect x="132.081" y="176.155" width="8.69" height="8.69" rx="4.345" stroke="white" stroke-opacity="0.1" stroke-width="0.79"/>
<g filter="url(#filter0_d_1877_13986)">
<mask id="path-22-inside-1_1877_13986" fill="white">
<path d="M152.621 159.367H160.521V201.632H152.621V159.367Z"/>
</mask>
<path d="M152.621 159.367V158.577H151.831V159.367H152.621ZM152.621 201.632H151.831V202.422H152.621V201.632ZM152.621 160.157H160.521V158.577H152.621V160.157ZM160.521 200.842H152.621V202.422H160.521V200.842ZM153.411 201.632V159.367H151.831V201.632H153.411Z" fill="#4F4566" mask="url(#path-22-inside-1_1877_13986)"/>
<line x1="153.016" y1="180.105" x2="160.126" y2="180.105" stroke="#4F4566" stroke-width="0.79"/>
</g>
<path d="M167.931 163.077C167.053 163.077 166.386 162.846 165.931 162.385C165.476 161.917 165.249 161.238 165.249 160.347V156.308H166.026V160.309C166.026 161.693 166.661 162.385 167.931 162.385C169.189 162.385 169.818 161.693 169.818 160.309V156.308H170.595V160.347C170.595 161.238 170.368 161.917 169.913 162.385C169.464 162.846 168.804 163.077 167.931 163.077ZM174.354 163.077C173.83 163.077 173.356 163.01 172.932 162.878C172.509 162.739 172.142 162.54 171.833 162.28L172.108 161.655C172.43 161.901 172.768 162.085 173.122 162.205C173.476 162.325 173.887 162.385 174.354 162.385C174.923 162.385 175.344 162.28 175.615 162.072C175.893 161.857 176.032 161.576 176.032 161.228C176.032 160.95 175.931 160.729 175.729 160.565C175.533 160.4 175.201 160.271 174.734 160.176L173.748 159.977C173.154 159.85 172.708 159.645 172.411 159.361C172.12 159.07 171.975 158.684 171.975 158.204C171.975 157.806 172.076 157.458 172.278 157.161C172.487 156.864 172.774 156.634 173.141 156.469C173.508 156.305 173.931 156.223 174.411 156.223C174.86 156.223 175.277 156.295 175.663 156.441C176.048 156.58 176.374 156.782 176.639 157.047L176.364 157.654C176.08 157.395 175.78 157.209 175.464 157.095C175.148 156.975 174.794 156.915 174.402 156.915C173.903 156.915 173.504 157.032 173.207 157.266C172.91 157.493 172.762 157.796 172.762 158.176C172.762 158.479 172.853 158.719 173.037 158.896C173.226 159.073 173.533 159.203 173.956 159.285L174.942 159.493C175.581 159.626 176.051 159.828 176.355 160.1C176.664 160.365 176.819 160.729 176.819 161.19C176.819 161.563 176.718 161.892 176.516 162.176C176.32 162.461 176.036 162.682 175.663 162.84C175.296 162.998 174.86 163.077 174.354 163.077ZM178.025 162.991V156.308H180.282C181.362 156.308 182.197 156.596 182.784 157.171C183.372 157.74 183.666 158.564 183.666 159.645C183.666 160.726 183.372 161.554 182.784 162.129C182.197 162.704 181.362 162.991 180.282 162.991H178.025ZM178.803 162.328H180.225C181.969 162.328 182.841 161.434 182.841 159.645C182.841 157.863 181.969 156.972 180.225 156.972H178.803V162.328ZM186.285 162.991V156.981H183.858V156.308H189.499V156.981H187.072V162.991H186.285Z" fill="white" fill-opacity="0.9"/>
<path opacity="0.2" d="M217.836 162.858C216.253 169.206 209.823 173.07 203.474 171.487C197.128 169.904 193.264 163.474 194.847 157.126C196.429 150.777 202.859 146.913 209.206 148.496C215.555 150.079 219.418 156.51 217.835 162.858H217.836Z" fill="#F7931A"/>
<path fill-rule="evenodd" clip-rule="evenodd" d="M209.91 158.615C210.07 157.545 209.255 156.97 208.142 156.586L208.503 155.137L207.621 154.917L207.269 156.328C207.037 156.27 206.799 156.216 206.563 156.162L206.917 154.742L206.035 154.522L205.674 155.97C205.482 155.927 205.294 155.884 205.111 155.838L205.112 155.834L203.895 155.53L203.661 156.472C203.661 156.472 204.315 156.622 204.301 156.631C204.658 156.72 204.723 156.957 204.712 157.144L204.301 158.795C204.325 158.801 204.357 158.81 204.392 158.824L204.299 158.801L203.722 161.114C203.679 161.222 203.568 161.385 203.318 161.323C203.327 161.336 202.677 161.163 202.677 161.163L202.239 162.173L203.387 162.459C203.517 162.492 203.645 162.525 203.772 162.558L203.772 162.558C203.854 162.579 203.935 162.601 204.016 162.621L203.651 164.087L204.532 164.307L204.894 162.857C205.134 162.922 205.368 162.983 205.596 163.039L205.236 164.483L206.118 164.702L206.483 163.24C207.987 163.524 209.118 163.409 209.594 162.049C209.977 160.954 209.575 160.322 208.784 159.91C209.36 159.777 209.794 159.398 209.91 158.615H209.91ZM207.895 161.44C207.644 162.446 206.07 162.03 205.351 161.84C205.287 161.823 205.229 161.807 205.18 161.795L205.664 159.853C205.724 159.868 205.798 159.885 205.881 159.904C206.625 160.071 208.15 160.413 207.895 161.44H207.895ZM206.03 159.003C206.631 159.163 207.939 159.512 208.167 158.599C208.4 157.664 207.128 157.383 206.506 157.245C206.436 157.23 206.375 157.216 206.324 157.204L205.885 158.965C205.927 158.975 205.976 158.988 206.03 159.003Z" fill="#F7931A"/>
<path d="M165.421 183.5V176.817H168.094C168.783 176.817 169.314 176.971 169.687 177.281C170.066 177.584 170.256 178.011 170.256 178.561C170.256 178.927 170.161 179.24 169.971 179.499C169.782 179.759 169.519 179.948 169.185 180.068C169.57 180.169 169.87 180.356 170.085 180.628C170.306 180.899 170.417 181.244 170.417 181.661C170.417 182.255 170.224 182.71 169.839 183.026C169.453 183.342 168.91 183.5 168.208 183.5H165.421ZM166.179 179.803H167.981C168.985 179.803 169.488 179.411 169.488 178.627C169.488 177.837 168.985 177.442 167.981 177.442H166.179V179.803ZM166.179 182.874H168.132C169.143 182.874 169.649 182.467 169.649 181.651C169.649 180.836 169.143 180.428 168.132 180.428H166.179V182.874ZM173.375 183.5V177.49H170.948V176.817H176.589V177.49H174.162V183.5H173.375ZM179.912 183.585C179.255 183.585 178.693 183.446 178.225 183.168C177.757 182.89 177.397 182.495 177.144 181.983C176.898 181.471 176.775 180.861 176.775 180.154C176.775 179.452 176.898 178.845 177.144 178.333C177.397 177.821 177.757 177.426 178.225 177.148C178.693 176.87 179.255 176.731 179.912 176.731C180.374 176.731 180.797 176.804 181.183 176.949C181.575 177.095 181.906 177.306 182.178 177.584L181.875 178.22C181.584 177.948 181.281 177.752 180.965 177.632C180.655 177.505 180.311 177.442 179.931 177.442C179.179 177.442 178.604 177.679 178.206 178.153C177.808 178.627 177.609 179.294 177.609 180.154C177.609 181.019 177.808 181.689 178.206 182.163C178.604 182.637 179.179 182.874 179.931 182.874C180.311 182.874 180.655 182.814 180.965 182.694C181.281 182.568 181.584 182.369 181.875 182.097L182.178 182.732C181.906 183.004 181.575 183.216 181.183 183.367C180.797 183.513 180.374 183.585 179.912 183.585Z" fill="white" fill-opacity="0.9"/>
<path opacity="0.2" d="M218.191 180.469C218.191 186.979 212.914 192.257 206.404 192.257C199.894 192.257 194.616 186.979 194.616 180.469C194.616 173.959 199.894 168.681 206.404 168.681C212.914 168.681 218.191 173.959 218.191 180.469Z" fill="#00A478"/>
<path fill-rule="evenodd" clip-rule="evenodd" d="M202.4 172.623L200.095 177.492C200.087 177.51 200.084 177.531 200.087 177.551C200.091 177.571 200.101 177.589 200.116 177.602L206.34 183.602C206.358 183.619 206.381 183.629 206.406 183.629C206.43 183.629 206.454 183.619 206.471 183.602L212.696 177.603C212.711 177.589 212.72 177.571 212.724 177.551C212.728 177.531 212.725 177.511 212.716 177.493L210.411 172.623C210.404 172.607 210.392 172.593 210.377 172.583C210.362 172.574 210.344 172.569 210.326 172.569H202.486C202.468 172.568 202.45 172.573 202.435 172.583C202.42 172.593 202.408 172.607 202.4 172.623Z" fill="#00A478"/>
<path fill-rule="evenodd" clip-rule="evenodd" d="M207.205 177.992C207.161 177.996 206.93 178.01 206.415 178.01C206.005 178.01 205.714 177.997 205.612 177.992C204.029 177.922 202.848 177.645 202.848 177.313C202.848 176.981 204.029 176.705 205.612 176.633V177.716C205.716 177.724 206.012 177.741 206.422 177.741C206.913 177.741 207.159 177.721 207.204 177.717V176.634C208.783 176.705 209.962 176.982 209.962 177.313C209.962 177.644 208.784 177.922 207.204 177.992L207.205 177.992ZM207.205 176.522V175.553H209.41V174.075H203.408V175.553H205.612V176.522C203.82 176.605 202.473 176.962 202.473 177.389C202.473 177.817 203.82 178.174 205.612 178.257V181.362H207.205V178.256C208.992 178.173 210.337 177.816 210.337 177.389C210.337 176.962 208.993 176.605 207.205 176.522L207.205 176.522Z" fill="white"/>
<rect x="196.926" y="185.208" width="18.96" height="7.11" rx="1.58" fill="#0F1015"/>
<rect x="197.123" y="185.406" width="18.565" height="6.715" rx="1.3825" stroke="white" stroke-opacity="0.1" stroke-width="0.395"/>
<path d="M199.212 190.63V187.606H197.988V187.065H201.083V187.606H199.859V190.63H199.212Z" fill="white"/>
<path d="M201.493 190.63V187.065H203.04C203.431 187.065 203.732 187.159 203.945 187.348C204.157 187.534 204.263 187.795 204.263 188.132C204.263 188.398 204.194 188.619 204.056 188.794C203.918 188.966 203.719 189.082 203.459 189.143C203.631 189.197 203.773 189.327 203.884 189.532L204.481 190.63H203.768L203.151 189.492C203.09 189.381 203.018 189.305 202.934 189.264C202.853 189.224 202.748 189.204 202.62 189.204H202.14V190.63H201.493ZM202.14 188.723H202.929C203.4 188.723 203.636 188.531 203.636 188.147C203.636 187.766 203.4 187.576 202.929 187.576H202.14V188.723Z" fill="white"/>
<path d="M206.593 190.68C206.222 190.68 205.903 190.606 205.637 190.458C205.374 190.306 205.172 190.094 205.03 189.821C204.889 189.544 204.818 189.219 204.818 188.845C204.818 188.471 204.889 188.147 205.03 187.874C205.172 187.601 205.374 187.39 205.637 187.242C205.903 187.09 206.222 187.014 206.593 187.014C206.832 187.014 207.058 187.051 207.27 187.126C207.486 187.2 207.663 187.306 207.801 187.444L207.589 187.96C207.437 187.832 207.282 187.739 207.124 187.682C206.965 187.621 206.795 187.591 206.613 187.591C206.252 187.591 205.977 187.7 205.789 187.919C205.6 188.135 205.506 188.444 205.506 188.845C205.506 189.246 205.6 189.556 205.789 189.775C205.977 189.994 206.252 190.104 206.613 190.104C206.795 190.104 206.965 190.075 207.124 190.018C207.282 189.957 207.437 189.863 207.589 189.735L207.801 190.25C207.663 190.385 207.486 190.491 207.27 190.569C207.058 190.643 206.832 190.68 206.593 190.68Z" fill="white"/>
<path d="M208.381 190.63V190.149L209.534 188.921C209.689 188.752 209.8 188.604 209.868 188.476C209.935 188.344 209.969 188.211 209.969 188.076C209.969 187.732 209.762 187.56 209.347 187.56C209.023 187.56 208.725 187.682 208.452 187.925L208.235 187.439C208.376 187.311 208.553 187.208 208.765 187.131C208.978 187.053 209.199 187.014 209.428 187.014C209.809 187.014 210.1 187.1 210.303 187.272C210.508 187.444 210.611 187.69 210.611 188.01C210.611 188.226 210.559 188.434 210.454 188.632C210.353 188.831 210.193 189.045 209.974 189.275L209.19 190.094H210.748V190.63H208.381Z" fill="white"/>
<path d="M212.525 190.68C212.104 190.68 211.782 190.522 211.56 190.205C211.337 189.885 211.226 189.43 211.226 188.84C211.226 188.243 211.337 187.79 211.56 187.48C211.782 187.169 212.104 187.014 212.525 187.014C212.95 187.014 213.272 187.169 213.491 187.48C213.714 187.79 213.825 188.241 213.825 188.835C213.825 189.428 213.714 189.885 213.491 190.205C213.269 190.522 212.947 190.68 212.525 190.68ZM212.525 190.149C212.755 190.149 212.923 190.045 213.031 189.836C213.142 189.623 213.198 189.29 213.198 188.835C213.198 188.383 213.142 188.056 213.031 187.854C212.923 187.648 212.755 187.545 212.525 187.545C212.3 187.545 212.131 187.648 212.02 187.854C211.908 188.056 211.853 188.383 211.853 188.835C211.853 189.29 211.908 189.623 212.02 189.836C212.131 190.045 212.3 190.149 212.525 190.149Z" fill="white"/>
<path d="M167.931 204.094C167.053 204.094 166.386 203.863 165.931 203.402C165.476 202.934 165.249 202.255 165.249 201.364V197.325H166.026V201.326C166.026 202.71 166.661 203.402 167.931 203.402C169.189 203.402 169.818 202.71 169.818 201.326V197.325H170.595V201.364C170.595 202.255 170.368 202.934 169.913 203.402C169.464 203.863 168.804 204.094 167.931 204.094ZM174.354 204.094C173.83 204.094 173.356 204.027 172.932 203.895C172.509 203.756 172.142 203.557 171.833 203.297L172.108 202.672C172.43 202.918 172.768 203.102 173.122 203.222C173.476 203.342 173.887 203.402 174.354 203.402C174.923 203.402 175.344 203.297 175.615 203.089C175.893 202.874 176.032 202.593 176.032 202.245C176.032 201.967 175.931 201.746 175.729 201.582C175.533 201.417 175.201 201.288 174.734 201.193L173.748 200.994C173.154 200.867 172.708 200.662 172.411 200.378C172.12 200.087 171.975 199.701 171.975 199.221C171.975 198.823 172.076 198.475 172.278 198.178C172.487 197.881 172.774 197.651 173.141 197.486C173.508 197.322 173.931 197.24 174.411 197.24C174.86 197.24 175.277 197.312 175.663 197.458C176.048 197.597 176.374 197.799 176.639 198.064L176.364 198.671C176.08 198.412 175.78 198.226 175.464 198.112C175.148 197.992 174.794 197.932 174.402 197.932C173.903 197.932 173.504 198.049 173.207 198.283C172.91 198.51 172.762 198.813 172.762 199.193C172.762 199.496 172.853 199.736 173.037 199.913C173.226 200.09 173.533 200.22 173.956 200.302L174.942 200.51C175.581 200.643 176.051 200.845 176.355 201.117C176.664 201.382 176.819 201.746 176.819 202.207C176.819 202.58 176.718 202.909 176.516 203.193C176.32 203.478 176.036 203.699 175.663 203.857C175.296 204.015 174.86 204.094 174.354 204.094ZM178.025 204.008V197.325H180.282C181.362 197.325 182.197 197.613 182.784 198.188C183.372 198.757 183.666 199.581 183.666 200.662C183.666 201.743 183.372 202.571 182.784 203.146C182.197 203.721 181.362 204.008 180.282 204.008H178.025ZM178.803 203.345H180.225C181.969 203.345 182.841 202.451 182.841 200.662C182.841 198.88 181.969 197.989 180.225 197.989H178.803V203.345ZM186.285 204.008V197.998H183.858V197.325H189.499V197.998H187.072V204.008H186.285Z" fill="white" fill-opacity="0.9"/>
<path opacity="0.2" d="M217.836 203.875C216.253 210.224 209.823 214.087 203.474 212.504C197.128 210.921 193.264 204.491 194.847 198.143C196.429 191.794 202.859 187.93 209.206 189.513C215.555 191.096 219.418 197.527 217.835 203.875H217.836Z" fill="#F7931A"/>
<path fill-rule="evenodd" clip-rule="evenodd" d="M209.91 199.632C210.07 198.562 209.255 197.987 208.142 197.603L208.503 196.154L207.621 195.935L207.269 197.345C207.037 197.288 206.799 197.233 206.563 197.179L206.917 195.759L206.035 195.539L205.674 196.988C205.482 196.944 205.294 196.901 205.111 196.855L205.112 196.851L203.895 196.547L203.661 197.489C203.661 197.489 204.315 197.639 204.301 197.648C204.658 197.738 204.723 197.974 204.712 198.161L204.301 199.812C204.325 199.818 204.357 199.827 204.392 199.841L204.299 199.818L203.722 202.131C203.679 202.239 203.568 202.402 203.318 202.34C203.327 202.353 202.677 202.18 202.677 202.18L202.239 203.19L203.387 203.476C203.517 203.509 203.645 203.542 203.772 203.575L203.772 203.575C203.854 203.597 203.935 203.618 204.016 203.639L203.651 205.104L204.532 205.324L204.894 203.874C205.134 203.94 205.368 204 205.596 204.057L205.236 205.5L206.118 205.72L206.483 204.257C207.987 204.541 209.118 204.427 209.594 203.067C209.977 201.971 209.575 201.339 208.784 200.927C209.36 200.794 209.794 200.415 209.91 199.632H209.91ZM207.895 202.458C207.644 203.463 206.07 203.047 205.351 202.857C205.287 202.84 205.229 202.825 205.18 202.812L205.664 200.871C205.724 200.886 205.798 200.902 205.881 200.921C206.625 201.088 208.15 201.43 207.895 202.458H207.895ZM206.03 200.02C206.631 200.18 207.939 200.529 208.167 199.616C208.4 198.682 207.128 198.4 206.506 198.263C206.436 198.247 206.375 198.233 206.324 198.221L205.885 199.982C205.927 199.992 205.976 200.005 206.03 200.02Z" fill="#F7931A"/>
<rect width="79" height="20.54" transform="matrix(4.37114e-08 1 1 -4.37114e-08 224.116 141)" fill="#15161C"/>
<path d="M234.23 183.585C233.466 183.585 232.884 183.291 232.486 182.704C232.088 182.116 231.889 181.266 231.889 180.154C231.889 179.035 232.088 178.185 232.486 177.603C232.884 177.022 233.466 176.731 234.23 176.731C235.001 176.731 235.583 177.022 235.975 177.603C236.373 178.179 236.572 179.025 236.572 180.144C236.572 181.263 236.37 182.116 235.965 182.704C235.567 183.291 234.989 183.585 234.23 183.585ZM234.23 182.912C234.761 182.912 235.153 182.688 235.406 182.239C235.665 181.79 235.794 181.092 235.794 180.144C235.794 179.196 235.668 178.504 235.415 178.068C235.162 177.626 234.767 177.404 234.23 177.404C233.699 177.404 233.304 177.626 233.045 178.068C232.792 178.51 232.666 179.202 232.666 180.144C232.666 181.092 232.792 181.79 233.045 182.239C233.304 182.688 233.699 182.912 234.23 182.912Z" fill="#747584"/>
</g>
<rect x="126.551" y="141.395" width="117.71" height="78.21" rx="3.555" stroke="#4F4566" stroke-width="0.79"/>
</g>
<g clip-path="url(#clip4_1877_13986)">
<g filter="url(#filter1_d_1877_13986)">
<g clip-path="url(#clip5_1877_13986)">
<rect x="169.156" y="129" width="150" height="100" rx="5" fill="#0F1015"/>
<rect width="100" height="26" transform="translate(195.156 129) rotate(90)" fill="#7149B6"/>
<rect x="176.156" y="173" width="12" height="12" rx="6" fill="#7149B6"/>
<rect x="176.656" y="173.5" width="11" height="11" rx="5.5" stroke="white" stroke-opacity="0.1"/>
<circle cx="182.156" cy="179" r="4" fill="white" fill-opacity="0.9"/>
<g filter="url(#filter2_d_1877_13986)">
<mask id="path-45-inside-2_1877_13986" fill="white">
<path d="M202.656 152.25H212.656V205.75H202.656V152.25Z"/>
</mask>
<path d="M202.656 152.25V151.25H201.656V152.25H202.656ZM202.656 205.75H201.656V206.75H202.656V205.75ZM202.656 153.25H212.656V151.25H202.656V153.25ZM212.656 204.75H202.656V206.75H212.656V204.75ZM203.656 205.75V152.25H201.656V205.75H203.656Z" fill="#4F4566" mask="url(#path-45-inside-2_1877_13986)"/>
<line x1="203.156" y1="178.5" x2="212.156" y2="178.5" stroke="#4F4566"/>
</g>
<path d="M218.7 157.04V148.58H222.084C222.956 148.58 223.628 148.776 224.1 149.168C224.58 149.552 224.82 150.092 224.82 150.788C224.82 151.252 224.7 151.648 224.46 151.976C224.22 152.304 223.888 152.544 223.464 152.696C223.952 152.824 224.332 153.06 224.604 153.404C224.884 153.748 225.024 154.184 225.024 154.712C225.024 155.464 224.78 156.04 224.292 156.44C223.804 156.84 223.116 157.04 222.228 157.04H218.7ZM219.66 152.36H221.94C223.212 152.36 223.848 151.864 223.848 150.872C223.848 149.872 223.212 149.372 221.94 149.372H219.66V152.36ZM219.66 156.248H222.132C223.412 156.248 224.052 155.732 224.052 154.7C224.052 153.668 223.412 153.152 222.132 153.152H219.66V156.248ZM228.768 157.04V149.432H225.696V148.58H232.836V149.432H229.764V157.04H228.768ZM237.044 157.148C236.212 157.148 235.5 156.972 234.908 156.62C234.316 156.268 233.86 155.768 233.54 155.12C233.228 154.472 233.072 153.7 233.072 152.804C233.072 151.916 233.228 151.148 233.54 150.5C233.86 149.852 234.316 149.352 234.908 149C235.5 148.648 236.212 148.472 237.044 148.472C237.628 148.472 238.164 148.564 238.652 148.748C239.148 148.932 239.568 149.2 239.912 149.552L239.528 150.356C239.16 150.012 238.776 149.764 238.376 149.612C237.984 149.452 237.548 149.372 237.068 149.372C236.116 149.372 235.388 149.672 234.884 150.272C234.38 150.872 234.128 151.716 234.128 152.804C234.128 153.9 234.38 154.748 234.884 155.348C235.388 155.948 236.116 156.248 237.068 156.248C237.548 156.248 237.984 156.172 238.376 156.02C238.776 155.86 239.16 155.608 239.528 155.264L239.912 156.068C239.568 156.412 239.148 156.68 238.652 156.872C238.164 157.056 237.628 157.148 237.044 157.148Z" fill="white" fill-opacity="0.9"/>
<path opacity="0.2" d="M285.206 156.669C283.203 164.704 275.064 169.594 267.027 167.591C258.994 165.588 254.103 157.448 256.107 149.413C258.11 141.376 266.249 136.485 274.283 138.489C282.319 140.492 287.209 148.632 285.206 156.669H285.206Z" fill="#F7931A"/>
<path fill-rule="evenodd" clip-rule="evenodd" d="M275.174 151.297C275.376 149.943 274.345 149.215 272.935 148.73L273.393 146.895L272.276 146.617L271.831 148.403C271.538 148.33 271.236 148.261 270.937 148.193L271.385 146.395L270.269 146.117L269.811 147.95C269.569 147.895 269.33 147.84 269.099 147.783L269.1 147.777L267.56 147.392L267.263 148.585C267.263 148.585 268.091 148.775 268.074 148.787C268.526 148.899 268.608 149.199 268.594 149.436L268.073 151.525C268.104 151.533 268.145 151.545 268.189 151.563L268.072 151.533L267.341 154.461C267.286 154.598 267.146 154.804 266.83 154.726C266.841 154.742 266.018 154.523 266.018 154.523L265.464 155.801L266.917 156.164C267.081 156.205 267.243 156.247 267.403 156.289L267.404 156.289C267.508 156.316 267.611 156.343 267.713 156.369L267.251 158.225L268.366 158.503L268.824 156.667C269.128 156.75 269.424 156.826 269.713 156.898L269.257 158.725L270.374 159.003L270.836 157.152C272.74 157.512 274.171 157.367 274.773 155.645C275.259 154.259 274.75 153.459 273.748 152.937C274.477 152.768 275.027 152.288 275.173 151.297H275.174ZM272.623 154.874C272.306 156.147 270.313 155.62 269.403 155.38C269.321 155.358 269.248 155.339 269.186 155.323L269.799 152.865C269.875 152.884 269.968 152.905 270.073 152.929L270.073 152.929C271.016 153.14 272.946 153.574 272.623 154.874H272.623ZM270.263 151.788C271.023 151.991 272.679 152.433 272.968 151.277C273.263 150.095 271.652 149.738 270.865 149.564C270.777 149.544 270.699 149.527 270.635 149.511L270.079 151.74C270.132 151.754 270.194 151.77 270.263 151.788Z" fill="#F7931A"/>
<path d="M222.194 183.108C221.082 183.108 220.238 182.816 219.662 182.232C219.086 181.64 218.798 180.78 218.798 179.652V174.54H219.782V179.604C219.782 181.356 220.586 182.232 222.194 182.232C223.786 182.232 224.582 181.356 224.582 179.604V174.54H225.566V179.652C225.566 180.78 225.278 181.64 224.702 182.232C224.134 182.816 223.298 183.108 222.194 183.108ZM230.325 183.108C229.661 183.108 229.061 183.024 228.525 182.856C227.989 182.68 227.525 182.428 227.133 182.1L227.481 181.308C227.889 181.62 228.317 181.852 228.765 182.004C229.213 182.156 229.733 182.232 230.325 182.232C231.045 182.232 231.577 182.1 231.921 181.836C232.273 181.564 232.449 181.208 232.449 180.768C232.449 180.416 232.321 180.136 232.065 179.928C231.817 179.72 231.397 179.556 230.805 179.436L229.557 179.184C228.805 179.024 228.241 178.764 227.865 178.404C227.497 178.036 227.313 177.548 227.313 176.94C227.313 176.436 227.441 175.996 227.697 175.62C227.961 175.244 228.325 174.952 228.789 174.744C229.253 174.536 229.789 174.432 230.397 174.432C230.965 174.432 231.493 174.524 231.981 174.708C232.469 174.884 232.881 175.14 233.217 175.476L232.869 176.244C232.509 175.916 232.129 175.68 231.729 175.536C231.329 175.384 230.881 175.308 230.385 175.308C229.753 175.308 229.249 175.456 228.873 175.752C228.497 176.04 228.309 176.424 228.309 176.904C228.309 177.288 228.425 177.592 228.657 177.816C228.897 178.04 229.285 178.204 229.821 178.308L231.069 178.572C231.877 178.74 232.473 178.996 232.857 179.34C233.249 179.676 233.445 180.136 233.445 180.72C233.445 181.192 233.317 181.608 233.061 181.968C232.813 182.328 232.453 182.608 231.981 182.808C231.517 183.008 230.965 183.108 230.325 183.108ZM234.972 183V174.54H237.828C239.196 174.54 240.252 174.904 240.996 175.632C241.74 176.352 242.112 177.396 242.112 178.764C242.112 180.132 241.74 181.18 240.996 181.908C240.252 182.636 239.196 183 237.828 183H234.972ZM235.956 182.16H237.756C239.964 182.16 241.068 181.028 241.068 178.764C241.068 176.508 239.964 175.38 237.756 175.38H235.956V182.16ZM245.427 183V175.392H242.355V174.54H249.495V175.392H246.423V183H245.427Z" fill="white" fill-opacity="0.9"/>
<path opacity="0.2" d="M285.656 178.961C285.656 187.201 278.976 193.882 270.735 193.882C262.495 193.882 255.814 187.201 255.814 178.961C255.814 170.72 262.495 164.04 270.735 164.04C278.976 164.04 285.656 170.72 285.656 178.961Z" fill="#00A478"/>
<path fill-rule="evenodd" clip-rule="evenodd" d="M265.667 169.029L262.75 175.193C262.739 175.216 262.735 175.242 262.74 175.267C262.745 175.292 262.757 175.315 262.775 175.332L270.655 182.927C270.677 182.948 270.707 182.96 270.738 182.96C270.769 182.96 270.799 182.948 270.821 182.927L278.7 175.333C278.719 175.315 278.731 175.292 278.736 175.267C278.74 175.242 278.737 175.216 278.726 175.193L275.808 169.029C275.799 169.009 275.784 168.991 275.765 168.979C275.745 168.967 275.723 168.96 275.701 168.96H265.776C265.753 168.96 265.731 168.966 265.711 168.978C265.692 168.991 265.677 169.008 265.667 169.029Z" fill="#00A478"/>
<path fill-rule="evenodd" clip-rule="evenodd" d="M271.75 175.826C271.693 175.83 271.401 175.848 270.749 175.848C270.231 175.848 269.862 175.832 269.733 175.826C267.729 175.737 266.234 175.386 266.234 174.966C266.234 174.546 267.729 174.196 269.733 174.106V175.476C269.864 175.486 270.24 175.508 270.758 175.508C271.38 175.508 271.692 175.482 271.748 175.477V174.107C273.748 174.196 275.24 174.547 275.24 174.966C275.24 175.385 273.748 175.736 271.748 175.825L271.75 175.826ZM271.75 173.965V172.738H274.54V170.868H266.943V172.738H269.733V173.964C267.465 174.069 265.76 174.521 265.76 175.062C265.76 175.604 267.465 176.055 269.733 176.161V180.091H271.749V176.159C274.012 176.054 275.715 175.603 275.715 175.062C275.715 174.521 274.013 174.07 271.749 173.964L271.75 173.965Z" fill="white"/>
<rect x="258.738" y="184.96" width="24" height="9" rx="2" fill="#0F1015"/>
<rect x="258.988" y="185.21" width="23.5" height="8.5" rx="1.75" stroke="white" stroke-opacity="0.1" stroke-width="0.5"/>
<path d="M261.631 191.823V187.995H260.083V187.31H264V187.995H262.451V191.823H261.631Z" fill="white"/>
<path d="M264.519 191.823V187.31H266.477C266.972 187.31 267.354 187.43 267.623 187.669C267.892 187.903 268.026 188.234 268.026 188.661C268.026 188.998 267.939 189.277 267.764 189.499C267.589 189.717 267.337 189.864 267.008 189.941C267.226 190.009 267.405 190.173 267.546 190.434L268.301 191.823H267.399L266.618 190.383C266.541 190.242 266.449 190.146 266.343 190.095C266.24 190.043 266.108 190.018 265.946 190.018H265.338V191.823H264.519ZM265.338 189.41H266.336C266.934 189.41 267.232 189.166 267.232 188.68C267.232 188.198 266.934 187.957 266.336 187.957H265.338V189.41Z" fill="white"/>
<path d="M270.974 191.887C270.505 191.887 270.102 191.793 269.765 191.605C269.432 191.413 269.176 191.144 268.997 190.799C268.818 190.449 268.728 190.037 268.728 189.563C268.728 189.09 268.818 188.68 268.997 188.334C269.176 187.989 269.432 187.722 269.765 187.534C270.102 187.342 270.505 187.246 270.974 187.246C271.277 187.246 271.563 187.293 271.832 187.387C272.105 187.481 272.329 187.615 272.504 187.79L272.235 188.443C272.043 188.281 271.847 188.164 271.646 188.091C271.446 188.014 271.23 187.976 271 187.976C270.543 187.976 270.196 188.115 269.957 188.392C269.718 188.665 269.598 189.056 269.598 189.563C269.598 190.071 269.718 190.464 269.957 190.741C270.196 191.018 270.543 191.157 271 191.157C271.23 191.157 271.446 191.121 271.646 191.048C271.847 190.971 272.043 190.852 272.235 190.69L272.504 191.343C272.329 191.513 272.105 191.648 271.832 191.746C271.563 191.84 271.277 191.887 270.974 191.887Z" fill="white"/>
<path d="M273.238 191.823V191.215L274.698 189.659C274.894 189.446 275.035 189.258 275.12 189.096C275.205 188.93 275.248 188.761 275.248 188.59C275.248 188.155 274.986 187.938 274.461 187.938C274.051 187.938 273.674 188.091 273.328 188.398L273.053 187.784C273.232 187.622 273.456 187.492 273.725 187.394C273.994 187.295 274.273 187.246 274.563 187.246C275.045 187.246 275.414 187.355 275.671 187.573C275.931 187.79 276.061 188.102 276.061 188.507C276.061 188.78 275.995 189.043 275.863 189.294C275.735 189.546 275.532 189.817 275.254 190.107L274.262 191.144H276.234V191.823H273.238Z" fill="white"/>
<path d="M278.484 191.887C277.951 191.887 277.543 191.686 277.262 191.285C276.98 190.88 276.839 190.304 276.839 189.557C276.839 188.802 276.98 188.228 277.262 187.835C277.543 187.443 277.951 187.246 278.484 187.246C279.022 187.246 279.429 187.443 279.707 187.835C279.988 188.228 280.129 188.8 280.129 189.55C280.129 190.301 279.988 190.88 279.707 191.285C279.425 191.686 279.018 191.887 278.484 191.887ZM278.484 191.215C278.774 191.215 278.988 191.082 279.124 190.818C279.265 190.549 279.335 190.127 279.335 189.55C279.335 188.979 279.265 188.565 279.124 188.309C278.988 188.049 278.774 187.918 278.484 187.918C278.198 187.918 277.985 188.049 277.844 188.309C277.703 188.565 277.633 188.979 277.633 189.55C277.633 190.127 277.703 190.549 277.844 190.818C277.985 191.082 278.198 191.215 278.484 191.215Z" fill="white"/>
<path d="M218.7 208.96V200.5H224.04V201.328H219.66V204.256H223.788V205.084H219.66V208.132H224.04V208.96H218.7ZM227.62 208.96V201.352H224.548V200.5H231.688V201.352H228.616V208.96H227.62ZM232.763 208.96V200.5H233.747V204.244H238.823V200.5H239.807V208.96H238.823V205.096H233.747V208.96H232.763Z" fill="white" fill-opacity="0.9"/>
<path opacity="0.2" d="M285.656 204.921C285.656 213.183 278.941 219.881 270.656 219.881C262.372 219.881 255.656 213.183 255.656 204.921C255.656 196.658 262.372 189.96 270.656 189.96C278.941 189.96 285.656 196.658 285.656 204.921Z" fill="#B8ABDC"/>
<g opacity="0.8">
<path d="M270.609 194.894L270.516 195.208V204.322L270.609 204.414L274.85 201.913L270.609 194.894Z" fill="white"/>
<path d="M270.608 194.894L266.367 201.913L270.608 204.414V199.991V194.894Z" fill="white"/>
<path d="M270.608 205.791L270.556 205.854V209.101L270.608 209.253L274.853 203.291L270.608 205.791Z" fill="white"/>
<path d="M270.608 209.253V205.791L266.367 203.291L270.608 209.253Z" fill="white"/>
<path d="M270.608 204.414L274.85 201.914L270.608 199.991V204.414Z" fill="white"/>
<path d="M266.367 201.914L270.608 204.414V199.991L266.367 201.914Z" fill="white"/>
</g>
<rect x="258.595" y="210.936" width="24.1273" height="9.02388" rx="2" fill="#0F1015"/>
<rect x="258.845" y="211.186" width="23.6273" height="8.52388" rx="1.75" stroke="white" stroke-opacity="0.1" stroke-width="0.5"/>
<path d="M260.893 217.817V213.293H263.911V213.947H261.684V215.192H263.769V215.847H261.684V217.162H263.911V217.817H260.893Z" fill="white"/>
<path d="M264.732 217.817V213.293H266.701C267.199 213.293 267.583 213.412 267.853 213.652C268.123 213.887 268.258 214.219 268.258 214.647C268.258 214.985 268.17 215.265 267.995 215.487C267.819 215.706 267.566 215.853 267.235 215.93C267.454 215.999 267.634 216.163 267.776 216.424L268.535 217.817H267.628L266.843 216.373C266.766 216.232 266.673 216.136 266.566 216.084C266.463 216.033 266.33 216.007 266.167 216.007H265.556V217.817H264.732ZM265.556 215.398H266.56C267.16 215.398 267.46 215.154 267.46 214.666C267.46 214.183 267.16 213.941 266.56 213.941H265.556V215.398Z" fill="white"/>
<path d="M271.222 217.881C270.751 217.881 270.345 217.787 270.006 217.599C269.672 217.406 269.414 217.137 269.234 216.79C269.054 216.439 268.964 216.026 268.964 215.552C268.964 215.077 269.054 214.666 269.234 214.319C269.414 213.973 269.672 213.706 270.006 213.517C270.345 213.325 270.751 213.229 271.222 213.229C271.527 213.229 271.814 213.276 272.085 213.37C272.359 213.464 272.584 213.599 272.76 213.774L272.49 214.429C272.297 214.266 272.1 214.148 271.898 214.076C271.696 213.999 271.48 213.96 271.248 213.96C270.789 213.96 270.44 214.099 270.199 214.377C269.959 214.651 269.839 215.042 269.839 215.552C269.839 216.061 269.959 216.454 270.199 216.732C270.44 217.01 270.789 217.15 271.248 217.15C271.48 217.15 271.696 217.113 271.898 217.04C272.1 216.963 272.297 216.844 272.49 216.681L272.76 217.336C272.584 217.507 272.359 217.642 272.085 217.74C271.814 217.834 271.527 217.881 271.222 217.881Z" fill="white"/>
<path d="M273.498 217.817V217.207L274.965 215.648C275.163 215.434 275.304 215.246 275.39 215.083C275.476 214.916 275.519 214.747 275.519 214.576C275.519 214.14 275.255 213.922 274.727 213.922C274.315 213.922 273.936 214.076 273.588 214.384L273.312 213.768C273.492 213.605 273.717 213.475 273.987 213.376C274.258 213.278 274.539 213.229 274.83 213.229C275.315 213.229 275.686 213.338 275.943 213.556C276.205 213.774 276.336 214.086 276.336 214.493C276.336 214.767 276.269 215.03 276.136 215.282C276.008 215.534 275.804 215.806 275.525 216.097L274.528 217.137H276.51V217.817H273.498Z" fill="white"/>
<path d="M278.772 217.881C278.236 217.881 277.826 217.68 277.543 217.278C277.26 216.871 277.118 216.294 277.118 215.545C277.118 214.788 277.26 214.213 277.543 213.819C277.826 213.425 278.236 213.229 278.772 213.229C279.312 213.229 279.722 213.425 280.001 213.819C280.284 214.213 280.426 214.786 280.426 215.539C280.426 216.292 280.284 216.871 280.001 217.278C279.718 217.68 279.308 217.881 278.772 217.881ZM278.772 217.207C279.064 217.207 279.278 217.075 279.415 216.809C279.557 216.54 279.628 216.116 279.628 215.539C279.628 214.965 279.557 214.55 279.415 214.294C279.278 214.033 279.064 213.902 278.772 213.902C278.485 213.902 278.27 214.033 278.129 214.294C277.987 214.55 277.916 214.965 277.916 215.539C277.916 216.116 277.987 216.54 278.129 216.809C278.27 217.075 278.485 217.207 278.772 217.207Z" fill="white"/>
<rect width="100" height="26" transform="matrix(4.37114e-08 1 1 -4.37114e-08 293.156 129)" fill="#7149B6"/>
<path d="M300.144 183V182.16H302.076V175.728L300.552 176.688L300.132 175.956L302.352 174.54H303.06V182.16H304.872V183H300.144ZM306.932 183V182.256L309.824 179.136C310.232 178.688 310.524 178.28 310.7 177.912C310.884 177.544 310.976 177.168 310.976 176.784C310.976 175.8 310.404 175.308 309.26 175.308C308.404 175.308 307.648 175.628 306.992 176.268L306.62 175.5C306.932 175.18 307.328 174.924 307.808 174.732C308.296 174.532 308.808 174.432 309.344 174.432C310.192 174.432 310.84 174.632 311.288 175.032C311.744 175.424 311.972 175.984 311.972 176.712C311.972 177.216 311.848 177.712 311.6 178.2C311.352 178.68 310.972 179.192 310.46 179.736L308.192 182.16H312.32V183H306.932Z" fill="white"/>
</g>
<rect x="169.656" y="129.5" width="149" height="99" rx="4.5" stroke="#7149B6"/>
</g>
<g clip-path="url(#clip6_1877_13986)">
<rect x="329.156" y="129" width="150" height="100" rx="5" fill="#0F1015"/>
<rect width="100" height="26" transform="translate(355.156 129) rotate(90)" fill="#15161C"/>
<rect x="336.656" y="173.5" width="11" height="11" rx="5.5" stroke="white" stroke-opacity="0.1"/>
<g filter="url(#filter3_d_1877_13986)">
<mask id="path-74-inside-3_1877_13986" fill="white">
<path d="M362.656 152.25H372.656V205.75H362.656V152.25Z"/>
</mask>
<path d="M362.656 152.25V151.25H361.656V152.25H362.656ZM362.656 205.75H361.656V206.75H362.656V205.75ZM362.656 153.25H372.656V151.25H362.656V153.25ZM372.656 204.75H362.656V206.75H372.656V204.75ZM363.656 205.75V152.25H361.656V205.75H363.656Z" fill="#4F4566" mask="url(#path-74-inside-3_1877_13986)"/>
<line x1="363.156" y1="178.5" x2="372.156" y2="178.5" stroke="#4F4566"/>
</g>
<path d="M382.036 157.148C380.924 157.148 380.08 156.856 379.504 156.272C378.928 155.68 378.64 154.82 378.64 153.692V148.58H379.624V153.644C379.624 155.396 380.428 156.272 382.036 156.272C383.628 156.272 384.424 155.396 384.424 153.644V148.58H385.408V153.692C385.408 154.82 385.12 155.68 384.544 156.272C383.976 156.856 383.14 157.148 382.036 157.148ZM390.167 157.148C389.503 157.148 388.903 157.064 388.367 156.896C387.831 156.72 387.367 156.468 386.975 156.14L387.323 155.348C387.731 155.66 388.159 155.892 388.607 156.044C389.055 156.196 389.575 156.272 390.167 156.272C390.887 156.272 391.419 156.14 391.763 155.876C392.115 155.604 392.291 155.248 392.291 154.808C392.291 154.456 392.163 154.176 391.907 153.968C391.659 153.76 391.239 153.596 390.647 153.476L389.399 153.224C388.647 153.064 388.083 152.804 387.707 152.444C387.339 152.076 387.155 151.588 387.155 150.98C387.155 150.476 387.283 150.036 387.539 149.66C387.803 149.284 388.167 148.992 388.631 148.784C389.095 148.576 389.631 148.472 390.239 148.472C390.807 148.472 391.335 148.564 391.823 148.748C392.311 148.924 392.723 149.18 393.059 149.516L392.711 150.284C392.351 149.956 391.971 149.72 391.571 149.576C391.171 149.424 390.723 149.348 390.227 149.348C389.595 149.348 389.091 149.496 388.715 149.792C388.339 150.08 388.151 150.464 388.151 150.944C388.151 151.328 388.267 151.632 388.499 151.856C388.739 152.08 389.127 152.244 389.663 152.348L390.911 152.612C391.719 152.78 392.315 153.036 392.699 153.38C393.091 153.716 393.287 154.176 393.287 154.76C393.287 155.232 393.159 155.648 392.903 156.008C392.655 156.368 392.295 156.648 391.823 156.848C391.359 157.048 390.807 157.148 390.167 157.148ZM394.814 157.04V148.58H397.67C399.038 148.58 400.094 148.944 400.838 149.672C401.582 150.392 401.954 151.436 401.954 152.804C401.954 154.172 401.582 155.22 400.838 155.948C400.094 156.676 399.038 157.04 397.67 157.04H394.814ZM395.798 156.2H397.598C399.806 156.2 400.91 155.068 400.91 152.804C400.91 150.548 399.806 149.42 397.598 149.42H395.798V156.2ZM405.268 157.04V149.432H402.196V148.58H409.336V149.432H406.264V157.04H405.268Z" fill="white" fill-opacity="0.9"/>
<path opacity="0.2" d="M445.656 153C445.656 161.263 438.941 167.961 430.656 167.961C422.372 167.961 415.656 161.263 415.656 153C415.656 144.738 422.372 138.04 430.656 138.04C438.941 138.04 445.656 144.738 445.656 153Z" fill="#00A478"/>
<path fill-rule="evenodd" clip-rule="evenodd" d="M425.561 143.042L422.629 149.223C422.617 149.246 422.614 149.272 422.618 149.297C422.623 149.322 422.636 149.345 422.654 149.362L430.575 156.977C430.597 156.999 430.627 157.011 430.659 157.011C430.69 157.011 430.72 156.999 430.742 156.977L438.663 149.363C438.682 149.345 438.694 149.322 438.699 149.297C438.703 149.272 438.7 149.246 438.689 149.223L435.756 143.043C435.746 143.022 435.731 143.004 435.712 142.992C435.693 142.98 435.671 142.973 435.648 142.973H425.67C425.647 142.973 425.625 142.979 425.606 142.992C425.586 143.004 425.571 143.022 425.561 143.042Z" fill="#00A478"/>
<path fill-rule="evenodd" clip-rule="evenodd" d="M431.676 149.857C431.619 149.862 431.325 149.879 430.67 149.879C430.149 149.879 429.779 149.863 429.649 149.857C427.634 149.768 426.131 149.417 426.131 148.995C426.131 148.574 427.634 148.223 429.649 148.133V149.507C429.781 149.516 430.158 149.539 430.679 149.539C431.305 149.539 431.618 149.513 431.674 149.507V148.133C433.684 148.223 435.185 148.575 435.185 148.995C435.185 149.416 433.685 149.767 431.674 149.857L431.676 149.857ZM431.676 147.991V146.761H434.481V144.886H426.843V146.761H429.648V147.991C427.369 148.096 425.654 148.549 425.654 149.092C425.654 149.635 427.369 150.087 429.648 150.193V154.134H431.676V150.191C433.95 150.086 435.662 149.634 435.662 149.091C435.662 148.549 433.952 148.096 431.676 147.991L431.676 147.991Z" fill="white"/>
<rect x="418.595" y="159.016" width="24.1273" height="9.02394" rx="2" fill="#0F1015"/>
<rect x="418.845" y="159.266" width="23.6273" height="8.52394" rx="1.75" stroke="white" stroke-opacity="0.1" stroke-width="0.5"/>
<path d="M421.504 165.897V162.059H419.947V161.372H423.885V162.059H422.327V165.897H421.504Z" fill="white"/>
<path d="M424.406 165.897V161.372H426.375C426.873 161.372 427.257 161.492 427.527 161.732C427.797 161.967 427.932 162.299 427.932 162.726C427.932 163.064 427.844 163.345 427.669 163.567C427.493 163.785 427.24 163.933 426.909 164.01C427.128 164.078 427.308 164.243 427.45 164.504L428.209 165.897H427.302L426.517 164.453C426.44 164.311 426.347 164.215 426.24 164.164C426.137 164.113 426.004 164.087 425.841 164.087H425.23V165.897H424.406ZM425.23 163.477H426.234C426.834 163.477 427.135 163.233 427.135 162.746C427.135 162.262 426.834 162.02 426.234 162.02H425.23V163.477Z" fill="white"/>
<path d="M430.896 165.961C430.425 165.961 430.019 165.867 429.68 165.678C429.346 165.486 429.088 165.216 428.908 164.87C428.728 164.519 428.638 164.106 428.638 163.631C428.638 163.156 428.728 162.746 428.908 162.399C429.088 162.053 429.346 161.785 429.68 161.597C430.019 161.404 430.425 161.308 430.896 161.308C431.201 161.308 431.488 161.355 431.759 161.449C432.033 161.543 432.258 161.678 432.434 161.854L432.164 162.508C431.971 162.346 431.774 162.228 431.572 162.155C431.37 162.078 431.154 162.04 430.922 162.04C430.463 162.04 430.114 162.179 429.873 162.457C429.633 162.731 429.513 163.122 429.513 163.631C429.513 164.14 429.633 164.534 429.873 164.812C430.114 165.09 430.463 165.229 430.922 165.229C431.154 165.229 431.37 165.193 431.572 165.12C431.774 165.043 431.971 164.923 432.164 164.761L432.434 165.415C432.258 165.586 432.033 165.721 431.759 165.82C431.488 165.914 431.201 165.961 430.896 165.961Z" fill="white"/>
<path d="M433.172 165.897V165.287L434.639 163.727C434.837 163.514 434.978 163.325 435.064 163.163C435.15 162.996 435.193 162.827 435.193 162.656C435.193 162.219 434.929 162.001 434.401 162.001C433.99 162.001 433.61 162.155 433.262 162.463L432.986 161.847C433.166 161.685 433.391 161.554 433.661 161.456C433.932 161.357 434.213 161.308 434.504 161.308C434.989 161.308 435.36 161.417 435.617 161.635C435.879 161.854 436.01 162.166 436.01 162.572C436.01 162.846 435.943 163.109 435.81 163.362C435.682 163.614 435.478 163.886 435.199 164.177L434.202 165.216H436.184V165.897H433.172Z" fill="white"/>
<path d="M438.446 165.961C437.91 165.961 437.5 165.76 437.217 165.358C436.934 164.951 436.792 164.373 436.792 163.625C436.792 162.868 436.934 162.292 437.217 161.899C437.5 161.505 437.91 161.308 438.446 161.308C438.987 161.308 439.396 161.505 439.675 161.899C439.958 162.292 440.1 162.865 440.1 163.618C440.1 164.371 439.958 164.951 439.675 165.358C439.392 165.76 438.982 165.961 438.446 165.961ZM438.446 165.287C438.738 165.287 438.952 165.154 439.089 164.889C439.231 164.619 439.302 164.196 439.302 163.618C439.302 163.045 439.231 162.63 439.089 162.373C438.952 162.112 438.738 161.982 438.446 161.982C438.159 161.982 437.944 162.112 437.803 162.373C437.661 162.63 437.59 163.045 437.59 163.618C437.59 164.196 437.661 164.619 437.803 164.889C437.944 165.154 438.159 165.287 438.446 165.287Z" fill="white"/>
<path d="M378.858 183V174.54H382.242C383.114 174.54 383.786 174.736 384.258 175.128C384.738 175.512 384.978 176.052 384.978 176.748C384.978 177.212 384.858 177.608 384.618 177.936C384.378 178.264 384.046 178.504 383.622 178.656C384.11 178.784 384.49 179.02 384.762 179.364C385.042 179.708 385.182 180.144 385.182 180.672C385.182 181.424 384.938 182 384.45 182.4C383.962 182.8 383.274 183 382.386 183H378.858ZM379.818 178.32H382.098C383.37 178.32 384.006 177.824 384.006 176.832C384.006 175.832 383.37 175.332 382.098 175.332H379.818V178.32ZM379.818 182.208H382.29C383.57 182.208 384.21 181.692 384.21 180.66C384.21 179.628 383.57 179.112 382.29 179.112H379.818V182.208ZM388.927 183V175.392H385.855V174.54H392.995V175.392H389.923V183H388.927ZM397.202 183.108C396.37 183.108 395.658 182.932 395.066 182.58C394.474 182.228 394.018 181.728 393.698 181.08C393.386 180.432 393.23 179.66 393.23 178.764C393.23 177.876 393.386 177.108 393.698 176.46C394.018 175.812 394.474 175.312 395.066 174.96C395.658 174.608 396.37 174.432 397.202 174.432C397.786 174.432 398.322 174.524 398.81 174.708C399.306 174.892 399.726 175.16 400.07 175.512L399.686 176.316C399.318 175.972 398.934 175.724 398.534 175.572C398.142 175.412 397.706 175.332 397.226 175.332C396.274 175.332 395.546 175.632 395.042 176.232C394.538 176.832 394.286 177.676 394.286 178.764C394.286 179.86 394.538 180.708 395.042 181.308C395.546 181.908 396.274 182.208 397.226 182.208C397.706 182.208 398.142 182.132 398.534 181.98C398.934 181.82 399.318 181.568 399.686 181.224L400.07 182.028C399.726 182.372 399.306 182.64 398.81 182.832C398.322 183.016 397.786 183.108 397.202 183.108Z" fill="white" fill-opacity="0.9"/>
<path opacity="0.2" d="M445.656 178.961C445.656 187.201 438.976 193.882 430.735 193.882C422.495 193.882 415.814 187.201 415.814 178.961C415.814 170.72 422.495 164.04 430.735 164.04C438.976 164.04 445.656 170.72 445.656 178.961Z" fill="#B8ABDC"/>
<g opacity="0.8">
<path d="M430.688 172.04L430.595 172.353V181.443L430.688 181.535L434.907 179.041L430.688 172.04Z" fill="white"/>
<path d="M430.688 172.04L426.468 179.041L430.688 181.535V177.123V172.04Z" fill="white"/>
<path d="M430.688 182.908L430.636 182.971V186.209L430.688 186.361L434.91 180.415L430.688 182.908Z" fill="white"/>
<path d="M430.688 186.361V182.908L426.468 180.415L430.688 186.361Z" fill="white"/>
<path d="M430.688 181.535L434.907 179.041L430.688 177.123V181.535Z" fill="white"/>
<path d="M426.468 179.041L430.688 181.535V177.123L426.468 179.041Z" fill="white"/>
</g>
<path d="M380.776 208.96V201.352H377.704V200.5H384.844V201.352H381.772V208.96H380.776ZM385.919 208.96V200.5H389.267C390.179 200.5 390.875 200.712 391.355 201.136C391.843 201.56 392.087 202.164 392.087 202.948C392.087 203.572 391.915 204.084 391.571 204.484C391.235 204.884 390.755 205.144 390.131 205.264C390.499 205.392 390.815 205.704 391.079 206.2L392.567 208.96H391.487L390.023 206.248C389.839 205.912 389.627 205.684 389.387 205.564C389.147 205.444 388.831 205.384 388.439 205.384H386.903V208.96H385.919ZM386.903 204.604H389.123C390.451 204.604 391.115 204.052 391.115 202.948C391.115 201.86 390.451 201.316 389.123 201.316H386.903V204.604ZM392.905 208.96L396.121 204.64L393.061 200.5H394.213L396.697 203.896L399.157 200.5H400.321L397.249 204.64L400.465 208.96H399.301L396.685 205.384L394.081 208.96H392.905Z" fill="white" fill-opacity="0.9"/>
<path opacity="0.2" d="M430.656 218.96C438.941 218.96 445.656 212.244 445.656 203.96C445.656 195.676 438.941 188.96 430.656 188.96C422.372 188.96 415.656 195.676 415.656 203.96C415.656 212.244 422.372 218.96 430.656 218.96Z" fill="black"/>
<path fill-rule="evenodd" clip-rule="evenodd" d="M435.772 201.456L435.486 201.253C435.04 200.937 434.575 200.607 434.119 200.28C434.107 200.27 434.094 200.261 434.079 200.252C434.018 200.205 433.947 200.155 433.861 200.127L433.855 200.124C432.5 199.792 431.125 199.452 429.785 199.121L429.785 199.121L429.401 199.026C428.739 198.863 428.078 198.7 427.417 198.536L427.416 198.536L427.415 198.536L427.415 198.536C426.753 198.373 426.092 198.209 425.429 198.046L425.429 198.046L425.429 198.046L425.429 198.046L425.429 198.046C425.395 198.037 425.362 198.027 425.325 198.018C425.205 197.984 425.067 197.947 424.92 197.965C424.877 197.971 424.84 197.987 424.807 198.009L424.77 198.04C424.711 198.096 424.681 198.167 424.665 198.208L424.656 198.233V198.376L424.662 198.398C425.292 200.187 425.934 201.996 426.565 203.776C426.774 204.364 426.981 204.948 427.187 205.528L427.76 207.143L427.76 207.144L427.761 207.146L427.761 207.146C428.217 208.431 428.68 209.733 429.135 211.019C429.174 211.143 429.288 211.224 429.429 211.237H429.46C429.592 211.237 429.708 211.171 429.766 211.066L432.196 207.472C432.491 207.036 432.787 206.598 433.083 206.161L433.084 206.16L433.085 206.158C433.38 205.721 433.676 205.283 433.972 204.847C434.093 204.668 434.214 204.488 434.335 204.308L434.335 204.308C434.457 204.129 434.578 203.949 434.699 203.77L434.749 203.696L434.749 203.696C435.132 203.128 435.525 202.545 435.916 201.975L435.938 201.944V201.907C435.947 201.798 435.95 201.574 435.772 201.456ZM432.926 202.765C432.713 202.878 432.498 202.992 432.283 203.106L432.282 203.106C431.92 203.299 431.554 203.493 431.187 203.686L432.211 202.572C432.582 202.166 432.968 201.748 433.349 201.334L433.518 201.151L433.527 201.141C433.564 201.091 433.61 201.045 433.659 200.995L433.684 200.97L433.684 200.97C433.711 200.943 433.738 200.917 433.763 200.886C433.99 201.045 434.22 201.207 434.441 201.365C434.601 201.48 434.763 201.595 434.929 201.711C434.254 202.059 433.579 202.417 432.926 202.765ZM430.116 204.081C430.567 203.593 431.021 203.098 431.46 202.616L431.846 202.195L431.846 202.195C432.3 201.699 432.763 201.195 433.223 200.696C432.334 200.477 431.443 200.258 430.553 200.038L430.551 200.038C429.662 199.819 428.772 199.6 427.883 199.381C427.567 199.3 427.245 199.222 426.935 199.147C426.583 199.063 426.224 198.976 425.868 198.883C425.886 198.905 425.904 198.927 425.922 198.949L425.922 198.949L425.922 198.949C425.962 198.997 426.002 199.045 426.04 199.094C426.067 199.128 426.095 199.163 426.122 199.197C426.181 199.271 426.24 199.345 426.3 199.415L426.303 199.418L426.894 200.138L427.484 200.858C428.349 201.913 429.242 203.005 430.116 204.081ZM429.945 208.407L429.945 208.407L429.945 208.407C429.97 208.168 429.996 207.925 430.018 207.687L430.045 207.421C430.064 207.243 430.082 207.065 430.101 206.893L430.12 206.707C430.157 206.352 430.195 205.988 430.226 205.63L430.236 205.556C430.266 205.288 430.297 205.011 430.315 204.734C430.349 204.716 430.386 204.697 430.426 204.681C430.437 204.676 430.449 204.671 430.46 204.665L430.46 204.665C430.495 204.65 430.529 204.634 430.564 204.613L430.564 204.613L430.564 204.613C431.273 204.236 431.981 203.86 432.693 203.487C433.401 203.113 434.128 202.728 434.849 202.345C434.193 203.309 433.533 204.283 432.895 205.232L432.535 205.764L432.535 205.764C432.101 206.407 431.66 207.06 431.22 207.705C431.095 207.892 430.968 208.08 430.841 208.267L430.841 208.267C430.743 208.411 430.646 208.554 430.552 208.695C430.306 209.055 430.055 209.426 429.809 209.796C429.84 209.423 429.877 209.046 429.917 208.679C429.926 208.589 429.935 208.498 429.945 208.407ZM425.6 199.504C425.614 199.542 425.628 199.579 425.641 199.617C426.334 201.575 427.027 203.53 427.721 205.485C428.067 206.462 428.414 207.44 428.76 208.418L429.089 209.342C429.131 209.469 429.177 209.6 429.223 209.724C429.229 209.741 429.236 209.758 429.242 209.776C429.253 209.804 429.263 209.833 429.273 209.861C429.285 209.743 429.297 209.624 429.309 209.506C429.323 209.364 429.337 209.223 429.352 209.084C429.358 209.03 429.364 208.976 429.369 208.922C429.428 208.357 429.489 207.778 429.539 207.204L429.542 207.183C429.542 207.183 429.592 206.753 429.613 206.564C429.617 206.533 429.62 206.501 429.624 206.47C429.636 206.363 429.649 206.255 429.656 206.147V206.144C429.681 205.923 429.702 205.705 429.723 205.487L429.723 205.487C429.737 205.362 429.75 205.235 429.763 205.107C429.783 204.916 429.803 204.724 429.825 204.532C429.741 204.438 429.662 204.34 429.584 204.244C429.557 204.21 429.53 204.177 429.503 204.143C429.423 204.044 429.34 203.941 429.257 203.845C428.977 203.5 428.697 203.159 428.417 202.817C428.277 202.647 428.137 202.476 427.997 202.305C427.184 201.315 426.349 200.295 425.521 199.281C425.546 199.353 425.573 199.429 425.6 199.504Z" fill="#FD5353"/>
</g>
<rect x="329.656" y="129.5" width="149" height="99" rx="4.5" stroke="#4F4566"/>
</g>
</g>
</g>
</g>
<defs>
<filter id="filter0_d_1877_13986" x="149.461" y="159.367" width="14.2199" height="48.585" filterUnits="userSpaceOnUse" color-interpolation-filters="sRGB">
<feFlood flood-opacity="0" result="BackgroundImageFix"/>
<feColorMatrix in="SourceAlpha" type="matrix" values="0 0 0 0 0 0 0 0 0 0 0 0 0 0 0 0 0 0 127 0" result="hardAlpha"/>
<feOffset dy="3.16"/>
<feGaussianBlur stdDeviation="1.58"/>
<feComposite in2="hardAlpha" operator="out"/>
<feColorMatrix type="matrix" values="0 0 0 0 0 0 0 0 0 0 0 0 0 0 0 0 0 0 0.25 0"/>
<feBlend mode="normal" in2="BackgroundImageFix" result="effect1_dropShadow_1877_13986"/>
<feBlend mode="normal" in="SourceGraphic" in2="effect1_dropShadow_1877_13986" result="shape"/>
</filter>
<filter id="filter1_d_1877_13986" x="145.156" y="109" width="198" height="148" filterUnits="userSpaceOnUse" color-interpolation-filters="sRGB">
<feFlood flood-opacity="0" result="BackgroundImageFix"/>
<feColorMatrix in="SourceAlpha" type="matrix" values="0 0 0 0 0 0 0 0 0 0 0 0 0 0 0 0 0 0 127 0" result="hardAlpha"/>
<feOffset dy="4"/>
<feGaussianBlur stdDeviation="12"/>
<feComposite in2="hardAlpha" operator="out"/>
<feColorMatrix type="matrix" values="0 0 0 0 0 0 0 0 0 0 0 0 0 0 0 0 0 0 1 0"/>
<feBlend mode="normal" in2="BackgroundImageFix" result="effect1_dropShadow_1877_13986"/>
<feBlend mode="normal" in="SourceGraphic" in2="effect1_dropShadow_1877_13986" result="shape"/>
</filter>
<filter id="filter2_d_1877_13986" x="198.656" y="152.25" width="18" height="61.5" filterUnits="userSpaceOnUse" color-interpolation-filters="sRGB">
<feFlood flood-opacity="0" result="BackgroundImageFix"/>
<feColorMatrix in="SourceAlpha" type="matrix" values="0 0 0 0 0 0 0 0 0 0 0 0 0 0 0 0 0 0 127 0" result="hardAlpha"/>
<feOffset dy="4"/>
<feGaussianBlur stdDeviation="2"/>
<feComposite in2="hardAlpha" operator="out"/>
<feColorMatrix type="matrix" values="0 0 0 0 0 0 0 0 0 0 0 0 0 0 0 0 0 0 0.25 0"/>
<feBlend mode="normal" in2="BackgroundImageFix" result="effect1_dropShadow_1877_13986"/>
<feBlend mode="normal" in="SourceGraphic" in2="effect1_dropShadow_1877_13986" result="shape"/>
</filter>
<filter id="filter3_d_1877_13986" x="358.656" y="152.25" width="18" height="61.5" filterUnits="userSpaceOnUse" color-interpolation-filters="sRGB">
<feFlood flood-opacity="0" result="BackgroundImageFix"/>
<feColorMatrix in="SourceAlpha" type="matrix" values="0 0 0 0 0 0 0 0 0 0 0 0 0 0 0 0 0 0 127 0" result="hardAlpha"/>
<feOffset dy="4"/>
<feGaussianBlur stdDeviation="2"/>
<feComposite in2="hardAlpha" operator="out"/>
<feColorMatrix type="matrix" values="0 0 0 0 0 0 0 0 0 0 0 0 0 0 0 0 0 0 0.25 0"/>
<feBlend mode="normal" in2="BackgroundImageFix" result="effect1_dropShadow_1877_13986"/>
<feBlend mode="normal" in="SourceGraphic" in2="effect1_dropShadow_1877_13986" result="shape"/>
</filter>
<linearGradient id="paint0_linear_1877_13986" x1="-51.6437" y1="169.261" x2="618.934" y2="168.861" gradientUnits="userSpaceOnUse">
<stop offset="0.1" stop-color="#5B21FF"/>
<stop offset="0.14" stop-color="#8330FF"/>
<stop offset="0.18" stop-color="#AA3FFF"/>
<stop offset="0.47" stop-color="#C740C7"/>
<stop offset="0.75" stop-color="#E54190"/>
<stop offset="0.88" stop-color="#EE495F"/>
<stop offset="1" stop-color="#F8522E"/>
</linearGradient>
<radialGradient id="paint1_radial_1877_13986" cx="0" cy="0" r="1" gradientUnits="userSpaceOnUse" gradientTransform="translate(3.72988 109.729) scale(27.0508 27.05)">
<stop offset="0.18" stop-color="white"/>
<stop offset="0.59" stop-color="white" stop-opacity="0.5"/>
<stop offset="1" stop-color="white" stop-opacity="0"/>
</radialGradient>
<radialGradient id="paint2_radial_1877_13986" cx="0" cy="0" r="1" gradientUnits="userSpaceOnUse" gradientTransform="translate(3.72988 109.729) scale(27.0508 27.05)">
<stop stop-color="#E72452"/>
<stop offset="0.47" stop-color="#942667"/>
<stop offset="0.93" stop-color="#41287B"/>
</radialGradient>
<radialGradient id="paint3_radial_1877_13986" cx="0" cy="0" r="1" gradientUnits="userSpaceOnUse" gradientTransform="translate(504.225 234.495) scale(27.0508 27.05)">
<stop offset="0.18" stop-color="white"/>
<stop offset="0.59" stop-color="white" stop-opacity="0.5"/>
<stop offset="1" stop-color="white" stop-opacity="0"/>
</radialGradient>
<radialGradient id="paint4_radial_1877_13986" cx="0" cy="0" r="1" gradientUnits="userSpaceOnUse" gradientTransform="translate(504.225 234.495) scale(27.0508 27.05)">
<stop stop-color="#E72452"/>
<stop offset="0.47" stop-color="#942667"/>
<stop offset="0.93" stop-color="#41287B"/>
</radialGradient>
<linearGradient id="paint5_linear_1877_13986" x1="278.156" y1="40.3046" x2="278.156" y2="277.718" gradientUnits="userSpaceOnUse">
<stop stop-color="#21242A"/>
<stop offset="0.11" stop-color="#342446"/>
<stop offset="0.2" stop-color="#472461"/>
<stop offset="0.5" stop-color="#472461"/>
<stop offset="0.8" stop-color="#472461"/>
<stop offset="0.9" stop-color="#342446"/>
<stop offset="1" stop-color="#21242A"/>
</linearGradient>
<radialGradient id="paint6_radial_1877_13986" cx="0" cy="0" r="1" gradientUnits="userSpaceOnUse" gradientTransform="translate(110.246 107.123) rotate(90) scale(27.1912 13.596)">
<stop stop-color="white"/>
<stop offset="0.5" stop-color="white" stop-opacity="0.5"/>
<stop offset="1" stop-color="white" stop-opacity="0"/>
</radialGradient>
<radialGradient id="paint7_radial_1877_13986" cx="0" cy="0" r="1" gradientUnits="userSpaceOnUse" gradientTransform="translate(110.246 107.123) rotate(90) scale(27.1912 13.596)">
<stop stop-color="#FC3D7D"/>
<stop offset="0.55" stop-color="#FC3D7D"/>
<stop offset="1" stop-color="#FC3D7D"/>
</radialGradient>
<radialGradient id="paint8_radial_1877_13986" cx="0" cy="0" r="1" gradientUnits="userSpaceOnUse" gradientTransform="translate(448.735 218.866) rotate(90) scale(27.1912 13.596)">
<stop stop-color="white"/>
<stop offset="0.5" stop-color="white" stop-opacity="0.5"/>
<stop offset="1" stop-color="white" stop-opacity="0"/>
</radialGradient>
<radialGradient id="paint9_radial_1877_13986" cx="0" cy="0" r="1" gradientUnits="userSpaceOnUse" gradientTransform="translate(448.735 218.866) rotate(90) scale(27.1912 13.596)">
<stop stop-color="#FC3D7D"/>
<stop offset="0.55" stop-color="#FC3D7D"/>
<stop offset="1" stop-color="#FC3D7D"/>
</radialGradient>
<clipPath id="clip0_1877_13986">
<rect x="0.15625" width="521" height="344" rx="12.8" fill="white"/>
</clipPath>
<clipPath id="clip1_1877_13986">
<rect width="521.688" height="504.969" fill="white" transform="translate(-0.0939941 0.499756)"/>
</clipPath>
<clipPath id="clip2_1877_13986">
<rect width="340" height="286" fill="white" transform="translate(108.156 30)"/>
</clipPath>
<clipPath id="clip3_1877_13986">
<rect x="126.156" y="141" width="118.5" height="79" rx="3.95" fill="white"/>
</clipPath>
<clipPath id="clip4_1877_13986">
<rect width="305" height="178" fill="white" transform="translate(141.156 99)"/>
</clipPath>
<clipPath id="clip5_1877_13986">
<rect x="169.156" y="129" width="150" height="100" rx="5" fill="white"/>
</clipPath>
<clipPath id="clip6_1877_13986">
<rect x="329.156" y="129" width="150" height="100" rx="5" fill="white"/>
</clipPath>
</defs>
</svg>
