<svg width="100" height="100" viewBox="0 0 100 100" fill="none" xmlns="http://www.w3.org/2000/svg">
<path d="M25.9847 41.2554H13.0731" stroke="white" stroke-width="0.666667" stroke-miterlimit="10"/>
<path d="M25.9847 61.1599H13.0731" stroke="white" stroke-width="0.666667" stroke-miterlimit="10"/>
<path d="M90.0232 41.2554H69.8168" stroke="white" stroke-width="0.666667" stroke-miterlimit="10"/>
<path d="M82.7284 61.1599H69.8168" stroke="white" stroke-width="0.666667" stroke-miterlimit="10"/>
<path d="M36.5372 54.5812V60.4297" stroke="white" stroke-width="0.666667" stroke-miterlimit="10"/>
<path d="M43.8601 36.0037V55.7537" stroke="white" stroke-width="0.666667" stroke-miterlimit="10"/>
<path d="M51.176 48.6906V58.3234" stroke="white" stroke-width="0.666667" stroke-miterlimit="10"/>
<path d="M58.4919 55.7537V63.6664" stroke="white" stroke-width="0.666667" stroke-miterlimit="10"/>
<path d="M90.0231 73.5098V75.5459C90.0231 81.9771 84.7293 87.1867 78.1998 87.1867H24.7419" stroke="url(#paint0_linear_1913_12009)" stroke-width="0.666667" stroke-miterlimit="10"/>
<path d="M49.0416 11.2617H78.1998C84.7293 11.2617 90.0232 16.4712 90.0232 22.9025V48.7748" stroke="url(#paint1_linear_1913_12009)" stroke-width="0.666667" stroke-miterlimit="10"/>
<path d="M12.9186 73.587V22.9025C12.9186 16.4712 18.2124 11.2617 24.7419 11.2617" stroke="url(#paint2_linear_1913_12009)" stroke-width="0.666667" stroke-miterlimit="10"/>
<path d="M37.4851 16.071V28.9827" stroke="white" stroke-width="0.666667" stroke-miterlimit="10"/>
<path d="M29.2494 70.4135L17.2997 82.3632" stroke="white" stroke-width="0.666667" stroke-miterlimit="10"/>
<path d="M37.2253 17.3068C40.5639 17.3068 43.2703 14.6003 43.2703 11.2617C43.2703 7.92309 40.5639 5.21661 37.2253 5.21661C33.8866 5.21661 31.1802 7.92309 31.1802 11.2617C31.1802 14.6003 33.8866 17.3068 37.2253 17.3068Z" stroke="white" stroke-width="0.666667" stroke-miterlimit="10"/>
<path d="M90.8095 67.1979C94.1443 67.1979 96.8476 64.4946 96.8476 61.1599C96.8476 57.8252 94.1443 55.1218 90.8095 55.1218C87.4748 55.1218 84.7715 57.8252 84.7715 61.1599C84.7715 64.4946 87.4748 67.1979 90.8095 67.1979Z" stroke="white" stroke-width="0.666667" stroke-miterlimit="10"/>
<path d="M13.2766 92.4174C16.6075 92.4174 19.3077 89.7172 19.3077 86.3863C19.3077 83.0555 16.6075 80.3553 13.2766 80.3553C9.94579 80.3553 7.24561 83.0555 7.24561 86.3863C7.24561 89.7172 9.94579 92.4174 13.2766 92.4174Z" stroke="white" stroke-width="0.666667" stroke-miterlimit="10"/>
<path d="M57.5441 28.9827H37.4851C30.7071 28.9827 25.2124 34.4773 25.2124 41.2554V61.3143C25.2124 68.0924 30.7071 73.587 37.4851 73.587H57.5441C64.3221 73.587 69.8168 68.0924 69.8168 61.3143V41.2554C69.8168 34.4773 64.3221 28.9827 57.5441 28.9827Z" stroke="url(#paint3_linear_1913_12009)" stroke-width="0.666667" stroke-miterlimit="10"/>
<defs>
<linearGradient id="paint0_linear_1913_12009" x1="24.7419" y1="81.3593" x2="92.4805" y2="81.3593" gradientUnits="userSpaceOnUse">
<stop offset="0.09" stop-color="#66C1DE" stop-opacity="0"/>
<stop offset="0.49" stop-color="#66C1DE"/>
<stop offset="1" stop-color="#6B8CF5"/>
</linearGradient>
<linearGradient id="paint1_linear_1913_12009" x1="49.0416" y1="28.7931" x2="0.702089" y2="28.7931" gradientUnits="userSpaceOnUse">
<stop offset="0.09" stop-color="#66C1DE" stop-opacity="0"/>
<stop offset="0.49" stop-color="#66C1DE"/>
<stop offset="1" stop-color="#6B8CF5"/>
</linearGradient>
<linearGradient id="paint2_linear_1913_12009" x1="17.6016" y1="8.80431" x2="17.6016" y2="73.587" gradientUnits="userSpaceOnUse">
<stop offset="0.09" stop-color="#66C1DE" stop-opacity="0"/>
<stop offset="0.49" stop-color="#66C1DE"/>
<stop offset="1" stop-color="#6B8CF5"/>
</linearGradient>
<linearGradient id="paint3_linear_1913_12009" x1="22.7551" y1="51.2813" x2="72.2741" y2="51.2813" gradientUnits="userSpaceOnUse">
<stop stop-color="#6B8CF5"/>
<stop offset="1" stop-color="#66C1DE"/>
</linearGradient>
</defs>
</svg>
