<svg width="94" height="94" viewBox="0 0 94 94" fill="none" xmlns="http://www.w3.org/2000/svg">
<path d="M32.2659 21.8794V13.9831C32.2659 11.7879 34.0483 10.0055 36.2435 10.0055H57.7633C59.9585 10.0055 61.7409 11.7879 61.7409 13.9831V21.8794" stroke="url(#paint0_linear_1908_11914)" stroke-width="0.666667" stroke-miterlimit="10"/>
<path d="M84.3091 34.4806L58.2154 51.5641H44.677H38.8449H35.3391L9.24536 34.4806" stroke="url(#paint1_linear_1908_11914)" stroke-width="0.666667" stroke-linecap="round" stroke-linejoin="round"/>
<path d="M78.4705 21.5255H15.5297C11.9504 21.5255 9.04883 24.4271 9.04883 28.0064V68.6607C9.04883 72.24 11.9504 75.1416 15.5297 75.1416H78.4705C82.0498 75.1416 84.9514 72.24 84.9514 68.6607V28.0064C84.9514 24.4271 82.0498 21.5255 78.4705 21.5255Z" stroke="url(#paint2_linear_1908_11914)" stroke-width="0.666667" stroke-linecap="round" stroke-linejoin="round"/>
<path d="M66.3083 73.2412C70.3038 73.2412 73.5427 70.0022 73.5427 66.0068C73.5427 62.0113 70.3038 58.7723 66.3083 58.7723C62.3128 58.7723 59.0739 62.0113 59.0739 66.0068C59.0739 70.0022 62.3128 73.2412 66.3083 73.2412Z" stroke="white" stroke-width="0.666667" stroke-miterlimit="10"/>
<path d="M83.2017 64.978C83.1034 63.7854 83.5752 62.6124 84.5123 61.8654L85.102 61.3935C86.4716 60.2992 86.832 58.3726 85.9605 56.8589L84.0077 53.4776C83.1296 51.9639 81.2817 51.3151 79.65 51.9508L78.5426 52.3833C77.4875 52.7961 76.3015 52.6716 75.3382 52.0622C74.8664 51.7607 74.3749 51.4855 73.8703 51.23C72.8284 50.7123 72.101 49.7293 71.9241 48.5826L71.7537 47.4424C71.4916 45.7124 70.0041 44.4346 68.2545 44.4346H64.3489C62.5993 44.4346 61.1118 45.7124 60.8497 47.4424L60.6793 48.5826C60.5089 49.7293 59.775 50.7123 58.7331 51.23C58.2285 51.4855 57.737 51.7607 57.2652 52.0622C56.3085 52.6716 55.1224 52.7961 54.0608 52.3833L52.9534 51.9508C51.3217 51.3086 49.4738 51.9573 48.5957 53.4776L46.6429 56.8589C45.7648 58.3726 46.1318 60.2992 47.5014 61.3935L48.0911 61.8654C49.0282 62.6124 49.5065 63.7854 49.4017 64.978V66.5704C49.5 67.763 49.0282 68.936 48.0911 69.683L47.5014 70.1548C46.1318 71.2491 45.7714 73.1757 46.6429 74.6894L48.5957 78.0707C49.4738 79.5845 51.3217 80.2332 52.9534 79.5976L54.0608 79.1651C55.1159 78.7522 56.3019 78.8767 57.2652 79.4862C57.737 79.7876 58.2285 80.0628 58.7331 80.3184C59.775 80.8361 60.5024 81.819 60.6793 82.9658L60.8497 84.106C61.1118 85.836 62.5993 87.1138 64.3489 87.1138H68.2545C70.0041 87.1138 71.4916 85.836 71.7537 84.106L71.9241 82.9658C72.0945 81.819 72.8284 80.8361 73.8703 80.3184C74.3749 80.0628 74.8664 79.7876 75.3382 79.4862C76.2949 78.8767 77.481 78.7522 78.5426 79.1651L79.65 79.5976C81.2817 80.2398 83.1296 79.591 84.0077 78.0707L85.9605 74.6894C86.8386 73.1757 86.4716 71.2491 85.102 70.1548L84.5123 69.683C83.5752 68.936 83.0968 67.763 83.2017 66.5704V64.978V64.978Z" stroke="white" stroke-width="0.666667" stroke-miterlimit="10"/>
<defs>
<linearGradient id="paint0_linear_1908_11914" x1="62.2717" y1="24.9331" x2="32.5804" y2="7.79061" gradientUnits="userSpaceOnUse">
<stop stop-color="#66C1DE"/>
<stop offset="1" stop-color="#6B8CF5"/>
</linearGradient>
<linearGradient id="paint1_linear_1908_11914" x1="53.9953" y1="55.4434" x2="42.0559" y2="20.7588" gradientUnits="userSpaceOnUse">
<stop offset="0.1" stop-color="#66C1DE" stop-opacity="0"/>
<stop offset="0.4" stop-color="#66C1DE"/>
<stop offset="1" stop-color="#6B8CF5"/>
</linearGradient>
<linearGradient id="paint2_linear_1908_11914" x1="19.8087" y1="13.5309" x2="74.1915" y2="83.1361" gradientUnits="userSpaceOnUse">
<stop stop-color="#6B8CF5"/>
<stop offset="0.6" stop-color="#66C1DE"/>
<stop offset="0.9" stop-color="#66C1DE" stop-opacity="0"/>
</linearGradient>
</defs>
</svg>
