<svg width="10" height="10" viewBox="0 0 10 10" fill="none" xmlns="http://www.w3.org/2000/svg">
<path fill-rule="evenodd" clip-rule="evenodd" d="M8.92801 1.03491C8.80345 0.910074 8.63435 0.839919 8.45801 0.839919C8.28166 0.839919 8.11256 0.910074 7.98801 1.03491L4.72801 4.28824L1.46801 1.02824C1.34345 0.903407 1.17435 0.833252 0.998008 0.833252C0.821663 0.833252 0.652562 0.903407 0.528008 1.02824C0.268008 1.28824 0.268008 1.70824 0.528008 1.96824L3.78801 5.22824L0.528008 8.48824C0.268008 8.74824 0.268008 9.16824 0.528008 9.42824C0.788008 9.68824 1.20801 9.68824 1.46801 9.42824L4.72801 6.16824L7.98801 9.42824C8.24801 9.68824 8.66801 9.68824 8.92801 9.42824C9.18801 9.16824 9.18801 8.74824 8.92801 8.48824L5.66801 5.22824L8.92801 1.96824C9.18134 1.71491 9.18134 1.28824 8.92801 1.03491Z" fill="white"/>
</svg>
