<svg width="30" height="31" viewBox="0 0 30 31" fill="none" xmlns="http://www.w3.org/2000/svg">
<path d="M15 30.8359C23.2843 30.8359 30 24.1202 30 15.8359C30 7.55167 23.2843 0.835938 15 0.835938C6.71573 0.835938 0 7.55167 0 15.8359C0 24.1202 6.71573 30.8359 15 30.8359Z" fill="#15161C"/>
<path fill-rule="evenodd" clip-rule="evenodd" d="M8.2507 16.6931H13.3936C13.865 16.6931 14.2507 16.3074 14.2507 15.836V8.97885C14.2507 8.50742 13.865 8.1217 13.3936 8.1217H8.2507C7.77927 8.1217 7.39355 8.50742 7.39355 8.97885V15.836C7.39355 16.3074 7.77927 16.6931 8.2507 16.6931ZM8.2507 23.5503H13.3936C13.865 23.5503 14.2507 23.1646 14.2507 22.6931V19.2646C14.2507 18.7931 13.865 18.4074 13.3936 18.4074H8.2507C7.77927 18.4074 7.39355 18.7931 7.39355 19.2646V22.6931C7.39355 23.1646 7.77927 23.5503 8.2507 23.5503ZM16.8225 23.5503H21.9654C22.4368 23.5503 22.8225 23.1646 22.8225 22.6932V15.836C22.8225 15.3646 22.4368 14.9789 21.9654 14.9789H16.8225C16.3511 14.9789 15.9654 15.3646 15.9654 15.836V22.6932C15.9654 23.1646 16.3511 23.5503 16.8225 23.5503ZM15.9654 8.97885V12.4074C15.9654 12.8788 16.3511 13.2646 16.8225 13.2646H21.9654C22.4368 13.2646 22.8225 12.8788 22.8225 12.4074V8.97885C22.8225 8.50742 22.4368 8.1217 21.9654 8.1217H16.8225C16.3511 8.1217 15.9654 8.50742 15.9654 8.97885Z" fill="#7149B6"/>
</svg>
