<svg width="15" height="18" viewBox="0 0 15 18" fill="none" xmlns="http://www.w3.org/2000/svg">
<path fill-rule="evenodd" clip-rule="evenodd" d="M0.2925 12.21L4.8725 16.79C5.2625 17.18 5.9025 17.18 6.2925 16.79C6.6825 16.4 6.6825 15.76 6.2925 15.37L3.4125 12.5H13.5825C14.1325 12.5 14.5825 12.05 14.5825 11.5V1.5C14.5825 0.95 14.1325 0.5 13.5825 0.5C13.0325 0.5 12.5825 0.95 12.5825 1.5V10.5H3.4125L6.2925 7.63C6.6825 7.24 6.6825 6.6 6.2925 6.21C5.9025 5.82 5.2625 5.82 4.8725 6.21L0.2925 10.79C-0.0975 11.18 -0.0975 11.82 0.2925 12.21Z" fill="#86FFB6"/>
</svg>
