<svg width="18" height="7" viewBox="0 0 18 7" fill="none" xmlns="http://www.w3.org/2000/svg">
<path d="M3.50213 6.55405C2.83813 6.55405 2.26613 6.43005 1.78613 6.18204C1.30613 5.93404 0.934133 5.58205 0.670133 5.12605C0.414133 4.67005 0.286133 4.13004 0.286133 3.50604C0.286133 2.89804 0.410133 2.36604 0.658133 1.91005C0.914133 1.45404 1.26213 1.09804 1.70213 0.842045C2.15013 0.578045 2.65813 0.446045 3.22613 0.446045C4.05813 0.446045 4.71413 0.710045 5.19413 1.23804C5.68213 1.76604 5.92613 2.48604 5.92613 3.39804V3.84205H1.72613C1.83813 4.89005 2.43813 5.41404 3.52613 5.41404C3.85413 5.41404 4.18213 5.36605 4.51013 5.27005C4.83813 5.16605 5.13813 5.00604 5.41013 4.79004L5.83013 5.79805C5.55013 6.03005 5.19813 6.21405 4.77413 6.35005C4.35013 6.48605 3.92613 6.55405 3.50213 6.55405ZM3.28613 1.46604C2.84613 1.46604 2.49013 1.60204 2.21813 1.87404C1.94613 2.14604 1.78213 2.51405 1.72613 2.97804H4.67813C4.64613 2.49005 4.51013 2.11804 4.27013 1.86204C4.03813 1.59804 3.71013 1.46604 3.28613 1.46604Z" fill="#86FFB6"/>
<path d="M9.26204 6.55405C8.76604 6.55405 8.30204 6.49404 7.87004 6.37404C7.43804 6.25405 7.07804 6.08205 6.79004 5.85805L7.17404 4.87404C7.47004 5.07405 7.80204 5.23004 8.17004 5.34204C8.53804 5.44604 8.90604 5.49804 9.27404 5.49804C9.65804 5.49804 9.94204 5.43404 10.126 5.30605C10.318 5.17004 10.414 4.99404 10.414 4.77804C10.414 4.44204 10.166 4.22604 9.67004 4.13004L8.47004 3.90205C7.45404 3.71004 6.94604 3.18204 6.94604 2.31804C6.94604 1.93404 7.05004 1.60204 7.25804 1.32204C7.47404 1.04204 7.77004 0.826045 8.14604 0.674045C8.52204 0.522045 8.95404 0.446045 9.44204 0.446045C9.85804 0.446045 10.258 0.506045 10.642 0.626045C11.026 0.738045 11.354 0.910045 11.626 1.14204L11.218 2.12604C10.986 1.93404 10.706 1.78204 10.378 1.67004C10.058 1.55804 9.75004 1.50204 9.45404 1.50204C9.06204 1.50204 8.77004 1.57004 8.57804 1.70604C8.39404 1.84204 8.30204 2.02205 8.30204 2.24604C8.30204 2.59804 8.53004 2.81404 8.98604 2.89404L10.186 3.12204C10.706 3.21804 11.098 3.39404 11.362 3.65004C11.634 3.90604 11.77 4.25005 11.77 4.68204C11.77 5.26605 11.542 5.72605 11.086 6.06205C10.63 6.39005 10.022 6.55405 9.26204 6.55405Z" fill="#86FFB6"/>
<path d="M15.6854 6.55405C15.0694 6.55405 14.5334 6.43005 14.0774 6.18204C13.6214 5.92604 13.2694 5.56605 13.0214 5.10205C12.7734 4.63804 12.6494 4.09405 12.6494 3.47005C12.6494 2.84605 12.7734 2.31004 13.0214 1.86204C13.2694 1.40604 13.6214 1.05804 14.0774 0.818045C14.5334 0.570045 15.0694 0.446045 15.6854 0.446045C16.0614 0.446045 16.4334 0.506045 16.8014 0.626045C17.1694 0.746045 17.4734 0.914045 17.7134 1.13004L17.2694 2.17404C17.0614 1.99004 16.8254 1.85004 16.5614 1.75404C16.3054 1.65804 16.0574 1.61004 15.8174 1.61004C15.2974 1.61004 14.8934 1.77404 14.6054 2.10204C14.3254 2.42204 14.1854 2.88204 14.1854 3.48204C14.1854 4.07404 14.3254 4.54205 14.6054 4.88604C14.8934 5.22204 15.2974 5.39005 15.8174 5.39005C16.0494 5.39005 16.2974 5.34205 16.5614 5.24605C16.8254 5.15004 17.0614 5.00604 17.2694 4.81404L17.7134 5.87005C17.4734 6.07805 17.1654 6.24605 16.7894 6.37404C16.4214 6.49404 16.0534 6.55405 15.6854 6.55405Z" fill="#86FFB6"/>
</svg>
