<svg width="583" height="558" viewBox="0 0 583 558" fill="none" xmlns="http://www.w3.org/2000/svg">
<path opacity="0.31" fill-rule="evenodd" clip-rule="evenodd" d="M360.4 0.36084C354.546 0.36084 349.8 4.89886 349.8 10.4968V101.72C349.8 101.864 349.803 102.008 349.809 102.151L349.8 102.142C349.8 111.856 339.642 111.856 339.642 111.856L339.651 111.865C339.502 111.859 339.351 111.856 339.2 111.856H243.8C237.946 111.856 233.2 116.394 233.2 121.992V213.215C233.2 213.235 233.2 213.256 233.2 213.276C233.2 213.304 233.201 213.333 233.201 213.362C233.203 213.457 233.205 213.552 233.209 213.646L233.2 213.637C233.2 223.351 223.042 223.351 223.042 223.351L223.051 223.36C222.952 223.356 222.853 223.353 222.754 223.352C222.724 223.352 222.694 223.351 222.664 223.351C222.642 223.351 222.621 223.351 222.6 223.351H127.2C121.346 223.351 116.6 227.889 116.6 233.487V324.71C116.6 324.854 116.603 324.998 116.609 325.141L116.6 325.132C116.6 334.846 106.442 334.846 106.442 334.846L106.451 334.855C106.302 334.849 106.151 334.846 106 334.846H10.6C4.7458 334.846 0 339.384 0 344.982V436.205C0 441.801 4.7458 446.341 10.6 446.341H106C106.151 446.341 106.302 446.337 106.451 446.332L106.442 446.341C106.442 446.341 116.6 446.341 116.6 456.054L116.609 456.046C116.603 456.19 116.6 456.333 116.6 456.477V547.7C116.6 553.296 121.346 557.836 127.2 557.836H222.6C228.454 557.836 233.2 553.296 233.2 547.7V456.477C233.2 456.333 233.197 456.19 233.191 456.046L233.2 456.054C233.2 446.341 243.358 446.341 243.358 446.341L243.349 446.332C243.408 446.332 243.467 446.337 243.525 446.337C243.617 446.341 243.708 446.341 243.8 446.341H339.2C339.294 446.341 339.387 446.341 339.48 446.337C339.537 446.337 339.594 446.332 339.651 446.332L339.642 446.341C339.642 446.341 349.8 446.341 349.8 456.054L349.809 456.046C349.803 456.19 349.8 456.333 349.8 456.477V547.7C349.8 553.296 354.546 557.836 360.4 557.836H455.8C461.652 557.836 466.4 553.296 466.4 547.7V456.477C466.4 456.333 466.396 456.19 466.391 456.046L466.4 456.054C466.4 446.341 476.558 446.341 476.558 446.341L476.549 446.332C476.7 446.337 476.85 446.341 477 446.341H572.4C578.252 446.341 583 441.801 583 436.205V344.982C583 339.384 578.252 334.846 572.4 334.846H477C476.85 334.846 476.7 334.849 476.549 334.855L476.558 334.846C476.558 334.846 466.4 334.846 466.4 325.132L466.391 325.141C466.396 325.035 466.4 324.928 466.4 324.82C466.4 324.783 466.4 324.747 466.4 324.71V233.487C466.4 227.889 461.652 223.351 455.8 223.351H360.4C360.249 223.351 360.098 223.354 359.949 223.36L359.958 223.351C359.958 223.351 349.8 223.351 349.8 213.637L349.791 213.646C349.795 213.554 349.797 213.461 349.799 213.368C349.8 213.317 349.8 213.266 349.8 213.215V121.992C349.8 121.847 349.797 121.703 349.791 121.561L349.8 121.569C349.8 111.856 359.958 111.856 359.958 111.856L359.949 111.847C360.022 111.85 360.095 111.852 360.168 111.853C360.245 111.855 360.322 111.856 360.4 111.856H455.8C461.652 111.856 466.4 107.318 466.4 101.72V10.4968C466.4 4.89886 461.652 0.36084 455.8 0.36084H360.4ZM126.749 446.349C126.898 446.345 127.049 446.341 127.2 446.341H222.6C222.751 446.341 222.902 446.345 223.051 446.349L223.042 446.341C223.042 446.341 233.2 446.341 233.2 436.627L233.209 436.636C233.203 436.492 233.2 436.349 233.2 436.205V344.982C233.2 344.837 233.203 344.693 233.209 344.551L233.2 344.559C233.2 334.846 223.042 334.846 223.042 334.846L223.051 334.837C222.955 334.841 222.857 334.843 222.76 334.845C222.707 334.845 222.653 334.846 222.6 334.846H127.2C127.049 334.846 126.898 334.843 126.749 334.837L126.758 334.846C126.758 334.846 116.6 334.846 116.6 344.559L116.591 344.551C116.593 344.619 116.596 344.688 116.597 344.757C116.599 344.832 116.6 344.907 116.6 344.982V436.205C116.6 436.349 116.597 436.492 116.591 436.636L116.6 436.627C116.6 446.341 126.758 446.341 126.758 446.341L126.749 446.349ZM349.8 436.627L349.791 436.636C349.795 436.534 349.798 436.437 349.799 436.336C349.8 436.289 349.8 436.247 349.8 436.205V344.982C349.8 344.837 349.797 344.693 349.791 344.551L349.8 344.559C349.8 334.846 359.958 334.846 359.958 334.846L359.949 334.837C360.098 334.843 360.249 334.846 360.4 334.846H455.8C455.844 334.846 455.888 334.845 455.937 334.845C456.043 334.844 456.145 334.841 456.251 334.837L456.242 334.846C456.242 334.846 466.4 334.846 466.4 344.559L466.409 344.551C466.404 344.693 466.4 344.837 466.4 344.982V436.205C466.4 436.349 466.404 436.492 466.409 436.636L466.4 436.627C466.4 446.341 456.242 446.341 456.242 446.341L456.251 446.349C456.1 446.345 455.95 446.341 455.8 446.341H360.4C360.249 446.341 360.098 446.345 359.949 446.349L359.958 446.341C359.958 446.341 349.8 446.341 349.8 436.627ZM349.809 325.141C349.803 324.998 349.8 324.854 349.8 324.71V233.487C349.8 233.401 349.801 233.315 349.804 233.229C349.805 233.171 349.807 233.113 349.809 233.056L349.8 233.064C349.8 223.351 339.642 223.351 339.642 223.351L339.651 223.342C339.502 223.348 339.351 223.351 339.2 223.351H243.8C243.649 223.351 243.498 223.348 243.349 223.342L243.358 223.351C243.358 223.351 233.2 223.351 233.2 233.064L233.191 233.056C233.197 233.198 233.2 233.342 233.2 233.487V324.71C233.2 324.854 233.197 324.998 233.191 325.141L233.2 325.132C233.2 334.846 243.358 334.846 243.358 334.846L243.349 334.855C243.41 334.853 243.47 334.851 243.531 334.849C243.562 334.848 243.593 334.848 243.624 334.847L243.661 334.847L243.688 334.846C243.725 334.846 243.762 334.846 243.8 334.846H339.2C339.351 334.846 339.502 334.849 339.651 334.855L339.642 334.846C339.642 334.846 349.8 334.846 349.8 325.132L349.809 325.141Z" fill="#190042"/>
</svg>
