<svg width="12" height="13" viewBox="0 0 12 13" fill="none" xmlns="http://www.w3.org/2000/svg">
<path fill-rule="evenodd" clip-rule="evenodd" d="M9.59751 6.60393L5.70751 10.5168C5.31751 10.9091 5.31751 11.5428 5.70751 11.9351C6.09751 12.3274 6.72751 12.3274 7.11751 11.9351L11.7075 7.31811C11.8948 7.13018 12 6.87504 12 6.60896C12 6.34289 11.8948 6.08774 11.7075 5.89981L7.11751 1.27272C6.72751 0.880428 6.09751 0.880428 5.70751 1.27272C5.31751 1.66502 5.31751 2.29873 5.70751 2.69103L9.59751 6.60393ZM0.00781246 1.57449L0.00781202 11.6334C0.00781199 12.1866 0.457812 12.6393 1.00781 12.6393C1.55781 12.6393 2.00781 12.1866 2.00781 11.6334L2.00781 1.57449C2.00781 1.02125 1.55781 0.568603 1.00781 0.568603C0.457812 0.568603 0.00781248 1.02125 0.00781246 1.57449Z" fill="#86FFB6"/>
</svg>
