<svg width="12" height="13" viewBox="0 0 12 13" fill="none" xmlns="http://www.w3.org/2000/svg">
<path fill-rule="evenodd" clip-rule="evenodd" d="M2.40249 6.60395L6.29249 2.69105C6.68249 2.29875 6.68249 1.66504 6.29249 1.27274C5.90249 0.880448 5.27248 0.880448 4.88248 1.27274L0.292485 5.88977C0.105233 6.0777 -2.75663e-07 6.33285 -2.64032e-07 6.59892C-2.52402e-07 6.865 0.105233 7.12014 0.292485 7.30807L4.88249 11.9352C5.27249 12.3275 5.90249 12.3275 6.29249 11.9352C6.68249 11.5429 6.68249 10.9092 6.29249 10.5169L2.40249 6.60395ZM11.9922 11.6334L11.9922 1.57451C11.9922 1.02127 11.5422 0.568622 10.9922 0.568622C10.4422 0.568622 9.99219 1.02127 9.99219 1.57451L9.99219 11.6334C9.99219 12.1866 10.4422 12.6393 10.9922 12.6393C11.5422 12.6393 11.9922 12.1866 11.9922 11.6334Z" fill="#86FFB6"/>
</svg>
