<svg width="16" height="17" viewBox="0 0 16 17" fill="none" xmlns="http://www.w3.org/2000/svg">
<path fill-rule="evenodd" clip-rule="evenodd" d="M1 9.42842H12.17L7.29 14.3084C6.9 14.6984 6.9 15.3384 7.29 15.7284C7.68 16.1184 8.31 16.1184 8.7 15.7284L15.29 9.13842C15.68 8.74842 15.68 8.11842 15.29 7.72842L8.71 1.12842C8.52317 0.94117 8.26952 0.835938 8.005 0.835938C7.74048 0.835938 7.48683 0.94117 7.3 1.12842C6.91 1.51842 6.91 2.14842 7.3 2.53842L12.17 7.42842H1C0.45 7.42842 0 7.87842 0 8.42842C0 8.97842 0.45 9.42842 1 9.42842Z" fill="#86FFB6"/>
</svg>
