<svg width="15" height="21" viewBox="0 0 15 21" fill="none" xmlns="http://www.w3.org/2000/svg">
<path fill-rule="evenodd" clip-rule="evenodd" d="M4.07043 19.3281C4.07043 19.8781 4.52308 20.3281 5.07632 20.3281H9.09987C9.65311 20.3281 10.1058 19.8781 10.1058 19.3281V18.3281H4.07043V19.3281ZM7.08809 0.328125C3.20536 0.328125 0.046875 3.46813 0.046875 7.32812C0.046875 9.70813 1.24388 11.7981 3.06454 13.0681V15.3281C3.06454 15.8781 3.51719 16.3281 4.07043 16.3281H10.1058C10.659 16.3281 11.1116 15.8781 11.1116 15.3281V13.0681C12.9323 11.7981 14.1293 9.70813 14.1293 7.32813C14.1293 3.46813 10.9708 0.328125 7.08809 0.328125ZM9.95487 11.4281L9.09987 12.0281V14.3281L5.07632 14.3281L5.07632 12.0281L4.22131 11.4281C2.86336 10.4881 2.05865 8.95813 2.05865 7.32812C2.05865 4.56812 4.31184 2.32813 7.08809 2.32813C9.86435 2.32813 12.1175 4.56812 12.1175 7.32813C12.1175 8.95813 11.3128 10.4881 9.95487 11.4281Z" fill="#86FFB6"/>
</svg>
