<svg width="30" height="31" viewBox="0 0 30 31" fill="none" xmlns="http://www.w3.org/2000/svg">
<path d="M15 30.8359C23.2843 30.8359 30 24.1202 30 15.8359C30 7.55167 23.2843 0.835938 15 0.835938C6.71573 0.835938 0 7.55167 0 15.8359C0 24.1202 6.71573 30.8359 15 30.8359Z" fill="#1E1A2D"/>
<path fill-rule="evenodd" clip-rule="evenodd" d="M15.1066 7.26453C10.3752 7.26453 6.53516 11.1045 6.53516 15.836C6.53516 20.5674 10.3752 24.4074 15.1066 24.4074C19.838 24.4074 23.678 20.5674 23.678 15.836C23.678 11.1045 19.838 7.26453 15.1066 7.26453ZM18.2004 12.6988C19.1175 12.6988 19.8547 13.436 19.8547 14.3531C19.8547 15.2703 19.1175 16.0074 18.2004 16.0074C17.2833 16.0074 16.5461 15.2703 16.5461 14.3531C16.5375 13.436 17.2833 12.6988 18.2004 12.6988ZM13.0582 11.3445C14.1724 11.3445 15.081 12.2531 15.081 13.3674C15.081 14.4817 14.1724 15.3903 13.0582 15.3903C11.9439 15.3903 11.0353 14.4817 11.0353 13.3674C11.0353 12.2445 11.9353 11.3445 13.0582 11.3445ZM13.0579 19.1702V22.3845C11.0008 21.7417 9.3722 20.1559 8.6522 18.1331C9.5522 17.1731 11.7979 16.6845 13.0579 16.6845C13.5122 16.6845 14.0865 16.7531 14.6865 16.8731C13.2808 17.6188 13.0579 18.6045 13.0579 19.1702ZM15.1063 22.6931C14.8748 22.6931 14.652 22.6845 14.4291 22.6588V19.1702C14.4291 17.9531 16.9491 17.3445 18.2006 17.3445C19.1177 17.3445 20.7034 17.6788 21.492 18.3302C20.4891 20.8759 18.012 22.6931 15.1063 22.6931Z" fill="#7149B6"/>
</svg>
