<svg width="30" height="31" viewBox="0 0 30 31" fill="none" xmlns="http://www.w3.org/2000/svg">
<path d="M15 30.8359C23.2843 30.8359 30 24.1202 30 15.8359C30 7.55167 23.2843 0.835938 15 0.835938C6.71573 0.835938 0 7.55167 0 15.8359C0 24.1202 6.71573 30.8359 15 30.8359Z" fill="#1E1A2D"/>
<path fill-rule="evenodd" clip-rule="evenodd" d="M14.4136 6.55521L8.41355 9.22092C7.79641 9.49521 7.39355 10.1123 7.39355 10.7895V14.8181C7.39355 19.5752 10.685 24.0238 15.1078 25.1038C19.5307 24.0238 22.8221 19.5752 22.8221 14.8181V10.7895C22.8221 10.1123 22.4193 9.49521 21.8021 9.22092L15.8021 6.55521C15.365 6.35806 14.8507 6.35806 14.4136 6.55521ZM12.7847 19.3524L10.5647 17.1324C10.4042 16.9723 10.314 16.7548 10.314 16.5281C10.314 16.3014 10.4042 16.084 10.5647 15.9238C10.899 15.5895 11.439 15.5895 11.7733 15.9238L13.3933 17.5353L18.4333 12.4953C18.7676 12.161 19.3076 12.161 19.6419 12.4953C19.9762 12.8295 19.9762 13.3695 19.6419 13.7038L13.9933 19.3524C13.6676 19.6867 13.119 19.6867 12.7847 19.3524Z" fill="#7149B6"/>
</svg>
