<svg width="1190" height="530" viewBox="0 0 1190 530" fill="none" xmlns="http://www.w3.org/2000/svg">
<path d="M135.316 127.211L136.027 126.642L135.316 127.211ZM138.158 130.021L137.611 130.749L138.158 130.021ZM135.521 127.467L134.809 128.036L135.521 127.467ZM138.256 130.094L138.803 129.366L138.256 130.094ZM267.437 259.238L268.148 258.669L267.437 259.238ZM270.279 262.048L269.732 262.776L270.279 262.048ZM267.642 259.494L266.93 260.063L267.642 259.494ZM270.377 262.121L270.924 261.393L270.377 262.121ZM399.558 391.265L400.269 390.696L399.558 391.265ZM402.4 394.075L401.853 394.803L402.4 394.075ZM399.763 391.52L399.051 392.09L399.763 391.52ZM402.498 394.148L403.045 393.42L402.498 394.148ZM523.26 394.148L523.807 394.877L523.26 394.148ZM525.995 391.52L526.707 392.09L525.995 391.52ZM523.359 394.075L523.905 394.803L523.359 394.075ZM526.201 391.265L526.912 391.833L526.201 391.265ZM655.381 262.121L655.928 262.85L655.381 262.121ZM658.116 259.494L658.828 260.063L658.116 259.494ZM655.48 262.048L656.026 262.776L655.48 262.048ZM658.322 259.238L659.033 259.806L658.322 259.238ZM661.346 273.956L662.179 274.325L661.346 273.956ZM663.799 391.265L664.511 390.696L663.799 391.265ZM666.641 394.075L666.095 394.803L666.641 394.075ZM664.005 391.52L664.716 390.951L664.005 391.52ZM666.74 394.148L666.193 394.877L666.74 394.148ZM787.502 394.148L788.049 394.877L787.502 394.148ZM790.237 391.52L790.949 392.09L790.237 391.52ZM787.601 394.075L788.147 394.803L787.601 394.075ZM790.443 391.265L791.154 391.833L790.443 391.265ZM919.626 262.121L920.173 262.85L919.626 262.121ZM922.359 259.494L923.07 260.063L922.359 259.494ZM919.726 262.048L920.273 262.776L919.726 262.048ZM922.56 259.238L923.271 259.806L922.56 259.238ZM1054.48 127.467L1055.19 128.036L1054.48 127.467ZM1051.85 130.021L1051.3 129.292L1051.85 130.021ZM925.585 273.956L926.423 274.325L925.585 273.956ZM793.467 405.983L794.3 406.352L793.467 405.983ZM660.775 405.983L659.942 406.352L660.775 405.983ZM529.225 405.983L530.058 406.352L529.225 405.983ZM396.533 405.983L397.367 405.616L396.533 405.983ZM132.291 405.983L133.125 405.616L132.291 405.983ZM135.316 391.265L136.027 390.696L135.316 391.265ZM138.158 394.075L137.611 394.803L138.158 394.075ZM135.521 391.52L136.232 390.951L135.521 391.52ZM138.256 394.148L138.803 393.42L138.256 394.148ZM261.959 390.126L262.67 390.695L261.959 390.126ZM1051.75 130.094L1051.2 129.366L1051.75 130.094ZM264.412 273.956L265.246 273.589L264.412 273.956ZM1054.68 127.211L1053.97 126.642L1054.68 127.211ZM258.107 394.148L257.56 393.42L258.107 394.148ZM265.903 402.812L266.639 403.349L265.903 402.812ZM1057.71 141.929L1058.54 142.298L1057.71 141.929ZM132.291 141.929L133.125 141.562L132.291 141.929ZM260.842 391.52L261.554 392.09L260.842 391.52ZM258.205 394.075L258.752 394.803L258.205 394.075ZM15.49 1.89168H117.542V0.0706177H15.49V1.89168ZM1.82236 117.529V15.5496H0V117.529H1.82236ZM119.4 131.187H15.49V133.008H119.4V131.187ZM133.125 141.562C130.944 136.63 126.642 132.889 121.361 131.449L120.881 133.207C125.63 134.5 129.497 137.864 131.458 142.298L133.125 141.562ZM133.943 249.556V146.072H132.121V249.556H133.943ZM251.521 263.214H147.611V265.035H251.521V263.214ZM265.246 273.589C263.065 268.657 258.763 264.916 253.482 263.476L253.002 265.234C257.751 266.527 261.618 269.891 263.579 274.325L265.246 273.589ZM266.064 381.026V278.099H264.242V381.026H266.064ZM261.554 392.09L262.67 390.695L261.247 389.557L260.131 390.951L261.554 392.09ZM258.654 394.877L258.752 394.803L257.659 393.346L257.56 393.42L258.654 394.877ZM147.003 397.973H249.36V396.151H147.003V397.973ZM137.611 394.803L137.709 394.877L138.803 393.42L138.704 393.346L137.611 394.803ZM134.604 391.833L134.809 392.09L136.232 390.951L136.027 390.696L134.604 391.833ZM131.21 279.604V382.163H133.032V279.604H131.21ZM15.49 265.946H117.542V264.125H15.49V265.946ZM1.82236 381.583V279.604H0V381.583H1.82236ZM119.4 395.241H15.49V397.062H119.4V395.241ZM133.125 405.616C130.944 400.684 126.642 396.943 121.361 395.503L120.881 397.26C125.63 398.554 129.497 401.918 131.458 406.352L133.125 405.616ZM133.943 513.61V410.126H132.121V513.61H133.943ZM249.663 527.268H147.611V529.089H249.663V527.268ZM263.331 408.869V513.61H265.153V408.869H263.331ZM275.002 395.503C270.993 396.596 267.548 399.016 265.167 402.276L266.639 403.349C268.78 400.418 271.877 398.243 275.482 397.26L275.002 395.503ZM383.642 395.241H276.963V397.062H383.642V395.241ZM397.367 405.616C395.186 400.684 390.884 396.943 385.603 395.503L385.123 397.26C389.872 398.554 393.739 401.918 395.7 406.352L397.367 405.616ZM398.185 513.61V410.126H396.363V513.61H398.185ZM513.905 527.268H411.853V529.089H513.905V527.268ZM527.573 410.126V513.61H529.395V410.126H527.573ZM540.155 395.503C534.874 396.943 530.572 400.684 528.391 405.616L530.058 406.352C532.019 401.918 535.886 398.554 540.635 397.26L540.155 395.503ZM647.884 395.241H542.116V397.062H647.884V395.241ZM661.609 405.616C659.428 400.684 655.126 396.943 649.845 395.503L649.365 397.26C654.114 398.554 657.981 401.918 659.942 406.352L661.609 405.616ZM662.427 513.61V410.126H660.605V513.61H662.427ZM778.147 527.268H676.095V529.089H778.147V527.268ZM791.815 410.126V513.61H793.637V410.126H791.815ZM804.397 395.503C799.116 396.943 794.814 400.684 792.633 405.616L794.3 406.352C796.261 401.918 800.128 398.554 804.877 397.26L804.397 395.503ZM910.268 395.241H806.358V397.062H910.268V395.241ZM923.936 278.099V381.583H925.758V278.099H923.936ZM936.519 263.476C931.234 264.916 926.933 268.657 924.756 273.589L926.423 274.325C928.382 269.891 932.246 266.527 937.002 265.234L936.519 263.476ZM1042.39 263.214H938.478V265.035H1042.39V263.214ZM1056.06 146.072V249.556H1057.88V146.072H1056.06ZM1058.54 142.298C1060.5 137.864 1064.37 134.5 1069.12 133.207L1068.64 131.449C1063.36 132.889 1059.05 136.63 1056.88 141.562L1058.54 142.298ZM1174.51 131.187H1070.6V133.008H1174.51V131.187ZM1188.18 15.5496V117.529H1190V15.5496H1188.18ZM1072.46 1.89168H1174.51V0.0706177H1072.46V1.89168ZM1058.79 118.11V15.5496H1056.97V118.11H1058.79ZM1053.97 126.642L1053.77 126.898L1055.19 128.036L1055.39 127.779L1053.97 126.642ZM1051.3 129.292L1051.2 129.366L1052.29 130.823L1052.39 130.749L1051.3 129.292ZM940.337 133.919H1043V132.098H940.337V133.919ZM926.669 250.137V147.577H924.847V250.137H926.669ZM923.07 260.063L923.271 259.806L921.849 258.669L921.649 258.924L923.07 260.063ZM920.173 262.85L920.273 262.776L919.179 261.319L919.079 261.393L920.173 262.85ZM808.216 265.946H910.876V264.125H808.216V265.946ZM794.548 382.164V279.604H792.726V382.164H794.548ZM790.949 392.09L791.154 391.833L789.731 390.696L789.526 390.951L790.949 392.09ZM788.049 394.877L788.147 394.803L787.054 393.346L786.955 393.42L788.049 394.877ZM675.487 397.973H778.755V396.151H675.487V397.973ZM666.095 394.803L666.193 394.877L667.287 393.42L667.188 393.346L666.095 394.803ZM663.088 391.833L663.293 392.09L664.716 390.951L664.511 390.696L663.088 391.833ZM659.694 278.099V382.164H661.516V278.099H659.694ZM672.276 263.476C666.995 264.916 662.693 268.657 660.512 273.589L662.179 274.325C664.14 269.891 668.007 266.527 672.756 265.234L672.276 263.476ZM778.147 263.214H674.237V265.035H778.147V263.214ZM791.815 147.577V249.556H793.637V147.577H791.815ZM676.095 133.919H778.147V132.098H676.095V133.919ZM662.427 250.137V147.577H660.605V250.137H662.427ZM658.828 260.063L659.033 259.806L657.61 258.669L657.405 258.924L658.828 260.063ZM655.928 262.85L656.026 262.776L654.933 261.319L654.834 261.393L655.928 262.85ZM543.974 265.946H646.634V264.125H543.974V265.946ZM530.306 382.164V279.604H528.484V382.164H530.306ZM526.707 392.09L526.912 391.833L525.489 390.696L525.284 390.951L526.707 392.09ZM523.807 394.877L523.905 394.803L522.812 393.346L522.713 393.42L523.807 394.877ZM411.245 397.973H514.513V396.151H411.245V397.973ZM401.853 394.803L401.951 394.877L403.045 393.42L402.946 393.346L401.853 394.803ZM398.846 391.833L399.051 392.09L400.474 390.951L400.269 390.696L398.846 391.833ZM395.452 279.604V382.163H397.274V279.604H395.452ZM279.124 265.946H381.784V264.125H279.124V265.946ZM269.732 262.776L269.83 262.85L270.924 261.393L270.825 261.319L269.732 262.776ZM266.725 259.806L266.93 260.063L268.353 258.924L268.148 258.669L266.725 259.806ZM263.331 147.577V250.136H265.153V147.577H263.331ZM147.003 133.919H249.663V132.098H147.003V133.919ZM137.611 130.749L137.709 130.823L138.803 129.366L138.704 129.292L137.611 130.749ZM134.604 127.779L134.809 128.036L136.232 126.898L136.027 126.642L134.604 127.779ZM131.21 15.5496V118.109H133.032V15.5496H131.21ZM411.853 133.919H513.905V132.098H411.853V133.919ZM398.185 249.556V147.577H396.363V249.556H398.185ZM513.905 263.214H411.853V265.035H513.905V263.214ZM527.573 147.577V249.556H529.395V147.577H527.573ZM513.905 265.035C522.46 265.035 529.395 258.105 529.395 249.556H527.573C527.573 257.099 521.453 263.214 513.905 263.214V265.035ZM396.363 249.556C396.363 258.105 403.298 265.035 411.853 265.035V263.214C404.305 263.214 398.185 257.099 398.185 249.556H396.363ZM513.905 133.919C521.453 133.919 527.573 140.034 527.573 147.577H529.395C529.395 139.028 522.46 132.098 513.905 132.098V133.919ZM411.853 132.098C403.298 132.098 396.363 139.028 396.363 147.577H398.185C398.185 140.034 404.305 133.919 411.853 133.919V132.098ZM136.027 126.642C134.088 124.22 133.032 121.211 133.032 118.109H131.21C131.21 121.625 132.407 125.035 134.604 127.779L136.027 126.642ZM138.704 129.292C137.782 128.601 136.952 127.797 136.232 126.898L134.809 128.036C135.624 129.055 136.567 129.966 137.611 130.749L138.704 129.292ZM147.003 132.098C144.046 132.098 141.169 131.139 138.803 129.366L137.709 130.823C140.391 132.832 143.652 133.919 147.003 133.919V132.098ZM265.153 147.577C265.153 139.028 258.218 132.098 249.663 132.098V133.919C257.211 133.919 263.331 140.034 263.331 147.577H265.153ZM268.148 258.669C266.209 256.247 265.153 253.238 265.153 250.136H263.331C263.331 253.652 264.528 257.061 266.725 259.806L268.148 258.669ZM270.825 261.319C269.903 260.628 269.073 259.824 268.353 258.924L266.93 260.063C267.745 261.082 268.688 261.993 269.732 262.776L270.825 261.319ZM279.124 264.125C276.167 264.125 273.29 263.166 270.924 261.393L269.83 262.85C272.512 264.859 275.773 265.946 279.124 265.946V264.125ZM397.274 279.604C397.274 271.055 390.339 264.125 381.784 264.125V265.946C389.332 265.946 395.452 272.061 395.452 279.604H397.274ZM400.269 390.696C398.33 388.274 397.274 385.265 397.274 382.163H395.452C395.452 385.678 396.649 389.088 398.846 391.833L400.269 390.696ZM402.946 393.346C402.024 392.655 401.194 391.851 400.474 390.951L399.051 392.09C399.866 393.108 400.809 394.02 401.853 394.803L402.946 393.346ZM411.245 396.151C408.288 396.151 405.411 395.193 403.045 393.42L401.951 394.877C404.633 396.886 407.894 397.973 411.245 397.973V396.151ZM522.713 393.42C520.347 395.193 517.47 396.151 514.513 396.151V397.973C517.864 397.973 521.125 396.886 523.807 394.877L522.713 393.42ZM525.284 390.951C524.564 391.851 523.734 392.655 522.812 393.346L523.905 394.803C524.949 394.02 525.892 393.108 526.707 392.09L525.284 390.951ZM528.484 382.164C528.484 385.265 527.428 388.274 525.489 390.696L526.912 391.833C529.109 389.088 530.306 385.679 530.306 382.164H528.484ZM543.974 264.125C535.419 264.125 528.484 271.055 528.484 279.604H530.306C530.306 272.061 536.426 265.946 543.974 265.946V264.125ZM654.834 261.393C652.468 263.166 649.591 264.125 646.634 264.125V265.946C649.985 265.946 653.246 264.859 655.928 262.85L654.834 261.393ZM657.405 258.924C656.685 259.824 655.855 260.628 654.933 261.319L656.026 262.776C657.07 261.993 658.013 261.082 658.828 260.063L657.405 258.924ZM660.605 250.137C660.605 253.238 659.549 256.247 657.61 258.669L659.033 259.806C661.23 257.061 662.427 253.652 662.427 250.137H660.605ZM676.095 132.098C667.54 132.098 660.605 139.028 660.605 147.577H662.427C662.427 140.034 668.547 133.919 676.095 133.919V132.098ZM793.637 147.577C793.637 139.028 786.702 132.098 778.147 132.098V133.919C785.695 133.919 791.815 140.034 791.815 147.577H793.637ZM778.147 265.035C786.702 265.035 793.637 258.105 793.637 249.556H791.815C791.815 257.099 785.695 263.214 778.147 263.214V265.035ZM672.756 265.234C673.238 265.102 673.737 265.035 674.237 265.035V263.214C673.575 263.214 672.916 263.302 672.276 263.476L672.756 265.234ZM661.516 278.099C661.516 276.744 661.677 275.459 662.179 274.325L660.512 273.589C659.867 275.048 659.694 276.619 659.694 278.099H661.516ZM664.511 390.696C662.572 388.274 661.516 385.265 661.516 382.164H659.694C659.694 385.679 660.891 389.088 663.088 391.833L664.511 390.696ZM667.188 393.346C666.266 392.655 665.436 391.851 664.716 390.951L663.293 392.09C664.108 393.108 665.051 394.02 666.095 394.803L667.188 393.346ZM675.487 396.151C672.53 396.151 669.653 395.193 667.287 393.42L666.193 394.877C668.875 396.886 672.136 397.973 675.487 397.973V396.151ZM786.955 393.42C784.589 395.193 781.712 396.151 778.755 396.151V397.973C782.106 397.973 785.367 396.886 788.049 394.877L786.955 393.42ZM789.526 390.951C788.806 391.851 787.976 392.655 787.054 393.346L788.147 394.803C789.191 394.02 790.134 393.108 790.949 392.09L789.526 390.951ZM792.726 382.164C792.726 385.265 791.67 388.274 789.731 390.696L791.154 391.833C793.351 389.088 794.548 385.679 794.548 382.164H792.726ZM808.216 264.125C799.661 264.125 792.726 271.055 792.726 279.604H794.548C794.548 272.061 800.668 265.946 808.216 265.946V264.125ZM919.079 261.393C916.71 263.166 913.831 264.125 910.876 264.125V265.946C914.223 265.946 917.485 264.859 920.173 262.85L919.079 261.393ZM921.649 258.924C920.929 259.824 920.1 260.628 919.179 261.319L920.273 262.776C921.311 261.993 922.25 261.082 923.07 260.063L921.649 258.924ZM924.847 250.137C924.847 253.238 923.79 256.247 921.849 258.669L923.271 259.806C925.476 257.061 926.669 253.652 926.669 250.137H924.847ZM940.337 132.098C931.781 132.098 924.847 139.028 924.847 147.577H926.669C926.669 140.034 932.792 133.919 940.337 133.919V132.098ZM1053.77 126.898C1053.05 127.797 1052.22 128.601 1051.3 129.292L1052.39 130.749C1053.43 129.966 1054.37 129.055 1055.19 128.036L1053.77 126.898ZM1174.51 133.008C1183.07 133.008 1190 126.078 1190 117.529H1188.18C1188.18 125.072 1182.05 131.187 1174.51 131.187V133.008ZM937.002 265.234C937.485 265.102 937.977 265.035 938.478 265.035V263.214C937.813 263.214 937.157 263.302 936.519 263.476L937.002 265.234ZM925.758 278.099C925.758 276.744 925.922 275.459 926.423 274.325L924.756 273.589C924.109 275.048 923.936 276.619 923.936 278.099H925.758ZM910.268 397.062C918.824 397.062 925.758 390.132 925.758 381.583H923.936C923.936 389.126 917.813 395.241 910.268 395.241V397.062ZM804.877 397.26C805.359 397.128 805.858 397.062 806.358 397.062V395.241C805.696 395.241 805.037 395.329 804.397 395.503L804.877 397.26ZM793.637 410.126C793.637 408.771 793.798 407.486 794.3 406.352L792.633 405.616C791.988 407.075 791.815 408.646 791.815 410.126H793.637ZM778.147 529.089C786.702 529.089 793.637 522.159 793.637 513.61H791.815C791.815 521.153 785.695 527.268 778.147 527.268V529.089ZM660.605 513.61C660.605 522.159 667.54 529.089 676.095 529.089V527.268C668.547 527.268 662.427 521.153 662.427 513.61H660.605ZM659.942 406.352C660.444 407.486 660.605 408.771 660.605 410.126H662.427C662.427 408.646 662.254 407.075 661.609 405.616L659.942 406.352ZM647.884 397.062C648.384 397.062 648.883 397.128 649.365 397.26L649.845 395.503C649.205 395.329 648.546 395.241 647.884 395.241V397.062ZM540.635 397.26C541.117 397.128 541.616 397.062 542.116 397.062V395.241C541.454 395.241 540.795 395.329 540.155 395.503L540.635 397.26ZM529.395 410.126C529.395 408.771 529.556 407.486 530.058 406.352L528.391 405.616C527.746 407.075 527.573 408.646 527.573 410.126H529.395ZM513.905 529.089C522.46 529.089 529.395 522.159 529.395 513.61H527.573C527.573 521.153 521.453 527.268 513.905 527.268V529.089ZM396.363 513.61C396.363 522.159 403.298 529.089 411.853 529.089V527.268C404.305 527.268 398.185 521.153 398.185 513.61H396.363ZM395.7 406.352C396.202 407.486 396.363 408.771 396.363 410.126H398.185C398.185 408.646 398.012 407.075 397.367 405.616L395.7 406.352ZM383.642 397.062C384.142 397.062 384.641 397.128 385.123 397.26L385.603 395.503C384.963 395.329 384.304 395.241 383.642 395.241V397.062ZM132.121 513.61C132.121 522.159 139.056 529.089 147.611 529.089V527.268C140.063 527.268 133.943 521.153 133.943 513.61H132.121ZM131.458 406.352C131.96 407.486 132.121 408.771 132.121 410.126H133.943C133.943 408.646 133.77 407.075 133.125 405.616L131.458 406.352ZM119.4 397.062C119.9 397.062 120.399 397.128 120.881 397.26L121.361 395.503C120.721 395.329 120.062 395.241 119.4 395.241V397.062ZM0 381.583C0 390.132 6.93513 397.062 15.49 397.062V395.241C7.94159 395.241 1.82236 389.126 1.82236 381.583H0ZM15.49 264.125C6.93513 264.125 0 271.055 0 279.604H1.82236C1.82236 272.061 7.94159 265.946 15.49 265.946V264.125ZM133.032 279.604C133.032 271.055 126.097 264.125 117.542 264.125V265.946C125.09 265.946 131.21 272.061 131.21 279.604H133.032ZM136.027 390.696C134.088 388.274 133.032 385.265 133.032 382.163H131.21C131.21 385.678 132.407 389.088 134.604 391.833L136.027 390.696ZM138.704 393.346C137.782 392.655 136.952 391.851 136.232 390.951L134.809 392.09C135.624 393.108 136.567 394.02 137.611 394.803L138.704 393.346ZM147.003 396.151C144.046 396.151 141.169 395.193 138.803 393.42L137.709 394.877C140.391 396.886 143.652 397.973 147.003 397.973V396.151ZM264.242 381.026C264.242 384.127 263.186 387.135 261.247 389.557L262.67 390.695C264.867 387.95 266.064 384.54 266.064 381.026H264.242ZM1051.2 129.366C1048.83 131.139 1045.95 132.098 1043 132.098V133.919C1046.34 133.919 1049.61 132.832 1052.29 130.823L1051.2 129.366ZM263.579 274.325C264.081 275.459 264.242 276.744 264.242 278.099H266.064C266.064 276.619 265.891 275.048 265.246 273.589L263.579 274.325ZM1056.97 118.11C1056.97 121.211 1055.91 124.22 1053.97 126.642L1055.39 127.779C1057.6 125.035 1058.79 121.625 1058.79 118.11H1056.97ZM251.521 265.035C252.021 265.035 252.52 265.102 253.002 265.234L253.482 263.476C252.842 263.302 252.183 263.214 251.521 263.214V265.035ZM1072.46 0.0706177C1063.9 0.0706177 1056.97 7.00081 1056.97 15.5496H1058.79C1058.79 8.00656 1064.91 1.89168 1072.46 1.89168V0.0706177ZM132.121 249.556C132.121 258.105 139.056 265.035 147.611 265.035V263.214C140.063 263.214 133.943 257.099 133.943 249.556H132.121ZM275.482 397.26C275.964 397.128 276.463 397.062 276.963 397.062V395.241C276.301 395.241 275.642 395.329 275.002 395.503L275.482 397.26ZM1069.12 133.207C1069.61 133.075 1070.1 133.008 1070.6 133.008V131.187C1069.93 131.187 1069.28 131.275 1068.64 131.449L1069.12 133.207ZM119.4 133.008C119.9 133.008 120.399 133.075 120.881 133.207L121.361 131.449C120.721 131.275 120.062 131.187 119.4 131.187V133.008ZM0 117.529C0 126.078 6.93513 133.008 15.49 133.008V131.187C7.94159 131.187 1.82236 125.072 1.82236 117.529H0ZM257.56 393.42C255.194 395.193 252.316 396.151 249.36 396.151V397.973C252.711 397.973 255.972 396.886 258.654 394.877L257.56 393.42ZM265.153 408.869C265.153 406.816 265.534 404.862 266.639 403.349L265.167 402.276C263.74 404.23 263.331 406.631 263.331 408.869H265.153ZM1057.88 146.072C1057.88 144.718 1058.04 143.432 1058.54 142.298L1056.88 141.562C1056.23 143.021 1056.06 144.592 1056.06 146.072H1057.88ZM117.542 1.89168C125.09 1.89168 131.21 8.00656 131.21 15.5496H133.032C133.032 7.00081 126.097 0.0706177 117.542 0.0706177V1.89168ZM1190 15.5496C1190 7.00081 1183.07 0.0706177 1174.51 0.0706177V1.89168C1182.05 1.89168 1188.18 8.00656 1188.18 15.5496H1190ZM131.458 142.298C131.96 143.432 132.121 144.718 132.121 146.072H133.943C133.943 144.592 133.77 143.021 133.125 141.562L131.458 142.298ZM260.131 390.951C259.411 391.851 258.581 392.655 257.659 393.346L258.752 394.803C259.796 394.02 260.738 393.108 261.554 392.09L260.131 390.951ZM249.663 529.089C258.218 529.089 265.153 522.159 265.153 513.61H263.331C263.331 521.153 257.211 527.268 249.663 527.268V529.089ZM1042.39 265.035C1050.94 265.035 1057.88 258.105 1057.88 249.556H1056.06C1056.06 257.099 1049.93 263.214 1042.39 263.214V265.035ZM15.49 0.0706177C6.93513 0.0706177 0 7.00081 0 15.5496H1.82236C1.82236 8.00656 7.94159 1.89168 15.49 1.89168V0.0706177Z" fill="url(#paint0_linear_1056_13982)" fill-opacity="0.1"/>
<defs>
<linearGradient id="paint0_linear_1056_13982" x1="-250" y1="-96.6641" x2="1236.5" y2="408.336" gradientUnits="userSpaceOnUse">
<stop offset="0.2415" stop-color="#933EFF" stop-opacity="0"/>
<stop offset="0.333113" stop-color="#933EFF"/>
<stop offset="0.475076" stop-color="#5EFEF4"/>
<stop offset="0.641024" stop-color="#5A93FC"/>
<stop offset="0.836597" stop-color="#FC78FF" stop-opacity="0"/>
<stop offset="1" stop-color="#89C6FF" stop-opacity="0"/>
</linearGradient>
</defs>
</svg>
