<svg width="30" height="31" viewBox="0 0 30 31" fill="none" xmlns="http://www.w3.org/2000/svg">
<path d="M15 30.8359C23.2843 30.8359 30 24.1202 30 15.8359C30 7.55167 23.2843 0.835938 15 0.835938C6.71573 0.835938 0 7.55167 0 15.8359C0 24.1202 6.71573 30.8359 15 30.8359Z" fill="#1E1A2D"/>
<path fill-rule="evenodd" clip-rule="evenodd" d="M21.9637 8.97876H8.24944C7.29801 8.97876 6.54373 9.74162 6.54373 10.693L6.53516 20.9788C6.53516 21.9302 7.29801 22.693 8.24944 22.693H21.9637C22.9152 22.693 23.678 21.9302 23.678 20.9788V10.693C23.678 9.74162 22.9152 8.97876 21.9637 8.97876ZM21.1063 20.9788H9.10631C8.63488 20.9788 8.24916 20.593 8.24916 20.1216V15.8359H21.9634V20.1216C21.9634 20.593 21.5777 20.9788 21.1063 20.9788ZM21.9634 12.4073H8.24916V11.5502C8.24916 11.0788 8.63488 10.693 9.10631 10.693H21.1063C21.5777 10.693 21.9634 11.0788 21.9634 11.5502V12.4073Z" fill="#7149B6"/>
</svg>
