<svg width="101" height="101" viewBox="0 0 101 101" fill="none" xmlns="http://www.w3.org/2000/svg">
<path d="M21.4033 66.1943H36.1966" stroke="white" stroke-miterlimit="10"/>
<path d="M42.8037 66.1943H57.604" stroke="white" stroke-miterlimit="10"/>
<path d="M64.2031 66.1943H79.0034" stroke="white" stroke-miterlimit="10"/>
<path d="M42.0029 37.6399V28.0984C42.0029 23.7103 45.5626 20.1506 49.9507 20.1506C54.3388 20.1506 57.8985 23.7103 57.8985 28.0984V35.7443" stroke="white" stroke-miterlimit="10"/>
<path d="M60.6511 35.7444H39.7566C38.4111 35.7444 37.3203 36.8351 37.3203 38.1807V48.5507C37.3203 49.8962 38.4111 50.987 39.7566 50.987H60.6511C61.9966 50.987 63.0874 49.8962 63.0874 48.5507V38.1807C63.0874 36.8351 61.9966 35.7444 60.6511 35.7444Z" stroke="white" stroke-miterlimit="10"/>
<path d="M22.0632 17.2019C3.268 32.5638 0.480667 60.2546 15.8426 79.0569C23.2357 88.1069 33.4864 93.4429 44.2285 94.833" stroke="url(#paint0_linear_1086_8979)" stroke-miterlimit="10"/>
<path d="M77.6975 85.2774C96.4927 69.9154 99.28 42.2246 83.9181 23.4224C76.525 14.3723 66.2743 9.0364 55.5322 7.64624" stroke="url(#paint1_linear_1086_8979)" stroke-miterlimit="10"/>
<path d="M86.0949 88.9283L74.4541 86.6675L76.7149 75.0267" stroke="url(#paint2_linear_1086_8979)" stroke-miterlimit="10"/>
<path d="M13.9258 12.6453L25.1734 16.4015L21.4172 27.6491" stroke="url(#paint3_linear_1086_8979)" stroke-miterlimit="10"/>
<defs>
<linearGradient id="paint0_linear_1086_8979" x1="2.89003" y1="52.1758" x2="49.346" y2="58.7016" gradientUnits="userSpaceOnUse">
<stop stop-color="#6B8CF5"/>
<stop offset="0.58" stop-color="#66C1DE"/>
<stop offset="0.94" stop-color="#66C1DE" stop-opacity="0"/>
</linearGradient>
<linearGradient id="paint1_linear_1086_8979" x1="96.2763" y1="46.2144" x2="55.2015" y2="46.217" gradientUnits="userSpaceOnUse">
<stop stop-color="#6B8CF5"/>
<stop offset="0.58" stop-color="#66C1DE"/>
<stop offset="0.94" stop-color="#66C1DE" stop-opacity="0"/>
</linearGradient>
<linearGradient id="paint2_linear_1086_8979" x1="87.3438" y1="87.7021" x2="71.605" y2="80.247" gradientUnits="userSpaceOnUse">
<stop stop-color="#66C1DE"/>
<stop offset="1" stop-color="#6B8CF5"/>
</linearGradient>
<linearGradient id="paint3_linear_1086_8979" x1="12.5365" y1="13.6816" x2="27.1743" y2="23.117" gradientUnits="userSpaceOnUse">
<stop stop-color="#66C1DE"/>
<stop offset="1" stop-color="#6B8CF5"/>
</linearGradient>
</defs>
</svg>
