<svg width="101" height="101" viewBox="0 0 101 101" fill="none" xmlns="http://www.w3.org/2000/svg">
<path d="M61.0685 32.2477C58.7445 28.8425 54.8339 26.6099 50.4036 26.6099C43.2773 26.6099 37.499 32.3881 37.499 39.5144C37.499 46.6408 43.2773 52.419 50.4036 52.419C56.2942 52.419 61.2651 48.4732 62.8097 43.0811C63.1327 41.9507 63.3082 40.7501 63.3082 39.5144H51.6112" stroke="white" stroke-miterlimit="10"/>
<path d="M21.751 66.1943H36.5512" stroke="white" stroke-miterlimit="10"/>
<path d="M43.1514 66.1943H57.9516" stroke="white" stroke-miterlimit="10"/>
<path d="M64.5508 66.1943H79.351" stroke="white" stroke-miterlimit="10"/>
<path d="M22.4115 17.2019C3.61634 32.5638 0.829006 60.2546 16.198 79.0569C23.5911 88.1069 33.8417 93.4429 44.5838 94.833" stroke="url(#paint0_linear_1086_9016)" stroke-miterlimit="10"/>
<path d="M78.0452 85.2774C96.8404 69.9154 99.6277 42.2246 84.2658 23.4224C76.8727 14.3723 66.622 9.0364 55.8799 7.64624" stroke="url(#paint1_linear_1086_9016)" stroke-miterlimit="10"/>
<path d="M86.4426 88.9283L74.8018 86.6675L77.0625 75.0267" stroke="url(#paint2_linear_1086_9016)" stroke-miterlimit="10"/>
<path d="M14.2734 12.6453L25.5211 16.4015L21.7719 27.6491" stroke="url(#paint3_linear_1086_9016)" stroke-miterlimit="10"/>
<defs>
<linearGradient id="paint0_linear_1086_9016" x1="3.17417" y1="51.6415" x2="50.3089" y2="59.1088" gradientUnits="userSpaceOnUse">
<stop stop-color="#6B8CF5"/>
<stop offset="0.58" stop-color="#66C1DE"/>
<stop offset="0.94" stop-color="#66C1DE" stop-opacity="0"/>
</linearGradient>
<linearGradient id="paint1_linear_1086_9016" x1="96.6408" y1="46.1945" x2="55.5617" y2="46.1916" gradientUnits="userSpaceOnUse">
<stop stop-color="#6B8CF5"/>
<stop offset="0.58" stop-color="#66C1DE"/>
<stop offset="0.94" stop-color="#66C1DE" stop-opacity="0"/>
</linearGradient>
<linearGradient id="paint2_linear_1086_9016" x1="87.7283" y1="87.744" x2="71.9825" y2="80.2876" gradientUnits="userSpaceOnUse">
<stop stop-color="#66C1DE"/>
<stop offset="1" stop-color="#6B8CF5"/>
</linearGradient>
<linearGradient id="paint3_linear_1086_9016" x1="12.8879" y1="13.6777" x2="27.5323" y2="23.1153" gradientUnits="userSpaceOnUse">
<stop stop-color="#66C1DE"/>
<stop offset="1" stop-color="#6B8CF5"/>
</linearGradient>
</defs>
</svg>
