<svg width="38" height="37" viewBox="0 0 38 37" fill="none" xmlns="http://www.w3.org/2000/svg">
<g clip-path="url(#clip0_1040_10428)">
<path d="M16.4293 7.28516C11.6692 7.80223 7.97363 11.8323 7.97363 16.7293C7.97363 21.976 12.2319 26.2343 17.4786 26.2343C22.4668 26.2343 26.5578 22.3867 26.9532 17.4897M30.0252 29.2759L24.3222 23.5729" stroke="white" stroke-width="2.28119" stroke-linecap="round" stroke-linejoin="round"/>
<path fill-rule="evenodd" clip-rule="evenodd" d="M23.3493 5.56625C23.4953 4.98225 24.0245 4.5625 24.6268 4.5625C25.229 4.5625 25.7583 4.98225 25.9043 5.56625L26.0685 6.22325C26.1963 6.716 26.5795 7.09925 27.0723 7.227L27.7293 7.39125C28.3133 7.53725 28.733 8.0665 28.733 8.66875C28.733 9.271 28.3133 9.80025 27.7293 9.94625L27.0723 10.1105C26.5795 10.2383 26.1963 10.6215 26.0685 11.1143L25.9043 11.7713C25.7583 12.3553 25.229 12.775 24.6268 12.775C24.0245 12.775 23.4953 12.3553 23.3493 11.7713L23.185 11.1143C23.0573 10.6215 22.674 10.2383 22.1813 10.1105L21.5243 9.94625C20.9403 9.80025 20.5205 9.271 20.5205 8.66875C20.5205 8.0665 20.9403 7.53725 21.5243 7.39125L22.1813 7.227C22.674 7.09925 23.0573 6.716 23.185 6.22325L23.3493 5.56625Z" fill="#A2A3B9"/>
</g>
<defs>
<clipPath id="clip0_1040_10428">
<rect width="36.5" height="36.5" fill="white" transform="translate(0.75)"/>
</clipPath>
</defs>
</svg>
