<svg width="151" height="150" viewBox="0 0 151 150" fill="none" xmlns="http://www.w3.org/2000/svg">
<path d="M41.6965 51.7578C46.8009 51.7578 50.9389 47.6198 50.9389 42.5154C50.9389 37.4109 46.8009 33.2729 41.6965 33.2729C36.5921 33.2729 32.4541 37.4109 32.4541 42.5154C32.4541 47.6198 36.5921 51.7578 41.6965 51.7578Z" stroke="white" stroke-width="5" stroke-miterlimit="10"/>
<path d="M63.3259 43.9468C63.3359 43.6444 63.346 43.342 63.346 43.0397C63.346 42.4248 63.3158 41.81 63.2654 41.2053C63.1344 39.6834 63.7492 38.1816 64.9385 37.2342L65.6944 36.6294C67.4381 35.2385 67.9017 32.7793 66.793 30.8441L64.3035 26.5303C63.1848 24.5952 60.8263 23.7687 58.7399 24.5851L57.3289 25.1394C55.9783 25.6736 54.4665 25.5023 53.2368 24.7363C52.6321 24.3533 52.0072 24.0005 51.3621 23.678C50.0317 23.0128 49.1045 21.763 48.8827 20.3015L48.661 18.8401C48.3284 16.6328 46.4335 15 44.196 15H39.2069C36.9694 15 35.0745 16.6328 34.7419 18.8401L34.5202 20.3015C34.2985 21.7731 33.3611 23.0229 32.0408 23.678C31.3957 24.0005 30.7708 24.3533 30.1661 24.7363C28.9365 25.5124 27.4246 25.6736 26.074 25.1394L24.663 24.5851C22.5867 23.7687 20.2182 24.5952 19.0994 26.5303L16.6099 30.8441C15.4911 32.7793 15.9548 35.2385 17.7085 36.6294L18.4644 37.2342C19.6638 38.1917 20.2685 39.6834 20.1375 41.2053C20.0871 41.81 20.0569 42.4148 20.0569 43.0397C20.0569 43.342 20.0569 43.6444 20.077 43.9468C20.1375 45.4082 19.5328 46.8193 18.3838 47.7264L17.6984 48.2706C15.9548 49.6615 15.4911 52.1208 16.5998 54.056L19.0893 58.3698C20.2081 60.3049 22.5666 61.1314 24.6529 60.315L24.9653 60.194C26.3865 59.6397 27.989 59.8514 29.2388 60.7282C30.1762 61.3834 31.1639 61.978 32.202 62.482C33.5325 63.1371 34.4698 64.397 34.6915 65.8584L34.7419 66.2011C35.0745 68.4084 36.9694 70.0412 39.2069 70.0412H44.196C46.4335 70.0412 48.3284 68.4084 48.661 66.2011L48.7114 65.8584C48.9331 64.3869 49.8604 63.127 51.2009 62.482C52.239 61.978 53.2267 61.3834 54.1641 60.7282" stroke="url(#paint0_linear_1086_9034)" stroke-width="5" stroke-linecap="round" stroke-linejoin="round"/>
<path d="M61.8741 75.6854C61.8741 83.809 55.2925 90.3906 47.1689 90.3906C39.0453 90.3906 32.4637 83.809 32.4637 75.6854H17.5166V116.757C17.5166 126.826 25.6806 135 35.7595 135H76.8313V120.043C76.8313 120.043 76.9018 120.043 76.9421 120.043C85.0658 120.043 91.6474 113.461 91.6474 105.338C91.6474 97.214 85.0658 90.6325 76.9421 90.6325C76.9018 90.6325 76.8716 90.6325 76.8313 90.6325V75.6753H61.8741V75.6854Z" stroke="url(#paint1_linear_1086_9034)" stroke-width="5" stroke-linecap="round" stroke-linejoin="round"/>
<path d="M91.7788 75.6853C91.7788 67.5616 98.3604 60.9801 106.484 60.9801C114.608 60.9801 121.189 67.5616 121.189 75.6853H136.146V34.6135C136.146 24.5446 127.982 16.3706 117.903 16.3706H76.8317V31.3278C76.8317 31.3278 76.7611 31.3278 76.7208 31.3278C68.5972 31.3278 62.0156 37.9093 62.0156 46.033C62.0156 54.1566 68.5972 60.7382 76.7208 60.7382C76.7611 60.7382 76.7914 60.7382 76.8317 60.7382V75.6954H91.7889L91.7788 75.6853Z" stroke="url(#paint2_linear_1086_9034)" stroke-width="5" stroke-linecap="round" stroke-linejoin="round"/>
<path d="M76.8323 90.6323C84.956 90.6323 91.5375 97.2139 91.5375 105.338C91.5375 113.461 84.956 120.043 76.8323 120.043V135H117.904C127.973 135 136.147 126.836 136.147 116.757V75.6852H121.19C121.19 75.6852 121.19 75.6147 121.19 75.5743C121.19 67.4507 114.608 60.8691 106.485 60.8691C98.361 60.8691 91.7794 67.4507 91.7794 75.5743C91.7794 75.6147 91.7794 75.6449 91.7794 75.6852H76.8223V90.6424L76.8323 90.6323Z" stroke="white" stroke-width="5" stroke-linecap="round" stroke-linejoin="round"/>
<defs>
<linearGradient id="paint0_linear_1086_9034" x1="19.8251" y1="20.5837" x2="60.1711" y2="60.9298" gradientUnits="userSpaceOnUse">
<stop stop-color="#6B8CF5"/>
<stop offset="0.38" stop-color="#66C1DE"/>
<stop offset="0.84" stop-color="#66C1DE" stop-opacity="0"/>
</linearGradient>
<linearGradient id="paint1_linear_1086_9034" x1="54.5769" y1="138.528" x2="54.5769" y2="72.1577" gradientUnits="userSpaceOnUse">
<stop stop-color="#6B8CF5"/>
<stop offset="1" stop-color="#66C1DE"/>
</linearGradient>
<linearGradient id="paint2_linear_1086_9034" x1="99.086" y1="12.843" x2="99.086" y2="79.223" gradientUnits="userSpaceOnUse">
<stop stop-color="#6B8CF5"/>
<stop offset="1" stop-color="#66C1DE"/>
</linearGradient>
</defs>
</svg>
