<svg width="33" height="32" viewBox="0 0 33 32" fill="none" xmlns="http://www.w3.org/2000/svg">
<path fill-rule="evenodd" clip-rule="evenodd" d="M2.53572 0.581473C1.93647 0.0094643 0.986978 0.0315454 0.414969 0.630793C-0.15704 1.23004 -0.134958 2.17953 0.464289 2.75154L7.37992 9.35283C5.38245 11.0315 3.80654 13.1972 2.8334 15.6666C5.14007 21.5199 10.8334 25.6666 17.5001 25.6666C19.5524 25.6666 21.5125 25.2736 23.31 24.5588L29.7976 30.7515C30.3969 31.3235 31.3464 31.3015 31.9184 30.7022C32.4904 30.103 32.4683 29.1535 31.8691 28.5815L2.53572 0.581473ZM20.3227 21.7073L18.1329 19.6171C17.9268 19.6496 17.7155 19.6666 17.5001 19.6666C15.2867 19.6666 13.5001 17.8799 13.5001 15.6666C13.5001 15.515 13.5084 15.3655 13.5248 15.2184L11.3345 13.1276C11.0116 13.9103 10.8334 14.7678 10.8334 15.6666C10.8334 19.3466 13.8201 22.3332 17.5001 22.3332C18.5088 22.3332 19.4654 22.1088 20.3227 21.7073ZM18.5133 11.7954L21.3204 14.4749C20.9132 13.163 19.8506 12.143 18.5133 11.7954ZM24.1667 15.6666C24.1667 16.1422 24.1168 16.6062 24.022 17.0537L28.4246 21.2561C30.0422 19.6966 31.3282 17.7943 32.1667 15.6666C29.8601 9.81324 24.1667 5.66657 17.5001 5.66657C15.8741 5.66657 14.306 5.91324 12.8308 6.37118L15.8111 9.216C16.3506 9.07498 16.9166 8.9999 17.5001 8.9999C21.1801 8.9999 24.1667 11.9866 24.1667 15.6666Z" fill="#A2A3B9"/>
</svg>
