<svg width="31" height="21" viewBox="0 0 31 21" fill="none" xmlns="http://www.w3.org/2000/svg">
<path fill-rule="evenodd" clip-rule="evenodd" d="M15.5007 0.666748C8.83398 0.666748 3.14065 4.81342 0.833984 10.6667C3.14065 16.5201 8.83398 20.6667 15.5007 20.6667C22.1673 20.6667 27.8607 16.5201 30.1673 10.6667C27.8607 4.81342 22.1673 0.666748 15.5007 0.666748ZM15.5007 17.3334C11.8207 17.3334 8.83398 14.3467 8.83398 10.6667C8.83398 6.98675 11.8207 4.00008 15.5007 4.00008C19.1806 4.00008 22.1673 6.98675 22.1673 10.6667C22.1673 14.3467 19.1806 17.3334 15.5007 17.3334ZM15.5007 6.66675C13.2873 6.66675 11.5007 8.45341 11.5007 10.6667C11.5007 12.8801 13.2873 14.6667 15.5007 14.6667C17.714 14.6667 19.5007 12.8801 19.5007 10.6667C19.5007 8.45341 17.714 6.66675 15.5007 6.66675Z" fill="#A2A3B9"/>
</svg>
