<svg width="13" height="12" viewBox="0 0 13 12" fill="none" xmlns="http://www.w3.org/2000/svg">
<g opacity="0.4">
<path fill-rule="evenodd" clip-rule="evenodd" d="M6.15625 12C7.74755 12 9.27367 11.3679 10.3989 10.2426C11.5241 9.11742 12.1562 7.5913 12.1562 6C12.1562 4.4087 11.5241 2.88258 10.3989 1.75736C9.27367 0.632141 7.74755 0 6.15625 0C4.56495 0 3.03883 0.632141 1.91361 1.75736C0.788391 2.88258 0.15625 4.4087 0.15625 6C0.15625 7.5913 0.788391 9.11742 1.91361 10.2426C3.03883 11.3679 4.56495 12 6.15625 12ZM5.80925 8.307L9.10925 4.707L8.00325 3.693L5.23325 6.716L4.28625 5.77L3.22625 6.83L4.72625 8.33L5.28025 8.884L5.80925 8.307Z" fill="white"/>
</g>
</svg>
