<svg width="360" height="50" viewBox="0 0 360 50" fill="none" xmlns="http://www.w3.org/2000/svg">
<line x1="360" y1="25.5" x2="230" y2="25.5" stroke="url(#paint0_linear_2412_22327)"/>
<line x1="4.37114e-08" y1="24.5" x2="130" y2="24.5" stroke="url(#paint1_linear_2412_22327)"/>
<rect width="100" height="49.7409" transform="translate(130)" fill="transparent"/>
<g clip-path="url(#clip0_2412_22327)">
<path d="M146.194 34.4958C144.497 34.4958 142.974 34.1414 141.624 33.433C140.285 32.7145 139.222 31.7416 138.435 30.5142C137.647 29.2868 137.254 27.8997 137.254 26.353C137.254 25.2154 137.474 24.1526 137.913 23.1647C138.363 22.1768 138.987 21.3136 139.784 20.5752C140.581 19.8268 141.507 19.248 142.56 18.8389C143.613 18.4198 144.752 18.2102 145.979 18.2102C147.615 18.2102 149.046 18.5445 150.273 19.2131C151.51 19.8717 152.471 20.7897 153.156 21.9673C153.851 23.1448 154.198 24.5169 154.198 26.0836C154.198 26.2133 154.193 26.328 154.183 26.4278C154.183 26.5176 154.168 26.6923 154.137 26.9517H142.1C142.1 27.7301 142.278 28.4086 142.636 28.9874C143.004 29.5662 143.515 30.0202 144.17 30.3495C144.824 30.6688 145.586 30.8285 146.455 30.8285C147.272 30.8285 147.993 30.6738 148.617 30.3645C149.251 30.0552 149.859 29.5612 150.441 28.8826L153.83 30.5441C153.094 31.7816 152.052 32.7494 150.702 33.448C149.353 34.1466 147.85 34.4958 146.194 34.4958ZM142.268 24.4071H149.567C149.465 23.8184 149.245 23.3094 148.908 22.8803C148.581 22.4512 148.162 22.1219 147.651 21.8924C147.139 21.6629 146.562 21.5481 145.918 21.5481C145.233 21.5481 144.63 21.6629 144.108 21.8924C143.587 22.1219 143.168 22.4512 142.851 22.8803C142.534 23.3094 142.34 23.8184 142.268 24.4071Z" fill="white"/>
<path d="M154.266 34.0169L161.778 24.9043L156.804 18.5808H162.925L164.993 21.2592L167.683 24.9043L164.993 28.4982L160.592 34.0169H154.266Z" fill="url(#paint2_linear_2412_22327)"/>
<path d="M179.185 11.5642L171.538 20.5388L176.6 26.7664H170.371L168.265 24.1286L165.527 20.5388L168.265 16.9993L172.745 11.5642H179.185Z" fill="url(#paint3_linear_2412_22327)"/>
<path d="M191.33 34.5146C190.246 34.5146 189.229 34.295 188.278 33.856C187.327 33.417 186.504 32.8033 185.809 32.0149V34.0356H181.102V8.29004H185.809V20.579C186.433 19.8406 187.215 19.2668 188.155 18.8577C189.096 18.4386 190.113 18.229 191.207 18.229C192.72 18.229 194.069 18.5883 195.255 19.3067C196.441 20.0152 197.371 20.9832 198.046 22.2106C198.721 23.428 199.058 24.8151 199.058 26.3718C199.058 27.9584 198.71 29.3655 198.015 30.5929C197.32 31.8203 196.385 32.7831 195.209 33.4817C194.044 34.1703 192.751 34.5146 191.33 34.5146ZM189.919 30.6078C190.747 30.6078 191.473 30.4282 192.096 30.069C192.72 29.6997 193.211 29.2008 193.568 28.5721C193.926 27.9335 194.105 27.21 194.105 26.4017C194.105 25.5835 193.921 24.855 193.553 24.2163C193.185 23.5677 192.689 23.0588 192.066 22.6896C191.442 22.3204 190.727 22.1358 189.919 22.1358C189.111 22.1358 188.385 22.3204 187.741 22.6896C187.108 23.0588 186.607 23.5627 186.239 24.2014C185.871 24.84 185.687 25.5735 185.687 26.4017C185.687 27.21 185.866 27.9335 186.223 28.5721C186.591 29.2008 187.092 29.6997 187.726 30.069C188.37 30.4282 189.101 30.6078 189.919 30.6078Z" fill="white"/>
<path d="M202.74 41.8191L207.816 32.1196L200.348 18.708H205.745L210.56 27.689L214.731 18.708H220.129L208.122 41.8191H202.74Z" fill="white"/>
</g>
<defs>
<linearGradient id="paint0_linear_2412_22327" x1="231.619" y1="25" x2="419" y2="25" gradientUnits="userSpaceOnUse">
<stop/>
<stop offset="0.490464" stop-color="#7B61FF"/>
<stop offset="0.999879" stop-color="#5B21FF"/>
</linearGradient>
<linearGradient id="paint1_linear_2412_22327" x1="128.381" y1="25" x2="-62" y2="25" gradientUnits="userSpaceOnUse">
<stop/>
<stop offset="0.490464" stop-color="#7B61FF"/>
<stop offset="0.999879" stop-color="#5B21FF"/>
</linearGradient>
<linearGradient id="paint2_linear_2412_22327" x1="157.98" y1="15.2722" x2="157.495" y2="33.1682" gradientUnits="userSpaceOnUse">
<stop stop-color="#7127F1" stop-opacity="0"/>
<stop offset="1" stop-color="#7127F1"/>
</linearGradient>
<linearGradient id="paint3_linear_2412_22327" x1="172.356" y1="11.5642" x2="172.892" y2="29.2368" gradientUnits="userSpaceOnUse">
<stop stop-color="#54FCA7"/>
<stop offset="1" stop-color="#54FCA7" stop-opacity="0"/>
</linearGradient>
<clipPath id="clip0_2412_22327">
<rect width="82.9016" height="33.6788" fill="white" transform="translate(137.254 8.29004)"/>
</clipPath>
</defs>
</svg>
