<svg width="32" height="30" viewBox="0 0 32 30" fill="none" xmlns="http://www.w3.org/2000/svg">
<rect x="1" width="30" height="30" rx="15" fill="#A2A3B9"/>
<path fill-rule="evenodd" clip-rule="evenodd" d="M17.9009 11.6997L15.9998 13.5897L14.0987 11.6997C13.9107 11.5125 13.6556 11.4072 13.3895 11.4072C13.1234 11.4072 12.8683 11.5125 12.6804 11.6997C12.2881 12.0897 12.2881 12.7197 12.6804 13.1097L14.5815 14.9997L12.6804 16.8897C12.2881 17.2797 12.2881 17.9097 12.6804 18.2997C13.0727 18.6897 13.7064 18.6897 14.0987 18.2997L15.9998 16.4097L17.9009 18.2997C18.2932 18.6897 18.9269 18.6897 19.3192 18.2997C19.7115 17.9097 19.7115 17.2797 19.3192 16.8897L17.4181 14.9997L19.3192 13.1097C19.7115 12.7197 19.7115 12.0897 19.3192 11.6997C18.9269 11.3197 18.2832 11.3197 17.9009 11.6997ZM15.9998 5C10.4372 5 5.94092 9.47 5.94092 15C5.94092 20.53 10.4372 25 15.9998 25C21.5624 25 26.0587 20.53 26.0587 15C26.0587 9.47 21.5624 5 15.9998 5ZM15.9998 23C11.5638 23 7.95269 19.41 7.95269 15C7.95269 10.59 11.5638 7 15.9998 7C20.4358 7 24.0469 10.59 24.0469 15C24.0469 19.41 20.4358 23 15.9998 23Z" fill="#0F1015"/>
</svg>
