<svg width="24" height="24" viewBox="0 0 24 24" fill="none" xmlns="http://www.w3.org/2000/svg">
<path fill-rule="evenodd" clip-rule="evenodd" d="M0.299805 2.66667H2.8998V0C1.4698 0 0.299805 1.2 0.299805 2.66667ZM0.299805 13.3333H2.8998V10.6667H0.299805V13.3333ZM5.4998 24H8.0998V21.3333H5.4998V24ZM0.299805 8H2.8998V5.33333H0.299805V8ZM13.2998 0H10.6998V2.66667H13.2998V0ZM21.0998 0V2.66667H23.6998C23.6998 1.2 22.5298 0 21.0998 0ZM2.8998 24V21.3333H0.299805C0.299805 22.8 1.4698 24 2.8998 24ZM0.299805 18.6667H2.8998V16H0.299805V18.6667ZM8.0998 0H5.4998V2.66667H8.0998V0ZM10.6998 24H13.2998V21.3333H10.6998V24ZM21.0998 13.3333H23.6998V10.6667H21.0998V13.3333ZM21.0998 24C22.5298 24 23.6998 22.8 23.6998 21.3333H21.0998V24ZM21.0998 8H23.6998V5.33333H21.0998V8ZM21.0998 18.6667H23.6998V16H21.0998V18.6667ZM15.8998 24H18.4998V21.3333H15.8998V24ZM15.8998 2.66667H18.4998V0H15.8998V2.66667ZM6.7998 18.6667H17.1998C17.9148 18.6667 18.4998 18.0667 18.4998 17.3333V6.66667C18.4998 5.93333 17.9148 5.33333 17.1998 5.33333H6.7998C6.0848 5.33333 5.4998 5.93333 5.4998 6.66667V17.3333C5.4998 18.0667 6.0848 18.6667 6.7998 18.6667ZM8.0998 8H15.8998V16H8.0998V8Z" fill="white" fill-opacity="0.9"/>
</svg>
