<svg width="31" height="31" viewBox="0 0 31 31" fill="none" xmlns="http://www.w3.org/2000/svg">
<rect x="3" y="3" width="25" height="25" rx="12.5" fill="#7CE2A5"/>
<path fill-rule="evenodd" clip-rule="evenodd" d="M19.74 11.26C18.57 10.09 17.04 9.5 15.5 9.5V15.5L11.26 19.74C13.6 22.08 17.4 22.08 19.75 19.74C22.09 17.4 22.09 13.6 19.74 11.26ZM15.5 5.5C9.98 5.5 5.5 9.98 5.5 15.5C5.5 21.02 9.98 25.5 15.5 25.5C21.02 25.5 25.5 21.02 25.5 15.5C25.5 9.98 21.02 5.5 15.5 5.5ZM15.5 23.5C11.08 23.5 7.5 19.92 7.5 15.5C7.5 11.08 11.08 7.5 15.5 7.5C19.92 7.5 23.5 11.08 23.5 15.5C23.5 19.92 19.92 23.5 15.5 23.5Z" fill="#0F1015"/>
</svg>
