<svg width="30" height="30" viewBox="0 0 30 30" fill="none" xmlns="http://www.w3.org/2000/svg">
<rect width="30" height="30" rx="15" fill="#7CE2A5"/>
<path d="M9.20097 12.955L14.0615 8.09359V20.4696C14.0615 20.7099 14.1569 20.9404 14.3269 21.1103C14.4968 21.2802 14.7273 21.3757 14.9676 21.3757C15.2079 21.3757 15.4384 21.2802 15.6083 21.1103C15.7783 20.9404 15.8737 20.7099 15.8737 20.4696V8.09359L20.7342 12.955C20.9051 13.1201 21.134 13.2114 21.3716 13.2093C21.6092 13.2073 21.8365 13.112 22.0045 12.944C22.1725 12.776 22.2678 12.5487 22.2698 12.3111C22.2719 12.0735 22.1806 11.8446 22.0155 11.6737L15.6082 5.26555C15.4383 5.09567 15.2079 5.00024 14.9676 5.00024C14.7273 5.00024 14.4969 5.09567 14.327 5.26555L7.9197 11.6737C7.83315 11.7573 7.76412 11.8573 7.71663 11.9679C7.66914 12.0784 7.64415 12.1973 7.6431 12.3176C7.64206 12.4379 7.66498 12.5573 7.71054 12.6686C7.7561 12.78 7.82339 12.8812 7.90847 12.9662C7.99355 13.0513 8.09472 13.1186 8.20608 13.1642C8.31744 13.2097 8.43676 13.2326 8.55707 13.2316C8.67739 13.2306 8.79629 13.2056 8.90685 13.1581C9.0174 13.1106 9.11738 13.0415 9.20097 12.955Z" fill="#15161C"/>
<path d="M24.0288 14.1267C23.7885 14.1267 23.558 14.2222 23.3881 14.3921C23.2182 14.562 23.1227 14.7925 23.1227 15.0328C23.1227 17.1957 22.2635 19.27 20.7341 20.7994C19.2047 22.3288 17.1304 23.1881 14.9675 23.1881C12.8046 23.1881 10.7303 22.3288 9.20087 20.7994C7.67148 19.27 6.81227 17.1957 6.81227 15.0328C6.81227 14.7925 6.7168 14.562 6.54687 14.3921C6.37693 14.2222 6.14646 14.1267 5.90613 14.1267C5.66581 14.1267 5.43533 14.2222 5.2654 14.3921C5.09547 14.562 5 14.7925 5 15.0328C5 17.6764 6.05014 20.2116 7.91941 22.0809C9.78867 23.9502 12.3239 25.0003 14.9675 25.0003C17.611 25.0003 20.1463 23.9502 22.0155 22.0809C23.8848 20.2116 24.935 17.6764 24.935 15.0328C24.935 14.7925 24.8395 14.562 24.6696 14.3921C24.4996 14.2222 24.2691 14.1267 24.0288 14.1267Z" fill="#15161C"/>
</svg>
