<svg width="30" height="30" viewBox="0 0 30 30" fill="none" xmlns="http://www.w3.org/2000/svg">
<rect width="30" height="30" rx="15" fill="#7CE2A5"/>
<path fill-rule="evenodd" clip-rule="evenodd" d="M23.22 10.24C21.22 9.64 19.16 10.2 17.83 11.53L15 14.04L13.48 15.38H13.49L10.8 17.77C9.99 18.58 8.85 18.92 7.68 18.69C6.43 18.44 5.4 17.44 5.11 16.2C4.59 13.97 6.27 12 8.4 12C9.31 12 10.16 12.35 10.84 13.03L11.31 13.44C11.69 13.78 12.26 13.78 12.64 13.44C13.09 13.04 13.09 12.34 12.64 11.94L12.22 11.58C11.2 10.56 9.84 10 8.4 10C5.42 10 3 12.42 3 15.38C3 18.34 5.42 20.76 8.4 20.76C9.84 20.76 11.2 20.2 12.17 19.23L15 16.73L15.01 16.74L16.52 15.38H16.51L19.2 12.99C20.01 12.18 21.15 11.84 22.32 12.07C23.57 12.32 24.6 13.32 24.89 14.56C25.41 16.79 23.73 18.76 21.6 18.76C20.7 18.76 19.84 18.41 19.16 17.73L18.68 17.31C18.3 16.97 17.73 16.97 17.35 17.31C16.9 17.71 16.9 18.41 17.35 18.81L17.77 19.18C18.79 20.19 20.14 20.75 21.59 20.75C24.86 20.75 27.45 17.85 26.92 14.5C26.62 12.51 25.15 10.81 23.22 10.24Z" fill="#0F1015"/>
</svg>
