<svg width="50" height="57" viewBox="0 0 50 57" fill="none" xmlns="http://www.w3.org/2000/svg">
<path d="M34.8697 45.8672H31.3126L27.0541 42.0078V40.0287L31.4629 35.8724V29.2917L37.2245 25.5807L43.7876 30.4792L34.8697 45.8672ZM20.1403 35.4766L20.7916 29.2917L18.6373 23.75H31.3627L29.2585 29.2917L29.8597 35.4766H24.9499H20.1403ZM23.0461 42.0078L18.7876 45.9167H15.1804L6.21242 30.4792L12.8257 25.6302L18.6373 29.2917V35.8724L23.0461 40.0287V42.0078ZM15.1303 12.3203H34.8196L37.1743 22.2162H12.8257L15.1303 12.3203ZM25 0L0 14.25V42.75L25 57L50 42.75V14.25L25 0Z" fill="white"/>
</svg>
