<svg width="30" height="31" viewBox="0 0 30 31" fill="none" xmlns="http://www.w3.org/2000/svg">
<rect y="0.5" width="30" height="30" rx="15" fill="#7CE2A5"/>
<path d="M17.8867 17.2283C17.2465 17.2283 16.7256 17.7491 16.7256 18.3892C16.7256 19.0295 17.2465 19.5505 17.8867 19.5505C18.527 19.5505 19.0476 19.0295 19.0476 18.3892C19.0475 17.7491 18.5268 17.2283 17.8867 17.2283Z" fill="#15161C"/>
<path d="M12.1002 11.442C11.4599 11.442 10.939 11.963 10.939 12.6033C10.9391 13.2433 11.4601 13.764 12.1002 13.764C12.7404 13.764 13.261 13.2433 13.261 12.6033C13.261 11.963 12.7404 11.442 12.1002 11.442Z" fill="#15161C"/>
<path d="M15.0005 5.5C9.48627 5.5 5.00049 9.98578 5.00049 15.5C5.00049 21.0139 9.48627 25.5 15.0005 25.5C20.5141 25.5 24.9995 21.0139 24.9995 15.5C24.9995 9.98578 20.5141 5.5 15.0005 5.5ZM12.1003 10.1911C13.43 10.1911 14.5122 11.273 14.5122 12.6033C14.5122 13.933 13.43 15.0152 12.1003 15.0152C10.7702 15.0152 9.68814 13.933 9.68814 12.6033C9.68814 11.273 10.7703 10.1911 12.1003 10.1911ZM11.3671 20.0175C11.2452 20.1397 11.0847 20.2009 10.9249 20.2009C10.7649 20.2009 10.6047 20.1397 10.4825 20.0175C10.2383 19.7733 10.2383 19.377 10.4825 19.1331L18.633 10.9823C18.877 10.7381 19.2731 10.7381 19.5175 10.9823C19.7617 11.2266 19.7617 11.6228 19.5175 11.8669L11.3671 20.0175ZM17.8869 20.8013C16.5569 20.8013 15.4747 19.7192 15.4747 18.3891C15.4747 17.0594 16.5569 15.9772 17.8869 15.9772C19.2167 15.9772 20.2988 17.0594 20.2988 18.3891C20.2986 19.7192 19.2166 20.8013 17.8869 20.8013Z" fill="#15161C"/>
</svg>
