<svg width="30" height="30" viewBox="0 0 30 30" fill="none" xmlns="http://www.w3.org/2000/svg">
<rect width="30" height="30" rx="15" fill="#7CE2A5"/>
<path fill-rule="evenodd" clip-rule="evenodd" d="M16.7516 23.6722C16.7516 22.9387 16.157 22.3441 15.4236 22.3441H13.7974C13.4451 22.3441 13.1074 22.4841 12.8583 22.7331C12.6092 22.9822 12.4693 23.32 12.4693 23.6722C12.4693 24.4056 13.0639 25.0002 13.7974 25.0002H15.4236C16.157 25.0002 16.7516 24.4056 16.7516 23.6722ZM6.79192 20.2477C7.01375 20.2647 7.28212 20.2744 7.55169 20.2586C7.69531 20.9869 8.05208 21.6624 8.58464 22.195C9.29164 22.902 10.2505 23.2992 11.2504 23.2992H11.7571C11.7347 23.4214 11.7233 23.5462 11.7233 23.6722C11.7233 23.7996 11.7347 23.9243 11.7568 24.0452H11.2504C10.0527 24.0452 8.90399 23.5694 8.0571 22.7226C7.38147 22.0469 6.942 21.1792 6.79192 20.2477ZM6.41243 19.4539C5.82343 19.3546 5.27533 19.0745 4.84747 18.6466C4.30484 18.104 4 17.368 4 16.6006V14.8374C4 14.07 4.30484 13.334 4.84747 12.7914C5.3901 12.2487 6.12607 11.9438 6.89347 11.9438H7.08607C7.39394 8.05793 10.6451 5.00024 14.6105 5.00024C18.5758 5.00024 21.827 8.05793 22.1349 11.9438H22.3275C23.0949 11.9438 23.8309 12.2487 24.3735 12.7914C24.9161 13.334 25.221 14.07 25.221 14.8374V16.6006C25.221 17.368 24.9161 18.104 24.3735 18.6466C23.8309 19.1893 23.0949 19.4942 22.3275 19.4942H21.4736C21.1195 19.4942 20.8324 19.207 20.8324 18.853V12.5485C20.8324 9.11222 18.0468 6.32655 14.6105 6.32655C11.1742 6.32655 8.38851 9.11222 8.38851 12.5485V18.853C8.38851 19.103 8.24539 19.3196 8.03658 19.4254C7.46179 19.6248 6.57039 19.4805 6.41243 19.4539Z" fill="#15161C"/>
</svg>
