<svg width="31" height="31" viewBox="0 0 31 31" fill="none" xmlns="http://www.w3.org/2000/svg">
<rect x="3" y="3" width="25" height="25" rx="12.5" fill="#7CE2A5"/>
<path fill-rule="evenodd" clip-rule="evenodd" d="M21.853 9.18676C21.4909 9.54676 21.4607 10.1068 21.7826 10.5068C23.2411 12.3268 24.0056 14.8168 23.3216 17.4268C22.5269 20.4768 20.1229 22.7568 17.075 23.3668C11.945 24.3768 7.44866 20.4368 7.44866 15.5068C7.44866 11.4268 10.5166 8.06677 14.4899 7.57677V9.59677C11.3415 10.1268 9.02791 13.0568 9.53085 16.4268C9.92315 19.0368 12.1059 21.1368 14.7414 21.4568C18.4028 21.9068 21.5311 19.0668 21.5311 15.5068C21.5311 14.2568 21.1489 13.1068 20.495 12.1468C20.153 11.6468 19.4187 11.6168 18.9862 12.0368L18.9761 12.0468C18.6341 12.3868 18.604 12.9168 18.8655 13.3168C19.469 14.2368 19.7104 15.4168 19.3584 16.6368C18.9661 18.0068 17.8093 19.0968 16.4011 19.4068C13.7858 19.9768 11.4722 18.0168 11.4722 15.5068C11.4722 13.6468 12.7598 12.0968 14.4899 11.6468V13.7868C13.8863 14.1368 13.484 14.7668 13.484 15.5068C13.484 16.6068 14.3893 17.5068 15.4958 17.5068C16.6022 17.5068 17.5075 16.6068 17.5075 15.5068C17.5075 14.7668 17.1052 14.1268 16.5017 13.7868V6.21677C16.5017 5.82677 16.1798 5.50677 15.7875 5.50677C10.3959 5.30677 5.74871 9.56676 5.45701 14.9068C5.09489 21.4568 10.8989 26.7268 17.5377 25.3068C21.4406 24.4768 24.4582 21.5068 25.3334 17.6368C26.0475 14.4768 25.1322 11.4768 23.3518 9.26677C22.9796 8.79677 22.2755 8.76676 21.853 9.18676Z" fill="#0F1015"/>
</svg>
