<svg width="32" height="30" viewBox="0 0 32 30" fill="none" xmlns="http://www.w3.org/2000/svg">
<rect x="1" width="30" height="30" rx="15" fill="#7CE2A5"/>
<path fill-rule="evenodd" clip-rule="evenodd" d="M12.9922 17.2915H6.94681C6.39357 17.2915 5.94092 17.7415 5.94092 18.2915C5.94092 18.8415 6.39357 19.2915 6.94681 19.2915H12.9922V21.0815C12.9922 21.5315 13.5354 21.7515 13.8472 21.4315L16.6436 18.6415C16.8347 18.4415 16.8347 18.1315 16.6436 17.9315L13.8472 15.1415C13.5354 14.8215 12.9922 15.0515 12.9922 15.4915V17.2915ZM19.0074 15.0815V13.2915H25.0528C25.606 13.2915 26.0587 12.8415 26.0587 12.2915C26.0587 11.7415 25.606 11.2915 25.0528 11.2915H19.0074V9.50153C19.0074 9.05153 18.4642 8.83153 18.1524 9.15153L15.356 11.9415C15.1649 12.1415 15.1649 12.4515 15.356 12.6515L18.1524 15.4415C18.4642 15.7515 19.0074 15.5315 19.0074 15.0815Z" fill="#0F1015"/>
</svg>
