<svg width="24" height="25" viewBox="0 0 24 25" fill="none" xmlns="http://www.w3.org/2000/svg">
<path fill-rule="evenodd" clip-rule="evenodd" d="M21.0998 21.6H23.6998V24.2H21.0998V21.6ZM21.0998 19H23.6998V16.4H21.0998V19ZM0.299805 13.8H2.8998V11.2H0.299805V13.8ZM0.299805 19H2.8998V16.4H0.299805V19ZM0.299805 8.60005H2.8998V6.00005H0.299805V8.60005ZM0.299805 3.40005H2.8998V0.800049H0.299805V3.40005ZM5.4998 3.40005H8.0998V0.800049H5.4998V3.40005ZM15.8998 24.2H18.4998V21.6H15.8998V24.2ZM10.6998 24.2H13.2998V21.6H10.6998V24.2ZM15.8998 24.2H18.4998V21.6H15.8998V24.2ZM5.4998 24.2H8.0998V21.6H5.4998V24.2ZM0.299805 24.2H2.8998V21.6H0.299805V24.2ZM23.6998 7.30005C23.6998 3.71205 20.7878 0.800049 17.1998 0.800049H10.6998V3.40005H17.1998C19.3448 3.40005 21.0998 5.15505 21.0998 7.30005V13.8H23.6998V7.30005Z" fill="#7149B6"/>
</svg>
