<svg width="7" height="12" viewBox="0 0 7 12" fill="none" xmlns="http://www.w3.org/2000/svg">
<path fill-rule="evenodd" clip-rule="evenodd" d="M3.54924 2.11499L5.18925 3.75499C5.44924 4.01499 5.86924 4.01499 6.12924 3.75499C6.38924 3.49499 6.38924 3.07499 6.12924 2.81499L4.01591 0.69499C3.89136 0.570155 3.72226 0.5 3.54591 0.5C3.36957 0.5 3.20047 0.570155 3.07591 0.69499L0.962578 2.81499C0.702578 3.07499 0.702578 3.49499 0.962578 3.75499C1.22258 4.01499 1.64258 4.01499 1.90258 3.75499L3.54924 2.11499ZM3.54924 10.3417L1.90924 8.70166C1.78469 8.57682 1.61559 8.50667 1.43924 8.50667C1.2629 8.50667 1.0938 8.57682 0.969245 8.70166C0.709245 8.96166 0.709245 9.38166 0.969245 9.64166L3.08258 11.7617C3.34258 12.0217 3.76258 12.0217 4.02258 11.7617L6.13591 9.64832C6.39591 9.38832 6.39591 8.96832 6.13591 8.70832C6.01136 8.58349 5.84226 8.51333 5.66591 8.51333C5.48957 8.51333 5.32047 8.58349 5.19591 8.70832L3.54924 10.3417Z" fill="white"/>
</svg>
