<svg width="386" height="672" viewBox="0 0 386 672" fill="none" xmlns="http://www.w3.org/2000/svg">
<rect x="39" y="288" width="307" height="340" rx="15" fill="#2D1458"/>
<rect x="32" y="237" width="321" height="382" rx="15" fill="#573A9A"/>
<path d="M0.5625 13.1625V4.3875H1.0625V0.5H5.14591V0H14.3126V0.5H23.4792V0H32.6459V0.5H41.8125V0H50.9792V0.5H60.1458V0H69.3125V0.5H78.4792V0H87.6458V0.5H96.8125V0H105.979V0.5H115.146V0H124.312V0.5H133.479V0H142.646V0.5H151.812V0H160.979V0.5H170.146V0H179.312V0.5H188.479V0H197.646V0.5H206.812V0H215.979V0.5H225.146V0H234.312V0.5H243.479V0H252.646V0.5H261.812V0H270.979V0.5H280.146V0H289.312V0.5H298.479V0H307.646V0.5H316.812V0H325.979V0.5H335.146V0H344.312V0.5H353.479V0H362.646V0.5H371.812V0H380.979V0.5H385.062V4.38764H385.562V13.1626H385.062V21.9376H385.562V30.7126H385.062V39.4876H385.562V48.2626H385.062V57.0376H385.562V65.8126H385.062V74.5876H385.562V83.3626H385.062V92.1376H385.562V100.913H385.062V109.688H385.562V118.463H385.062V127.238H385.562V136.013H385.062V144.788H385.562V153.563H385.062V162.338H385.562V171.113H385.062V179.888H385.562V188.663H385.062V197.438H385.562V206.212H385.062V214.987H385.562V223.762H385.062V232.537H385.562V241.312H385.062V250.087H385.562V258.862H385.062V267.637H385.562V276.413H385.062V285.188H385.562V293.962H385.062V302.738H385.562V311.513H385.062V320.288H385.562V329.062H385.062V337.837H385.562V346.612H385.062V350.5H380.979V351H371.812V350.5H362.646V351H353.479V350.5H344.312V351H335.146V350.5H325.979V351H316.812V350.5H307.646V351H298.479V350.5H289.313V351H280.146V350.5H270.979V351H261.813V350.5H252.646V351H243.479V350.5H234.313V351H225.146V350.5H215.979V351H206.813V350.5H197.646V351H188.479V350.5H179.313V351H170.146V350.5H160.979V351H151.812V350.5H142.646V351H133.479V350.5H124.312V351H115.146V350.5H105.979V351H96.8125V350.5H87.6458V351H78.4792V350.5H69.3125V351H60.1458V350.5H50.9792V351H41.8125V350.5H32.6458V351H23.4792V350.5H14.3125V351H5.14583V350.5H1.0625V346.612H0.5625V337.837H1.0625V329.062H0.5625V320.287H1.0625V311.512H0.5625V302.737H1.0625V293.962H0.5625V285.187H1.0625V276.412H0.5625V267.637H1.0625V258.862H0.5625V250.087H1.0625V241.312H0.5625V232.537H1.0625V223.762H0.5625V214.987H1.0625V206.212H0.5625V197.437H1.0625V188.662H0.5625V179.887H1.0625V171.112H0.5625V162.337H1.0625V153.562H0.5625V144.788H1.0625V136.013H0.5625V127.238H1.0625V118.463H0.5625V109.688H1.0625V100.913H0.5625V92.1375H1.0625V83.3625H0.5625V74.5875H1.0625V65.8125H0.5625V57.0375H1.0625V48.2625H0.5625V39.4875H1.0625V30.7125H0.5625V21.9375H1.0625V13.1625H0.5625Z" stroke="#986CFE" stroke-dasharray="9 9"/>
</svg>
