<svg width="58" height="58" viewBox="0 0 58 58" fill="none" xmlns="http://www.w3.org/2000/svg">
<path d="M40.0108 21.525C39.6584 21.0307 38.9095 21.5318 39.2435 22.047C44.6864 29.7419 39.1077 41.0402 29.6696 41.3563C29.0822 41.3902 29.0976 42.2785 29.6942 42.2843C39.8528 41.965 45.8691 29.8033 40.0108 21.525Z" fill="#86FFB6"/>
<path d="M37.1025 19.6409L36.785 20.6783C36.626 21.1816 37.3381 21.5163 37.621 21.0619L39.0275 18.8363C39.3505 18.3259 39.8975 18.0359 40.3998 18.1084L41.8647 18.5697C42.3509 18.7292 42.6978 18.0564 42.2806 17.7545C41.4106 17.0377 40.2788 16.6941 40.697 15.2734L41.5438 12.5174C41.7039 12.0132 40.9883 11.6793 40.7078 12.1337L39.1696 14.572C38.7958 15.1647 38.2198 15.401 37.5591 15.24L36.3599 14.9168C35.875 14.7796 35.5524 15.4482 35.9669 15.7404C37.2116 16.6741 38.0652 16.8607 37.3983 18.676C30.8708 13.0812 19.8914 15.7845 16.7432 23.8117C16.5173 24.373 17.3452 24.7344 17.5977 24.1734C20.6334 16.5424 31.0224 14.1404 37.1025 19.6409Z" fill="#86FFB6"/>
<path d="M29.4641 10.6058V2.17627C29.4545 1.56901 28.5467 1.56426 28.5361 2.17627V10.6058C28.5458 11.213 29.4536 11.2179 29.4641 10.6058Z" fill="#86FFB6"/>
<path d="M29.0001 56.2809C29.1232 56.2809 29.2412 56.232 29.3282 56.145C29.4152 56.058 29.4641 55.9399 29.4641 55.8169V47.3875C29.4641 47.2644 29.4152 47.1464 29.3282 47.0594C29.2412 46.9724 29.1232 46.9235 29.0001 46.9235C28.8771 46.9235 28.7591 46.9724 28.672 47.0594C28.585 47.1464 28.5361 47.2644 28.5361 47.3875V55.8169C28.5361 55.9399 28.585 56.058 28.672 56.145C28.7591 56.232 28.8771 56.2809 29.0001 56.2809Z" fill="#86FFB6"/>
<path d="M46.9268 28.9966C46.9268 29.1197 46.9756 29.2377 47.0627 29.3247C47.1497 29.4118 47.2677 29.4606 47.3908 29.4606H55.8202C55.9433 29.4606 56.0613 29.4118 56.1483 29.3247C56.2354 29.2377 56.2842 29.1197 56.2842 28.9966C56.2842 28.8736 56.2354 28.7556 56.1483 28.6685C56.0613 28.5815 55.9433 28.5326 55.8202 28.5326H47.3908C47.2677 28.5326 47.1497 28.5815 47.0627 28.6685C46.9756 28.7556 46.9268 28.8736 46.9268 28.9966Z" fill="#86FFB6"/>
<path d="M7.53148 28.9966C7.53148 28.8736 7.48259 28.7556 7.39558 28.6685C7.30856 28.5815 7.19054 28.5326 7.06748 28.5326H2.17982C2.05676 28.5326 1.93874 28.5815 1.85172 28.6685C1.76471 28.7556 1.71582 28.8736 1.71582 28.9966C1.71582 29.1197 1.76471 29.2377 1.85172 29.3247C1.93874 29.4118 2.05676 29.4606 2.17982 29.4606H7.06748C7.19054 29.4606 7.30856 29.4118 7.39558 29.3247C7.48259 29.2377 7.53148 29.1197 7.53148 28.9966Z" fill="#86FFB6"/>
<path d="M42.9377 15.0589C42.9808 15.102 43.032 15.1361 43.0883 15.1595C43.1446 15.1828 43.2049 15.1948 43.2658 15.1948C43.3268 15.1948 43.3871 15.1828 43.4434 15.1595C43.4997 15.1361 43.5509 15.102 43.5939 15.0589L48.2929 10.3598C48.3367 10.3169 48.3717 10.2657 48.3957 10.2092C48.4196 10.1528 48.4321 10.0921 48.4325 10.0307C48.4328 9.96932 48.421 9.90849 48.3977 9.85173C48.3744 9.79496 48.34 9.74339 48.2966 9.69999C48.2532 9.65659 48.2017 9.62223 48.1449 9.5989C48.0881 9.57556 48.0273 9.56372 47.9659 9.56406C47.9046 9.5644 47.8439 9.57691 47.7874 9.60086C47.7309 9.62482 47.6797 9.65975 47.6368 9.70362L42.9377 14.4025C42.8946 14.4456 42.8604 14.4968 42.8371 14.5531C42.8138 14.6094 42.8018 14.6698 42.8018 14.7307C42.8018 14.7917 42.8138 14.852 42.8371 14.9083C42.8604 14.9646 42.8946 15.0158 42.9377 15.0589Z" fill="#86FFB6"/>
<path d="M10.0349 48.4255C10.0959 48.4255 10.1562 48.4136 10.2125 48.3902C10.2688 48.3669 10.3199 48.3327 10.363 48.2895L16.3236 42.3291C16.7461 41.8934 16.1079 41.2473 15.6674 41.6729L9.70687 47.6333C9.64345 47.6988 9.60056 47.7813 9.58347 47.8708C9.56639 47.9604 9.57587 48.0529 9.61074 48.1371C9.64561 48.2213 9.70435 48.2935 9.77972 48.3447C9.85509 48.396 9.9438 48.424 10.0349 48.4255Z" fill="#86FFB6"/>
<path d="M47.6369 48.2895C48.0735 48.7125 48.7181 48.0732 48.293 47.6333L42.3324 41.6728C41.8965 41.2505 41.2507 41.8886 41.6763 42.3291L47.6369 48.2895Z" fill="#86FFB6"/>
<path d="M36.4379 45.6655C36.1957 45.1068 35.3565 45.4525 35.5806 46.0207L36.8301 49.0374C36.8531 49.0941 36.8871 49.1457 36.9301 49.1892C36.9732 49.2328 37.0244 49.2673 37.0809 49.291C37.1374 49.3146 37.1979 49.3268 37.2592 49.327C37.3204 49.3271 37.381 49.3151 37.4376 49.2917C37.4941 49.2682 37.5455 49.2338 37.5887 49.1905C37.6319 49.1471 37.6661 49.0956 37.6894 49.039C37.7126 48.9823 37.7244 48.9217 37.724 48.8605C37.7237 48.7992 37.7113 48.7387 37.6874 48.6823L36.4379 45.6655Z" fill="#86FFB6"/>
<path d="M37.8688 51.272C38.4119 51.565 38.8614 50.7646 38.3286 50.4535C37.7854 50.1599 37.336 50.9603 37.8688 51.272Z" fill="#86FFB6"/>
<path d="M38.7272 53.3434C39.2703 53.6364 39.7198 52.836 39.1869 52.5249C38.6438 52.2319 38.1944 53.0323 38.7272 53.3434Z" fill="#86FFB6"/>
<path d="M12.5152 35.7415C12.4681 35.6278 12.3777 35.5374 12.2641 35.4903C12.1504 35.4432 12.0226 35.4432 11.9089 35.4903L8.89212 36.7399C8.8354 36.7629 8.78378 36.7969 8.74026 36.8399C8.69673 36.883 8.66215 36.9342 8.63852 36.9907C8.61488 37.0472 8.60265 37.1078 8.60254 37.169C8.60243 37.2302 8.61443 37.2908 8.63785 37.3474C8.66127 37.4039 8.69566 37.4553 8.73902 37.4985C8.78239 37.5417 8.83387 37.5759 8.89051 37.5992C8.94716 37.6224 9.00783 37.6342 9.06905 37.6338C9.13027 37.6335 9.19081 37.6211 9.2472 37.5972L12.264 36.3477C12.3777 36.3006 12.468 36.2103 12.5151 36.0966C12.5622 35.9829 12.5622 35.8551 12.5152 35.7415Z" fill="#86FFB6"/>
<path d="M7.47673 38.2384C7.76975 37.6952 6.96935 37.2459 6.65812 37.7786C6.3651 38.3218 7.1655 38.7713 7.47673 38.2384Z" fill="#86FFB6"/>
<path d="M4.58585 38.6368C4.29284 39.18 5.09324 39.6294 5.40447 39.0966C5.69737 38.5535 4.89708 38.1041 4.58585 38.6368Z" fill="#86FFB6"/>
<path d="M37.4364 8.55071C37.3228 8.50362 37.195 8.50363 37.0813 8.55073C36.9676 8.59783 36.8773 8.68816 36.8302 8.80185L35.5808 11.8185C35.5357 11.9318 35.5369 12.0584 35.5844 12.1707C35.6318 12.2831 35.7216 12.3722 35.8342 12.4189C35.9469 12.4656 36.0734 12.466 36.1864 12.4202C36.2994 12.3743 36.3898 12.2858 36.438 12.1737L37.6876 9.15692C37.7347 9.04323 37.7347 8.91549 37.6876 8.8018C37.6405 8.68812 37.5501 8.59779 37.4364 8.55071Z" fill="#86FFB6"/>
<path d="M37.8687 6.5678C37.3359 6.87915 37.7856 7.67943 38.3285 7.3863C38.8613 7.07507 38.4117 6.27479 37.8687 6.5678Z" fill="#86FFB6"/>
<path d="M39.1869 5.31431C39.7198 5.00296 39.2702 4.20279 38.7272 4.49581C38.1943 4.80715 38.6439 5.60744 39.1869 5.31431Z" fill="#86FFB6"/>
<path d="M20.5653 49.281C20.6789 49.3279 20.8066 49.3278 20.9203 49.2808C21.0339 49.2337 21.1242 49.1435 21.1715 49.03L22.4209 46.0131C22.4454 45.9566 22.4585 45.8958 22.4592 45.8342C22.46 45.7727 22.4485 45.7115 22.4254 45.6544C22.4023 45.5973 22.3681 45.5454 22.3248 45.5017C22.2814 45.4579 22.2297 45.4233 22.1728 45.3997C22.1159 45.3761 22.0549 45.3641 21.9933 45.3644C21.9317 45.3646 21.8708 45.3772 21.8141 45.4012C21.7574 45.4253 21.7061 45.4604 21.6631 45.5045C21.6201 45.5486 21.5863 45.6008 21.5637 45.6581L20.3141 48.6748C20.267 48.7885 20.267 48.9162 20.3141 49.0299C20.3612 49.1436 20.4516 49.2339 20.5653 49.281Z" fill="#86FFB6"/>
<path d="M20.3727 50.7353C20.1958 50.1437 19.3121 50.3923 19.4687 50.9891C19.6456 51.5802 20.5294 51.3321 20.3727 50.7353Z" fill="#86FFB6"/>
<path d="M27.0486 41.2772C26.457 41.4541 26.7055 42.3378 27.3023 42.1811C27.8936 42.0043 27.6454 41.1205 27.0486 41.2772Z" fill="#86FFB6"/>
<path d="M19.1894 53.3861C19.781 53.2092 19.5324 52.3255 18.9357 52.4822C18.3444 52.6591 18.5925 53.5428 19.1894 53.3861Z" fill="#86FFB6"/>
<path d="M48.9499 37.6326C49.4427 37.642 49.5946 36.925 49.1276 36.7394L46.1116 35.4899C45.5453 35.266 45.1962 36.104 45.7566 36.3472L48.7726 37.5968C48.8288 37.6202 48.889 37.6324 48.9499 37.6326Z" fill="#86FFB6"/>
<path d="M50.7223 37.5992C50.1894 37.9105 50.639 38.7108 51.182 38.4178C51.7149 38.106 51.2653 37.3063 50.7223 37.5992Z" fill="#86FFB6"/>
<path d="M52.7946 38.4575C52.2617 38.7688 52.7113 39.5691 53.2543 39.2761C53.7871 38.9644 53.3376 38.164 52.7946 38.4575Z" fill="#86FFB6"/>
<path d="M16.0114 31.8892C16.9967 36.2774 20.2384 40.0672 24.5395 41.5064C25.0423 41.5148 25.1833 40.7791 24.7008 40.6072C22.8088 39.8994 21.1173 38.742 19.7723 37.2348C18.4272 35.7276 17.469 33.9159 16.9801 31.9559C18.7174 32.0043 20.4448 31.6798 22.0461 31.0043C23.6474 30.3289 25.0854 29.3182 26.2632 28.0402C26.6124 27.6646 26.1556 27.0728 25.7047 27.3159C20.2295 30.3263 13.1843 26.0877 13.29 19.8305C13.1842 13.5748 20.2301 9.33394 25.7047 12.3456C26.1505 12.5934 26.6158 11.9912 26.2632 11.6212C18.9053 3.52988 5.14698 8.87852 5.20231 19.8309C5.20612 22.8182 6.31054 25.6994 8.30454 27.9239C10.2985 30.1483 13.0423 31.56 16.0114 31.8892Z" fill="#7027F0"/>
<path d="M33.6954 32.0747C33.5364 32.578 34.2484 32.9128 34.5313 32.4584L35.9379 30.2328C36.2609 29.7224 36.8088 29.4324 37.3102 29.5051L38.7751 29.9663C39.2623 30.1255 39.608 29.4531 39.1909 29.1511L38.0996 28.3409C37.5803 27.9842 37.3956 27.3588 37.6073 26.6705L38.4541 23.9147C38.6145 23.4086 37.8973 23.0776 37.6181 23.5309L36.08 25.9691C35.3527 27.1254 34.2991 26.5703 33.2704 26.3139C32.7855 26.1763 32.4628 26.8458 32.8773 27.1375L34.1125 28.0328C34.5028 28.3633 34.6451 28.974 34.4665 29.5576L33.6954 32.0747Z" fill="#86FFB6"/>
<path d="M49.2189 19.2553C49.379 18.7509 48.6632 18.4172 48.3829 18.8716L46.8447 21.3098C46.4708 21.9024 45.8954 22.1388 45.2342 21.9778L44.035 21.6545C43.5492 21.5175 43.2279 22.1859 43.642 22.4781L44.8771 23.3733C45.2673 23.7039 45.4098 24.3146 45.2312 24.8982L44.4606 27.4154C44.3055 27.9215 45.0077 28.2539 45.2965 27.7991L46.7031 25.5736C47.0261 25.0632 47.5731 24.7739 48.0754 24.8457L49.5402 25.3069C50.0281 25.4664 50.3723 24.7935 49.9562 24.4918C49.9455 24.4841 48.8644 23.6806 48.8542 23.674C48.3425 23.3161 48.1625 22.6944 48.3725 22.0105L49.2189 19.2553Z" fill="#86FFB6"/>
</svg>
