<svg width="532" height="297" viewBox="0 0 532 297" fill="none" xmlns="http://www.w3.org/2000/svg">
<rect x="9" width="125" height="30" rx="7" fill="#7027F0"/>
<path d="M63.1388 21.16C62.5201 21.16 61.9228 21.064 61.3468 20.872C60.7708 20.6693 60.2854 20.4027 59.8908 20.072L60.3708 18.952C60.7228 19.2613 61.1388 19.5013 61.6188 19.672C62.0988 19.8427 62.5841 19.928 63.0748 19.928C63.8321 19.928 64.4028 19.736 64.7868 19.352C65.1708 18.968 65.3628 18.472 65.3628 17.864C65.3628 17.352 65.2241 16.904 64.9468 16.52C64.6694 16.136 64.1948 15.9067 63.5228 15.832L62.7548 15.752C62.1574 15.688 61.6454 15.5333 61.2188 15.288C60.7921 15.0427 60.4668 14.712 60.2428 14.296C60.0188 13.8693 59.9068 13.368 59.9068 12.792C59.9068 12.184 60.0561 11.6453 60.3548 11.176C60.6534 10.696 61.0748 10.3227 61.6188 10.056C62.1734 9.77867 62.8294 9.64 63.5868 9.64C64.0561 9.64 64.5361 9.704 65.0268 9.832C65.5174 9.96 65.9761 10.1627 66.4028 10.44L66.0028 11.56C65.6188 11.2933 65.2188 11.1067 64.8028 11C64.3868 10.8933 63.9868 10.84 63.6028 10.84C62.8348 10.84 62.2428 11.016 61.8268 11.368C61.4214 11.7093 61.2188 12.1573 61.2188 12.712C61.2188 13.2773 61.3734 13.704 61.6828 13.992C61.9921 14.28 62.4028 14.4507 62.9148 14.504L63.6828 14.584C64.6534 14.6907 65.3894 15.032 65.8908 15.608C66.4028 16.184 66.6588 16.9093 66.6588 17.784C66.6588 18.424 66.5148 19 66.2268 19.512C65.9494 20.024 65.5494 20.4293 65.0268 20.728C64.5041 21.016 63.8748 21.16 63.1388 21.16ZM71.4096 21.16C70.759 21.16 70.2096 21.0427 69.7616 20.808C69.3136 20.5627 68.9616 20.232 68.7056 19.816C68.4603 19.4 68.3056 18.9307 68.2416 18.408C68.2096 18.152 68.183 17.912 68.1616 17.688C68.151 17.464 68.1456 17.24 68.1456 17.016C68.1456 16.5893 68.1776 16.1147 68.2416 15.592C68.327 14.8027 68.6256 14.1467 69.1376 13.624C69.6603 13.1013 70.3696 12.84 71.2656 12.84C71.9163 12.84 72.439 12.9573 72.8336 13.192C73.2283 13.4267 73.527 13.7307 73.7296 14.104C73.9323 14.4773 74.0656 14.872 74.1296 15.288C74.2043 15.704 74.2416 16.088 74.2416 16.44L73.9216 17.288L69.0896 17.272V16.168H73.0256C73.0256 15.8053 72.9776 15.4587 72.8816 15.128C72.7963 14.7867 72.6256 14.5093 72.3696 14.296C72.1136 14.072 71.7456 13.96 71.2656 13.96C70.7003 13.96 70.263 14.136 69.9536 14.488C69.6443 14.8293 69.4683 15.224 69.4256 15.672C69.4043 15.9387 69.383 16.3067 69.3616 16.776C69.351 17.2347 69.3776 17.7573 69.4416 18.344C69.495 18.8027 69.671 19.208 69.9696 19.56C70.279 19.9013 70.759 20.072 71.4096 20.072C71.815 20.072 72.199 20.008 72.5616 19.88C72.935 19.752 73.271 19.5707 73.5696 19.336L73.9536 20.312C73.5163 20.6213 73.1163 20.84 72.7536 20.968C72.391 21.096 71.943 21.16 71.4096 21.16ZM78.1528 21C77.5981 21 77.1554 20.8453 76.8248 20.536C76.4941 20.216 76.3288 19.7947 76.3288 19.272V9H77.6088V19.272C77.6088 19.4533 77.6568 19.6027 77.7528 19.72C77.8488 19.8267 77.9821 19.88 78.1528 19.88H78.8088V21H78.1528ZM82.559 21C82.0043 21 81.5617 20.8453 81.231 20.536C80.9003 20.216 80.735 19.7947 80.735 19.272V9H82.015V19.272C82.015 19.4533 82.063 19.6027 82.159 19.72C82.255 19.8267 82.3883 19.88 82.559 19.88H83.215V21H82.559Z" fill="white"/>
<path d="M526.333 15C526.333 16.4728 527.527 17.6667 529 17.6667C530.473 17.6667 531.667 16.4728 531.667 15C531.667 13.5272 530.473 12.3333 529 12.3333C527.527 12.3333 526.333 13.5272 526.333 15ZM137 15.5H139.97V14.5H137V15.5ZM145.909 15.5H151.848V14.5H145.909V15.5ZM157.788 15.5H163.727V14.5H157.788V15.5ZM169.667 15.5H175.606V14.5H169.667V15.5ZM181.545 15.5H187.485V14.5H181.545V15.5ZM193.424 15.5H199.364V14.5H193.424V15.5ZM205.303 15.5H211.242V14.5H205.303V15.5ZM217.182 15.5H223.121V14.5H217.182V15.5ZM229.061 15.5H235V14.5H229.061V15.5ZM240.939 15.5H246.879V14.5H240.939V15.5ZM252.818 15.5H258.758V14.5H252.818V15.5ZM264.697 15.5H270.636V14.5H264.697V15.5ZM276.576 15.5H282.515V14.5H276.576V15.5ZM288.455 15.5H294.394V14.5H288.455V15.5ZM300.333 15.5H306.273V14.5H300.333V15.5ZM312.212 15.5H318.151V14.5H312.212V15.5ZM324.091 15.5H330.03V14.5H324.091V15.5ZM335.97 15.5H341.909V14.5H335.97V15.5ZM347.848 15.5H353.788V14.5H347.848V15.5ZM359.727 15.5H365.667V14.5H359.727V15.5ZM371.606 15.5H377.545V14.5H371.606V15.5ZM383.485 15.5H389.424V14.5H383.485V15.5ZM395.364 15.5H401.303V14.5H395.364V15.5ZM407.242 15.5H413.182V14.5H407.242V15.5ZM419.121 15.5H425.061V14.5H419.121V15.5ZM431 15.5H436.939V14.5H431V15.5ZM442.879 15.5H448.818V14.5H442.879V15.5ZM454.758 15.5H460.697V14.5H454.758V15.5ZM466.636 15.5H472.576V14.5H466.636V15.5ZM478.515 15.5H484.454V14.5H478.515V15.5ZM490.394 15.5H496.333V14.5H490.394V15.5ZM502.273 15.5H508.212V14.5H502.273V15.5ZM514.151 15.5H520.091V14.5H514.151V15.5ZM526.03 15.5H529V14.5H526.03V15.5Z" fill="#996DFF"/>
<rect x="9" y="40" width="125" height="30" rx="7" fill="#7027F0"/>
<path d="M63.1388 61.16C62.5201 61.16 61.9228 61.064 61.3468 60.872C60.7708 60.6693 60.2854 60.4027 59.8908 60.072L60.3708 58.952C60.7228 59.2613 61.1388 59.5013 61.6188 59.672C62.0988 59.8427 62.5841 59.928 63.0748 59.928C63.8321 59.928 64.4028 59.736 64.7868 59.352C65.1708 58.968 65.3628 58.472 65.3628 57.864C65.3628 57.352 65.2241 56.904 64.9468 56.52C64.6694 56.136 64.1948 55.9067 63.5228 55.832L62.7548 55.752C62.1574 55.688 61.6454 55.5333 61.2188 55.288C60.7921 55.0427 60.4668 54.712 60.2428 54.296C60.0188 53.8693 59.9068 53.368 59.9068 52.792C59.9068 52.184 60.0561 51.6453 60.3548 51.176C60.6534 50.696 61.0748 50.3227 61.6188 50.056C62.1734 49.7787 62.8294 49.64 63.5868 49.64C64.0561 49.64 64.5361 49.704 65.0268 49.832C65.5174 49.96 65.9761 50.1627 66.4028 50.44L66.0028 51.56C65.6188 51.2933 65.2188 51.1067 64.8028 51C64.3868 50.8933 63.9868 50.84 63.6028 50.84C62.8348 50.84 62.2428 51.016 61.8268 51.368C61.4214 51.7093 61.2188 52.1573 61.2188 52.712C61.2188 53.2773 61.3734 53.704 61.6828 53.992C61.9921 54.28 62.4028 54.4507 62.9148 54.504L63.6828 54.584C64.6534 54.6907 65.3894 55.032 65.8908 55.608C66.4028 56.184 66.6588 56.9093 66.6588 57.784C66.6588 58.424 66.5148 59 66.2268 59.512C65.9494 60.024 65.5494 60.4293 65.0268 60.728C64.5041 61.016 63.8748 61.16 63.1388 61.16ZM71.4096 61.16C70.759 61.16 70.2096 61.0427 69.7616 60.808C69.3136 60.5627 68.9616 60.232 68.7056 59.816C68.4603 59.4 68.3056 58.9307 68.2416 58.408C68.2096 58.152 68.183 57.912 68.1616 57.688C68.151 57.464 68.1456 57.24 68.1456 57.016C68.1456 56.5893 68.1776 56.1147 68.2416 55.592C68.327 54.8027 68.6256 54.1467 69.1376 53.624C69.6603 53.1013 70.3696 52.84 71.2656 52.84C71.9163 52.84 72.439 52.9573 72.8336 53.192C73.2283 53.4267 73.527 53.7307 73.7296 54.104C73.9323 54.4773 74.0656 54.872 74.1296 55.288C74.2043 55.704 74.2416 56.088 74.2416 56.44L73.9216 57.288L69.0896 57.272V56.168H73.0256C73.0256 55.8053 72.9776 55.4587 72.8816 55.128C72.7963 54.7867 72.6256 54.5093 72.3696 54.296C72.1136 54.072 71.7456 53.96 71.2656 53.96C70.7003 53.96 70.263 54.136 69.9536 54.488C69.6443 54.8293 69.4683 55.224 69.4256 55.672C69.4043 55.9387 69.383 56.3067 69.3616 56.776C69.351 57.2347 69.3776 57.7573 69.4416 58.344C69.495 58.8027 69.671 59.208 69.9696 59.56C70.279 59.9013 70.759 60.072 71.4096 60.072C71.815 60.072 72.199 60.008 72.5616 59.88C72.935 59.752 73.271 59.5707 73.5696 59.336L73.9536 60.312C73.5163 60.6213 73.1163 60.84 72.7536 60.968C72.391 61.096 71.943 61.16 71.4096 61.16ZM78.1528 61C77.5981 61 77.1554 60.8453 76.8248 60.536C76.4941 60.216 76.3288 59.7947 76.3288 59.272V49H77.6088V59.272C77.6088 59.4533 77.6568 59.6027 77.7528 59.72C77.8488 59.8267 77.9821 59.88 78.1528 59.88H78.8088V61H78.1528ZM82.559 61C82.0043 61 81.5617 60.8453 81.231 60.536C80.9003 60.216 80.735 59.7947 80.735 59.272V49H82.015V59.272C82.015 59.4533 82.063 59.6027 82.159 59.72C82.255 59.8267 82.3883 59.88 82.559 59.88H83.215V61H82.559Z" fill="white"/>
<path d="M526.333 55C526.333 56.4728 527.527 57.6667 529 57.6667C530.473 57.6667 531.667 56.4728 531.667 55C531.667 53.5272 530.473 52.3333 529 52.3333C527.527 52.3333 526.333 53.5272 526.333 55ZM137 55.5H139.97V54.5H137V55.5ZM145.909 55.5H151.848V54.5H145.909V55.5ZM157.788 55.5H163.727V54.5H157.788V55.5ZM169.667 55.5H175.606V54.5H169.667V55.5ZM181.545 55.5H187.485V54.5H181.545V55.5ZM193.424 55.5H199.364V54.5H193.424V55.5ZM205.303 55.5H211.242V54.5H205.303V55.5ZM217.182 55.5H223.121V54.5H217.182V55.5ZM229.061 55.5H235V54.5H229.061V55.5ZM240.939 55.5H246.879V54.5H240.939V55.5ZM252.818 55.5H258.758V54.5H252.818V55.5ZM264.697 55.5H270.636V54.5H264.697V55.5ZM276.576 55.5H282.515V54.5H276.576V55.5ZM288.455 55.5H294.394V54.5H288.455V55.5ZM300.333 55.5H306.273V54.5H300.333V55.5ZM312.212 55.5H318.151V54.5H312.212V55.5ZM324.091 55.5H330.03V54.5H324.091V55.5ZM335.97 55.5H341.909V54.5H335.97V55.5ZM347.848 55.5H353.788V54.5H347.848V55.5ZM359.727 55.5H365.667V54.5H359.727V55.5ZM371.606 55.5H377.545V54.5H371.606V55.5ZM383.485 55.5H389.424V54.5H383.485V55.5ZM395.364 55.5H401.303V54.5H395.364V55.5ZM407.242 55.5H413.182V54.5H407.242V55.5ZM419.121 55.5H425.061V54.5H419.121V55.5ZM431 55.5H436.939V54.5H431V55.5ZM442.879 55.5H448.818V54.5H442.879V55.5ZM454.758 55.5H460.697V54.5H454.758V55.5ZM466.636 55.5H472.576V54.5H466.636V55.5ZM478.515 55.5H484.454V54.5H478.515V55.5ZM490.394 55.5H496.333V54.5H490.394V55.5ZM502.273 55.5H508.212V54.5H502.273V55.5ZM514.151 55.5H520.091V54.5H514.151V55.5ZM526.03 55.5H529V54.5H526.03V55.5Z" fill="#996DFF"/>
<rect x="9" y="147" width="125" height="30" rx="7" fill="#86FFB6"/>
<path d="M60.9088 168V156.8H64.3808C65.3514 156.8 66.1034 157.067 66.6368 157.6C67.1808 158.123 67.4528 158.869 67.4528 159.84C67.4528 160.427 67.3141 160.933 67.0368 161.36C66.7701 161.787 66.4021 162.107 65.9328 162.32C66.4661 162.512 66.8874 162.843 67.1968 163.312C67.5168 163.781 67.6768 164.331 67.6768 164.96C67.6768 165.931 67.3888 166.683 66.8128 167.216C66.2368 167.739 65.4261 168 64.3808 168H60.9088ZM62.1568 166.88H64.3968C65.0474 166.88 65.5488 166.709 65.9008 166.368C66.2528 166.027 66.4288 165.557 66.4288 164.96C66.4288 164.331 66.2528 163.84 65.9008 163.488C65.5488 163.125 65.0474 162.944 64.3968 162.944H62.1568V166.88ZM62.1568 161.824H64.3968C64.9728 161.824 65.4154 161.648 65.7248 161.296C66.0448 160.944 66.2048 160.459 66.2048 159.84C66.2048 159.243 66.0448 158.773 65.7248 158.432C65.4154 158.091 64.9728 157.92 64.3968 157.92H62.1568V161.824ZM74.4524 168.192L73.9244 167.408C73.8604 167.312 73.7857 167.301 73.7004 167.376C73.4444 167.6 73.1724 167.792 72.8844 167.952C72.607 168.101 72.2337 168.176 71.7644 168.176C71.007 168.176 70.4044 167.968 69.9564 167.552C69.5084 167.136 69.2844 166.592 69.2844 165.92C69.2844 165.44 69.3857 165.035 69.5884 164.704C69.8017 164.373 70.1004 164.123 70.4844 163.952C70.8684 163.771 71.3164 163.68 71.8284 163.68H73.7004V162.528C73.7004 162.069 73.567 161.701 73.3004 161.424C73.0337 161.147 72.6124 161.008 72.0364 161.008C71.6204 161.008 71.247 161.072 70.9164 161.2C70.5857 161.317 70.2497 161.509 69.9084 161.776L69.5084 160.656C69.9137 160.347 70.3244 160.128 70.7404 160C71.1564 159.872 71.615 159.808 72.1164 159.808C73.0657 159.808 73.7697 160.053 74.2284 160.544C74.6977 161.035 74.9324 161.648 74.9324 162.384V166.464L75.6204 167.488L74.4524 168.192ZM71.8284 167.072C72.4044 167.072 72.8577 166.933 73.1884 166.656C73.5297 166.379 73.7004 166.011 73.7004 165.552V164.832C73.7004 164.629 73.6044 164.555 73.4124 164.608L72.5324 164.8H71.9244C71.4977 164.8 71.1617 164.896 70.9164 165.088C70.6817 165.269 70.5644 165.531 70.5644 165.872C70.5644 166.224 70.6764 166.512 70.9004 166.736C71.135 166.96 71.4444 167.072 71.8284 167.072ZM77.6473 171.52L77.1833 170.368C77.7379 170.208 78.1433 169.947 78.3993 169.584C78.6553 169.221 78.8633 168.779 79.0233 168.256L79.2313 167.568L76.3513 160H77.6953L79.6153 165.04L79.7593 165.904C79.7806 165.989 79.8179 166.032 79.8713 166.032C79.9353 166.032 79.9726 165.989 79.9833 165.904L80.1753 165.04L81.7273 160H83.0553L80.2233 168.768C80.0099 169.429 79.6899 169.995 79.2633 170.464C78.8366 170.933 78.2979 171.285 77.6473 171.52Z" fill="#0D0323"/>
<path d="M526.333 162C526.333 163.473 527.527 164.667 529 164.667C530.473 164.667 531.667 163.473 531.667 162C531.667 160.527 530.473 159.333 529 159.333C527.527 159.333 526.333 160.527 526.333 162ZM137 162.5H139.97V161.5H137V162.5ZM145.909 162.5H151.848V161.5H145.909V162.5ZM157.788 162.5H163.727V161.5H157.788V162.5ZM169.667 162.5H175.606V161.5H169.667V162.5ZM181.545 162.5H187.485V161.5H181.545V162.5ZM193.424 162.5H199.364V161.5H193.424V162.5ZM205.303 162.5H211.242V161.5H205.303V162.5ZM217.182 162.5H223.121V161.5H217.182V162.5ZM229.061 162.5H235V161.5H229.061V162.5ZM240.939 162.5H246.879V161.5H240.939V162.5ZM252.818 162.5H258.758V161.5H252.818V162.5ZM264.697 162.5H270.636V161.5H264.697V162.5ZM276.576 162.5H282.515V161.5H276.576V162.5ZM288.455 162.5H294.394V161.5H288.455V162.5ZM300.333 162.5H306.273V161.5H300.333V162.5ZM312.212 162.5H318.151V161.5H312.212V162.5ZM324.091 162.5H330.03V161.5H324.091V162.5ZM335.97 162.5H341.909V161.5H335.97V162.5ZM347.848 162.5H353.788V161.5H347.848V162.5ZM359.727 162.5H365.667V161.5H359.727V162.5ZM371.606 162.5H377.545V161.5H371.606V162.5ZM383.485 162.5H389.424V161.5H383.485V162.5ZM395.364 162.5H401.303V161.5H395.364V162.5ZM407.242 162.5H413.182V161.5H407.242V162.5ZM419.121 162.5H425.061V161.5H419.121V162.5ZM431 162.5H436.939V161.5H431V162.5ZM442.879 162.5H448.818V161.5H442.879V162.5ZM454.758 162.5H460.697V161.5H454.758V162.5ZM466.636 162.5H472.576V161.5H466.636V162.5ZM478.515 162.5H484.454V161.5H478.515V162.5ZM490.394 162.5H496.333V161.5H490.394V162.5ZM502.273 162.5H508.212V161.5H502.273V162.5ZM514.151 162.5H520.091V161.5H514.151V162.5ZM526.03 162.5H529V161.5H526.03V162.5Z" fill="#86FFB6"/>
<rect x="9" y="187" width="125" height="30" rx="7" fill="#86FFB6"/>
<path d="M60.9088 208V196.8H64.3808C65.3514 196.8 66.1034 197.067 66.6368 197.6C67.1808 198.123 67.4528 198.869 67.4528 199.84C67.4528 200.427 67.3141 200.933 67.0368 201.36C66.7701 201.787 66.4021 202.107 65.9328 202.32C66.4661 202.512 66.8874 202.843 67.1968 203.312C67.5168 203.781 67.6768 204.331 67.6768 204.96C67.6768 205.931 67.3888 206.683 66.8128 207.216C66.2368 207.739 65.4261 208 64.3808 208H60.9088ZM62.1568 206.88H64.3968C65.0474 206.88 65.5488 206.709 65.9008 206.368C66.2528 206.027 66.4288 205.557 66.4288 204.96C66.4288 204.331 66.2528 203.84 65.9008 203.488C65.5488 203.125 65.0474 202.944 64.3968 202.944H62.1568V206.88ZM62.1568 201.824H64.3968C64.9728 201.824 65.4154 201.648 65.7248 201.296C66.0448 200.944 66.2048 200.459 66.2048 199.84C66.2048 199.243 66.0448 198.773 65.7248 198.432C65.4154 198.091 64.9728 197.92 64.3968 197.92H62.1568V201.824ZM74.4524 208.192L73.9244 207.408C73.8604 207.312 73.7857 207.301 73.7004 207.376C73.4444 207.6 73.1724 207.792 72.8844 207.952C72.607 208.101 72.2337 208.176 71.7644 208.176C71.007 208.176 70.4044 207.968 69.9564 207.552C69.5084 207.136 69.2844 206.592 69.2844 205.92C69.2844 205.44 69.3857 205.035 69.5884 204.704C69.8017 204.373 70.1004 204.123 70.4844 203.952C70.8684 203.771 71.3164 203.68 71.8284 203.68H73.7004V202.528C73.7004 202.069 73.567 201.701 73.3004 201.424C73.0337 201.147 72.6124 201.008 72.0364 201.008C71.6204 201.008 71.247 201.072 70.9164 201.2C70.5857 201.317 70.2497 201.509 69.9084 201.776L69.5084 200.656C69.9137 200.347 70.3244 200.128 70.7404 200C71.1564 199.872 71.615 199.808 72.1164 199.808C73.0657 199.808 73.7697 200.053 74.2284 200.544C74.6977 201.035 74.9324 201.648 74.9324 202.384V206.464L75.6204 207.488L74.4524 208.192ZM71.8284 207.072C72.4044 207.072 72.8577 206.933 73.1884 206.656C73.5297 206.379 73.7004 206.011 73.7004 205.552V204.832C73.7004 204.629 73.6044 204.555 73.4124 204.608L72.5324 204.8H71.9244C71.4977 204.8 71.1617 204.896 70.9164 205.088C70.6817 205.269 70.5644 205.531 70.5644 205.872C70.5644 206.224 70.6764 206.512 70.9004 206.736C71.135 206.96 71.4444 207.072 71.8284 207.072ZM77.6473 211.52L77.1833 210.368C77.7379 210.208 78.1433 209.947 78.3993 209.584C78.6553 209.221 78.8633 208.779 79.0233 208.256L79.2313 207.568L76.3513 200H77.6953L79.6153 205.04L79.7593 205.904C79.7806 205.989 79.8179 206.032 79.8713 206.032C79.9353 206.032 79.9726 205.989 79.9833 205.904L80.1753 205.04L81.7273 200H83.0553L80.2233 208.768C80.0099 209.429 79.6899 209.995 79.2633 210.464C78.8366 210.933 78.2979 211.285 77.6473 211.52Z" fill="#0D0323"/>
<path d="M526.333 202C526.333 203.473 527.527 204.667 529 204.667C530.473 204.667 531.667 203.473 531.667 202C531.667 200.527 530.473 199.333 529 199.333C527.527 199.333 526.333 200.527 526.333 202ZM137 202.5H139.97V201.5H137V202.5ZM145.909 202.5H151.848V201.5H145.909V202.5ZM157.788 202.5H163.727V201.5H157.788V202.5ZM169.667 202.5H175.606V201.5H169.667V202.5ZM181.545 202.5H187.485V201.5H181.545V202.5ZM193.424 202.5H199.364V201.5H193.424V202.5ZM205.303 202.5H211.242V201.5H205.303V202.5ZM217.182 202.5H223.121V201.5H217.182V202.5ZM229.061 202.5H235V201.5H229.061V202.5ZM240.939 202.5H246.879V201.5H240.939V202.5ZM252.818 202.5H258.758V201.5H252.818V202.5ZM264.697 202.5H270.636V201.5H264.697V202.5ZM276.576 202.5H282.515V201.5H276.576V202.5ZM288.455 202.5H294.394V201.5H288.455V202.5ZM300.333 202.5H306.273V201.5H300.333V202.5ZM312.212 202.5H318.151V201.5H312.212V202.5ZM324.091 202.5H330.03V201.5H324.091V202.5ZM335.97 202.5H341.909V201.5H335.97V202.5ZM347.848 202.5H353.788V201.5H347.848V202.5ZM359.727 202.5H365.667V201.5H359.727V202.5ZM371.606 202.5H377.545V201.5H371.606V202.5ZM383.485 202.5H389.424V201.5H383.485V202.5ZM395.364 202.5H401.303V201.5H395.364V202.5ZM407.242 202.5H413.182V201.5H407.242V202.5ZM419.121 202.5H425.061V201.5H419.121V202.5ZM431 202.5H436.939V201.5H431V202.5ZM442.879 202.5H448.818V201.5H442.879V202.5ZM454.758 202.5H460.697V201.5H454.758V202.5ZM466.636 202.5H472.576V201.5H466.636V202.5ZM478.515 202.5H484.454V201.5H478.515V202.5ZM490.394 202.5H496.333V201.5H490.394V202.5ZM502.273 202.5H508.212V201.5H502.273V202.5ZM514.151 202.5H520.091V201.5H514.151V202.5ZM526.03 202.5H529V201.5H526.03V202.5Z" fill="#86FFB6"/>
<rect x="9" y="227" width="125" height="30" rx="7" fill="#86FFB6"/>
<path d="M60.9088 248V236.8H64.3808C65.3514 236.8 66.1034 237.067 66.6368 237.6C67.1808 238.123 67.4528 238.869 67.4528 239.84C67.4528 240.427 67.3141 240.933 67.0368 241.36C66.7701 241.787 66.4021 242.107 65.9328 242.32C66.4661 242.512 66.8874 242.843 67.1968 243.312C67.5168 243.781 67.6768 244.331 67.6768 244.96C67.6768 245.931 67.3888 246.683 66.8128 247.216C66.2368 247.739 65.4261 248 64.3808 248H60.9088ZM62.1568 246.88H64.3968C65.0474 246.88 65.5488 246.709 65.9008 246.368C66.2528 246.027 66.4288 245.557 66.4288 244.96C66.4288 244.331 66.2528 243.84 65.9008 243.488C65.5488 243.125 65.0474 242.944 64.3968 242.944H62.1568V246.88ZM62.1568 241.824H64.3968C64.9728 241.824 65.4154 241.648 65.7248 241.296C66.0448 240.944 66.2048 240.459 66.2048 239.84C66.2048 239.243 66.0448 238.773 65.7248 238.432C65.4154 238.091 64.9728 237.92 64.3968 237.92H62.1568V241.824ZM74.4524 248.192L73.9244 247.408C73.8604 247.312 73.7857 247.301 73.7004 247.376C73.4444 247.6 73.1724 247.792 72.8844 247.952C72.607 248.101 72.2337 248.176 71.7644 248.176C71.007 248.176 70.4044 247.968 69.9564 247.552C69.5084 247.136 69.2844 246.592 69.2844 245.92C69.2844 245.44 69.3857 245.035 69.5884 244.704C69.8017 244.373 70.1004 244.123 70.4844 243.952C70.8684 243.771 71.3164 243.68 71.8284 243.68H73.7004V242.528C73.7004 242.069 73.567 241.701 73.3004 241.424C73.0337 241.147 72.6124 241.008 72.0364 241.008C71.6204 241.008 71.247 241.072 70.9164 241.2C70.5857 241.317 70.2497 241.509 69.9084 241.776L69.5084 240.656C69.9137 240.347 70.3244 240.128 70.7404 240C71.1564 239.872 71.615 239.808 72.1164 239.808C73.0657 239.808 73.7697 240.053 74.2284 240.544C74.6977 241.035 74.9324 241.648 74.9324 242.384V246.464L75.6204 247.488L74.4524 248.192ZM71.8284 247.072C72.4044 247.072 72.8577 246.933 73.1884 246.656C73.5297 246.379 73.7004 246.011 73.7004 245.552V244.832C73.7004 244.629 73.6044 244.555 73.4124 244.608L72.5324 244.8H71.9244C71.4977 244.8 71.1617 244.896 70.9164 245.088C70.6817 245.269 70.5644 245.531 70.5644 245.872C70.5644 246.224 70.6764 246.512 70.9004 246.736C71.135 246.96 71.4444 247.072 71.8284 247.072ZM77.6473 251.52L77.1833 250.368C77.7379 250.208 78.1433 249.947 78.3993 249.584C78.6553 249.221 78.8633 248.779 79.0233 248.256L79.2313 247.568L76.3513 240H77.6953L79.6153 245.04L79.7593 245.904C79.7806 245.989 79.8179 246.032 79.8713 246.032C79.9353 246.032 79.9726 245.989 79.9833 245.904L80.1753 245.04L81.7273 240H83.0553L80.2233 248.768C80.0099 249.429 79.6899 249.995 79.2633 250.464C78.8366 250.933 78.2979 251.285 77.6473 251.52Z" fill="#0D0323"/>
<path d="M526.333 242C526.333 243.473 527.527 244.667 529 244.667C530.473 244.667 531.667 243.473 531.667 242C531.667 240.527 530.473 239.333 529 239.333C527.527 239.333 526.333 240.527 526.333 242ZM137 242.5H139.97V241.5H137V242.5ZM145.909 242.5H151.848V241.5H145.909V242.5ZM157.788 242.5H163.727V241.5H157.788V242.5ZM169.667 242.5H175.606V241.5H169.667V242.5ZM181.545 242.5H187.485V241.5H181.545V242.5ZM193.424 242.5H199.364V241.5H193.424V242.5ZM205.303 242.5H211.242V241.5H205.303V242.5ZM217.182 242.5H223.121V241.5H217.182V242.5ZM229.061 242.5H235V241.5H229.061V242.5ZM240.939 242.5H246.879V241.5H240.939V242.5ZM252.818 242.5H258.758V241.5H252.818V242.5ZM264.697 242.5H270.636V241.5H264.697V242.5ZM276.576 242.5H282.515V241.5H276.576V242.5ZM288.455 242.5H294.394V241.5H288.455V242.5ZM300.333 242.5H306.273V241.5H300.333V242.5ZM312.212 242.5H318.151V241.5H312.212V242.5ZM324.091 242.5H330.03V241.5H324.091V242.5ZM335.97 242.5H341.909V241.5H335.97V242.5ZM347.848 242.5H353.788V241.5H347.848V242.5ZM359.727 242.5H365.667V241.5H359.727V242.5ZM371.606 242.5H377.545V241.5H371.606V242.5ZM383.485 242.5H389.424V241.5H383.485V242.5ZM395.364 242.5H401.303V241.5H395.364V242.5ZM407.242 242.5H413.182V241.5H407.242V242.5ZM419.121 242.5H425.061V241.5H419.121V242.5ZM431 242.5H436.939V241.5H431V242.5ZM442.879 242.5H448.818V241.5H442.879V242.5ZM454.758 242.5H460.697V241.5H454.758V242.5ZM466.636 242.5H472.576V241.5H466.636V242.5ZM478.515 242.5H484.454V241.5H478.515V242.5ZM490.394 242.5H496.333V241.5H490.394V242.5ZM502.273 242.5H508.212V241.5H502.273V242.5ZM514.151 242.5H520.091V241.5H514.151V242.5ZM526.03 242.5H529V241.5H526.03V242.5Z" fill="#86FFB6"/>
<rect x="9" y="267" width="125" height="30" rx="7" fill="#86FFB6"/>
<path d="M60.9088 288V276.8H64.3808C65.3514 276.8 66.1034 277.067 66.6368 277.6C67.1808 278.123 67.4528 278.869 67.4528 279.84C67.4528 280.427 67.3141 280.933 67.0368 281.36C66.7701 281.787 66.4021 282.107 65.9328 282.32C66.4661 282.512 66.8874 282.843 67.1968 283.312C67.5168 283.781 67.6768 284.331 67.6768 284.96C67.6768 285.931 67.3888 286.683 66.8128 287.216C66.2368 287.739 65.4261 288 64.3808 288H60.9088ZM62.1568 286.88H64.3968C65.0474 286.88 65.5488 286.709 65.9008 286.368C66.2528 286.027 66.4288 285.557 66.4288 284.96C66.4288 284.331 66.2528 283.84 65.9008 283.488C65.5488 283.125 65.0474 282.944 64.3968 282.944H62.1568V286.88ZM62.1568 281.824H64.3968C64.9728 281.824 65.4154 281.648 65.7248 281.296C66.0448 280.944 66.2048 280.459 66.2048 279.84C66.2048 279.243 66.0448 278.773 65.7248 278.432C65.4154 278.091 64.9728 277.92 64.3968 277.92H62.1568V281.824ZM74.4524 288.192L73.9244 287.408C73.8604 287.312 73.7857 287.301 73.7004 287.376C73.4444 287.6 73.1724 287.792 72.8844 287.952C72.607 288.101 72.2337 288.176 71.7644 288.176C71.007 288.176 70.4044 287.968 69.9564 287.552C69.5084 287.136 69.2844 286.592 69.2844 285.92C69.2844 285.44 69.3857 285.035 69.5884 284.704C69.8017 284.373 70.1004 284.123 70.4844 283.952C70.8684 283.771 71.3164 283.68 71.8284 283.68H73.7004V282.528C73.7004 282.069 73.567 281.701 73.3004 281.424C73.0337 281.147 72.6124 281.008 72.0364 281.008C71.6204 281.008 71.247 281.072 70.9164 281.2C70.5857 281.317 70.2497 281.509 69.9084 281.776L69.5084 280.656C69.9137 280.347 70.3244 280.128 70.7404 280C71.1564 279.872 71.615 279.808 72.1164 279.808C73.0657 279.808 73.7697 280.053 74.2284 280.544C74.6977 281.035 74.9324 281.648 74.9324 282.384V286.464L75.6204 287.488L74.4524 288.192ZM71.8284 287.072C72.4044 287.072 72.8577 286.933 73.1884 286.656C73.5297 286.379 73.7004 286.011 73.7004 285.552V284.832C73.7004 284.629 73.6044 284.555 73.4124 284.608L72.5324 284.8H71.9244C71.4977 284.8 71.1617 284.896 70.9164 285.088C70.6817 285.269 70.5644 285.531 70.5644 285.872C70.5644 286.224 70.6764 286.512 70.9004 286.736C71.135 286.96 71.4444 287.072 71.8284 287.072ZM77.6473 291.52L77.1833 290.368C77.7379 290.208 78.1433 289.947 78.3993 289.584C78.6553 289.221 78.8633 288.779 79.0233 288.256L79.2313 287.568L76.3513 280H77.6953L79.6153 285.04L79.7593 285.904C79.7806 285.989 79.8179 286.032 79.8713 286.032C79.9353 286.032 79.9726 285.989 79.9833 285.904L80.1753 285.04L81.7273 280H83.0553L80.2233 288.768C80.0099 289.429 79.6899 289.995 79.2633 290.464C78.8366 290.933 78.2979 291.285 77.6473 291.52Z" fill="#0D0323"/>
<path d="M526.333 282C526.333 283.473 527.527 284.667 529 284.667C530.473 284.667 531.667 283.473 531.667 282C531.667 280.527 530.473 279.333 529 279.333C527.527 279.333 526.333 280.527 526.333 282ZM137 282.5H139.97V281.5H137V282.5ZM145.909 282.5H151.848V281.5H145.909V282.5ZM157.788 282.5H163.727V281.5H157.788V282.5ZM169.667 282.5H175.606V281.5H169.667V282.5ZM181.545 282.5H187.485V281.5H181.545V282.5ZM193.424 282.5H199.364V281.5H193.424V282.5ZM205.303 282.5H211.242V281.5H205.303V282.5ZM217.182 282.5H223.121V281.5H217.182V282.5ZM229.061 282.5H235V281.5H229.061V282.5ZM240.939 282.5H246.879V281.5H240.939V282.5ZM252.818 282.5H258.758V281.5H252.818V282.5ZM264.697 282.5H270.636V281.5H264.697V282.5ZM276.576 282.5H282.515V281.5H276.576V282.5ZM288.455 282.5H294.394V281.5H288.455V282.5ZM300.333 282.5H306.273V281.5H300.333V282.5ZM312.212 282.5H318.151V281.5H312.212V282.5ZM324.091 282.5H330.03V281.5H324.091V282.5ZM335.97 282.5H341.909V281.5H335.97V282.5ZM347.848 282.5H353.788V281.5H347.848V282.5ZM359.727 282.5H365.667V281.5H359.727V282.5ZM371.606 282.5H377.545V281.5H371.606V282.5ZM383.485 282.5H389.424V281.5H383.485V282.5ZM395.364 282.5H401.303V281.5H395.364V282.5ZM407.242 282.5H413.182V281.5H407.242V282.5ZM419.121 282.5H425.061V281.5H419.121V282.5ZM431 282.5H436.939V281.5H431V282.5ZM442.879 282.5H448.818V281.5H442.879V282.5ZM454.758 282.5H460.697V281.5H454.758V282.5ZM466.636 282.5H472.576V281.5H466.636V282.5ZM478.515 282.5H484.454V281.5H478.515V282.5ZM490.394 282.5H496.333V281.5H490.394V282.5ZM502.273 282.5H508.212V281.5H502.273V282.5ZM514.151 282.5H520.091V281.5H514.151V282.5ZM526.03 282.5H529V281.5H526.03V282.5Z" fill="#86FFB6"/>
<g filter="url(#filter0_d_261_8766)">
<rect x="9" y="47" width="125" height="52.3259" rx="7" fill="white" shape-rendering="crispEdges"/>
<path d="M31.848 79.355C31.1013 79.355 30.456 79.2216 29.912 78.955C29.368 78.6883 28.936 78.2883 28.616 77.755C28.3067 77.211 28.12 76.539 28.056 75.739C28.0347 75.4296 28.0133 75.0723 27.992 74.667C27.9707 74.2616 27.96 73.8936 27.96 73.563C27.96 73.2216 27.9707 72.8536 27.992 72.459C28.0133 72.0536 28.0347 71.6963 28.056 71.387C28.12 70.5763 28.3067 69.9043 28.616 69.371C28.936 68.8376 29.368 68.4376 29.912 68.171C30.456 67.9043 31.1013 67.771 31.848 67.771C32.3067 67.771 32.7547 67.8563 33.192 68.027C33.6293 68.187 34.0347 68.427 34.408 68.747L34.008 69.867C33.688 69.5896 33.3467 69.3816 32.984 69.243C32.6213 69.0936 32.2427 69.019 31.848 69.019C31.08 69.019 30.4827 69.2323 30.056 69.659C29.64 70.0856 29.4053 70.715 29.352 71.547C29.3307 71.931 29.3093 72.2776 29.288 72.587C29.2773 72.8963 29.272 73.2216 29.272 73.563C29.272 73.8936 29.2773 74.219 29.288 74.539C29.3093 74.8483 29.3307 75.195 29.352 75.579C29.4053 76.411 29.64 77.0403 30.056 77.467C30.4827 77.8936 31.08 78.107 31.848 78.107C32.2427 78.107 32.6213 78.0376 32.984 77.899C33.3467 77.7496 33.688 77.5363 34.008 77.259L34.408 78.379C34.0347 78.699 33.6293 78.9443 33.192 79.115C32.7547 79.275 32.3067 79.355 31.848 79.355ZM38.7749 79.355C38.2309 79.355 37.7615 79.2536 37.3669 79.051C36.9829 78.8483 36.6842 78.5603 36.4709 78.187C36.2682 77.8136 36.1669 77.3763 36.1669 76.875V71.163H37.4469V76.731C37.4469 77.179 37.5855 77.5363 37.8629 77.803C38.1509 78.0696 38.5722 78.203 39.1269 78.203C39.6709 78.203 40.0922 78.0696 40.3909 77.803C40.6895 77.5363 40.8389 77.179 40.8389 76.731V71.163H42.1189V79.163H40.8389V78.875C40.8389 78.7683 40.8069 78.7043 40.7429 78.683C40.6789 78.6616 40.6042 78.6776 40.5189 78.731L39.7029 79.243C39.4682 79.3176 39.1589 79.355 38.7749 79.355ZM44.9244 79.163V72.987L44.0444 71.675L45.2124 70.971L45.8204 71.883C45.895 71.9896 45.9644 72.043 46.0284 72.043C46.0924 72.0323 46.1617 71.9896 46.2364 71.915C46.5244 71.627 46.8817 71.3976 47.3084 71.227C47.735 71.0563 48.2204 70.971 48.7644 70.971H48.9404V72.283C48.023 72.283 47.335 72.4483 46.8764 72.779C46.4284 73.099 46.2044 73.531 46.2044 74.075V79.163H44.9244ZM50.5338 79.163V72.987L49.6538 71.675L50.8218 70.971L51.4298 71.883C51.5044 71.9896 51.5738 72.043 51.6378 72.043C51.7018 72.0323 51.7711 71.9896 51.8458 71.915C52.1338 71.627 52.4911 71.3976 52.9178 71.227C53.3444 71.0563 53.8298 70.971 54.3738 70.971H54.5498V72.283C53.6324 72.283 52.9444 72.4483 52.4858 72.779C52.0378 73.099 51.8138 73.531 51.8138 74.075V79.163H50.5338ZM58.5346 79.323C57.884 79.323 57.3346 79.2056 56.8866 78.971C56.4386 78.7256 56.0866 78.395 55.8306 77.979C55.5853 77.563 55.4306 77.0936 55.3666 76.571C55.3346 76.315 55.308 76.075 55.2866 75.851C55.276 75.627 55.2706 75.403 55.2706 75.179C55.2706 74.7523 55.3026 74.2776 55.3666 73.755C55.452 72.9656 55.7506 72.3096 56.2626 71.787C56.7853 71.2643 57.4946 71.003 58.3906 71.003C59.0413 71.003 59.564 71.1203 59.9586 71.355C60.3533 71.5896 60.652 71.8936 60.8546 72.267C61.0573 72.6403 61.1906 73.035 61.2546 73.451C61.3293 73.867 61.3666 74.251 61.3666 74.603L61.0466 75.451L56.2146 75.435V74.331H60.1506C60.1506 73.9683 60.1026 73.6216 60.0066 73.291C59.9213 72.9496 59.7506 72.6723 59.4946 72.459C59.2386 72.235 58.8706 72.123 58.3906 72.123C57.8253 72.123 57.388 72.299 57.0786 72.651C56.7693 72.9923 56.5933 73.387 56.5506 73.835C56.5293 74.1016 56.508 74.4696 56.4866 74.939C56.476 75.3976 56.5026 75.9203 56.5666 76.507C56.62 76.9656 56.796 77.371 57.0946 77.723C57.404 78.0643 57.884 78.235 58.5346 78.235C58.94 78.235 59.324 78.171 59.6866 78.043C60.06 77.915 60.396 77.7336 60.6946 77.499L61.0786 78.475C60.6413 78.7843 60.2413 79.003 59.8786 79.131C59.516 79.259 59.068 79.323 58.5346 79.323ZM63.4538 79.163V71.163H64.7338V71.627C64.9471 71.4563 65.2244 71.307 65.5658 71.179C65.9178 71.0403 66.3071 70.971 66.7338 70.971C67.2884 70.971 67.7631 71.0776 68.1578 71.291C68.5631 71.4936 68.8724 71.7816 69.0858 72.155C69.2991 72.5283 69.4058 72.9603 69.4058 73.451V79.163H68.1258V73.595C68.1258 73.147 67.9818 72.7896 67.6938 72.523C67.4164 72.2563 67.0004 72.123 66.4458 72.123C65.9018 72.123 65.4804 72.2563 65.1818 72.523C64.8831 72.7896 64.7338 73.147 64.7338 73.595V79.163H63.4538ZM74.0635 79.163C73.5088 79.163 73.0662 79.0083 72.7355 78.699C72.4048 78.379 72.2395 77.9576 72.2395 77.435V72.283H70.8475V71.163H72.0635C72.1595 71.163 72.2342 71.131 72.2875 71.067C72.3515 71.003 72.4102 70.843 72.4635 70.587C72.5275 70.331 72.6075 69.9203 72.7035 69.355L72.7515 69.083H73.5195V71.163H75.4875V72.283H73.5195V77.435C73.5195 77.6163 73.5675 77.7656 73.6635 77.883C73.7595 77.9896 73.8928 78.043 74.0635 78.043H75.4875V79.163H74.0635ZM81.6413 82.363V71.163H82.9213V71.611C83.1346 71.4296 83.4119 71.2856 83.7533 71.179C84.0946 71.0616 84.4519 71.003 84.8253 71.003C85.7533 71.003 86.4626 71.259 86.9533 71.771C87.4439 72.2723 87.7266 72.9283 87.8013 73.739C87.8226 74.0056 87.8386 74.251 87.8493 74.475C87.8599 74.699 87.8653 74.923 87.8653 75.147C87.8653 75.3603 87.8599 75.5843 87.8493 75.819C87.8386 76.043 87.8226 76.2936 87.8013 76.571C87.7266 77.3816 87.4439 78.043 86.9533 78.555C86.4626 79.067 85.7533 79.323 84.8253 79.323C84.6439 79.323 84.4999 79.3123 84.3932 79.291C84.2973 79.2803 84.1853 79.2643 84.0573 79.243L83.2573 78.731C83.1719 78.6776 83.0919 78.6723 83.0173 78.715C82.9533 78.747 82.9213 78.811 82.9213 78.907V82.363H81.6413ZM84.6813 78.235C85.3213 78.235 85.7799 78.0643 86.0573 77.723C86.3453 77.3816 86.5106 76.971 86.5533 76.491C86.5853 76.0536 86.6013 75.611 86.6013 75.163C86.6119 74.715 86.5959 74.2723 86.5533 73.835C86.5106 73.355 86.3453 72.9496 86.0573 72.619C85.7799 72.2883 85.3213 72.123 84.6813 72.123C84.1266 72.123 83.6946 72.251 83.3853 72.507C83.0759 72.7523 82.9213 73.0936 82.9213 73.531V76.795C82.9213 77.2216 83.0759 77.5683 83.3853 77.835C83.6946 78.1016 84.1266 78.235 84.6813 78.235ZM90.19 79.163V72.987L89.31 71.675L90.478 70.971L91.086 71.883C91.1607 71.9896 91.23 72.043 91.294 72.043C91.358 72.0323 91.4273 71.9896 91.502 71.915C91.79 71.627 92.1473 71.3976 92.574 71.227C93.0007 71.0563 93.486 70.971 94.03 70.971H94.206V72.283C93.2887 72.283 92.6007 72.4483 92.142 72.779C91.694 73.099 91.47 73.531 91.47 74.075V79.163H90.19ZM96.2794 79.163V72.283H95.1594V71.163H97.5594V79.163H96.2794ZM96.2794 69.563V67.963H97.5594V69.563H96.2794ZM103.002 79.387C102.074 79.387 101.349 79.1256 100.826 78.603C100.303 78.0696 99.9939 77.403 99.8979 76.603C99.8339 76.0696 99.8019 75.595 99.8019 75.179C99.8019 74.955 99.8072 74.731 99.8179 74.507C99.8392 74.2723 99.8659 74.0216 99.8979 73.755C99.9939 72.955 100.303 72.2936 100.826 71.771C101.349 71.2376 102.074 70.971 103.002 70.971C103.471 70.971 103.877 71.0296 104.218 71.147C104.559 71.2643 104.906 71.4403 105.258 71.675L104.874 72.715C104.575 72.523 104.282 72.379 103.994 72.283C103.706 72.1763 103.381 72.123 103.018 72.123C102.431 72.123 101.973 72.2936 101.642 72.635C101.322 72.9656 101.146 73.3656 101.114 73.835C101.082 74.3363 101.061 74.7896 101.05 75.195C101.05 75.5896 101.071 76.0323 101.114 76.523C101.157 76.9816 101.338 77.3816 101.658 77.723C101.978 78.0643 102.431 78.235 103.018 78.235C103.37 78.235 103.706 78.187 104.026 78.091C104.357 77.995 104.671 77.851 104.97 77.659L105.338 78.619C104.933 78.8856 104.549 79.0776 104.186 79.195C103.834 79.323 103.439 79.387 103.002 79.387ZM109.894 79.323C109.243 79.323 108.694 79.2056 108.246 78.971C107.798 78.7256 107.446 78.395 107.19 77.979C106.945 77.563 106.79 77.0936 106.726 76.571C106.694 76.315 106.667 76.075 106.646 75.851C106.635 75.627 106.63 75.403 106.63 75.179C106.63 74.7523 106.662 74.2776 106.726 73.755C106.811 72.9656 107.11 72.3096 107.622 71.787C108.145 71.2643 108.854 71.003 109.75 71.003C110.401 71.003 110.923 71.1203 111.318 71.355C111.713 71.5896 112.011 71.8936 112.214 72.267C112.417 72.6403 112.55 73.035 112.614 73.451C112.689 73.867 112.726 74.251 112.726 74.603L112.406 75.451L107.574 75.435V74.331H111.51C111.51 73.9683 111.462 73.6216 111.366 73.291C111.281 72.9496 111.11 72.6723 110.854 72.459C110.598 72.235 110.23 72.123 109.75 72.123C109.185 72.123 108.747 72.299 108.438 72.651C108.129 72.9923 107.953 73.387 107.91 73.835C107.889 74.1016 107.867 74.4696 107.846 74.939C107.835 75.3976 107.862 75.9203 107.926 76.507C107.979 76.9656 108.155 77.371 108.454 77.723C108.763 78.0643 109.243 78.235 109.894 78.235C110.299 78.235 110.683 78.171 111.046 78.043C111.419 77.915 111.755 77.7336 112.054 77.499L112.438 78.475C112.001 78.7843 111.601 79.003 111.238 79.131C110.875 79.259 110.427 79.323 109.894 79.323Z" fill="#0D0323"/>
<path d="M123.163 47L149.326 73.163L123.163 99.3259L123.163 73.163L123.163 47Z" fill="white"/>
</g>
<path d="M529.354 73.5165C529.549 73.3213 529.549 73.0047 529.354 72.8094L526.172 69.6274C525.976 69.4322 525.66 69.4322 525.464 69.6274C525.269 69.8227 525.269 70.1393 525.464 70.3345L528.293 73.163L525.464 75.9914C525.269 76.1867 525.269 76.5032 525.464 76.6985C525.66 76.8938 525.976 76.8938 526.172 76.6985L529.354 73.5165ZM137 73.663H139.97V72.663H137V73.663ZM145.909 73.663H151.848V72.663H145.909V73.663ZM157.788 73.663H163.727V72.663H157.788V73.663ZM169.667 73.663H175.606V72.663H169.667V73.663ZM181.545 73.663H187.485V72.663H181.545V73.663ZM193.424 73.663H199.364V72.663H193.424V73.663ZM205.303 73.663H211.242V72.663H205.303V73.663ZM217.182 73.663H223.121V72.663H217.182V73.663ZM229.061 73.663H235V72.663H229.061V73.663ZM240.939 73.663H246.879V72.663H240.939V73.663ZM252.818 73.663H258.758V72.663H252.818V73.663ZM264.697 73.663H270.636V72.663H264.697V73.663ZM276.576 73.663H282.515V72.663H276.576V73.663ZM288.455 73.663H294.394V72.663H288.455V73.663ZM300.333 73.663H306.273V72.663H300.333V73.663ZM312.212 73.663H318.151V72.663H312.212V73.663ZM324.091 73.663H330.03V72.663H324.091V73.663ZM335.97 73.663H341.909V72.663H335.97V73.663ZM347.848 73.663H353.788V72.663H347.848V73.663ZM359.727 73.663H365.667V72.663H359.727V73.663ZM371.606 73.663H377.545V72.663H371.606V73.663ZM383.485 73.663H389.424V72.663H383.485V73.663ZM395.364 73.663H401.303V72.663H395.364V73.663ZM407.242 73.663H413.182V72.663H407.242V73.663ZM419.121 73.663H425.061V72.663H419.121V73.663ZM431 73.663H436.939V72.663H431V73.663ZM442.879 73.663H448.818V72.663H442.879V73.663ZM454.758 73.663H460.697V72.663H454.758V73.663ZM466.636 73.663H472.576V72.663H466.636V73.663ZM478.515 73.663H484.454V72.663H478.515V73.663ZM490.394 73.663H496.333V72.663H490.394V73.663ZM502.273 73.663H508.212V72.663H502.273V73.663ZM514.151 73.663H520.091V72.663H514.151V73.663ZM526.03 73.663H529V72.663H526.03V73.663Z" fill="white"/>
<g filter="url(#filter1_b_261_8766)">
<path d="M255.488 197.565L256.485 197.641C256.494 197.525 256.482 197.409 256.451 197.297L255.488 197.565ZM252 185L252.964 184.733C252.84 184.286 252.426 183.984 251.963 184.001C251.501 184.018 251.11 184.35 251.019 184.804L252 185ZM290.119 176.772L289.169 177.084C289.313 177.526 289.744 177.81 290.208 177.768C290.672 177.727 291.045 177.371 291.109 176.91L290.119 176.772ZM282.5 153.5L283.45 153.189C283.324 152.804 282.978 152.533 282.574 152.503C282.169 152.473 281.787 152.69 281.606 153.053L282.5 153.5ZM306.85 145.169L305.891 145.45C306.01 145.856 306.371 146.143 306.793 146.167C307.216 146.191 307.607 145.947 307.772 145.557L306.85 145.169ZM298.485 116.645L299.444 116.364C299.312 115.912 298.881 115.613 298.411 115.648C297.941 115.683 297.559 116.041 297.494 116.508L298.485 116.645ZM315.216 125.326L316.137 125.715C316.179 125.616 316.204 125.511 316.213 125.405L315.216 125.326ZM314.065 72C314.065 74.9455 316.453 77.3333 319.399 77.3333C322.344 77.3333 324.732 74.9455 324.732 72C324.732 69.0545 322.344 66.6667 319.399 66.6667C316.453 66.6667 314.065 69.0545 314.065 72ZM170.135 239.73L170.464 240.674C170.747 240.575 170.971 240.355 171.074 240.074L170.135 239.73ZM166.5 241L166.17 240.056C165.863 240.163 165.628 240.413 165.538 240.725L166.5 241ZM153 254.5L152.816 255.483C153.179 255.551 153.55 255.413 153.781 255.125L153 254.5ZM161.657 250.271L161.494 251.258C161.773 251.304 162.06 251.229 162.281 251.052L161.657 250.271ZM157 249.5L157.163 248.513C156.806 248.454 156.445 248.593 156.219 248.875L157 249.5ZM164.5 248L165.124 248.781C165.287 248.652 165.404 248.475 165.462 248.275L164.5 248ZM172.96 230.429L173.947 230.266C173.87 229.8 173.478 229.452 173.007 229.43C172.535 229.408 172.113 229.719 171.993 230.175L172.96 230.429ZM171.5 236L172.439 236.344C172.45 236.314 172.459 236.284 172.467 236.254L171.5 236ZM178.612 242.83L178.01 243.629C178.302 243.849 178.69 243.892 179.023 243.742C179.356 243.592 179.58 243.273 179.609 242.908L178.612 242.83ZM174.5 239.73L173.513 239.893C173.555 240.146 173.693 240.374 173.898 240.528L174.5 239.73ZM179.5 231.5L178.793 230.793C178.624 230.961 178.522 231.184 178.503 231.422L179.5 231.5ZM184.264 223.298L185.218 222.999C185.085 222.574 184.688 222.289 184.243 222.298C183.798 222.307 183.413 222.609 183.298 223.038L184.264 223.298ZM183 228L183.707 228.707C183.831 228.583 183.92 228.429 183.966 228.26L183 228ZM190 230.429V231.429C190.531 231.429 190.969 231.015 190.998 230.485L190 230.429ZM186.5 230.429L185.546 230.728C185.677 231.145 186.063 231.429 186.5 231.429V230.429ZM198 214L198.581 214.814C198.801 214.657 198.947 214.418 198.988 214.152L198 214ZM194.5 216.5L193.919 215.686C193.727 215.824 193.589 216.024 193.531 216.253L194.5 216.5ZM193.5 220.429L193.836 221.371C194.15 221.259 194.387 220.998 194.469 220.676L193.5 220.429ZM199 207.5L198.051 207.184C198.033 207.237 198.02 207.292 198.012 207.348L199 207.5ZM205.166 209.656L204.188 209.868C204.246 210.135 204.411 210.367 204.644 210.51C204.878 210.652 205.159 210.693 205.424 210.623L205.166 209.656ZM203.583 202.328L202.594 202.474C202.597 202.496 202.601 202.518 202.605 202.539L203.583 202.328ZM202.5 195L203.489 194.854C203.419 194.382 203.026 194.025 202.549 194.001C202.072 193.978 201.646 194.294 201.53 194.757L202.5 195ZM209.5 208.5L209.758 209.466C210.111 209.372 210.385 209.092 210.472 208.736L209.5 208.5ZM212.5 197.565L213.453 197.262C213.321 196.846 212.935 196.564 212.499 196.565C212.063 196.566 211.677 196.849 211.546 197.265L212.5 197.565ZM211 202.328L210.046 202.028C210.04 202.049 210.034 202.07 210.028 202.092L211 202.328ZM215.5 207L214.547 207.303C214.568 207.37 214.597 207.435 214.632 207.496L215.5 207ZM220 210.5V211.5C220.265 211.5 220.52 211.395 220.707 211.207L220 210.5ZM217.5 210.5L216.632 210.996C216.81 211.308 217.141 211.5 217.5 211.5V210.5ZM190.5 221.5L190.164 220.558C189.785 220.693 189.524 221.043 189.502 221.444L190.5 221.5ZM200.5 203L201.449 203.316C201.457 203.292 201.464 203.267 201.47 203.243L200.5 203ZM224 201.5L224.832 202.055C224.895 201.96 224.941 201.856 224.969 201.746L224 201.5ZM223 203L222.168 202.445C222.104 202.541 222.058 202.646 222.03 202.757L223 203ZM221.5 209L222.207 209.707C222.335 209.579 222.426 209.418 222.47 209.243L221.5 209ZM227 210.5L226.005 210.6C226.011 210.663 226.024 210.726 226.042 210.787L227 210.5ZM226.5 205.5L227.495 205.4C227.492 205.372 227.488 205.343 227.483 205.314L226.5 205.5ZM225 197.565L225.983 197.379C225.895 196.918 225.5 196.58 225.031 196.565C224.562 196.551 224.146 196.864 224.031 197.319L225 197.565ZM238 194L238.923 193.615C238.763 193.23 238.38 192.985 237.963 193.001C237.547 193.016 237.183 193.288 237.051 193.684L238 194ZM236 200L236.894 200.447C236.916 200.405 236.934 200.361 236.949 200.316L236 200ZM234.5 203L235.207 203.707C235.283 203.631 235.346 203.543 235.394 203.447L234.5 203ZM232 205.5L231.293 204.793C231.15 204.935 231.054 205.118 231.017 205.316L232 205.5ZM230.5 213.5L230.321 214.484C230.862 214.582 231.381 214.225 231.483 213.684L230.5 213.5ZM244.068 212.447L243.082 212.61C243.154 213.049 243.509 213.388 243.951 213.44C244.393 213.492 244.816 213.246 244.989 212.836L244.068 212.447ZM243 206L243.987 205.837C243.974 205.761 243.953 205.686 243.923 205.615L243 206ZM250 195L250.974 195.225C250.977 195.215 250.979 195.206 250.981 195.196L250 195ZM248.5 201.5L249.436 201.851C249.452 201.81 249.464 201.768 249.474 201.725L248.5 201.5ZM247 205.5L247.921 205.889C247.927 205.876 247.932 205.864 247.936 205.851L247 205.5ZM256.5 205.5L257.281 204.875C257.258 204.846 257.233 204.819 257.207 204.793L256.5 205.5ZM255 204L254.003 203.924C253.981 204.215 254.087 204.501 254.293 204.707L255 204ZM258.5 208L259.481 207.804C259.449 207.647 259.381 207.5 259.281 207.375L258.5 208ZM262.5 187.5L261.508 187.376C261.503 187.417 261.5 187.458 261.5 187.5H262.5ZM262.5 206L263.49 206.141C263.497 206.095 263.5 206.047 263.5 206H262.5ZM260.5 215L259.606 215.447C259.775 215.786 260.121 216 260.5 216C260.879 216 261.225 215.786 261.394 215.447L260.5 215ZM259.5 213L258.519 213.196C258.537 213.283 258.566 213.368 258.606 213.447L259.5 213ZM261.5 213L262.394 213.447C262.442 213.351 262.475 213.248 262.49 213.141L261.5 213ZM227.75 213L226.792 213.287C226.9 213.648 227.201 213.917 227.571 213.984L227.75 213ZM264.881 159.5L263.94 159.161C263.901 159.27 263.881 159.385 263.881 159.5H264.881ZM264.881 168.5L265.873 168.624C265.878 168.583 265.881 168.542 265.881 168.5H264.881ZM276 166.5L275.106 166.053C275.036 166.192 275 166.345 275 166.5H276ZM276 183L275.147 183.521C275.38 183.904 275.84 184.084 276.271 183.963C276.702 183.841 277 183.448 277 183H276ZM270.5 174L269.505 174.097C269.519 174.247 269.568 174.392 269.647 174.521L270.5 174ZM269.577 164.5L270.572 164.403C270.565 164.331 270.55 164.261 270.528 164.192L269.577 164.5ZM266.5 155L267.451 154.692C267.32 154.285 266.944 154.007 266.516 154C266.089 153.993 265.704 154.259 265.559 154.661L266.5 155ZM256.451 197.297L252.964 184.733L251.036 185.267L254.524 197.832L256.451 197.297ZM291.069 176.461L283.45 153.189L281.55 153.811L289.169 177.084L291.069 176.461ZM307.81 144.887L299.444 116.364L297.525 116.927L305.891 145.45L307.81 144.887ZM297.494 116.508L289.129 176.635L291.109 176.91L299.475 116.783L297.494 116.508ZM314.294 124.938L305.929 144.78L307.772 145.557L316.137 125.715L314.294 124.938ZM318.402 71.9218L314.219 125.248L316.213 125.405L320.396 72.0782L318.402 71.9218ZM169.805 238.786L166.17 240.056L166.83 241.944L170.464 240.674L169.805 238.786ZM153.184 253.517L145.184 252.017L144.816 253.983L152.816 255.483L153.184 253.517ZM161.82 249.285L157.163 248.513L156.837 250.487L161.494 251.258L161.82 249.285ZM156.219 248.875L152.219 253.875L153.781 255.125L157.781 250.125L156.219 248.875ZM165.538 240.725L163.538 247.725L165.462 248.275L167.462 241.275L165.538 240.725ZM163.876 247.219L161.033 249.49L162.281 251.052L165.124 248.781L163.876 247.219ZM171.993 230.175L170.533 235.746L172.467 236.254L173.928 230.682L171.993 230.175ZM170.561 235.656L169.196 239.386L171.074 240.074L172.439 236.344L170.561 235.656ZM179.214 242.032L175.102 238.931L173.898 240.528L178.01 243.629L179.214 242.032ZM175.487 239.567L173.947 230.266L171.974 230.592L173.513 239.893L175.487 239.567ZM178.503 231.422L177.615 242.752L179.609 242.908L180.497 231.578L178.503 231.422ZM183.298 223.038L182.034 227.74L183.966 228.26L185.229 223.558L183.298 223.038ZM182.293 227.293L178.793 230.793L180.207 232.207L183.707 228.707L182.293 227.293ZM190 229.429H186.5V231.429H190V229.429ZM187.454 230.13L185.218 222.999L183.31 223.597L185.546 230.728L187.454 230.13ZM197.419 213.186L193.919 215.686L195.081 217.314L198.581 214.814L197.419 213.186ZM193.531 216.253L192.531 220.182L194.469 220.676L195.469 216.747L193.531 216.253ZM198.012 207.348L197.012 213.848L198.988 214.152L199.988 207.652L198.012 207.348ZM206.143 209.445L204.56 202.117L202.605 202.539L204.188 209.868L206.143 209.445ZM204.572 202.182L203.489 194.854L201.511 195.146L202.594 202.474L204.572 202.182ZM209.242 207.534L204.908 208.69L205.424 210.623L209.758 209.466L209.242 207.534ZM211.546 197.265L210.046 202.028L211.954 202.629L213.454 197.865L211.546 197.265ZM210.028 202.092L208.528 208.264L210.472 208.736L211.972 202.564L210.028 202.092ZM216.453 206.697L213.453 197.262L211.547 197.868L214.547 207.303L216.453 206.697ZM220 209.5H217.5V211.5H220V209.5ZM218.368 210.004L216.368 206.504L214.632 207.496L216.632 210.996L218.368 210.004ZM193.164 219.487L190.164 220.558L190.836 222.442L193.836 221.371L193.164 219.487ZM189.502 221.444L189.002 230.373L190.998 230.485L191.498 221.556L189.502 221.444ZM201.53 194.757L199.53 202.757L201.47 203.243L203.47 195.243L201.53 194.757ZM199.551 202.684L198.051 207.184L199.949 207.816L201.449 203.316L199.551 202.684ZM223.168 200.945L222.168 202.445L223.832 203.555L224.832 202.055L223.168 200.945ZM222.03 202.757L220.53 208.757L222.47 209.243L223.97 203.243L222.03 202.757ZM220.793 208.293L219.293 209.793L220.707 211.207L222.207 209.707L220.793 208.293ZM227.995 210.4L227.495 205.4L225.505 205.6L226.005 210.6L227.995 210.4ZM227.483 205.314L225.983 197.379L224.017 197.751L225.517 205.686L227.483 205.314ZM224.031 197.319L223.031 201.254L224.969 201.746L225.969 197.811L224.031 197.319ZM237.051 193.684L235.051 199.684L236.949 200.316L238.949 194.316L237.051 193.684ZM235.106 199.553L233.606 202.553L235.394 203.447L236.894 200.447L235.106 199.553ZM233.793 202.293L231.293 204.793L232.707 206.207L235.207 203.707L233.793 202.293ZM231.017 205.316L229.517 213.316L231.483 213.684L232.983 205.684L231.017 205.316ZM241.423 199.615L238.923 193.615L237.077 194.385L239.577 200.385L241.423 199.615ZM245.055 212.283L243.987 205.837L242.013 206.163L243.082 212.61L245.055 212.283ZM243.923 205.615L241.423 199.615L239.577 200.385L242.077 206.385L243.923 205.615ZM251.019 184.804L249.019 194.804L250.981 195.196L252.981 185.196L251.019 184.804ZM249.026 194.775L247.526 201.275L249.474 201.725L250.974 195.225L249.026 194.775ZM247.564 201.149L246.064 205.149L247.936 205.851L249.436 201.851L247.564 201.149ZM246.079 205.111L243.147 212.058L244.989 212.836L247.921 205.889L246.079 205.111ZM257.207 204.793L255.707 203.293L254.293 204.707L255.793 206.207L257.207 204.793ZM255.997 204.076L256.485 197.641L254.491 197.489L254.003 203.924L255.997 204.076ZM259.281 207.375L257.281 204.875L255.719 206.125L257.719 208.625L259.281 207.375ZM261.5 187.5V206H263.5V187.5H261.5ZM261.51 205.859L261.01 209.359L262.99 209.641L263.49 206.141L261.51 205.859ZM261.394 214.553L260.394 212.553L258.606 213.447L259.606 215.447L261.394 214.553ZM260.481 212.804L259.481 207.804L257.519 208.196L258.519 213.196L260.481 212.804ZM261.01 209.359L260.51 212.859L262.49 213.141L262.99 209.641L261.01 209.359ZM260.606 212.553L259.606 214.553L261.394 215.447L262.394 213.447L260.606 212.553ZM230.679 212.516L227.929 212.016L227.571 213.984L230.321 214.484L230.679 212.516ZM228.708 212.713L227.958 210.213L226.042 210.787L226.792 213.287L228.708 212.713ZM263.881 159.5V168.5H265.881V159.5H263.881ZM263.888 168.376L261.508 187.376L263.492 187.624L265.873 168.624L263.888 168.376ZM281.606 153.053L275.106 166.053L276.894 166.947L283.394 153.947L281.606 153.053ZM275 166.5V183H277V166.5H275ZM276.853 182.479L271.353 173.479L269.647 174.521L275.147 183.521L276.853 182.479ZM271.495 173.903L270.572 164.403L268.582 164.597L269.505 174.097L271.495 173.903ZM270.528 164.192L267.451 154.692L265.549 155.308L268.625 164.808L270.528 164.192ZM265.559 154.661L263.94 159.161L265.821 159.839L267.441 155.339L265.559 154.661Z" fill="url(#paint0_linear_261_8766)"/>
</g>
<circle cx="319.5" cy="72.5" r="13" stroke="#996DFF"/>
<defs>
<filter id="filter0_d_261_8766" x="0" y="38" width="158.326" height="70.3259" filterUnits="userSpaceOnUse" color-interpolation-filters="sRGB">
<feFlood flood-opacity="0" result="BackgroundImageFix"/>
<feColorMatrix in="SourceAlpha" type="matrix" values="0 0 0 0 0 0 0 0 0 0 0 0 0 0 0 0 0 0 127 0" result="hardAlpha"/>
<feOffset/>
<feGaussianBlur stdDeviation="4.5"/>
<feComposite in2="hardAlpha" operator="out"/>
<feColorMatrix type="matrix" values="0 0 0 0 0 0 0 0 0 0 0 0 0 0 0 0 0 0 0.72 0"/>
<feBlend mode="normal" in2="BackgroundImageFix" result="effect1_dropShadow_261_8766"/>
<feBlend mode="normal" in="SourceGraphic" in2="effect1_dropShadow_261_8766" result="shape"/>
</filter>
<filter id="filter1_b_261_8766" x="126.668" y="48.5185" width="216.213" height="225.13" filterUnits="userSpaceOnUse" color-interpolation-filters="sRGB">
<feFlood flood-opacity="0" result="BackgroundImageFix"/>
<feGaussianBlur in="BackgroundImageFix" stdDeviation="9.07407"/>
<feComposite in2="SourceAlpha" operator="in" result="effect1_backgroundBlur_261_8766"/>
<feBlend mode="normal" in="SourceGraphic" in2="effect1_backgroundBlur_261_8766" result="shape"/>
</filter>
<linearGradient id="paint0_linear_261_8766" x1="204.562" y1="-52.4318" x2="398.379" y2="28.7009" gradientUnits="userSpaceOnUse">
<stop stop-color="#53FDA9"/>
<stop offset="1" stop-color="#7027F0"/>
</linearGradient>
</defs>
</svg>
