<svg width="22" height="21" viewBox="0 0 22 21" fill="none" xmlns="http://www.w3.org/2000/svg">
<path d="M0.504549 13.6959C0.458865 12.0479 0.757678 10.4086 1.38173 8.88363C2.00579 7.35865 2.94123 5.98182 4.12779 4.84188C9.7016 -0.747248 21.3014 0.0347909 21.3668 0.0402597C21.3232 0.089479 12.8563 12.4326 2.79836 13.5865C2.03681 13.6714 1.27069 13.7079 0.504549 13.6959Z" fill="#3FBB96"/>
<path d="M1.7085 17.4967C1.99951 17.9601 2.34126 18.3893 2.72736 18.7764C6.17081 22.2327 12.3821 21.5874 16.6101 17.3436C22.2003 11.7381 21.3939 0.0402832 21.3939 0.0402832C21.3939 0.0402832 15.2861 13.7889 5.62051 16.7748C4.34926 17.1688 3.03621 17.4111 1.7085 17.4967Z" fill="#3FBB96"/>
</svg>
