<svg width="80" height="12" viewBox="0 0 80 12" fill="none" xmlns="http://www.w3.org/2000/svg">
<path d="M4.34818 11.154C3.57351 11.154 2.83151 11.0607 2.12218 10.874C1.41285 10.678 0.829513 10.4213 0.37218 10.104L1.08618 8.102C1.51551 8.39133 2.01951 8.62 2.59818 8.788C3.17685 8.956 3.76018 9.04 4.34818 9.04C4.96418 9.04 5.39351 8.96067 5.63618 8.802C5.88818 8.634 6.01418 8.42867 6.01418 8.186C6.01418 7.97133 5.92551 7.79867 5.74818 7.668C5.58018 7.53733 5.27685 7.42533 4.83818 7.332L3.20018 6.982C1.42685 6.59933 0.54018 5.67067 0.54018 4.196C0.54018 3.552 0.712846 2.98733 1.05818 2.502C1.41285 2.01667 1.90285 1.64333 2.52818 1.382C3.15351 1.11133 3.88151 0.976 4.71218 0.976C5.39351 0.976 6.03751 1.074 6.64418 1.27C7.26018 1.45667 7.75951 1.71333 8.14218 2.04L7.42818 3.916C7.07351 3.65467 6.66285 3.454 6.19618 3.314C5.72951 3.16467 5.22551 3.09 4.68418 3.09C4.16151 3.09 3.76018 3.18333 3.48018 3.37C3.20018 3.54733 3.06018 3.78067 3.06018 4.07C3.06018 4.27533 3.14418 4.44333 3.31218 4.574C3.48018 4.70467 3.77885 4.81667 4.20818 4.91L5.83218 5.26C7.63351 5.64267 8.53418 6.548 8.53418 7.976C8.53418 8.62 8.36151 9.18 8.01618 9.656C7.67085 10.132 7.18551 10.5007 6.56018 10.762C5.93485 11.0233 5.19751 11.154 4.34818 11.154ZM11.9182 11V3.23H8.78224V1.13H17.6302V3.23H14.4942V11H11.9182ZM16.3066 11L20.9266 1.13H22.9566L27.5766 11H25.0006L24.1466 8.998H19.7366L18.8826 11H16.3066ZM21.9206 3.818L20.5766 7.024H23.2926L21.9486 3.818H21.9206ZM28.1743 11V1.13H30.0643L34.6003 6.786V1.13H36.9803V11H35.1043L30.5683 5.344V11H28.1743ZM38.7837 11V1.13H42.8717C44.5797 1.13 45.905 1.55933 46.8477 2.418C47.7904 3.27667 48.2617 4.49 48.2617 6.058C48.2617 7.626 47.7904 8.844 46.8477 9.712C45.905 10.5707 44.5797 11 42.8717 11H38.7837ZM41.3597 8.914H42.7037C43.6837 8.914 44.407 8.68067 44.8737 8.214C45.3497 7.738 45.5877 7.01933 45.5877 6.058C45.5877 5.09667 45.3497 4.38267 44.8737 3.916C44.3977 3.44933 43.6744 3.216 42.7037 3.216H41.3597V8.914ZM48.3535 11L52.9735 1.13H55.0035L59.6235 11H57.0475L56.1935 8.998H51.7835L50.9295 11H48.3535ZM53.9675 3.818L52.6235 7.024H55.3395L53.9955 3.818H53.9675ZM60.2212 11V1.13H64.9672C66.0872 1.13 66.9505 1.40533 67.5572 1.956C68.1732 2.49733 68.4812 3.25333 68.4812 4.224C68.4812 4.96133 68.2945 5.582 67.9212 6.086C67.5572 6.58067 67.0252 6.926 66.3252 7.122C66.8479 7.262 67.2679 7.62133 67.5852 8.2L69.1252 11H66.2972L64.5892 7.864C64.4772 7.668 64.3325 7.528 64.1552 7.444C63.9872 7.36 63.7912 7.318 63.5672 7.318H62.7972V11H60.2212ZM62.7972 5.498H64.5052C65.5225 5.498 66.0312 5.09667 66.0312 4.294C66.0312 3.50067 65.5225 3.104 64.5052 3.104H62.7972V5.498ZM70.106 11V1.13H74.194C75.902 1.13 77.2273 1.55933 78.17 2.418C79.1126 3.27667 79.584 4.49 79.584 6.058C79.584 7.626 79.1126 8.844 78.17 9.712C77.2273 10.5707 75.902 11 74.194 11H70.106ZM72.682 8.914H74.026C75.006 8.914 75.7293 8.68067 76.196 8.214C76.672 7.738 76.91 7.01933 76.91 6.058C76.91 5.09667 76.672 4.38267 76.196 3.916C75.72 3.44933 74.9966 3.216 74.026 3.216H72.682V8.914Z" fill="#7149B6"/>
</svg>
