<svg width="239" height="29" viewBox="0 0 239 29" fill="none" xmlns="http://www.w3.org/2000/svg">
<g clip-path="url(#clip0_2025_31079)">
<path d="M204.48 28.494C204.519 28.535 204.544 28.5863 204.554 28.6417C204.563 28.697 204.556 28.7539 204.534 28.8054C204.511 28.8569 204.474 28.9006 204.427 28.9311C204.38 28.9617 204.326 28.9778 204.27 28.9773H197.934C197.895 28.9772 197.856 28.9691 197.82 28.9535C197.784 28.938 197.751 28.9152 197.724 28.8867L189.304 19.9677L180.795 28.9094C180.737 28.9616 180.662 28.9911 180.584 28.9924H174.249C174.193 28.9929 174.138 28.9768 174.091 28.9462C174.044 28.9157 174.007 28.872 173.985 28.8205C173.962 28.769 173.955 28.7121 173.965 28.6568C173.974 28.6014 174 28.5501 174.038 28.5091L185.648 16.2974L174.429 4.43307C174.388 4.39248 174.361 4.34046 174.35 4.2838C174.339 4.22714 174.345 4.16847 174.368 4.11546C174.391 4.06245 174.429 4.01755 174.477 3.98664C174.526 3.95573 174.583 3.94023 174.64 3.94218H180.975C181.015 3.94091 181.054 3.94837 181.091 3.96402C181.127 3.97968 181.16 4.00316 181.186 4.03281L189.244 12.6346L197.332 4.04036C197.359 4.01072 197.391 3.98723 197.428 3.97158C197.464 3.95592 197.504 3.94846 197.543 3.94973H203.878C203.936 3.94779 203.993 3.96328 204.041 3.99419C204.09 4.0251 204.128 4.07 204.151 4.12301C204.173 4.17603 204.18 4.2347 204.169 4.29136C204.158 4.34802 204.13 4.40004 204.089 4.44062L192.908 16.2974L204.48 28.494Z" fill="white"/>
<path d="M144.416 28.9925C144.31 28.9925 144.209 28.9503 144.134 28.8753C144.059 28.8002 144.017 28.6984 144.017 28.5922V4.32738C144.017 4.22123 144.059 4.11942 144.134 4.04436C144.209 3.9693 144.31 3.92712 144.416 3.92712H168.35C168.456 3.92711 168.558 3.96903 168.634 4.04389C168.71 4.11874 168.754 4.22054 168.756 4.32738V7.80134C168.754 7.90819 168.71 8.00998 168.634 8.08484C168.558 8.15969 168.456 8.20162 168.35 8.2016H149.818V13.7826H160.931C161.037 13.7826 161.138 13.8248 161.213 13.8998C161.288 13.9749 161.33 14.0767 161.33 14.1829V17.6568C161.33 17.763 161.288 17.8648 161.213 17.9398C161.138 18.0149 161.037 18.0571 160.931 18.0571H149.818V24.2724H168.591C168.697 24.2724 168.799 24.3143 168.875 24.3892C168.951 24.4641 168.995 24.5659 168.997 24.6727V28.5771C168.997 28.6303 168.986 28.683 168.966 28.7321C168.945 28.7811 168.915 28.8256 168.877 28.8629C168.84 28.9001 168.795 28.9294 168.745 28.9491C168.696 28.9688 168.644 28.9784 168.591 28.9774L144.416 28.9925Z" fill="white"/>
<path d="M102.033 28.9925C101.98 28.9935 101.927 28.9839 101.878 28.9642C101.829 28.9446 101.784 28.9152 101.746 28.878C101.708 28.8407 101.678 28.7962 101.658 28.7472C101.637 28.6981 101.627 28.6454 101.627 28.5922V4.32738C101.629 4.22054 101.672 4.11874 101.748 4.04389C101.824 3.96903 101.927 3.92711 102.033 3.92712H107.036C107.142 3.92712 107.244 3.9693 107.318 4.04436C107.393 4.11942 107.435 4.22123 107.435 4.32738V28.5922C107.435 28.6984 107.393 28.8002 107.318 28.8753C107.244 28.9503 107.142 28.9925 107.036 28.9925H102.033Z" fill="white"/>
<path d="M73.5772 28.9925C73.5242 28.9935 73.4715 28.9839 73.4223 28.9642C73.373 28.9446 73.3282 28.9152 73.2903 28.878C73.2525 28.8407 73.2225 28.7962 73.202 28.7472C73.1815 28.6981 73.1709 28.6454 73.1709 28.5922V4.32738C73.1729 4.22054 73.2166 4.11874 73.2925 4.04389C73.3685 3.96903 73.4707 3.92711 73.5772 3.92712H97.2177C97.3242 3.92711 97.4264 3.96903 97.5024 4.04389C97.5783 4.11874 97.622 4.22054 97.624 4.32738V7.89197C97.624 8.00013 97.5812 8.10385 97.505 8.18033C97.4288 8.25681 97.3255 8.29978 97.2177 8.29978H78.9794V14.9003H89.0767C89.1832 14.9003 89.2854 14.9422 89.3614 15.0171C89.4374 15.0919 89.481 15.1937 89.483 15.3006V19.0766C89.481 19.1834 89.4374 19.2852 89.3614 19.3601C89.2854 19.435 89.1832 19.4769 89.0767 19.4769H78.9794V28.5922C78.9795 28.6454 78.9689 28.6981 78.9484 28.7472C78.9279 28.7962 78.8978 28.8407 78.86 28.878C78.8222 28.9152 78.7773 28.9446 78.7281 28.9642C78.6788 28.9839 78.6262 28.9935 78.5732 28.9925H73.5772Z" fill="white"/>
<path d="M58.0477 8.41306V28.5922C58.0487 28.6451 58.0391 28.6976 58.0194 28.7466C57.9997 28.7956 57.9704 28.8402 57.9332 28.8775C57.8959 28.9149 57.8516 28.9444 57.8027 28.9641C57.7539 28.9839 57.7016 28.9935 57.6489 28.9925H52.6454C52.5397 28.9925 52.4382 28.9503 52.3635 28.8753C52.2887 28.8002 52.2467 28.6984 52.2467 28.5922V8.41306H41.5851C41.5321 8.41307 41.4796 8.40247 41.4308 8.38189C41.3819 8.3613 41.3376 8.33114 41.3004 8.29317C41.2633 8.2552 41.2341 8.21018 41.2145 8.16074C41.1949 8.11131 41.1854 8.05844 41.1864 8.00525V4.32738C41.1864 4.22123 41.2284 4.11942 41.3031 4.04436C41.3779 3.9693 41.4794 3.92712 41.5851 3.92712H68.7619C68.8677 3.92712 68.9691 3.9693 69.0439 4.04436C69.1187 4.11942 69.1607 4.22123 69.1607 4.32738V7.99014C69.1607 8.09701 69.1189 8.19961 69.0443 8.27588C68.9698 8.35214 68.8683 8.39598 68.7619 8.39796L58.0477 8.41306Z" fill="white"/>
<path d="M31.7662 28.9925C31.6604 28.9925 31.559 28.9503 31.4842 28.8753C31.4094 28.8002 31.3674 28.6984 31.3674 28.5922V4.32738C31.3674 4.22123 31.4094 4.11942 31.4842 4.04436C31.559 3.9693 31.6604 3.92712 31.7662 3.92712H36.7697C36.8735 3.93097 36.9719 3.9746 37.0447 4.04905C37.1175 4.1235 37.1591 4.2231 37.1609 4.32738V28.5922C37.1609 28.6454 37.1504 28.6981 37.1299 28.7472C37.1094 28.7962 37.0793 28.8407 37.0415 28.878C37.0037 28.9152 36.9588 28.9446 36.9095 28.9642C36.8603 28.9839 36.8076 28.9935 36.7546 28.9925H31.7662Z" fill="white"/>
<path fill-rule="evenodd" clip-rule="evenodd" d="M0.172852 4.32738C0.172852 4.22123 0.214872 4.11942 0.289657 4.04436C0.364441 3.9693 0.465863 3.92712 0.571624 3.92712H21.9474C23.3303 3.92712 24.6565 4.47852 25.6343 5.46001C26.6122 6.44149 27.1615 7.77268 27.1615 9.16072V10.8297C27.1615 12.2178 26.6122 13.5489 25.6343 14.5304C24.6565 15.5119 23.3303 16.0633 21.9474 16.0633H22.1129C22.8033 16.0563 23.4883 16.187 24.128 16.4478C24.7677 16.7087 25.3494 17.0944 25.8393 17.5827C26.3293 18.071 26.7178 18.6521 26.9822 19.2923C27.2466 19.9325 27.3818 20.619 27.3797 21.312V23.7664C27.3798 24.4579 27.2431 25.1424 26.9777 25.7804C26.7123 26.4184 26.3234 26.9973 25.8335 27.4833C25.3437 27.9694 24.7626 28.3531 24.1239 28.6122C23.4852 28.8712 22.8017 29.0005 22.1129 28.9925H0.571624C0.465863 28.9925 0.364441 28.9503 0.289657 28.8753C0.214872 28.8002 0.172852 28.6984 0.172852 28.5922V4.32738ZM5.87607 8.00525H19.4193C20.0579 8.00525 20.6703 8.25986 21.1218 8.71307C21.5733 9.16629 21.827 9.78097 21.827 10.4219V11.5774C21.827 12.2183 21.5733 12.833 21.1218 13.2862C20.6703 13.7394 20.0579 13.9941 19.4193 13.9941H5.87607V8.00525ZM5.87607 18.1024H19.5322C20.1707 18.1024 20.7831 18.357 21.2347 18.8102C21.6862 19.2634 21.9399 19.8781 21.9399 20.5191V22.0295C21.9399 22.3465 21.8775 22.6604 21.7565 22.9531C21.6354 23.2459 21.4579 23.5118 21.2342 23.7356C21.0105 23.9594 20.7451 24.1367 20.453 24.2574C20.1609 24.378 19.848 24.4396 19.5322 24.4386H5.87607V18.1024Z" fill="white"/>
<path d="M111.446 28.5922V4.32738C111.446 4.22123 111.488 4.11942 111.563 4.04436C111.637 3.9693 111.739 3.92712 111.845 3.92712H115.26C115.357 3.92738 115.45 3.96219 115.524 4.0253L134.778 21.1383V4.32738C134.78 4.22054 134.823 4.11874 134.899 4.04389C134.975 3.96903 135.078 3.92711 135.184 3.92712H139.601C139.707 3.92711 139.809 3.96903 139.885 4.04389C139.961 4.11874 140.005 4.22054 140.007 4.32738V28.5922C140.007 28.6454 139.996 28.6981 139.976 28.7472C139.955 28.7962 139.925 28.8407 139.888 28.878C139.85 28.9152 139.805 28.9446 139.756 28.9642C139.706 28.9839 139.654 28.9935 139.601 28.9925H136.192C136.093 28.9948 135.996 28.9598 135.921 28.8943L116.667 11.7435V28.5922C116.667 28.6984 116.625 28.8002 116.551 28.8753C116.476 28.9503 116.374 28.9925 116.269 28.9925H111.845C111.739 28.9925 111.637 28.9503 111.563 28.8753C111.488 28.8002 111.446 28.6984 111.446 28.5922Z" fill="white"/>
<path d="M209.303 18.9105C209.24 16.6347 209.653 14.3709 210.514 12.265C211.376 10.1591 212.668 8.25783 214.307 6.68364C222.004 -1.03459 238.022 0.0453584 238.113 0.0529105C238.052 0.120879 226.36 17.1659 212.471 18.7594C211.419 18.8767 210.361 18.9271 209.303 18.9105Z" fill="#3FBB96"/>
<path d="M210.966 24.1591C211.368 24.799 211.84 25.3917 212.373 25.9263C217.128 30.6992 225.706 29.8081 231.544 23.9476C239.264 16.2068 238.15 0.0528564 238.15 0.0528564C238.15 0.0528564 229.716 19.0388 216.368 23.1622C214.613 23.7062 212.8 24.0408 210.966 24.1591Z" fill="#3FBB96"/>
</g>
<defs>
<clipPath id="clip0_2025_31079">
<rect width="238" height="29" fill="white" transform="translate(0.172852)"/>
</clipPath>
</defs>
</svg>
