<svg width="87" height="29" viewBox="0 0 87 29" fill="none" xmlns="http://www.w3.org/2000/svg">
<g clip-path="url(#clip0_2025_31059)">
<path d="M61.4604 22.36V0H65.9087V22.36H61.4604Z" fill="#F7A600"/>
<path d="M9.69216 29H0.172852V6.64001H9.31653C13.7549 6.64001 16.3448 9.09001 16.3448 12.92C16.3448 13.8786 16.0813 14.8183 15.5838 15.6342C15.0863 16.45 14.3744 17.1099 13.5276 17.54C14.4914 17.9509 15.3081 18.65 15.8682 19.5437C16.4283 20.4373 16.7049 21.4828 16.6611 22.54C16.6611 26.74 13.7549 29 9.69216 29ZM8.96067 10.54H4.61124V15.69H8.96067C10.8487 15.69 11.9262 14.69 11.9262 13.11C11.9262 11.53 10.8487 10.54 8.96067 10.54ZM9.24733 19.61H4.61124V25.11H9.24733C9.62813 25.155 10.014 25.1161 10.3786 24.996C10.7432 24.876 11.0777 24.6776 11.3594 24.4145C11.6411 24.1514 11.8632 23.8298 12.0105 23.4717C12.1578 23.1137 12.2268 22.7276 12.2129 22.34C12.2227 20.83 11.2639 19.61 9.24733 19.61Z" fill="white"/>
<path d="M30.2137 19.83V29H25.8049V19.83L18.9546 6.64001H23.7785L28.0291 15.64L32.2105 6.64001H37.0442L30.2137 19.83Z" fill="white"/>
<path d="M49.6474 29H40.1182V6.64001H49.2618C53.7002 6.64001 56.2901 9.09001 56.2901 12.92C56.2901 13.8786 56.0266 14.8183 55.5291 15.6342C55.0316 16.45 54.3197 17.1099 53.4729 17.54C54.4367 17.9509 55.2534 18.65 55.8135 19.5437C56.3736 20.4373 56.6502 21.4828 56.6064 22.54C56.6064 26.74 53.7002 29 49.6474 29ZM48.906 10.54H44.5664V15.69H48.906C50.794 15.69 51.8715 14.69 51.8715 13.11C51.8715 11.53 50.794 10.54 48.906 10.54ZM49.1926 19.61H44.5664V25.11H49.1926C49.5734 25.155 49.9594 25.1161 50.3239 24.996C50.6885 24.876 51.0231 24.6776 51.3047 24.4145C51.5864 24.1514 51.8085 23.8298 51.9558 23.4717C52.1031 23.1137 52.1722 22.7276 52.1582 22.34C52.168 20.83 51.2092 19.61 49.1926 19.61Z" fill="white"/>
<path d="M80.2416 10.54V29H75.7933V10.54H69.8623V6.64001H86.1726V10.54H80.2416Z" fill="white"/>
</g>
<defs>
<clipPath id="clip0_2025_31059">
<rect width="86" height="29" fill="white" transform="translate(0.172852)"/>
</clipPath>
</defs>
</svg>
