<svg width="128" height="29" viewBox="0 0 128 29" fill="none" xmlns="http://www.w3.org/2000/svg">
<path d="M14.8073 3.36401L5.05762 8.93202V20.068L14.8073 25.636L24.557 20.068V8.93202L14.8073 3.36401ZM14.8073 3.36401L5.05762 8.93202V20.068L14.8073 25.636L24.557 20.068V8.93202L14.8073 3.36401Z" fill="white"/>
<path d="M18.6564 21.286H17.2692L15.6084 19.778V19.0047L17.3278 17.3807V14.8094L19.5747 13.3594L22.1342 15.2733L18.6564 21.286ZM12.9121 17.226L13.1661 14.8094L12.3259 12.644H17.2887L16.4681 14.8094L16.7025 17.226H14.7878H12.9121ZM14.0453 19.778L12.3845 21.3054H10.9778L7.48039 15.2733L10.0595 13.3787L12.3259 14.8094V17.3807L14.0453 19.0047V19.778ZM10.9582 8.17802H18.6368L19.5552 12.0447H10.0595L10.9582 8.17802ZM14.8073 3.36401L5.05762 8.93202V20.068L14.8073 25.636L24.557 20.068V8.93202L14.8073 3.36401Z" fill="#03316C"/>
<path d="M35.4987 19.662C32.9196 19.662 31.0244 17.6707 31.0244 15.2154C31.0244 12.76 32.9392 10.7107 35.5183 10.7107C37.1595 10.7107 38.1755 11.31 38.9766 12.18L37.7456 13.4947C37.14 12.8567 36.4952 12.4314 35.4987 12.4314C34.0529 12.4314 32.9978 13.6687 32.9978 15.1767C32.9978 16.7234 34.0724 17.9607 35.5964 17.9607C36.5343 17.9607 37.2181 17.516 37.8433 16.8974L39.0352 18.0767C38.1755 18.9854 37.179 19.662 35.4987 19.662Z" fill="white"/>
<path d="M42.8059 19.662H40.813V10.73H42.8059V12.818C43.353 11.542 44.3495 10.6527 45.8735 10.73V12.818H45.7562C44.0173 12.818 42.8059 13.9394 42.8059 16.2207V19.662Z" fill="white"/>
<path d="M54.2165 10.6914H56.2876L51.8914 22.0594H49.879L50.8364 19.6621L47.0654 10.6914H49.1951L51.7547 17.3227L54.2165 10.6914Z" fill="white"/>
<path d="M62.1491 12.4121C60.801 12.4121 59.6287 13.4947 59.6287 15.1767C59.6287 16.8587 60.8205 17.9414 62.1491 17.9414C63.5168 17.9414 64.6305 16.8781 64.6305 15.1767C64.6305 13.4754 63.4973 12.4121 62.1491 12.4121ZM62.5985 19.6427C61.1722 19.6427 60.2734 18.9274 59.6677 18.1347V22.0594H57.6748V10.6914H59.6677V12.2961C60.3125 11.4067 61.2113 10.6914 62.5985 10.6914C64.65 10.6914 66.643 12.2961 66.643 15.1574C66.643 18.0187 64.6696 19.6427 62.5985 19.6427Z" fill="white"/>
<path d="M71.0002 12.5667V16.7813C71.0002 17.5353 71.3909 17.8447 72.0748 17.8447H72.8563V19.604H71.4886C70.0428 19.604 69.0072 18.966 69.0072 17.0907V12.5667H67.9131V10.8847H69.0072V8.526H71.0002V10.8847H72.8563V12.5667H71.0002Z" fill="white"/>
<path d="M79.1277 12.412C77.5255 12.412 76.5095 13.6494 76.5095 15.1574C76.5095 16.6847 77.6037 17.9414 79.1472 17.9414C80.7494 17.9414 81.7654 16.704 81.7654 15.196C81.8044 13.6687 80.6907 12.412 79.1277 12.412ZM79.1277 19.662C76.49 19.662 74.5361 17.6707 74.5361 15.2154C74.5361 12.7407 76.5095 10.7107 79.1668 10.7107C81.824 10.7107 83.7778 12.702 83.7778 15.1767C83.7778 17.6127 81.824 19.662 79.1277 19.662Z" fill="white"/>
<path d="M102.789 12.412C101.187 12.412 100.171 13.6494 100.171 15.1574C100.171 16.6847 101.265 17.9414 102.808 17.9414C104.41 17.9414 105.427 16.704 105.427 15.196C105.446 13.6687 104.352 12.412 102.789 12.412ZM102.789 19.662C100.151 19.662 98.1973 17.6707 98.1973 15.2154C98.1973 12.7407 100.171 10.7107 102.828 10.7107C105.485 10.7107 107.439 12.702 107.439 15.1767C107.439 17.6127 105.466 19.662 102.789 19.662Z" fill="white"/>
<path d="M119.24 10.6914C121.136 10.6914 122.288 11.8707 122.288 13.9781V19.6427H120.295V14.5774C120.295 13.2047 119.651 12.4894 118.537 12.4894C117.462 12.4894 116.681 13.2434 116.681 14.6161V19.6621H114.688V14.5774C114.688 13.2434 114.024 12.4894 112.929 12.4894C111.835 12.4894 111.073 13.3014 111.073 14.6354V19.6621H109.08V10.7107H111.073V12.1801C111.64 11.4261 112.382 10.7107 113.711 10.7107C114.961 10.7107 115.821 11.3101 116.29 12.2187C117.013 11.2907 117.931 10.6914 119.24 10.6914Z" fill="white"/>
<path d="M85.4585 17.8446L85.5171 17.748L86.3768 17.2646H86.494L87.3733 17.748L87.4319 17.8446V18.85L87.3733 18.9466L86.494 19.43H86.3768L85.5171 18.9466L85.4585 18.85V17.8446Z" fill="white"/>
<path d="M93.469 19.6427C90.8899 19.5847 89.0338 17.5547 89.0729 15.0994C89.1119 12.6441 91.0658 10.6334 93.6644 10.6914C95.3056 10.7301 96.3216 11.3487 97.1032 12.2381L95.8527 13.5334C95.2666 12.8954 94.6218 12.4314 93.6253 12.4121C92.1795 12.3927 91.1049 13.5914 91.0853 15.1187C91.0463 16.6654 92.1013 17.9221 93.6253 17.9414C94.5632 17.9607 95.2666 17.5354 95.8918 16.9167L97.0641 18.1154C96.1849 19.0241 95.1689 19.6814 93.469 19.6427Z" fill="white"/>
</svg>
