<svg width="99" height="29" viewBox="0 0 99 29" fill="none" xmlns="http://www.w3.org/2000/svg">
<g clip-path="url(#clip0_2025_31049)">
<path fill-rule="evenodd" clip-rule="evenodd" d="M36.2093 7.47413V15.7979H27.9773V8.54298C27.9773 8.40229 27.9495 8.26298 27.8955 8.13304C27.8414 8.00311 27.7623 7.8851 27.6625 7.7858C27.5627 7.6865 27.4442 7.60785 27.314 7.55436C27.1837 7.50088 27.0441 7.47361 26.9032 7.47413H24.1475V27.3125C24.1485 27.5964 24.2621 27.8682 24.4634 28.0686C24.6648 28.2689 24.9374 28.3814 25.2215 28.3814H27.9969V19.1571H36.2289V27.3125C36.2299 27.5964 36.3436 27.8682 36.5449 28.0686C36.7462 28.2689 37.0188 28.3814 37.303 28.3814H40.0783V8.54298C40.0783 8.2595 39.9656 7.98764 39.7649 7.78719C39.5642 7.58674 39.292 7.47413 39.0082 7.47413H36.2093Z" fill="white"/>
<path fill-rule="evenodd" clip-rule="evenodd" d="M52.3713 12.4034V22.3129C52.3758 22.7564 52.2638 23.1933 52.0464 23.58C51.8291 23.9668 51.514 24.2899 51.1326 24.5171C50.7005 24.7972 50.201 24.9561 49.6863 24.9772C49.1716 24.9983 48.6607 24.8808 48.2071 24.6371C47.7535 24.3933 47.3738 24.0323 47.1078 23.5917C46.8418 23.1511 46.6993 22.6472 46.6952 22.1328V13.4723C46.6952 13.3319 46.6675 13.1929 46.6137 13.0633C46.5599 12.9336 46.4811 12.8158 46.3817 12.7165C46.2824 12.6173 46.1644 12.5385 46.0345 12.4848C45.9047 12.4311 45.7656 12.4034 45.625 12.4034H42.834V22.4851C42.8392 24.0487 43.4639 25.5466 44.5716 26.6515C45.6793 27.7564 47.1799 28.3783 48.7453 28.3814H50.3133C51.8778 28.3773 53.377 27.7548 54.4832 26.6499C55.5894 25.545 56.2127 24.0477 56.2169 22.4851V13.4801C56.2158 13.1963 56.1022 12.9244 55.9009 12.7241C55.6996 12.5238 55.427 12.4113 55.1428 12.4113L52.3713 12.4034Z" fill="white"/>
<path fill-rule="evenodd" clip-rule="evenodd" d="M95.1698 28.3814H97.9451V14.3492C97.9446 14.2089 97.9164 14.07 97.8622 13.9405C97.8079 13.811 97.7287 13.6935 97.6289 13.5946C97.5292 13.4957 97.4109 13.4174 97.2809 13.3642C97.1509 13.3109 97.0116 13.2838 96.8711 13.2843H94.0957V27.3164C94.0978 27.5996 94.2118 27.8705 94.4131 28.0699C94.6143 28.2694 94.8863 28.3814 95.1698 28.3814Z" fill="#4A7ABD"/>
<path fill-rule="evenodd" clip-rule="evenodd" d="M96.0207 11.7574C96.4458 11.7574 96.8612 11.6315 97.2146 11.3955C97.5679 11.1596 97.8433 10.8243 98.0057 10.432C98.1682 10.0397 98.2105 9.60813 98.1273 9.19183C98.0441 8.77553 97.8391 8.39324 97.5383 8.09334C97.2375 7.79344 96.8544 7.5894 96.4374 7.50706C96.0204 7.42472 95.5884 7.46776 95.1959 7.63076C94.8035 7.79375 94.4683 8.06935 94.2327 8.4227C93.9971 8.77605 93.8718 9.19125 93.8726 9.61576C93.8726 9.89733 93.9282 10.1761 94.0362 10.4362C94.1442 10.6963 94.3025 10.9326 94.502 11.1315C94.7015 11.3304 94.9384 11.4881 95.199 11.5955C95.4596 11.7029 95.7388 11.7579 96.0207 11.7574Z" fill="#4A7ABD"/>
<path fill-rule="evenodd" clip-rule="evenodd" d="M69.7606 21.7491C69.7606 23.6558 68.1926 24.9243 66.2914 24.9243C64.3902 24.9243 62.8183 23.6558 62.8183 21.7491V19.0084C62.8183 17.1017 64.3863 15.8332 66.2914 15.8332C68.1965 15.8332 69.7606 17.1017 69.7606 19.0084V21.7491ZM66.2914 12.3917C62.2538 12.3917 58.9492 15.2772 58.9492 19.306V21.5063C58.9492 25.5351 62.2538 28.401 66.2914 28.401C70.329 28.401 73.6296 25.5351 73.6296 21.5063V19.306C73.6296 15.2772 70.329 12.3917 66.2914 12.3917Z" fill="white"/>
<path fill-rule="evenodd" clip-rule="evenodd" d="M87.2323 21.749C87.2323 23.6558 85.6643 24.9243 83.7631 24.9243C81.8619 24.9243 80.2899 23.6558 80.2899 21.749V19.0084C80.2899 17.1017 81.8579 15.8332 83.7631 15.8332C85.6682 15.8332 87.2323 17.1017 87.2323 19.0084V21.749ZM83.7631 12.3917C82.5541 12.3813 81.3589 12.6493 80.2703 13.1747V8.52736C80.2703 8.38648 80.2426 8.24698 80.1886 8.11683C80.1346 7.98667 80.0555 7.86841 79.9557 7.7688C79.856 7.66918 79.7376 7.59016 79.6073 7.53625C79.477 7.48234 79.3373 7.45459 79.1963 7.45459H76.4209V21.5063C76.4209 25.5351 79.7255 28.401 83.7631 28.401C87.8007 28.401 91.1013 25.5155 91.1013 21.5063V19.3059C91.1013 15.2772 87.8007 12.3917 83.7631 12.3917Z" fill="#4A7ABD"/>
<path fill-rule="evenodd" clip-rule="evenodd" d="M12.6109 8.92279C12.6109 4.76091 10.5803 1.17849 9.03587 0.0117562C9.03587 0.0117562 8.91435 -0.0548017 8.92611 0.113553C8.80067 8.15541 4.68467 10.3323 2.42283 13.2687C-2.79861 20.042 2.05827 27.4692 7.00139 28.8434C9.76499 29.6264 6.36243 27.4809 5.92339 22.9706C5.39027 17.5637 12.6109 13.4175 12.6109 8.92279Z" fill="white"/>
<path fill-rule="evenodd" clip-rule="evenodd" d="M14.9825 11.6596C14.9511 11.6596 14.908 11.6243 14.8767 11.6596C14.7904 12.6736 13.7555 14.8387 12.4423 16.8238C7.98922 23.5697 10.5294 26.8193 11.9563 28.5694C12.7834 29.5834 11.9563 28.5694 14.026 27.5319C15.2857 26.7689 16.3465 25.7186 17.1212 24.467C17.896 23.2154 18.3627 21.7983 18.4831 20.3318C18.6158 18.7139 18.3685 17.0873 17.7607 15.5818C17.153 14.0762 16.2017 12.7331 14.9825 11.6596Z" fill="#4A7ABD"/>
</g>
<defs>
<clipPath id="clip0_2025_31049">
<rect width="98" height="29" fill="white" transform="translate(0.172852)"/>
</clipPath>
</defs>
</svg>
