<svg width="169" height="29" viewBox="0 0 169 29" fill="none" xmlns="http://www.w3.org/2000/svg">
<g clip-path="url(#clip0_2025_31041)">
<path d="M16.3068 0.661621C14.1876 0.661621 12.0893 1.11227 10.1315 1.98784C8.17379 2.86341 6.395 4.14674 4.89677 5.76453C3.39854 7.38232 2.21021 9.30288 1.39967 11.4165C0.589134 13.5301 0.17226 15.7954 0.172852 18.083V25.5507C0.172852 26.2114 0.41595 26.8449 0.848675 27.312C1.2814 27.7792 1.8683 28.0416 2.48027 28.0416C3.09224 28.0416 3.67914 27.7792 4.11186 27.312C4.54459 26.8449 4.78769 26.2114 4.78769 25.5507V18.083C4.78769 17.4237 5.03032 16.7914 5.4622 16.3252C5.89408 15.859 6.47983 15.597 7.0906 15.597C7.70137 15.597 8.28713 15.859 8.71901 16.3252C9.15089 16.7914 9.39352 17.4237 9.39352 18.083V25.5507C9.41977 26.1917 9.67412 26.797 10.1035 27.2405C10.533 27.684 11.1044 27.9315 11.6987 27.9315C12.293 27.9315 12.8644 27.684 13.2938 27.2405C13.7233 26.797 13.9776 26.1917 14.0038 25.5507V18.083C13.9901 17.747 14.0395 17.4114 14.1491 17.0966C14.2588 16.7817 14.4264 16.4941 14.6418 16.251C14.8572 16.008 15.116 15.8145 15.4025 15.6824C15.689 15.5502 15.9974 15.4821 16.309 15.4821C16.6206 15.4821 16.929 15.5502 17.2155 15.6824C17.5021 15.8145 17.7609 16.008 17.9763 16.251C18.1917 16.4941 18.3593 16.7817 18.4689 17.0966C18.5785 17.4114 18.628 17.747 18.6142 18.083V25.5507C18.6142 26.2101 18.8568 26.8424 19.2887 27.3086C19.7206 27.7748 20.3063 28.0367 20.9171 28.0367C21.5279 28.0367 22.1136 27.7748 22.5455 27.3086C22.9774 26.8424 23.22 26.2101 23.22 25.5507V18.083C23.22 17.4224 23.4631 16.7889 23.8958 16.3217C24.3286 15.8546 24.9155 15.5922 25.5274 15.5922C26.1394 15.5922 26.7263 15.8546 27.159 16.3217C27.5917 16.7889 27.8348 17.4224 27.8348 18.083V25.5507C27.8348 26.2101 28.0775 26.8424 28.5094 27.3086C28.9412 27.7748 29.527 28.0367 30.1378 28.0367C30.7485 28.0367 31.3343 27.7748 31.7662 27.3086C32.198 26.8424 32.4407 26.2101 32.4407 25.5507V18.083C32.4413 15.7954 32.0244 13.5301 31.2138 11.4165C30.4033 9.30288 29.215 7.38232 27.7168 5.76453C26.2185 4.14674 24.4397 2.86341 22.482 1.98784C20.5242 1.11227 18.4259 0.661621 16.3068 0.661621Z" fill="white"/>
<path d="M36.064 0.666504H40.1605V12.2889L51.0847 0.666504H56.5288L46.7854 10.8391L57.0741 28.027H51.63L43.6577 14.1035L40.1605 17.7571V28.0319H36.064V0.666504Z" fill="white"/>
<path d="M59.2915 0.666448H63.3475V5.39032C63.678 4.46922 64.4907 3.35028 65.7856 2.0335C66.9751 0.758487 68.5845 0.0446858 70.2608 0.0486C70.3374 0.0486 70.4726 0.0485988 70.6619 0.0777885C70.8511 0.106978 71.1711 0.126438 71.6308 0.179952V5.04491C71.4002 4.99465 71.1669 4.96053 70.9323 4.94274C70.7204 4.94274 70.4816 4.91842 70.2382 4.91842C68.087 4.91842 66.4346 5.66276 65.2809 7.15143C64.1456 8.58426 63.5307 10.4132 63.5503 12.2986V28.0416H59.2915V0.666448Z" fill="white"/>
<path d="M87.4988 11.4667C88.4767 11.3353 89.1347 10.8926 89.4637 10.1434C89.6796 9.58339 89.7766 8.9783 89.7476 8.37254C89.7476 6.80116 89.2338 5.66276 88.2018 4.96707C87.1698 4.27138 85.6961 3.90651 83.7717 3.90651C81.5484 3.90651 79.9741 4.55517 79.0487 5.85249C78.4532 6.80509 78.1032 7.91163 78.0347 9.0585H74.0553C74.1365 5.68222 75.149 3.32921 77.0928 1.99945C79.1247 0.655349 81.4703 -0.0333702 83.8529 0.0145476C86.8363 0.0145476 89.2549 0.627533 91.1086 1.8535C92.9624 3.07947 93.8847 4.98816 93.8757 7.57956V23.342C93.858 23.7459 93.9538 24.1461 94.1506 24.4901C94.3249 24.782 94.7079 24.928 95.2998 24.928C95.4891 24.928 95.7009 24.928 95.9398 24.8891C96.1786 24.8501 96.431 24.8258 96.6969 24.7723V28.1778C96.2015 28.3395 95.6973 28.4679 95.1872 28.5621C94.7144 28.6197 94.2388 28.6457 93.763 28.6399C92.2984 28.6399 91.2303 28.0756 90.5678 26.9518C90.1679 26.1708 89.9195 25.31 89.8377 24.422C88.8275 25.7742 87.5493 26.8648 86.0972 27.6134C84.4344 28.5277 82.5912 28.9934 80.7252 28.9708C78.3772 28.9708 76.4529 28.2021 74.9657 26.6599C74.2339 25.9235 73.6548 25.0282 73.2664 24.0329C72.878 23.0377 72.6892 21.9649 72.7123 20.8852C72.7123 18.3489 73.4454 16.3835 74.9116 14.9889C76.5501 13.5189 78.563 12.6198 80.6847 12.4105L87.4988 11.4667ZM78.5305 23.8918C79.441 24.6609 80.5698 25.0665 81.7257 25.0399C83.2395 25.0358 84.7316 24.651 86.0837 23.9161C88.4452 22.6739 89.6274 20.642 89.6304 17.8203V14.1181C89.0065 14.5249 88.3287 14.8268 87.6204 15.0132C86.8295 15.2346 86.0254 15.3972 85.2139 15.4997L82.6406 15.8548C81.4317 15.9699 80.2526 16.3227 79.1614 16.8959C78.528 17.2631 78.0052 17.8183 77.6546 18.4958C77.3041 19.1734 77.1404 19.9451 77.183 20.7198C77.1553 21.3264 77.2634 21.9313 77.4979 22.4834C77.7324 23.0355 78.0866 23.5185 78.5305 23.8918Z" fill="white"/>
<path d="M103.579 0.666504V12.2889L114.503 0.666504H119.943L110.217 10.8391L120.506 28.027H115.044L107.063 14.1035L103.565 17.7571V28.0319H99.4688V0.666504H103.579Z" fill="white"/>
<path d="M137.866 1.41565C139.413 2.20471 140.736 3.42786 141.696 4.95734C142.572 6.41959 143.15 8.06638 143.391 9.78824C143.695 11.7798 143.822 13.7983 143.769 15.8159H125.333C125.414 18.5987 126.015 20.8317 127.135 22.515C128.262 24.1934 130.011 25.0399 132.372 25.0399C133.362 25.0847 134.349 24.894 135.264 24.4812C136.178 24.0684 136.997 23.4437 137.663 22.6512C138.401 21.723 138.935 20.6272 139.227 19.4452H143.418C143.249 20.6293 142.875 21.7683 142.314 22.802C141.772 23.9241 141.069 24.947 140.232 25.8329C138.91 27.2166 137.255 28.1723 135.455 28.5913C134.322 28.8775 133.161 29.0147 131.998 29C130.501 29.0238 129.017 28.7049 127.643 28.0642C126.268 27.4235 125.036 26.4757 124.026 25.2831C121.847 22.802 120.758 19.3317 120.758 14.8721C120.758 10.4807 121.856 6.91305 124.053 4.16922C126.249 1.42538 129.12 0.0534668 132.665 0.0534668C134.474 0.0577423 136.256 0.524551 137.866 1.41565ZM139.389 12.1623C139.303 10.4986 138.894 8.87281 138.19 7.38982C137.036 5.17789 135.105 4.0703 132.395 4.06706C131.477 4.04707 130.567 4.241 129.725 4.63561C128.884 5.03022 128.131 5.61621 127.518 6.35358C126.18 7.94435 125.435 10.0137 125.427 12.1623H139.389Z" fill="white"/>
<path d="M151.557 0.666471V4.55844C152.576 3.11888 153.878 1.94092 155.369 1.10918C156.766 0.395479 158.295 0.036037 159.84 0.058352C163.445 0.058352 165.876 1.41405 167.132 4.12545C167.826 5.6044 168.173 7.72552 168.173 10.4888V28.0416H163.846V10.7856C163.898 9.40098 163.662 8.02144 163.157 6.74767C162.4 5.05142 161.028 4.20167 159.042 4.19843C158.202 4.1729 157.364 4.28443 156.554 4.52925C155.347 4.93574 154.278 5.71757 153.481 6.77686C152.82 7.57699 152.345 8.53608 152.097 9.57421C151.853 10.9328 151.747 12.3162 151.782 13.6997V28.0318H147.519V0.666471H151.557Z" fill="white"/>
</g>
<defs>
<clipPath id="clip0_2025_31041">
<rect width="168" height="29" fill="white" transform="translate(0.172852)"/>
</clipPath>
</defs>
</svg>
