<svg width="122" height="31" viewBox="0 0 122 31" fill="none" xmlns="http://www.w3.org/2000/svg">
<g clip-path="url(#clip0_2025_31103)">
<path d="M94.49 15.4856C94.49 14.7749 94.49 14.1038 94.467 13.4852C94.4517 12.901 94.3953 12.3186 94.2982 11.7427C94.2094 11.2173 94.0502 10.7071 93.8252 10.2267C93.5872 9.73074 93.2709 9.2789 92.8893 8.88954C92.3456 8.31745 91.6996 7.85895 90.9868 7.53927C90.2144 7.21873 89.3878 7.05947 88.5551 7.07075C87.7199 7.06072 86.891 7.21992 86.1156 7.53927C85.3978 7.85424 84.7471 8.31122 84.2004 8.88427C83.8186 9.27133 83.5038 9.72264 83.2696 10.2188C83.0468 10.6987 82.8894 11.208 82.8017 11.7322C82.7071 12.3074 82.6533 12.8889 82.6406 13.472C82.6252 14.0932 82.6184 14.7609 82.6201 15.4751C82.6201 16.1884 82.6201 16.8517 82.6406 17.4755C82.6533 18.0595 82.7071 18.6419 82.8017 19.2179C82.8887 19.7432 83.0462 20.2534 83.2696 20.734C83.5047 21.2304 83.8194 21.6824 84.2004 22.0711C84.7455 22.6449 85.3967 23.1004 86.1156 23.4109C87.682 24.039 89.4204 24.039 90.9868 23.4109C91.7001 23.0969 92.3465 22.6417 92.8893 22.0711C93.2709 21.6818 93.5872 21.2299 93.8252 20.734C94.0502 20.2536 94.2094 19.7434 94.2982 19.2179C94.3944 18.6438 94.45 18.0632 94.4644 17.4807C94.4823 16.8569 94.4926 16.191 94.4874 15.4803L94.49 15.4856ZM91.3525 15.4856C91.3525 16.2752 91.3397 16.9324 91.3141 17.4571C91.2992 17.8867 91.2574 18.3148 91.1888 18.7389C91.1396 19.0215 91.0536 19.2959 90.9331 19.5549C90.8361 19.7636 90.7104 19.9569 90.5598 20.1287C90.3255 20.403 90.0357 20.6213 89.7108 20.7683C89.3448 20.9296 88.9506 21.012 88.5525 21.0104C88.152 21.011 87.7555 20.9286 87.3865 20.7683C87.0533 20.6244 86.7554 20.4059 86.5145 20.1287C86.3617 19.9587 86.2357 19.765 86.1412 19.5549C86.0265 19.2952 85.9465 19.0207 85.9034 18.7389C85.8369 18.3146 85.7959 17.8865 85.7807 17.4571C85.7576 16.9306 85.7449 16.2779 85.7449 15.4856C85.7449 14.6933 85.7576 14.0379 85.7807 13.5168C85.7958 13.0873 85.8368 12.6592 85.9034 12.235C85.9463 11.9523 86.0263 11.6769 86.1412 11.4164C86.2358 11.207 86.3617 11.0142 86.5145 10.8452C86.7546 10.5664 87.0526 10.3469 87.3865 10.203C87.7549 10.0409 88.1519 9.95936 88.5525 9.96344C88.9507 9.95836 89.3454 10.04 89.7108 10.203C90.036 10.3506 90.3258 10.5698 90.5598 10.8452C90.7104 11.016 90.8361 11.2084 90.9331 11.4164C91.054 11.676 91.14 11.9514 91.1888 12.235C91.2575 12.659 91.2994 13.0872 91.3141 13.5168C91.3423 14.0379 91.3525 14.696 91.3525 15.4856Z" fill="white"/>
<path d="M119.493 7.49972C119.492 7.42475 119.462 7.35323 119.411 7.30021C119.359 7.24719 119.29 7.21681 119.217 7.21545H116.629C116.556 7.21614 116.486 7.24631 116.434 7.29947C116.383 7.35264 116.354 7.42454 116.353 7.49972V17.3438L110.039 7.29442C109.999 7.22861 109.96 7.21545 109.868 7.21545H107.467C107.394 7.21681 107.325 7.24719 107.273 7.30021C107.222 7.35323 107.192 7.42475 107.191 7.49972V23.4714C107.192 23.5461 107.222 23.6173 107.273 23.6699C107.325 23.7225 107.394 23.7523 107.467 23.753H110.055C110.127 23.7523 110.196 23.7224 110.248 23.6698C110.299 23.6171 110.328 23.5459 110.328 23.4714V13.6036L116.642 23.674C116.685 23.7398 116.721 23.753 116.816 23.753H119.214C119.287 23.7523 119.356 23.7225 119.408 23.6699C119.459 23.6173 119.489 23.5461 119.49 23.4714L119.493 7.49972Z" fill="white"/>
<path d="M102.141 7.49972C102.14 7.42475 102.11 7.35323 102.059 7.30021C102.007 7.24719 101.938 7.21681 101.865 7.21545H99.2796C99.2065 7.21614 99.1367 7.24631 99.085 7.29947C99.0334 7.35264 99.0041 7.42454 99.0034 7.49972V23.4714C99.0034 23.5086 99.0106 23.5454 99.0245 23.5798C99.0384 23.6141 99.0588 23.6453 99.0845 23.6715C99.1101 23.6976 99.1406 23.7183 99.1741 23.7323C99.2076 23.7463 99.2434 23.7534 99.2796 23.753H101.865C101.937 23.7523 102.007 23.7225 102.058 23.6699C102.11 23.6173 102.14 23.5461 102.141 23.4714V7.49972Z" fill="white"/>
<path d="M71.1798 15.4856C71.1798 14.696 71.1799 14.0301 71.2105 13.5037C71.2267 13.0741 71.2685 12.646 71.3358 12.2218C71.4371 11.6915 71.6851 11.2026 72.05 10.814C72.415 10.4253 72.8813 10.1536 73.3928 10.0315C73.9043 9.90943 74.4392 9.94214 74.933 10.1257C75.4269 10.3093 75.8587 10.636 76.1763 11.0663C76.4068 11.4243 76.5755 11.8205 76.675 12.2376C76.6787 12.2586 76.69 12.2773 76.7066 12.29C76.7232 12.3026 76.7439 12.3084 76.7645 12.306H79.8074C79.8508 12.306 79.8687 12.2771 79.8611 12.2324C79.5286 10.2925 78.5237 8.54739 76.7466 7.68933C75.8745 7.2738 74.9227 7.06597 73.9619 7.08131C73.158 7.06229 72.3588 7.21318 71.6138 7.52466C70.8687 7.83613 70.1937 8.30156 69.6303 8.8922C68.9605 9.56533 68.5026 10.4301 68.3159 11.3743C68.1061 12.7336 68.0153 14.1096 68.0449 15.4856C68.0127 16.8617 68.1034 18.238 68.3159 19.597C68.4995 20.542 68.9558 21.408 69.6252 22.0817C70.1885 22.6723 70.8636 23.1378 71.6087 23.4493C72.3537 23.7607 73.1529 23.9116 73.9568 23.8926C74.9185 23.9083 75.8712 23.7005 76.744 23.2846C78.5186 22.4239 79.5235 20.6814 79.856 18.7416C79.856 18.6968 79.8559 18.6679 79.8048 18.6679H76.7593C76.7489 18.6664 76.7383 18.6671 76.7282 18.6698C76.718 18.6726 76.7085 18.6775 76.7001 18.6841C76.6918 18.6907 76.6848 18.699 76.6796 18.7084C76.6744 18.7178 76.6711 18.7282 76.6698 18.7389C76.5704 19.1544 76.4017 19.5489 76.1712 19.905C75.8537 20.3353 75.4222 20.662 74.9285 20.8457C74.4348 21.0295 73.9 21.0624 73.3886 20.9406C72.8772 20.8188 72.4108 20.5474 72.0457 20.1591C71.6806 19.7709 71.4323 19.2822 71.3307 18.7521C71.2643 18.3278 71.2233 17.8997 71.208 17.4703C71.1901 16.9412 71.1798 16.2779 71.1798 15.4856Z" fill="white"/>
<path d="M39.0197 7.49975C39.0188 7.42822 38.9921 7.3596 38.9449 7.30711C38.8977 7.25462 38.8332 7.22198 38.764 7.21548H36.1661C36.093 7.21617 36.0232 7.24634 35.9715 7.2995C35.9199 7.35266 35.8906 7.42457 35.8899 7.49975V23.4714C35.8912 23.5461 35.9208 23.6174 35.9724 23.67C36.024 23.7226 36.0935 23.7524 36.1661 23.753H38.764C38.833 23.7472 38.8974 23.7151 38.9447 23.663C38.9919 23.611 39.0187 23.5426 39.0197 23.4714V18.7836L41.0935 16.2278L45.3587 23.6688C45.3744 23.6959 45.397 23.718 45.424 23.7328C45.4511 23.7477 45.4815 23.7547 45.5121 23.753H48.6547C48.8005 23.753 48.8261 23.6609 48.7545 23.5346L43.1724 13.7958L48.2865 7.47869C48.3914 7.34972 48.3479 7.21548 48.1842 7.21548H44.7629C44.7424 7.21411 44.7218 7.21795 44.7031 7.22667C44.6844 7.2354 44.668 7.24873 44.6555 7.26549L39.03 14.2143L39.0197 7.49975Z" fill="white"/>
<path d="M57.868 21.013C56.413 21.013 55.0936 19.6259 55.0936 17.9703V7.49972C55.0923 7.42475 55.0627 7.35323 55.0112 7.30021C54.9597 7.24719 54.8902 7.21681 54.8174 7.21545H52.2322C52.1592 7.21614 52.0893 7.24631 52.0377 7.29947C51.986 7.35264 51.9567 7.42454 51.9561 7.49972V17.9308C51.9561 21.5763 54.6052 23.8925 57.868 23.8925C61.1308 23.8925 63.7799 21.5763 63.7799 17.9308V7.49972C63.7786 7.42475 63.7491 7.35323 63.6976 7.30021C63.6461 7.24719 63.5766 7.21681 63.5037 7.21545H60.916C60.8434 7.21682 60.7742 7.24729 60.7231 7.30038C60.672 7.35347 60.643 7.42499 60.6424 7.49972V17.9703C60.6424 19.6285 59.3229 21.013 57.868 21.013Z" fill="white"/>
<path fill-rule="evenodd" clip-rule="evenodd" d="M9.89492 15.4856L17.9241 23.753L22.9896 18.5362C23.4304 18.1576 23.9927 17.9623 24.5662 17.9885C25.1397 18.0148 25.683 18.2607 26.0894 18.678C26.4958 19.0954 26.736 19.654 26.7628 20.2443C26.7897 20.8346 26.6013 21.4138 26.2345 21.8685L19.5478 28.7541C19.117 29.1929 18.5353 29.439 17.9292 29.439C17.3231 29.439 16.7414 29.1929 16.3106 28.7541L6.65512 18.8178V24.7243C6.60444 25.3141 6.34099 25.863 5.91668 26.2629C5.49237 26.6627 4.93797 26.8845 4.36272 26.8845C3.78746 26.8845 3.23306 26.6627 2.80875 26.2629C2.38445 25.863 2.121 25.3141 2.07031 24.7243V6.24161C2.121 5.65178 2.38445 5.10287 2.80875 4.70303C3.23306 4.30319 3.78746 4.08143 4.36272 4.08143C4.93797 4.08143 5.49237 4.30319 5.91668 4.70303C6.34099 5.10287 6.60444 5.65178 6.65512 6.24161V12.1454L16.3029 2.21448C16.7338 1.77567 17.3154 1.52954 17.9215 1.52954C18.5276 1.52954 19.1093 1.77567 19.5401 2.21448L26.2345 9.10009C26.5934 9.55496 26.7757 10.1306 26.7463 10.7158C26.7169 11.3009 26.4778 11.8541 26.0753 12.2685C25.6728 12.6828 25.1354 12.9289 24.5669 12.9591C23.9984 12.9894 23.4392 12.8017 22.9973 12.4323L17.9266 7.2155L9.89492 15.4856ZM17.9266 13.1167C17.3939 13.1156 16.8773 13.3048 16.465 13.652C16.0526 13.9991 15.7701 14.4828 15.6655 15.0205C15.5609 15.5582 15.6408 16.1166 15.8915 16.6004C16.1422 17.0843 16.5482 17.4636 17.0402 17.6737C17.5323 17.8838 18.08 17.9117 18.5898 17.7526C19.0996 17.5935 19.54 17.2573 19.8358 16.8013C20.1317 16.3453 20.2647 15.7977 20.2122 15.252C20.1597 14.7063 19.9249 14.1963 19.5478 13.8089C19.1175 13.3668 18.5346 13.1179 17.9266 13.1167Z" fill="white"/>
</g>
<defs>
<clipPath id="clip0_2025_31103">
<rect width="121" height="30" fill="white" transform="translate(0.172852 0.5)"/>
</clipPath>
</defs>
</svg>
