<svg width="99" height="29" viewBox="0 0 99 29" fill="none" xmlns="http://www.w3.org/2000/svg">
<g clip-path="url(#clip0_2025_31090)">
<path d="M24.7899 14.4092V29.0001L12.5077 21.7582V7.33119C12.2767 7.44733 12.1509 7.50093 12.0339 7.56941C10.1819 8.6533 8.3376 9.73918 6.50112 10.827C4.43655 12.0499 2.37295 13.2777 0.310328 14.5105H0.213825C0.213825 10.8479 0.206026 7.18628 0.19043 3.52567C0.19043 2.38818 0.19043 1.25069 0.19043 0.0119629L1.14669 0.56284L11.9959 6.94111C12.1625 7.08328 12.3653 7.17418 12.5808 7.20315C12.7153 7.42946 12.9551 7.50092 13.1657 7.62301C15.4193 8.95306 17.6769 10.2811 19.9384 11.6072C21.5468 12.5392 23.1698 13.4713 24.7899 14.4092Z" fill="#5FC4B4"/>
<path d="M0.199263 14.4955H0.295766C0.512166 14.823 0.880632 14.9034 1.19646 15.091C3.93363 16.7169 6.68834 18.307 9.41966 19.9447C10.4169 20.5403 11.4813 21.0375 12.3937 21.782L2.25799 27.7761L0.295766 28.9255C0.132004 28.8749 0.178795 28.7558 0.178795 28.6664C0.178795 24.0212 0.178795 19.377 0.178795 14.7337C0.178795 14.6593 0.193414 14.5789 0.199263 14.4955Z" fill="#032B38"/>
<path d="M24.7899 14.4092C23.1698 13.4712 21.5468 12.5392 19.9296 11.5952C17.6701 10.2731 15.4125 8.94508 13.1569 7.61106C12.9522 7.48897 12.7124 7.41751 12.572 7.1912L24.6992 0.0446777C24.7489 0.0982767 24.7928 0.125076 24.7928 0.151876C24.7967 4.90431 24.7957 9.65675 24.7899 14.4092Z" fill="#032B38"/>
<path d="M12.3936 21.791C11.4724 21.0465 10.4168 20.5522 9.42541 19.9537C6.69409 18.316 3.93937 16.7259 1.20221 15.1C0.895152 14.9184 0.517914 14.838 0.301514 14.5045C2.36219 13.2797 4.42871 12.0538 6.50108 10.827C8.34341 9.73717 10.1887 8.6513 12.0368 7.5694C12.1538 7.50091 12.2796 7.44731 12.5106 7.33118V21.7582C12.4946 21.7721 12.4759 21.7822 12.4557 21.7878C12.4354 21.7935 12.4143 21.7946 12.3936 21.791Z" fill="#154556"/>
<path d="M32.7527 10.3624H36.294C38.2592 10.3624 39.1336 11.8007 39.1336 13.2419C39.1336 14.6831 38.2563 16.1064 36.294 16.1064H34.5921V19.1407H32.7527V10.3624ZM34.5921 12.0061V14.4776H36.2063C36.9198 14.4776 37.2942 13.8017 37.2942 13.2419C37.2942 12.6821 36.9579 12.0061 36.256 12.0061H34.5921Z" fill="white"/>
<path d="M45.0554 10.2612C45.9318 10.2506 46.7916 10.5054 47.5255 10.9934C48.2594 11.4813 48.8343 12.1804 49.1772 13.0017C49.5201 13.8231 49.6155 14.7296 49.4514 15.6063C49.2873 16.483 48.8709 17.2903 48.2553 17.9256C47.6397 18.5608 46.8525 18.9954 45.9938 19.1742C45.1351 19.353 44.2435 19.2679 43.4324 18.9297C42.6213 18.5914 41.9272 18.0154 41.4383 17.2747C40.9494 16.5339 40.6877 15.6619 40.6865 14.7694C40.6811 14.1809 40.79 13.5971 41.0069 13.0515C41.2238 12.5059 41.5445 12.0094 41.9505 11.5904C42.3565 11.1715 42.8398 10.8384 43.3727 10.6103C43.9055 10.3821 44.4774 10.2635 45.0554 10.2612ZM45.0554 17.4077C45.5742 17.4213 46.0852 17.2771 46.5231 16.9933C46.961 16.7096 47.3057 16.2994 47.5134 15.815C47.721 15.3307 47.782 14.7943 47.6886 14.2745C47.5952 13.7546 47.3516 13.275 46.989 12.8969C46.6265 12.5187 46.1614 12.2594 45.6532 12.1519C45.1451 12.0444 44.617 12.0937 44.1365 12.2935C43.6561 12.4932 43.245 12.8344 42.956 13.2734C42.667 13.7123 42.5132 14.2291 42.5142 14.7575C42.5076 15.1027 42.5683 15.4458 42.6928 15.7669C42.8172 16.0881 43.003 16.3809 43.2393 16.6285C43.4756 16.876 43.7578 17.0734 44.0696 17.2092C44.3813 17.345 44.7164 17.4165 45.0554 17.4196V17.4077Z" fill="white"/>
<path d="M51.7112 10.3624H53.5506V17.509H56.7673V19.1407H51.7112V10.3624Z" fill="white"/>
<path d="M62.5225 10.2612C63.399 10.25 64.259 10.5043 64.9933 10.9919C65.7276 11.4795 66.3029 12.1784 66.6463 12.9996C66.9896 13.8209 67.0855 14.7276 66.9217 15.6045C66.7579 16.4814 66.3418 17.2889 65.7263 17.9245C65.1108 18.56 64.3236 18.995 63.4648 19.174C62.606 19.353 61.7144 19.2681 60.9031 18.93C60.0918 18.5918 59.3975 18.0158 58.9085 17.275C58.4194 16.5342 58.1577 15.6621 58.1564 14.7695C58.151 14.1812 58.2598 13.5976 58.4766 13.0522C58.6933 12.5068 59.0137 12.0104 59.4194 11.5915C59.8251 11.1726 60.3081 10.8395 60.8406 10.6112C61.3731 10.3829 61.9447 10.2639 62.5225 10.2612ZM62.5225 17.4077C63.0413 17.4214 63.5523 17.2771 63.9901 16.9934C64.428 16.7097 64.7728 16.2994 64.9804 15.8151C65.188 15.3307 65.249 14.7943 65.1556 14.2745C65.0622 13.7547 64.8187 13.275 64.4561 12.8969C64.0935 12.5188 63.6284 12.2594 63.1203 12.1519C62.6121 12.0444 62.0841 12.0937 61.6036 12.2935C61.1231 12.4933 60.7121 12.8345 60.4231 13.2734C60.1341 13.7124 59.9802 14.2291 59.9812 14.7576C59.975 15.1027 60.036 15.4456 60.1606 15.7665C60.2852 16.0875 60.471 16.3802 60.7072 16.6276C60.9435 16.8751 61.2255 17.0725 61.5371 17.2085C61.8486 17.3444 62.1835 17.4162 62.5225 17.4197V17.4077Z" fill="white"/>
<path d="M75.6498 19.1407H74.0092L71.0059 13.8285V19.1407H69.1812V10.3624H70.8568L73.8104 15.6121V10.3624H75.6498V19.1407Z" fill="white"/>
<path d="M80.2525 10.3624V19.1407H78.4395V10.3624H80.2525Z" fill="white"/>
<path d="M83.0308 10.3624H88.4875V12.0061H84.8731V14.0042H88.0518V15.6241H84.8731V17.497H88.6133V19.1407H83.0571L83.0308 10.3624Z" fill="white"/>
<path d="M95.1812 14.4627L98.1728 19.1407H96.0059L94.0934 15.9546L92.1838 19.1407H90.0315L93.0114 14.4627L90.2947 10.3624H92.4967L94.0992 12.9858L95.7135 10.3624H97.9008L95.1812 14.4627Z" fill="white"/>
</g>
<defs>
<clipPath id="clip0_2025_31090">
<rect width="98" height="29" fill="white" transform="translate(0.172852)"/>
</clipPath>
</defs>
</svg>
