<svg width="50" height="50" viewBox="0 0 50 50" fill="none" xmlns="http://www.w3.org/2000/svg">
<rect width="50" height="50" rx="25" fill="#996DFF" fill-opacity="0.1"/>
<path d="M24.103 30.54C24.0809 29.555 23.6741 28.6178 22.9697 27.929C22.2652 27.2402 21.3192 26.8546 20.334 26.8546C19.3488 26.8546 18.4027 27.2402 17.6983 27.929C16.9938 28.6178 16.587 29.555 16.5649 30.54" stroke="white" stroke-opacity="0.9" stroke-miterlimit="10"/>
<path d="M20.3347 24.6811C21.4768 24.6811 22.4028 23.7552 22.4028 22.613C22.4028 21.4708 21.4768 20.5449 20.3347 20.5449C19.1925 20.5449 18.2666 21.4708 18.2666 22.613C18.2666 23.7552 19.1925 24.6811 20.3347 24.6811Z" stroke="white" stroke-opacity="0.9" stroke-miterlimit="10"/>
<path d="M32.7964 17.0881H35.8207C36.2736 17.0881 36.7079 17.268 37.0282 17.5882C37.3484 17.9084 37.5283 18.3428 37.5283 18.7957V31.2117C37.5283 31.6646 37.3484 32.0989 37.0282 32.4192C36.7079 32.7394 36.2736 32.9193 35.8207 32.9193H32.7964" stroke="url(#paint0_linear_1932_33202)" stroke-miterlimit="10"/>
<path d="M28.2637 17.0881H31.288C31.7409 17.0881 32.1752 17.268 32.4954 17.5882C32.8157 17.9084 32.9956 18.3428 32.9956 18.7957V31.2117C32.9956 31.6646 32.8157 32.0989 32.4954 32.4192C32.1752 32.7394 31.7409 32.9193 31.288 32.9193H28.2637" stroke="url(#paint1_linear_1932_33202)" stroke-miterlimit="10"/>
<path d="M26.1939 16.7513H14.1269C13.0906 16.7513 12.2505 17.5914 12.2505 18.6277V30.6947C12.2505 31.731 13.0906 32.5711 14.1269 32.5711H26.1939C27.2302 32.5711 28.0703 31.731 28.0703 30.6947V18.6277C28.0703 17.5914 27.2302 16.7513 26.1939 16.7513Z" stroke="url(#paint2_linear_1932_33202)" stroke-miterlimit="10"/>
<defs>
<linearGradient id="paint0_linear_1932_33202" x1="32.3172" y1="27.025" x2="38.7353" y2="27.025" gradientUnits="userSpaceOnUse">
<stop stop-color="#190042" stop-opacity="0"/>
<stop offset="0.468657" stop-color="#7142DC" stop-opacity="0.39"/>
<stop offset="1" stop-color="#3585E1"/>
</linearGradient>
<linearGradient id="paint1_linear_1932_33202" x1="27.7845" y1="27.025" x2="34.2026" y2="27.025" gradientUnits="userSpaceOnUse">
<stop stop-color="#190042" stop-opacity="0"/>
<stop offset="0.468657" stop-color="#7142DC" stop-opacity="0.39"/>
<stop offset="1" stop-color="#3585E1"/>
</linearGradient>
<linearGradient id="paint2_linear_1932_33202" x1="11.5864" y1="24.6612" x2="28.7325" y2="24.6612" gradientUnits="userSpaceOnUse">
<stop stop-color="#66C1DE"/>
<stop offset="1" stop-color="#6B8CF5"/>
</linearGradient>
</defs>
</svg>
