<svg width="150" height="150" viewBox="0 0 150 150" fill="none" xmlns="http://www.w3.org/2000/svg">
<path d="M57 123.156C57 128.866 52.843 133.5 47.7195 133.5H25.7805C20.657 133.5 16.5 128.866 16.5 123.156V41.8443C16.5 36.1335 20.657 31.5 25.7805 31.5H47.7195" stroke="url(#paint0_linear_1932_33039)" stroke-width="3" stroke-miterlimit="10"/>
<path d="M103.78 31.5H125.72C130.843 31.5 135 36.133 135 41.8433V123.157C135 128.867 130.843 133.5 125.72 133.5H103.78C98.657 133.5 94.5 128.867 94.5 123.157" stroke="url(#paint1_linear_1932_33039)" stroke-width="3" stroke-miterlimit="10"/>
<path d="M91.0355 29.0879L74.2168 45.9067L63.6221 35.3225" stroke="white" stroke-miterlimit="10"/>
<path d="M58.8501 67.5385H92.7194" stroke="white" stroke-miterlimit="10"/>
<path d="M58.8501 81.3874H81.2506" stroke="white" stroke-miterlimit="10"/>
<path d="M25.2026 67.5385H51.584" stroke="url(#paint2_linear_1932_33039)" stroke-miterlimit="10"/>
<path d="M25.2026 81.3874H49.4251" stroke="url(#paint3_linear_1932_33039)" stroke-miterlimit="10"/>
<path d="M25.2026 110.77H49.4251" stroke="url(#paint4_linear_1932_33039)" stroke-miterlimit="10"/>
<path d="M126.304 67.5385H100.481" stroke="url(#paint5_linear_1932_33039)" stroke-miterlimit="10"/>
<path d="M126.304 81.3874H102.598" stroke="url(#paint6_linear_1932_33039)" stroke-miterlimit="10"/>
<path d="M126.304 110.77H102.598" stroke="url(#paint7_linear_1932_33039)" stroke-miterlimit="10"/>
<path d="M63.9365 103.851H87.6429" stroke="white" stroke-miterlimit="10"/>
<path d="M47.9922 26.7185L47.9922 112.982C47.9922 118.734 52.6554 123.398 58.4078 123.398H93.2249C98.9773 123.398 103.641 118.734 103.641 112.982V26.7185C103.641 20.966 98.9773 16.3028 93.2249 16.3028H58.4078C52.6554 16.3028 47.9922 20.966 47.9922 26.7185Z" stroke="white" stroke-miterlimit="10"/>
<defs>
<linearGradient id="paint0_linear_1932_33039" x1="71.2351" y1="105.783" x2="-2.15904" y2="67.7708" gradientUnits="userSpaceOnUse">
<stop offset="0.1" stop-color="#66C1DE" stop-opacity="0"/>
<stop offset="0.64" stop-color="#66C1DE"/>
<stop offset="1" stop-color="#6B8CF5"/>
</linearGradient>
<linearGradient id="paint1_linear_1932_33039" x1="85.8952" y1="124.725" x2="154.938" y2="50.8928" gradientUnits="userSpaceOnUse">
<stop offset="0.1" stop-color="#66C1DE" stop-opacity="0"/>
<stop offset="0.64" stop-color="#66C1DE"/>
<stop offset="1" stop-color="#6B8CF5"/>
</linearGradient>
<linearGradient id="paint2_linear_1932_33039" x1="nan" y1="nan" x2="nan" y2="nan" gradientUnits="userSpaceOnUse">
<stop stop-color="#6B8CF5"/>
<stop offset="0.45" stop-color="#66C1DE"/>
<stop offset="0.63" stop-color="#66C1DE" stop-opacity="0.65"/>
<stop offset="0.89" stop-color="#66C1DE" stop-opacity="0.19"/>
<stop offset="1" stop-color="#66C1DE" stop-opacity="0"/>
</linearGradient>
<linearGradient id="paint3_linear_1932_33039" x1="nan" y1="nan" x2="nan" y2="nan" gradientUnits="userSpaceOnUse">
<stop stop-color="#6B8CF5"/>
<stop offset="0.45" stop-color="#66C1DE"/>
<stop offset="0.63" stop-color="#66C1DE" stop-opacity="0.65"/>
<stop offset="0.89" stop-color="#66C1DE" stop-opacity="0.19"/>
<stop offset="1" stop-color="#66C1DE" stop-opacity="0"/>
</linearGradient>
<linearGradient id="paint4_linear_1932_33039" x1="nan" y1="nan" x2="nan" y2="nan" gradientUnits="userSpaceOnUse">
<stop stop-color="#6B8CF5"/>
<stop offset="0.45" stop-color="#66C1DE"/>
<stop offset="0.63" stop-color="#66C1DE" stop-opacity="0.65"/>
<stop offset="0.89" stop-color="#66C1DE" stop-opacity="0.19"/>
<stop offset="1" stop-color="#66C1DE" stop-opacity="0"/>
</linearGradient>
<linearGradient id="paint5_linear_1932_33039" x1="nan" y1="nan" x2="nan" y2="nan" gradientUnits="userSpaceOnUse">
<stop stop-color="#6B8CF5"/>
<stop offset="0.45" stop-color="#66C1DE"/>
<stop offset="0.63" stop-color="#66C1DE" stop-opacity="0.65"/>
<stop offset="0.89" stop-color="#66C1DE" stop-opacity="0.19"/>
<stop offset="1" stop-color="#66C1DE" stop-opacity="0"/>
</linearGradient>
<linearGradient id="paint6_linear_1932_33039" x1="nan" y1="nan" x2="nan" y2="nan" gradientUnits="userSpaceOnUse">
<stop stop-color="#6B8CF5"/>
<stop offset="0.45" stop-color="#66C1DE"/>
<stop offset="0.63" stop-color="#66C1DE" stop-opacity="0.65"/>
<stop offset="0.89" stop-color="#66C1DE" stop-opacity="0.19"/>
<stop offset="1" stop-color="#66C1DE" stop-opacity="0"/>
</linearGradient>
<linearGradient id="paint7_linear_1932_33039" x1="nan" y1="nan" x2="nan" y2="nan" gradientUnits="userSpaceOnUse">
<stop stop-color="#6B8CF5"/>
<stop offset="0.45" stop-color="#66C1DE"/>
<stop offset="0.63" stop-color="#66C1DE" stop-opacity="0.65"/>
<stop offset="0.89" stop-color="#66C1DE" stop-opacity="0.19"/>
<stop offset="1" stop-color="#66C1DE" stop-opacity="0"/>
</linearGradient>
</defs>
</svg>
